<?xml version="1.0" encoding="UTF-8" standalone="no"?><svg xmlns="http://www.w3.org/2000/svg" xmlns:xlink="http://www.w3.org/1999/xlink" contentScriptType="application/ecmascript" contentStyleType="text/css" height="358px" preserveAspectRatio="none" style="width:883px;height:358px;background:#FFFFFF;" version="1.1" viewBox="0 0 883 358" width="883px" zoomAndPan="magnify"><defs><filter height="300%" id="f167qzwelkq5bd" width="300%" x="-1" y="-1"><feGaussianBlur result="blurOut" stdDeviation="2.0"/><feColorMatrix in="blurOut" result="blurOut2" type="matrix" values="0 0 0 0 0 0 0 0 0 0 0 0 0 0 0 0 0 0 .4 0"/><feOffset dx="4.0" dy="4.0" in="blurOut2" result="blurOut3"/><feBlend in="SourceGraphic" in2="blurOut3" mode="normal"/></filter></defs><g><!--MD5=[ffafba2be4b8a9370c09b984f87b0382]
cluster TripleStore--><path d="M436.5,243 C436.5,233 527,233 527,233 C527,233 617.5,233 617.5,243 L617.5,335 C617.5,345 527,345 527,345 C527,345 436.5,345 436.5,335 L436.5,243 " fill="#FFFFFF" filter="url(#f167qzwelkq5bd)" style="stroke:#000000;stroke-width:1.5;"/><path d="M436.5,243 C436.5,253 527,253 527,253 C527,253 617.5,253 617.5,243 " fill="none" style="stroke:#000000;stroke-width:1.5;"/><text fill="#000000" font-family="sans-serif" font-size="14" font-weight="bold" lengthAdjust="spacing" textLength="91" x="481.5" y="267.9951">TripleStore</text><!--MD5=[eee915dfdcad4763fd44c32b029dfc7b]
cluster InfluxDB--><path d="M641.5,243 C641.5,233 759,233 759,233 C759,233 876.5,233 876.5,243 L876.5,335 C876.5,345 759,345 759,345 C759,345 641.5,345 641.5,335 L641.5,243 " fill="#FFFFFF" filter="url(#f167qzwelkq5bd)" style="stroke:#000000;stroke-width:1.5;"/><path d="M641.5,243 C641.5,253 759,253 759,253 C759,253 876.5,253 876.5,243 " fill="none" style="stroke:#000000;stroke-width:1.5;"/><text fill="#000000" font-family="sans-serif" font-size="14" font-weight="bold" lengthAdjust="spacing" textLength="68" x="725" y="267.9951">InfluxDB</text><path d="M445.3511,139.5909 C449.481,132.1752 457.7969,131.5476 462.0327,139.4758 C465.9264,131.5555 471.6775,132.301 476.3633,138.6821 C479.813,131.4489 486.483,130.1481 490.7929,137.8511 C494.9258,130.0724 500.3253,126.7993 507.3134,134.876 C512.2163,129.0851 516.4383,129.8853 520.749,135.5694 C525.8871,125.9661 531.4893,126.9208 538.2846,133.8071 C541.6702,125.5224 546.6071,125.7567 552.2223,131.6089 C558.192,124.8536 563.1558,123.9593 568.0606,132.6975 C573.4556,126.5552 580.5214,127.25 583.4249,135.3797 C589.3429,129.1293 593.8779,130.2438 598.4978,136.896 C602.969,129.9647 609.1625,131.3767 613.0005,137.5945 C617.5132,130.9064 622.8176,130.2322 627.4836,137.4348 C633.1767,130.6213 639.6088,130.6558 643.6777,139.1527 C647.6539,131.8069 654.4449,133.614 658.0006,139.6042 C668.1698,141.7055 670.4588,147.9892 664.9578,156.5312 C673.9602,158.0585 675.339,165.2434 670.6109,171.8407 C675.6672,178.0803 673.4398,185.3815 665.5819,187.4643 C669.8634,194.9229 668.504,201.7081 658.5696,202.5655 C654.4313,209.4192 646.8857,210.7374 642.3718,202.9819 C636.7127,209.6212 632.1326,209.789 627.3854,202.0326 C623.3615,207.3081 618.2515,207.2589 614.3701,201.8588 C610.8591,210.6497 603.5484,210.7868 598.5385,203.3183 C594.2033,210.5486 588.8415,210.7711 583.4796,204.4601 C578.3743,211.0301 572.1751,212.9028 567.0867,204.4417 C562.5258,210.8702 557.1079,212.6057 551.9469,205.0935 C547.6452,211.7963 541.7236,212.3325 537.4933,205.0199 C532.4999,211.8514 524.6001,212.2297 520.9506,203.5835 C516.0385,210.3584 510.7567,210.161 506.9175,202.5378 C503.4417,209.3006 497.2454,211.4794 492.1244,204.281 C485.8902,211.7979 480.6503,210.4135 476.123,202.5098 C471.7569,209.5692 465.8528,209.6577 460.958,203.0986 C456.9819,211.3067 449.5308,209.6692 445.5136,203.1417 C436.0826,200.4103 435.4787,193.9915 441.4893,187.33 C433.2063,183.8599 432.6569,176.601 438.5313,170.6241 C431.5473,164.7699 431.3332,158.3988 440.6282,154.6864 C434.5389,147.2417 436.376,142.3224 445.3511,139.5909 " fill="#FFFFFF" filter="url(#f167qzwelkq5bd)" style="stroke:#000000;stroke-width:1.5;"/><!--MD5=[d0ca6a8c86e2f47755ea83eddfa6ae50]
cluster Process Historian--><polygon fill="#FFFFFF" filter="url(#f167qzwelkq5bd)" points="21.5,6,170.5,6,177.5,28.2969,412.5,28.2969,412.5,351,21.5,351,21.5,6" style="stroke:#000000;stroke-width:1.5;"/><line style="stroke:#000000;stroke-width:1.5;" x1="21.5" x2="177.5" y1="28.2969" y2="28.2969"/><text fill="#000000" font-family="sans-serif" font-size="14" font-weight="bold" lengthAdjust="spacing" textLength="143" x="25.5" y="20.9951">Process Historian</text><!--MD5=[34c03d534faab791d8af77818b55f59b]
entity TS--><ellipse cx="461.5" cy="306" fill="#FEFECE" filter="url(#f167qzwelkq5bd)" rx="8" ry="8" style="stroke:#A80036;stroke-width:1.5;"/><text fill="#000000" font-family="sans-serif" font-size="14" lengthAdjust="spacing" textLength="82" x="420.5" y="335.9951">TripleStore</text><!--MD5=[576aa32e5c747a881bc4f7c39d22502f]
entity Group 2--><rect fill="#FEFECE" filter="url(#f167qzwelkq5bd)" height="46.2969" style="stroke:#A80036;stroke-width:1.5;" width="96" x="505.5" y="283"/><rect fill="#FEFECE" height="10" style="stroke:#A80036;stroke-width:1.5;" width="15" x="581.5" y="288"/><rect fill="#FEFECE" height="2" style="stroke:#A80036;stroke-width:1.5;" width="4" x="579.5" y="290"/><rect fill="#FEFECE" height="2" style="stroke:#A80036;stroke-width:1.5;" width="4" x="579.5" y="294"/><text fill="#000000" font-family="sans-serif" font-size="14" lengthAdjust="spacing" textLength="56" x="520.5" y="315.9951">Group 2</text><!--MD5=[0b2727990a395ea2c6d1bd35a097b3f6]
entity IDB--><ellipse cx="666.5" cy="306" fill="#FEFECE" filter="url(#f167qzwelkq5bd)" rx="8" ry="8" style="stroke:#A80036;stroke-width:1.5;"/><text fill="#000000" font-family="sans-serif" font-size="14" lengthAdjust="spacing" textLength="58" x="637.5" y="335.9951">InfluxQL</text><!--MD5=[c89827578d05d62de7f4ec11ce4e9420]
entity InfluxDB server--><rect fill="#FEFECE" filter="url(#f167qzwelkq5bd)" height="46.2969" style="stroke:#A80036;stroke-width:1.5;" width="149" x="711" y="283"/><rect fill="#FEFECE" height="10" style="stroke:#A80036;stroke-width:1.5;" width="15" x="840" y="288"/><rect fill="#FEFECE" height="2" style="stroke:#A80036;stroke-width:1.5;" width="4" x="838" y="290"/><rect fill="#FEFECE" height="2" style="stroke:#A80036;stroke-width:1.5;" width="4" x="838" y="294"/><text fill="#000000" font-family="sans-serif" font-size="14" lengthAdjust="spacing" textLength="109" x="726" y="315.9951">InfluxDB server</text><!--MD5=[b6523e305bdedd9177d9177574705f6b]
entity OPCUA--><ellipse cx="461.5" cy="170" fill="#FEFECE" filter="url(#f167qzwelkq5bd)" rx="8" ry="8" style="stroke:#A80036;stroke-width:1.5;"/><text fill="#000000" font-family="sans-serif" font-size="14" lengthAdjust="spacing" textLength="53" x="435" y="199.9951">OPC UA</text><!--MD5=[95dfaa905fc7a957cc417e262c4040fe]
entity OPC UA Server--><rect fill="#FEFECE" filter="url(#f167qzwelkq5bd)" height="46.2969" style="stroke:#A80036;stroke-width:1.5;" width="144" x="505.5" y="147"/><rect fill="#FEFECE" height="10" style="stroke:#A80036;stroke-width:1.5;" width="15" x="629.5" y="152"/><rect fill="#FEFECE" height="2" style="stroke:#A80036;stroke-width:1.5;" width="4" x="627.5" y="154"/><rect fill="#FEFECE" height="2" style="stroke:#A80036;stroke-width:1.5;" width="4" x="627.5" y="158"/><text fill="#000000" font-family="sans-serif" font-size="14" lengthAdjust="spacing" textLength="104" x="520.5" y="179.9951">OPC UA Server</text><!--MD5=[65406f0755e731e6ef3f3644b3e2a13a]
entity OPC_Config--><ellipse cx="46.5" cy="170" fill="#FEFECE" filter="url(#f167qzwelkq5bd)" rx="8" ry="8" style="stroke:#A80036;stroke-width:1.5;"/><text fill="#000000" font-family="sans-serif" font-size="14" lengthAdjust="spacing" textLength="81" x="6" y="199.9951">OPC Config</text><!--MD5=[f106d8558407a5af335d456a3ed1b98c]
entity Config Builder--><rect fill="#FEFECE" filter="url(#f167qzwelkq5bd)" height="46.2969" style="stroke:#A80036;stroke-width:1.5;" width="141" x="91" y="147"/><rect fill="#FEFECE" height="10" style="stroke:#A80036;stroke-width:1.5;" width="15" x="212" y="152"/><rect fill="#FEFECE" height="2" style="stroke:#A80036;stroke-width:1.5;" width="4" x="210" y="154"/><rect fill="#FEFECE" height="2" style="stroke:#A80036;stroke-width:1.5;" width="4" x="210" y="158"/><text fill="#000000" font-family="sans-serif" font-size="14" lengthAdjust="spacing" textLength="101" x="106" y="179.9951">Config Builder</text><!--MD5=[7b283ce894c5928581d5380ce71c9d62]
entity PC--><ellipse cx="246.5" cy="306" fill="#FEFECE" filter="url(#f167qzwelkq5bd)" rx="8" ry="8" style="stroke:#A80036;stroke-width:1.5;"/><text fill="#000000" font-family="sans-serif" font-size="14" lengthAdjust="spacing" textLength="112" x="190.5" y="335.9951">Program Config</text><!--MD5=[c5343ef186eaf24b1afd3e7283ea9dc6]
entity OPC Client--><rect fill="#FEFECE" filter="url(#f167qzwelkq5bd)" height="46.2969" style="stroke:#A80036;stroke-width:1.5;" width="117" x="273" y="41"/><rect fill="#FEFECE" height="10" style="stroke:#A80036;stroke-width:1.5;" width="15" x="370" y="46"/><rect fill="#FEFECE" height="2" style="stroke:#A80036;stroke-width:1.5;" width="4" x="368" y="48"/><rect fill="#FEFECE" height="2" style="stroke:#A80036;stroke-width:1.5;" width="4" x="368" y="52"/><text fill="#000000" font-family="sans-serif" font-size="14" lengthAdjust="spacing" textLength="77" x="288" y="73.9951">OPC Client</text><!--MD5=[d0a921e89f2930c69fb51102e56c0c6d]
entity Cloud Buffer--><rect fill="#FEFECE" filter="url(#f167qzwelkq5bd)" height="46.2969" style="stroke:#A80036;stroke-width:1.5;" width="129" x="267" y="147"/><rect fill="#FEFECE" height="10" style="stroke:#A80036;stroke-width:1.5;" width="15" x="376" y="152"/><rect fill="#FEFECE" height="2" style="stroke:#A80036;stroke-width:1.5;" width="4" x="374" y="154"/><rect fill="#FEFECE" height="2" style="stroke:#A80036;stroke-width:1.5;" width="4" x="374" y="158"/><text fill="#000000" font-family="sans-serif" font-size="14" lengthAdjust="spacing" textLength="89" x="282" y="179.9951">Cloud Buffer</text><!--MD5=[81e01bf3c174254e9831f23e2489b881]
link TS to Group 2--><path d="M470.844,306 C482.36,306 493.876,306 505.391,306 " fill="none" id="TS-Group 2" style="stroke:#A80036;stroke-width:1.0;"/><!--MD5=[fef3b17da569f35fb37f2806464d116d]
link IDB to InfluxDB server--><path d="M675.797,306 C687.51,306 699.223,306 710.936,306 " fill="none" id="IDB-InfluxDB server" style="stroke:#A80036;stroke-width:1.0;"/><!--MD5=[9522b69cf88270582b33296a66ab40fd]
link OPCUA to OPC UA Server--><path d="M470.562,170 C482.12,170 493.677,170 505.234,170 " fill="none" id="OPCUA-OPC UA Server" style="stroke:#A80036;stroke-width:1.0;"/><!--MD5=[888dfece5c5ec9665d00a167829ade4c]
link OPC_Config to Config Builder--><path d="M55.9336,170 C67.6174,170 79.3012,170 90.9849,170 " fill="none" id="OPC_Config-Config Builder" style="stroke:#A80036;stroke-width:1.0;"/><!--MD5=[8f06b67f85487f39b6c8c57b9a297257]
link Config Builder to TS--><path d="M195.185,193.001 C211.01,202.16 230.535,211.846 249.5,217 C266.998,221.755 396.902,215.753 412.5,225 C437.728,239.956 451.709,273.4537 457.783,292.0087 " fill="none" id="Config Builder-to-TS" style="stroke:#A80036;stroke-width:1.0;"/><polygon fill="#A80036" points="459.29,296.8181,460.4169,287.0339,457.7954,292.0467,452.7827,289.4252,459.29,296.8181" style="stroke:#A80036;stroke-width:1.0;"/><!--MD5=[534184a3c102584e7ddebba40a28e2de]
link Config Builder to PC--><path d="M175.536,193.127 C193.497,221.442 224.01,269.5454 238.458,292.3221 " fill="none" id="Config Builder-to-PC" style="stroke:#A80036;stroke-width:1.0;"/><polygon fill="#A80036" points="241.287,296.7818,239.8428,287.0394,238.6083,292.5599,233.0878,291.3254,241.287,296.7818" style="stroke:#A80036;stroke-width:1.0;"/><!--MD5=[877b73424767fa06c8a100d65e087d51]
link OPC Client to OPCUA--><path d="M364.554,87.187 C379.534,97.615 397.263,110.485 412.5,123 C425.873,133.984 440.197,147.68 449.882,157.26 " fill="none" id="OPC Client-to-OPCUA" style="stroke:#A80036;stroke-width:1.0;"/><polygon fill="#A80036" points="453.48,160.841,449.9222,151.6572,449.9359,157.314,444.2791,157.3278,453.48,160.841" style="stroke:#A80036;stroke-width:1.0;"/><!--MD5=[d172ffa3f0f32d6a087fb3e137462f36]
link OPC Client to OPC_Config--><path d="M272.778,65.189 C216.633,68.162 132.087,80.231 73.5,123 C62.3161,131.164 54.9855,145.485 50.8225,155.985 " fill="none" id="OPC Client-to-OPC_Config" style="stroke:#A80036;stroke-width:1.0;"/><polygon fill="#A80036" points="49.0302,160.789,55.923,153.7542,50.7774,156.1042,48.4274,150.9586,49.0302,160.789" style="stroke:#A80036;stroke-width:1.0;"/><!--MD5=[82aa2d8306fd69ffbd92779b962026d4]
link Cloud Buffer to IDB--><path d="M372.182,193.014 C391.163,202.176 414.402,211.86 436.5,217 C456.107,221.561 600.159,214.776 617.5,225 C642.764,239.895 656.731,273.4173 662.793,291.9925 " fill="none" id="Cloud Buffer-to-IDB" style="stroke:#A80036;stroke-width:1.0;"/><polygon fill="#A80036" points="664.296,296.8074,665.4323,287.0243,662.806,292.0346,657.7957,289.4083,664.296,296.8074" style="stroke:#A80036;stroke-width:1.0;"/><!--MD5=[3bfb1b2238d9edfb6af29071e4f4259c]
link Cloud Buffer to PC--><path d="M317.464,193.127 C299.503,221.442 268.99,269.5454 254.542,292.3221 " fill="none" id="Cloud Buffer-to-PC" style="stroke:#A80036;stroke-width:1.0;"/><polygon fill="#A80036" points="251.713,296.7818,259.9122,291.3254,254.3917,292.5599,253.1572,287.0394,251.713,296.7818" style="stroke:#A80036;stroke-width:1.0;"/><!--MD5=[fafaf852cfae63b26f53310f7313addb]
link OPC Client to Cloud Buffer--><path d="M331.5,87.056 C331.5,103.05 331.5,124.778 331.5,141.842 " fill="none" id="OPC Client-to-Cloud Buffer" style="stroke:#A80036;stroke-width:1.0;"/><polygon fill="#A80036" points="331.5,146.976,335.5,137.976,331.5,141.976,327.5,137.976,331.5,146.976" style="stroke:#A80036;stroke-width:1.0;"/><!--MD5=[acd1cd4ff181354b741bfd963a9910bc]
@startuml
database "TripleStore" {
  () "TripleStore" as TS
  TS - [Group 2]
}
database "InfluxDB" {
  () "InfluxQL" as IDB
  IDB - [InfluxDB server]
}

cloud {
  () "OPC UA" as OPCUA
  OPCUA - [OPC UA Server]
}

package "Process Historian" {
  () "OPC Config" as OPC_Config
  OPC_Config - [Config Builder]
  () "Program Config" as PC
  [Config Builder] - -> TS
  [Config Builder] - -> PC
  [OPC Client] - -> OPCUA
  [OPC Client] - -> OPC_Config
  [Cloud Buffer] - -> IDB
  [Cloud Buffer] - -> PC
  [OPC Client] - -> [Cloud Buffer]
}
@enduml

PlantUML version 1.2021.6beta6(Unknown compile time)
(GPL source distribution)
Java Runtime: Java(TM) SE Runtime Environment
JVM: Java HotSpot(TM) 64-Bit Server VM
Default Encoding: UTF-8
Language: en
Country: US
--></g></svg>