<?xml version="1.0" encoding="UTF-8" standalone="no"?><svg xmlns="http://www.w3.org/2000/svg" xmlns:xlink="http://www.w3.org/1999/xlink" contentScriptType="application/ecmascript" contentStyleType="text/css" height="358px" preserveAspectRatio="none" style="width:867px;height:358px;" version="1.1" viewBox="0 0 867 358" width="867px" zoomAndPan="magnify"><defs><filter height="300%" id="fkatqsv51spsc" width="300%" x="-1" y="-1"><feGaussianBlur result="blurOut" stdDeviation="2.0"/><feColorMatrix in="blurOut" result="blurOut2" type="matrix" values="0 0 0 0 0 0 0 0 0 0 0 0 0 0 0 0 0 0 .4 0"/><feOffset dx="4.0" dy="4.0" in="blurOut2" result="blurOut3"/><feBlend in="SourceGraphic" in2="blurOut3" mode="normal"/></filter></defs><g><!--MD5=[ffafba2be4b8a9370c09b984f87b0382]
cluster TripleStore--><path d="M426,243 C426,233 516.5,233 516.5,233 C516.5,233 607,233 607,243 L607,335 C607,345 516.5,345 516.5,345 C516.5,345 426,345 426,335 L426,243 " fill="#FFFFFF" filter="url(#fkatqsv51spsc)" style="stroke:#000000;stroke-width:1.5;"/><path d="M426,243 C426,253 516.5,253 516.5,253 C516.5,253 607,253 607,243 " fill="none" style="stroke:#000000;stroke-width:1.5;"/><text fill="#000000" font-family="sans-serif" font-size="14" font-weight="bold" lengthAdjust="spacing" textLength="88" x="472.5" y="267.9951">TripleStore</text><!--MD5=[eee915dfdcad4763fd44c32b029dfc7b]
cluster InfluxDB--><path d="M631,243 C631,233 745.5,233 745.5,233 C745.5,233 860,233 860,243 L860,335 C860,345 745.5,345 745.5,345 C745.5,345 631,345 631,335 L631,243 " fill="#FFFFFF" filter="url(#fkatqsv51spsc)" style="stroke:#000000;stroke-width:1.5;"/><path d="M631,243 C631,253 745.5,253 745.5,253 C745.5,253 860,253 860,243 " fill="none" style="stroke:#000000;stroke-width:1.5;"/><text fill="#000000" font-family="sans-serif" font-size="14" font-weight="bold" lengthAdjust="spacing" textLength="64" x="713.5" y="267.9951">InfluxDB</text><path d="M435.8058,139.9847 C439.7185,132.9518 444.9846,131.5966 450.134,138.7341 C454.869,131.526 462.2028,130.044 466.5463,139.1285 C470.0451,133.0289 475.2626,131.9119 479.6034,138.2442 C482.5662,129.941 490.5894,127.2654 496.2012,135.6018 C501.1476,128.5392 506.6813,128.4941 510.7738,136.4313 C514.8519,128.7543 520.596,126.2848 526.8105,134.2395 C529.2886,128.3328 535.2121,127.0012 539.611,131.9812 C545.7134,124.9074 553.9451,125.2632 556.5809,135.3994 C561.9981,128.1136 566.5837,129.7334 570.8469,136.5655 C574.1439,130.4039 581.2731,128.0871 585.5202,135.5417 C591.2262,128.8262 598.2418,129.5831 602.5647,137.1879 C607.2312,130.7341 612.3228,129.5185 616.986,137.1913 C623.0684,130.3479 627.7312,130.112 632.1325,138.8278 C636.5711,131.882 642.4231,132.4937 646.3179,139.3852 C654.1781,145.1069 655.897,150.2807 646.9454,156.6146 C655.4803,161.251 653.8973,166.5769 647.8043,172.0284 C655.542,175.9761 655.8848,182.5345 648.1695,186.8626 C654.5834,192.1174 652.5396,199.6535 645.2558,202.3274 C641.1803,207.5822 635.777,208.3945 632.099,201.883 C628.6411,208.8048 623.0938,211.3336 617.2076,204.5147 C611.0387,210.5109 606.0724,210.3969 601.1456,203.0226 C598.1864,210.6188 591.5512,212.4987 586.3674,205.235 C580.6382,211.1868 575.7691,210.5499 571.6422,203.43 C567.4073,211.9402 562.1073,211.2624 556.4591,204.8699 C551.8422,213.3699 543.8755,212.5999 540.0356,204.1184 C536.848,210.1443 531.0831,210.7371 526.9452,205.1938 C522.1637,211.7602 516.8609,212.7118 512.0944,205.178 C506.2739,213.359 498.4769,212.5423 494.8176,203.0636 C490.0173,209.435 485.5839,208.8977 481.654,202.1878 C478.0013,209.3254 471.9937,212.1347 466.2236,204.382 C460.2305,209.8746 454.8516,209.7163 451.4992,201.5378 C447.7006,210.4129 439.8819,208.3622 435.5488,202.101 C427.6387,199.933 424.0665,196.1696 429.528,188.2071 C421.5849,185.2029 418.6135,179.0094 425.0598,172.0306 C419.696,163.6069 419.7759,157.5761 430.9186,154.7481 C425.3621,147.8225 426.6365,142.0354 435.8058,139.9847 " fill="#FFFFFF" filter="url(#fkatqsv51spsc)" style="stroke:#000000;stroke-width:1.5;"/><!--MD5=[d0ca6a8c86e2f47755ea83eddfa6ae50]
cluster Process Historian--><polygon fill="#FFFFFF" filter="url(#fkatqsv51spsc)" points="20,6,165,6,172,28.2969,402,28.2969,402,351,20,351,20,6" style="stroke:#000000;stroke-width:1.5;"/><line style="stroke:#000000;stroke-width:1.5;" x1="20" x2="172" y1="28.2969" y2="28.2969"/><text fill="#000000" font-family="sans-serif" font-size="14" font-weight="bold" lengthAdjust="spacing" textLength="139" x="24" y="20.9951">Process Historian</text><!--MD5=[34c03d534faab791d8af77818b55f59b]
entity TS--><ellipse cx="451" cy="306" fill="#FEFECE" filter="url(#fkatqsv51spsc)" rx="8" ry="8" style="stroke:#A80036;stroke-width:1.5;"/><text fill="#000000" font-family="sans-serif" font-size="14" lengthAdjust="spacing" textLength="75" x="413.5" y="335.9951">TripleStore</text><!--MD5=[576aa32e5c747a881bc4f7c39d22502f]
entity Group 2--><rect fill="#FEFECE" filter="url(#fkatqsv51spsc)" height="46.2969" style="stroke:#A80036;stroke-width:1.5;" width="96" x="495" y="283"/><rect fill="#FEFECE" height="10" style="stroke:#A80036;stroke-width:1.5;" width="15" x="571" y="288"/><rect fill="#FEFECE" height="2" style="stroke:#A80036;stroke-width:1.5;" width="4" x="569" y="290"/><rect fill="#FEFECE" height="2" style="stroke:#A80036;stroke-width:1.5;" width="4" x="569" y="294"/><text fill="#000000" font-family="sans-serif" font-size="14" lengthAdjust="spacing" textLength="56" x="510" y="315.9951">Group 2</text><!--MD5=[0b2727990a395ea2c6d1bd35a097b3f6]
entity IDB--><ellipse cx="656" cy="306" fill="#FEFECE" filter="url(#fkatqsv51spsc)" rx="8" ry="8" style="stroke:#A80036;stroke-width:1.5;"/><text fill="#000000" font-family="sans-serif" font-size="14" lengthAdjust="spacing" textLength="53" x="629.5" y="335.9951">InfluxQL</text><!--MD5=[c89827578d05d62de7f4ec11ce4e9420]
entity InfluxDB server--><rect fill="#FEFECE" filter="url(#fkatqsv51spsc)" height="46.2969" style="stroke:#A80036;stroke-width:1.5;" width="143" x="700.5" y="283"/><rect fill="#FEFECE" height="10" style="stroke:#A80036;stroke-width:1.5;" width="15" x="823.5" y="288"/><rect fill="#FEFECE" height="2" style="stroke:#A80036;stroke-width:1.5;" width="4" x="821.5" y="290"/><rect fill="#FEFECE" height="2" style="stroke:#A80036;stroke-width:1.5;" width="4" x="821.5" y="294"/><text fill="#000000" font-family="sans-serif" font-size="14" lengthAdjust="spacing" textLength="103" x="715.5" y="315.9951">InfluxDB server</text><!--MD5=[b6523e305bdedd9177d9177574705f6b]
entity OPCUA--><ellipse cx="451" cy="170" fill="#FEFECE" filter="url(#fkatqsv51spsc)" rx="8" ry="8" style="stroke:#A80036;stroke-width:1.5;"/><text fill="#000000" font-family="sans-serif" font-size="14" lengthAdjust="spacing" textLength="53" x="424.5" y="199.9951">OPC UA</text><!--MD5=[95dfaa905fc7a957cc417e262c4040fe]
entity OPC UA Server--><rect fill="#FEFECE" filter="url(#fkatqsv51spsc)" height="46.2969" style="stroke:#A80036;stroke-width:1.5;" width="141" x="495.5" y="147"/><rect fill="#FEFECE" height="10" style="stroke:#A80036;stroke-width:1.5;" width="15" x="616.5" y="152"/><rect fill="#FEFECE" height="2" style="stroke:#A80036;stroke-width:1.5;" width="4" x="614.5" y="154"/><rect fill="#FEFECE" height="2" style="stroke:#A80036;stroke-width:1.5;" width="4" x="614.5" y="158"/><text fill="#000000" font-family="sans-serif" font-size="14" lengthAdjust="spacing" textLength="101" x="510.5" y="179.9951">OPC UA Server</text><!--MD5=[65406f0755e731e6ef3f3644b3e2a13a]
entity OPC_Config--><ellipse cx="45" cy="170" fill="#FEFECE" filter="url(#fkatqsv51spsc)" rx="8" ry="8" style="stroke:#A80036;stroke-width:1.5;"/><text fill="#000000" font-family="sans-serif" font-size="14" lengthAdjust="spacing" textLength="78" x="6" y="199.9951">OPC Config</text><!--MD5=[f106d8558407a5af335d456a3ed1b98c]
entity Config Builder--><rect fill="#FEFECE" filter="url(#fkatqsv51spsc)" height="46.2969" style="stroke:#A80036;stroke-width:1.5;" width="136" x="89" y="147"/><rect fill="#FEFECE" height="10" style="stroke:#A80036;stroke-width:1.5;" width="15" x="205" y="152"/><rect fill="#FEFECE" height="2" style="stroke:#A80036;stroke-width:1.5;" width="4" x="203" y="154"/><rect fill="#FEFECE" height="2" style="stroke:#A80036;stroke-width:1.5;" width="4" x="203" y="158"/><text fill="#000000" font-family="sans-serif" font-size="14" lengthAdjust="spacing" textLength="96" x="104" y="179.9951">Config Builder</text><!--MD5=[7b283ce894c5928581d5380ce71c9d62]
entity PC--><ellipse cx="240" cy="306" fill="#FEFECE" filter="url(#fkatqsv51spsc)" rx="8" ry="8" style="stroke:#A80036;stroke-width:1.5;"/><text fill="#000000" font-family="sans-serif" font-size="14" lengthAdjust="spacing" textLength="106" x="187" y="335.9951">Program Config</text><!--MD5=[c5343ef186eaf24b1afd3e7283ea9dc6]
entity OPC Client--><rect fill="#FEFECE" filter="url(#fkatqsv51spsc)" height="46.2969" style="stroke:#A80036;stroke-width:1.5;" width="113" x="266.5" y="41"/><rect fill="#FEFECE" height="10" style="stroke:#A80036;stroke-width:1.5;" width="15" x="359.5" y="46"/><rect fill="#FEFECE" height="2" style="stroke:#A80036;stroke-width:1.5;" width="4" x="357.5" y="48"/><rect fill="#FEFECE" height="2" style="stroke:#A80036;stroke-width:1.5;" width="4" x="357.5" y="52"/><text fill="#000000" font-family="sans-serif" font-size="14" lengthAdjust="spacing" textLength="73" x="281.5" y="73.9951">OPC Client</text><!--MD5=[d0a921e89f2930c69fb51102e56c0c6d]
entity Cloud Buffer--><rect fill="#FEFECE" filter="url(#fkatqsv51spsc)" height="46.2969" style="stroke:#A80036;stroke-width:1.5;" width="125" x="260.5" y="147"/><rect fill="#FEFECE" height="10" style="stroke:#A80036;stroke-width:1.5;" width="15" x="365.5" y="152"/><rect fill="#FEFECE" height="2" style="stroke:#A80036;stroke-width:1.5;" width="4" x="363.5" y="154"/><rect fill="#FEFECE" height="2" style="stroke:#A80036;stroke-width:1.5;" width="4" x="363.5" y="158"/><text fill="#000000" font-family="sans-serif" font-size="14" lengthAdjust="spacing" textLength="85" x="275.5" y="179.9951">Cloud Buffer</text><!--MD5=[81e01bf3c174254e9831f23e2489b881]
link TS to Group 2--><path d="M460.34,306 C471.86,306 483.38,306 494.89,306 " fill="none" id="TS-Group 2" style="stroke:#A80036;stroke-width:1.0;"/><!--MD5=[fef3b17da569f35fb37f2806464d116d]
link IDB to InfluxDB server--><path d="M665.06,306 C676.76,306 688.46,306 700.15,306 " fill="none" id="IDB-InfluxDB server" style="stroke:#A80036;stroke-width:1.0;"/><!--MD5=[9522b69cf88270582b33296a66ab40fd]
link OPCUA to OPC UA Server--><path d="M460.43,170 C472.12,170 483.8,170 495.48,170 " fill="none" id="OPCUA-OPC UA Server" style="stroke:#A80036;stroke-width:1.0;"/><!--MD5=[888dfece5c5ec9665d00a167829ade4c]
link OPC_Config to Config Builder--><path d="M54.19,170 C65.7,170 77.21,170 88.73,170 " fill="none" id="OPC_Config-Config Builder" style="stroke:#A80036;stroke-width:1.0;"/><!--MD5=[8f06b67f85487f39b6c8c57b9a297257]
link Config Builder to TS--><path d="M190.27,193.23 C205.65,202.32 224.56,211.88 243,217 C260.04,221.73 386.79,215.97 402,225 C427.22,239.97 441.2,273.46 447.28,292.01 " fill="none" id="Config Builder-to-TS" style="stroke:#A80036;stroke-width:1.0;"/><polygon fill="#A80036" points="448.79,296.82,449.9335,287.0377,447.3035,292.0461,442.2952,289.4161,448.79,296.82" style="stroke:#A80036;stroke-width:1.0;"/><!--MD5=[534184a3c102584e7ddebba40a28e2de]
link Config Builder to PC--><path d="M170.71,193.13 C188.24,221.44 218.04,269.55 232.15,292.32 " fill="none" id="Config Builder-to-PC" style="stroke:#A80036;stroke-width:1.0;"/><polygon fill="#A80036" points="234.91,296.78,233.5705,287.0227,232.2767,292.5296,226.7698,291.2359,234.91,296.78" style="stroke:#A80036;stroke-width:1.0;"/><!--MD5=[877b73424767fa06c8a100d65e087d51]
link OPC Client to OPCUA--><path d="M354.8,87.02 C369.48,97.52 386.95,110.49 402,123 C415.31,134.06 429.64,147.75 439.35,157.3 " fill="none" id="OPC Client-to-OPCUA" style="stroke:#A80036;stroke-width:1.0;"/><polygon fill="#A80036" points="442.95,160.87,439.3588,151.6992,439.3931,157.356,433.7364,157.3902,442.95,160.87" style="stroke:#A80036;stroke-width:1.0;"/><!--MD5=[d172ffa3f0f32d6a087fb3e137462f36]
link OPC Client to OPC_Config--><path d="M266.26,65.29 C211.3,68.3 128.11,80.37 71,123 C60.01,131.21 52.99,145.52 49.05,156.01 " fill="none" id="OPC Client-to-OPC_Config" style="stroke:#A80036;stroke-width:1.0;"/><polygon fill="#A80036" points="47.36,160.8,54.1183,153.6358,49.0181,156.0829,46.571,150.9828,47.36,160.8" style="stroke:#A80036;stroke-width:1.0;"/><!--MD5=[82aa2d8306fd69ffbd92779b962026d4]
link Cloud Buffer to IDB--><path d="M362.86,193.02 C381.47,202.18 404.27,211.86 426,217 C445.59,221.63 589.66,214.78 607,225 C632.26,239.89 646.23,273.42 652.29,291.99 " fill="none" id="Cloud Buffer-to-IDB" style="stroke:#A80036;stroke-width:1.0;"/><polygon fill="#A80036" points="653.8,296.81,654.9168,287.0247,652.3005,292.0401,647.285,289.4239,653.8,296.81" style="stroke:#A80036;stroke-width:1.0;"/><!--MD5=[3bfb1b2238d9edfb6af29071e4f4259c]
link Cloud Buffer to PC--><path d="M309.29,193.13 C291.76,221.44 261.96,269.55 247.85,292.32 " fill="none" id="Cloud Buffer-to-PC" style="stroke:#A80036;stroke-width:1.0;"/><polygon fill="#A80036" points="245.09,296.78,253.2302,291.2359,247.7233,292.5296,246.4295,287.0227,245.09,296.78" style="stroke:#A80036;stroke-width:1.0;"/><!--MD5=[fafaf852cfae63b26f53310f7313addb]
link OPC Client to Cloud Buffer--><path d="M323,87.06 C323,103.05 323,124.78 323,141.84 " fill="none" id="OPC Client-to-Cloud Buffer" style="stroke:#A80036;stroke-width:1.0;"/><polygon fill="#A80036" points="323,146.98,327,137.98,323,141.98,319,137.98,323,146.98" style="stroke:#A80036;stroke-width:1.0;"/><!--MD5=[46137fd06c9e96ceadc21a6c31bed4c8]
@startuml "Components Diagram"

database "TripleStore" {
  () "TripleStore" as TS
  TS - [Group 2]
}
database "InfluxDB" {
  () "InfluxQL" as IDB
  IDB - [InfluxDB server]
}

cloud {
  () "OPC UA" as OPCUA
  OPCUA - [OPC UA Server]
}

package "Process Historian" {
  () "OPC Config" as OPC_Config
  OPC_Config - [Config Builder]
  () "Program Config" as PC
  [Config Builder] - -> TS
  [Config Builder] - -> PC
  [OPC Client] - -> OPCUA
  [OPC Client] - -> OPC_Config
  [Cloud Buffer] - -> IDB
  [Cloud Buffer] - -> PC
  [OPC Client] - -> [Cloud Buffer]
}

@enduml

PlantUML version 1.2021.5(Sun Apr 25 13:20:28 CEST 2021)
(GPL source distribution)
Java Runtime: OpenJDK Runtime Environment
JVM: OpenJDK 64-Bit Server VM
Default Encoding: UTF-8
Language: de
Country: DE
--></g></svg>