<?xml version="1.0" encoding="UTF-8" standalone="no"?><svg xmlns="http://www.w3.org/2000/svg" xmlns:xlink="http://www.w3.org/1999/xlink" contentScriptType="application/ecmascript" contentStyleType="text/css" height="367px" preserveAspectRatio="none" style="width:771px;height:367px;" version="1.1" viewBox="0 0 771 367" width="771px" zoomAndPan="magnify"><defs/><g><rect fill="#FEFECE" height="81.1875" rx="5" ry="5" style="stroke:#FEFECE;stroke-width:1.5;" width="116" x="10" y="160"/><text fill="#000000" font-family="sans-serif" font-size="14" lengthAdjust="spacing" textLength="31" x="15" y="174.9951">host</text><text fill="#000000" font-family="sans-serif" font-size="14" lengthAdjust="spacing" textLength="39" x="82" y="174.9951">string</text><line style="stroke:#A80036;stroke-width:1.0;" x1="77" x2="77" y1="160" y2="180.2969"/><line style="stroke:#A80036;stroke-width:1.0;" x1="10" x2="126" y1="180.2969" y2="180.2969"/><text fill="#000000" font-family="sans-serif" font-size="14" lengthAdjust="spacing" textLength="56" x="15" y="195.292">sensors</text><text fill="#000000" font-family="sans-serif" font-size="14" lengthAdjust="spacing" textLength="0" x="94" y="195.292"/><line style="stroke:#A80036;stroke-width:1.0;" x1="77" x2="77" y1="180.2969" y2="200.5938"/><line style="stroke:#A80036;stroke-width:1.0;" x1="10" x2="126" y1="200.5938" y2="200.5938"/><text fill="#000000" font-family="sans-serif" font-size="14" lengthAdjust="spacing" textLength="43" x="15" y="215.5889">aktors</text><text fill="#000000" font-family="sans-serif" font-size="14" lengthAdjust="spacing" textLength="0" x="94" y="215.5889"/><line style="stroke:#A80036;stroke-width:1.0;" x1="77" x2="77" y1="200.5938" y2="220.8906"/><line style="stroke:#A80036;stroke-width:1.0;" x1="10" x2="126" y1="220.8906" y2="220.8906"/><text fill="#000000" font-family="sans-serif" font-size="14" lengthAdjust="spacing" textLength="57" x="15" y="235.8857">services</text><text fill="#000000" font-family="sans-serif" font-size="14" lengthAdjust="spacing" textLength="0" x="94" y="235.8857"/><line style="stroke:#A80036;stroke-width:1.0;" x1="77" x2="77" y1="220.8906" y2="241.1875"/><rect fill="none" height="81.1875" rx="5" ry="5" style="stroke:#A80036;stroke-width:1.5;" width="116" x="10" y="160"/><rect fill="#FEFECE" height="20.2969" rx="5" ry="5" style="stroke:#FEFECE;stroke-width:1.5;" width="22" x="163" y="127.5"/><text fill="#000000" font-family="sans-serif" font-size="14" lengthAdjust="spacing" textLength="0" x="180" y="142.4951"/><rect fill="none" height="20.2969" rx="5" ry="5" style="stroke:#A80036;stroke-width:1.5;" width="22" x="163" y="127.5"/><rect fill="#FEFECE" height="81.1875" rx="5" ry="5" style="stroke:#FEFECE;stroke-width:1.5;" width="140" x="224" y="61"/><text fill="#000000" font-family="sans-serif" font-size="14" lengthAdjust="spacing" textLength="66" x="229" y="75.9951">attributes</text><text fill="#000000" font-family="sans-serif" font-size="14" lengthAdjust="spacing" textLength="0" x="332" y="75.9951"/><line style="stroke:#A80036;stroke-width:1.0;" x1="315" x2="315" y1="61" y2="81.2969"/><line style="stroke:#A80036;stroke-width:1.0;" x1="224" x2="364" y1="81.2969" y2="81.2969"/><text fill="#000000" font-family="sans-serif" font-size="14" lengthAdjust="spacing" textLength="12" x="229" y="96.292">id</text><text fill="#000000" font-family="sans-serif" font-size="14" lengthAdjust="spacing" textLength="39" x="320" y="96.292">string</text><line style="stroke:#A80036;stroke-width:1.0;" x1="315" x2="315" y1="81.2969" y2="101.5938"/><line style="stroke:#A80036;stroke-width:1.0;" x1="224" x2="364" y1="101.5938" y2="101.5938"/><text fill="#000000" font-family="sans-serif" font-size="14" lengthAdjust="spacing" textLength="81" x="229" y="116.5889">namespace</text><text fill="#000000" font-family="sans-serif" font-size="14" lengthAdjust="spacing" textLength="39" x="320" y="116.5889">string</text><line style="stroke:#A80036;stroke-width:1.0;" x1="315" x2="315" y1="101.5938" y2="121.8906"/><line style="stroke:#A80036;stroke-width:1.0;" x1="224" x2="364" y1="121.8906" y2="121.8906"/><text fill="#000000" font-family="sans-serif" font-size="14" lengthAdjust="spacing" textLength="48" x="229" y="136.8857">nodeId</text><text fill="#000000" font-family="sans-serif" font-size="14" lengthAdjust="spacing" textLength="39" x="320" y="136.8857">string</text><line style="stroke:#A80036;stroke-width:1.0;" x1="315" x2="315" y1="121.8906" y2="142.1875"/><rect fill="none" height="81.1875" rx="5" ry="5" style="stroke:#A80036;stroke-width:1.5;" width="140" x="224" y="61"/><rect fill="#FEFECE" height="20.2969" rx="5" ry="5" style="stroke:#FEFECE;stroke-width:1.5;" width="22" x="401" y="55.5"/><text fill="#000000" font-family="sans-serif" font-size="14" lengthAdjust="spacing" textLength="0" x="418" y="70.4951"/><rect fill="none" height="20.2969" rx="5" ry="5" style="stroke:#A80036;stroke-width:1.5;" width="22" x="401" y="55.5"/><rect fill="#FEFECE" height="101.4844" rx="5" ry="5" style="stroke:#FEFECE;stroke-width:1.5;" width="155" x="462" y="10"/><text fill="#000000" font-family="sans-serif" font-size="14" lengthAdjust="spacing" textLength="52" x="467" y="24.9951">intervall</text><text fill="#000000" font-family="sans-serif" font-size="14" lengthAdjust="spacing" textLength="54" x="558" y="24.9951">number</text><line style="stroke:#A80036;stroke-width:1.0;" x1="553" x2="553" y1="10" y2="30.2969"/><line style="stroke:#A80036;stroke-width:1.0;" x1="462" x2="617" y1="30.2969" y2="30.2969"/><text fill="#000000" font-family="sans-serif" font-size="14" lengthAdjust="spacing" textLength="40" x="467" y="45.292">mode</text><text fill="#000000" font-family="sans-serif" font-size="14" lengthAdjust="spacing" textLength="0" x="570" y="45.292"/><line style="stroke:#A80036;stroke-width:1.0;" x1="553" x2="553" y1="30.2969" y2="50.5938"/><line style="stroke:#A80036;stroke-width:1.0;" x1="462" x2="617" y1="50.5938" y2="50.5938"/><text fill="#000000" font-family="sans-serif" font-size="14" lengthAdjust="spacing" textLength="39" x="467" y="65.5889">name</text><text fill="#000000" font-family="sans-serif" font-size="14" lengthAdjust="spacing" textLength="39" x="558" y="65.5889">string</text><line style="stroke:#A80036;stroke-width:1.0;" x1="553" x2="553" y1="50.5938" y2="70.8906"/><line style="stroke:#A80036;stroke-width:1.0;" x1="462" x2="617" y1="70.8906" y2="70.8906"/><text fill="#000000" font-family="sans-serif" font-size="14" lengthAdjust="spacing" textLength="81" x="467" y="85.8857">namespace</text><text fill="#000000" font-family="sans-serif" font-size="14" lengthAdjust="spacing" textLength="39" x="558" y="85.8857">string</text><line style="stroke:#A80036;stroke-width:1.0;" x1="553" x2="553" y1="70.8906" y2="91.1875"/><line style="stroke:#A80036;stroke-width:1.0;" x1="462" x2="617" y1="91.1875" y2="91.1875"/><text fill="#000000" font-family="sans-serif" font-size="14" lengthAdjust="spacing" textLength="48" x="467" y="106.1826">nodeId</text><text fill="#000000" font-family="sans-serif" font-size="14" lengthAdjust="spacing" textLength="39" x="558" y="106.1826">string</text><line style="stroke:#A80036;stroke-width:1.0;" x1="553" x2="553" y1="91.1875" y2="111.4844"/><rect fill="none" height="101.4844" rx="5" ry="5" style="stroke:#A80036;stroke-width:1.5;" width="155" x="462" y="10"/><rect fill="#FEFECE" height="40.5938" rx="5" ry="5" style="stroke:#FEFECE;stroke-width:1.5;" width="105" x="654" y="19"/><text fill="#000000" font-family="sans-serif" font-size="14" lengthAdjust="spacing" textLength="34" x="659" y="33.9951">"poll"</text><line style="stroke:#A80036;stroke-width:1.0;" x1="654" x2="759" y1="39.2969" y2="39.2969"/><text fill="#000000" font-family="sans-serif" font-size="14" lengthAdjust="spacing" textLength="95" x="659" y="54.292">"subscription"</text><rect fill="none" height="40.5938" rx="5" ry="5" style="stroke:#A80036;stroke-width:1.5;" width="105" x="654" y="19"/><rect fill="#FEFECE" height="20.2969" rx="5" ry="5" style="stroke:#FEFECE;stroke-width:1.5;" width="22" x="163" y="200.5"/><text fill="#000000" font-family="sans-serif" font-size="14" lengthAdjust="spacing" textLength="0" x="180" y="215.4951"/><rect fill="none" height="20.2969" rx="5" ry="5" style="stroke:#A80036;stroke-width:1.5;" width="22" x="163" y="200.5"/><rect fill="#FEFECE" height="81.1875" rx="5" ry="5" style="stroke:#FEFECE;stroke-width:1.5;" width="140" x="224" y="170"/><text fill="#000000" font-family="sans-serif" font-size="14" lengthAdjust="spacing" textLength="66" x="229" y="184.9951">attributes</text><text fill="#000000" font-family="sans-serif" font-size="14" lengthAdjust="spacing" textLength="0" x="332" y="184.9951"/><line style="stroke:#A80036;stroke-width:1.0;" x1="315" x2="315" y1="170" y2="190.2969"/><line style="stroke:#A80036;stroke-width:1.0;" x1="224" x2="364" y1="190.2969" y2="190.2969"/><text fill="#000000" font-family="sans-serif" font-size="14" lengthAdjust="spacing" textLength="12" x="229" y="205.292">id</text><text fill="#000000" font-family="sans-serif" font-size="14" lengthAdjust="spacing" textLength="39" x="320" y="205.292">string</text><line style="stroke:#A80036;stroke-width:1.0;" x1="315" x2="315" y1="190.2969" y2="210.5938"/><line style="stroke:#A80036;stroke-width:1.0;" x1="224" x2="364" y1="210.5938" y2="210.5938"/><text fill="#000000" font-family="sans-serif" font-size="14" lengthAdjust="spacing" textLength="81" x="229" y="225.5889">namespace</text><text fill="#000000" font-family="sans-serif" font-size="14" lengthAdjust="spacing" textLength="39" x="320" y="225.5889">string</text><line style="stroke:#A80036;stroke-width:1.0;" x1="315" x2="315" y1="210.5938" y2="230.8906"/><line style="stroke:#A80036;stroke-width:1.0;" x1="224" x2="364" y1="230.8906" y2="230.8906"/><text fill="#000000" font-family="sans-serif" font-size="14" lengthAdjust="spacing" textLength="48" x="229" y="245.8857">nodeId</text><text fill="#000000" font-family="sans-serif" font-size="14" lengthAdjust="spacing" textLength="39" x="320" y="245.8857">string</text><line style="stroke:#A80036;stroke-width:1.0;" x1="315" x2="315" y1="230.8906" y2="251.1875"/><rect fill="none" height="81.1875" rx="5" ry="5" style="stroke:#A80036;stroke-width:1.5;" width="140" x="224" y="170"/><rect fill="#FEFECE" height="20.2969" rx="5" ry="5" style="stroke:#FEFECE;stroke-width:1.5;" width="22" x="401" y="169.5"/><text fill="#000000" font-family="sans-serif" font-size="14" lengthAdjust="spacing" textLength="0" x="418" y="184.4951"/><rect fill="none" height="20.2969" rx="5" ry="5" style="stroke:#A80036;stroke-width:1.5;" width="22" x="401" y="169.5"/><rect fill="#FEFECE" height="101.4844" rx="5" ry="5" style="stroke:#FEFECE;stroke-width:1.5;" width="155" x="462" y="129"/><text fill="#000000" font-family="sans-serif" font-size="14" lengthAdjust="spacing" textLength="52" x="467" y="143.9951">intervall</text><text fill="#000000" font-family="sans-serif" font-size="14" lengthAdjust="spacing" textLength="54" x="558" y="143.9951">number</text><line style="stroke:#A80036;stroke-width:1.0;" x1="553" x2="553" y1="129" y2="149.2969"/><line style="stroke:#A80036;stroke-width:1.0;" x1="462" x2="617" y1="149.2969" y2="149.2969"/><text fill="#000000" font-family="sans-serif" font-size="14" lengthAdjust="spacing" textLength="40" x="467" y="164.292">mode</text><text fill="#000000" font-family="sans-serif" font-size="14" lengthAdjust="spacing" textLength="0" x="570" y="164.292"/><line style="stroke:#A80036;stroke-width:1.0;" x1="553" x2="553" y1="149.2969" y2="169.5938"/><line style="stroke:#A80036;stroke-width:1.0;" x1="462" x2="617" y1="169.5938" y2="169.5938"/><text fill="#000000" font-family="sans-serif" font-size="14" lengthAdjust="spacing" textLength="39" x="467" y="184.5889">name</text><text fill="#000000" font-family="sans-serif" font-size="14" lengthAdjust="spacing" textLength="39" x="558" y="184.5889">string</text><line style="stroke:#A80036;stroke-width:1.0;" x1="553" x2="553" y1="169.5938" y2="189.8906"/><line style="stroke:#A80036;stroke-width:1.0;" x1="462" x2="617" y1="189.8906" y2="189.8906"/><text fill="#000000" font-family="sans-serif" font-size="14" lengthAdjust="spacing" textLength="81" x="467" y="204.8857">namespace</text><text fill="#000000" font-family="sans-serif" font-size="14" lengthAdjust="spacing" textLength="39" x="558" y="204.8857">string</text><line style="stroke:#A80036;stroke-width:1.0;" x1="553" x2="553" y1="189.8906" y2="210.1875"/><line style="stroke:#A80036;stroke-width:1.0;" x1="462" x2="617" y1="210.1875" y2="210.1875"/><text fill="#000000" font-family="sans-serif" font-size="14" lengthAdjust="spacing" textLength="48" x="467" y="225.1826">nodeId</text><text fill="#000000" font-family="sans-serif" font-size="14" lengthAdjust="spacing" textLength="39" x="558" y="225.1826">string</text><line style="stroke:#A80036;stroke-width:1.0;" x1="553" x2="553" y1="210.1875" y2="230.4844"/><rect fill="none" height="101.4844" rx="5" ry="5" style="stroke:#A80036;stroke-width:1.5;" width="155" x="462" y="129"/><rect fill="#FEFECE" height="40.5938" rx="5" ry="5" style="stroke:#FEFECE;stroke-width:1.5;" width="105" x="654" y="138"/><text fill="#000000" font-family="sans-serif" font-size="14" lengthAdjust="spacing" textLength="34" x="659" y="152.9951">"poll"</text><line style="stroke:#A80036;stroke-width:1.0;" x1="654" x2="759" y1="158.2969" y2="158.2969"/><text fill="#000000" font-family="sans-serif" font-size="14" lengthAdjust="spacing" textLength="95" x="659" y="173.292">"subscription"</text><rect fill="none" height="40.5938" rx="5" ry="5" style="stroke:#A80036;stroke-width:1.5;" width="105" x="654" y="138"/><rect fill="#FEFECE" height="20.2969" rx="5" ry="5" style="stroke:#FEFECE;stroke-width:1.5;" width="22" x="163" y="271.5"/><text fill="#000000" font-family="sans-serif" font-size="14" lengthAdjust="spacing" textLength="0" x="180" y="286.4951"/><rect fill="none" height="20.2969" rx="5" ry="5" style="stroke:#A80036;stroke-width:1.5;" width="22" x="163" y="271.5"/><rect fill="#FEFECE" height="81.1875" rx="5" ry="5" style="stroke:#FEFECE;stroke-width:1.5;" width="140" x="224" y="274"/><text fill="#000000" font-family="sans-serif" font-size="14" lengthAdjust="spacing" textLength="66" x="229" y="288.9951">attributes</text><text fill="#000000" font-family="sans-serif" font-size="14" lengthAdjust="spacing" textLength="0" x="332" y="288.9951"/><line style="stroke:#A80036;stroke-width:1.0;" x1="315" x2="315" y1="274" y2="294.2969"/><line style="stroke:#A80036;stroke-width:1.0;" x1="224" x2="364" y1="294.2969" y2="294.2969"/><text fill="#000000" font-family="sans-serif" font-size="14" lengthAdjust="spacing" textLength="12" x="229" y="309.292">id</text><text fill="#000000" font-family="sans-serif" font-size="14" lengthAdjust="spacing" textLength="39" x="320" y="309.292">string</text><line style="stroke:#A80036;stroke-width:1.0;" x1="315" x2="315" y1="294.2969" y2="314.5938"/><line style="stroke:#A80036;stroke-width:1.0;" x1="224" x2="364" y1="314.5938" y2="314.5938"/><text fill="#000000" font-family="sans-serif" font-size="14" lengthAdjust="spacing" textLength="81" x="229" y="329.5889">namespace</text><text fill="#000000" font-family="sans-serif" font-size="14" lengthAdjust="spacing" textLength="39" x="320" y="329.5889">string</text><line style="stroke:#A80036;stroke-width:1.0;" x1="315" x2="315" y1="314.5938" y2="334.8906"/><line style="stroke:#A80036;stroke-width:1.0;" x1="224" x2="364" y1="334.8906" y2="334.8906"/><text fill="#000000" font-family="sans-serif" font-size="14" lengthAdjust="spacing" textLength="48" x="229" y="349.8857">nodeId</text><text fill="#000000" font-family="sans-serif" font-size="14" lengthAdjust="spacing" textLength="39" x="320" y="349.8857">string</text><line style="stroke:#A80036;stroke-width:1.0;" x1="315" x2="315" y1="334.8906" y2="355.1875"/><rect fill="none" height="81.1875" rx="5" ry="5" style="stroke:#A80036;stroke-width:1.5;" width="140" x="224" y="274"/><rect fill="#FEFECE" height="20.2969" rx="5" ry="5" style="stroke:#FEFECE;stroke-width:1.5;" width="22" x="401" y="283.5"/><text fill="#000000" font-family="sans-serif" font-size="14" lengthAdjust="spacing" textLength="0" x="418" y="298.4951"/><rect fill="none" height="20.2969" rx="5" ry="5" style="stroke:#A80036;stroke-width:1.5;" width="22" x="401" y="283.5"/><rect fill="#FEFECE" height="101.4844" rx="5" ry="5" style="stroke:#FEFECE;stroke-width:1.5;" width="155" x="462" y="248"/><text fill="#000000" font-family="sans-serif" font-size="14" lengthAdjust="spacing" textLength="52" x="467" y="262.9951">intervall</text><text fill="#000000" font-family="sans-serif" font-size="14" lengthAdjust="spacing" textLength="54" x="558" y="262.9951">number</text><line style="stroke:#A80036;stroke-width:1.0;" x1="553" x2="553" y1="248" y2="268.2969"/><line style="stroke:#A80036;stroke-width:1.0;" x1="462" x2="617" y1="268.2969" y2="268.2969"/><text fill="#000000" font-family="sans-serif" font-size="14" lengthAdjust="spacing" textLength="40" x="467" y="283.292">mode</text><text fill="#000000" font-family="sans-serif" font-size="14" lengthAdjust="spacing" textLength="0" x="570" y="283.292"/><line style="stroke:#A80036;stroke-width:1.0;" x1="553" x2="553" y1="268.2969" y2="288.5938"/><line style="stroke:#A80036;stroke-width:1.0;" x1="462" x2="617" y1="288.5938" y2="288.5938"/><text fill="#000000" font-family="sans-serif" font-size="14" lengthAdjust="spacing" textLength="39" x="467" y="303.5889">name</text><text fill="#000000" font-family="sans-serif" font-size="14" lengthAdjust="spacing" textLength="39" x="558" y="303.5889">string</text><line style="stroke:#A80036;stroke-width:1.0;" x1="553" x2="553" y1="288.5938" y2="308.8906"/><line style="stroke:#A80036;stroke-width:1.0;" x1="462" x2="617" y1="308.8906" y2="308.8906"/><text fill="#000000" font-family="sans-serif" font-size="14" lengthAdjust="spacing" textLength="81" x="467" y="323.8857">namespace</text><text fill="#000000" font-family="sans-serif" font-size="14" lengthAdjust="spacing" textLength="39" x="558" y="323.8857">string</text><line style="stroke:#A80036;stroke-width:1.0;" x1="553" x2="553" y1="308.8906" y2="329.1875"/><line style="stroke:#A80036;stroke-width:1.0;" x1="462" x2="617" y1="329.1875" y2="329.1875"/><text fill="#000000" font-family="sans-serif" font-size="14" lengthAdjust="spacing" textLength="48" x="467" y="344.1826">nodeId</text><text fill="#000000" font-family="sans-serif" font-size="14" lengthAdjust="spacing" textLength="39" x="558" y="344.1826">string</text><line style="stroke:#A80036;stroke-width:1.0;" x1="553" x2="553" y1="329.1875" y2="349.4844"/><rect fill="none" height="101.4844" rx="5" ry="5" style="stroke:#A80036;stroke-width:1.5;" width="155" x="462" y="248"/><rect fill="#FEFECE" height="40.5938" rx="5" ry="5" style="stroke:#FEFECE;stroke-width:1.5;" width="105" x="654" y="257"/><text fill="#000000" font-family="sans-serif" font-size="14" lengthAdjust="spacing" textLength="34" x="659" y="271.9951">"poll"</text><line style="stroke:#A80036;stroke-width:1.0;" x1="654" x2="759" y1="277.2969" y2="277.2969"/><text fill="#000000" font-family="sans-serif" font-size="14" lengthAdjust="spacing" textLength="95" x="659" y="292.292">"subscription"</text><rect fill="none" height="40.5938" rx="5" ry="5" style="stroke:#A80036;stroke-width:1.5;" width="105" x="654" y="257"/><path d="M605,39.5 L618,39.5 C627.2824,39.5 637.1156,39.5 646.7153,39.5 " fill="none" style="stroke:#A80036;stroke-width:1.0;stroke-dasharray:3.0,3.0;"/><path d="M646.7153,42.5535 L649.0054,39.5 L646.7153,36.4465 L654.349,39.5 L646.7153,42.5535 " fill="#A80036" style="stroke:#A80036;stroke-width:1.0;"/><ellipse cx="605" cy="39.5" fill="#A80036" rx="3" ry="3" style="stroke:#A80036;stroke-width:1.0;stroke-dasharray:3.0,3.0;"/><path d="M412.5438,65.5381 L425.5335,65.0206 C432.9818,64.7238 443.2777,64.3136 454.6519,63.8605 " fill="none" style="stroke:#A80036;stroke-width:1.0;stroke-dasharray:3.0,3.0;"/><path d="M454.7732,66.9049 L456.9352,63.7695 L454.5306,60.8161 L462.263,63.5573 L454.7732,66.9049 " fill="#A80036" style="stroke:#A80036;stroke-width:1.0;"/><ellipse cx="412.5438" cy="65.5381" fill="#A80036" rx="3" ry="3" style="stroke:#A80036;stroke-width:1.0;stroke-dasharray:3.0,3.0;"/><path d="M352,70.5 L365,70.5 C374.4258,70.5 384.8461,69.5142 393.5194,68.418 " fill="none" style="stroke:#A80036;stroke-width:1.0;stroke-dasharray:3.0,3.0;"/><path d="M393.9419,71.4943 L395.8267,68.1012 L393.0969,65.3417 L401.2102,67.3618 L393.9419,71.4943 " fill="#A80036" style="stroke:#A80036;stroke-width:1.0;"/><ellipse cx="352" cy="70.5" fill="#A80036" rx="3" ry="3" style="stroke:#A80036;stroke-width:1.0;stroke-dasharray:3.0,3.0;"/><path d="M175.2494,137.5764 L187.6836,133.783 C195.2908,131.4621 205.7958,128.2572 217.2521,124.7621 " fill="none" style="stroke:#A80036;stroke-width:1.0;stroke-dasharray:3.0,3.0;"/><path d="M218.1355,127.6575 L219.4237,124.0995 L216.3688,121.8666 L224.4908,122.5536 L218.1355,127.6575 " fill="#A80036" style="stroke:#A80036;stroke-width:1.0;"/><ellipse cx="175.2494" cy="137.5764" fill="#A80036" rx="3" ry="3" style="stroke:#A80036;stroke-width:1.0;stroke-dasharray:3.0,3.0;"/><path d="M114,189.5 L127,189.5 C146.3344,189.5 159.9063,169.6608 167.458,154.4908 " fill="none" style="stroke:#A80036;stroke-width:1.0;stroke-dasharray:3.0,3.0;"/><path d="M170.2439,155.7797 L168.4247,152.4014 L164.6722,153.2018 L170.6804,147.5261 L170.2439,155.7797 " fill="#A80036" style="stroke:#A80036;stroke-width:1.0;"/><ellipse cx="114" cy="189.5" fill="#A80036" rx="3" ry="3" style="stroke:#A80036;stroke-width:1.0;stroke-dasharray:3.0,3.0;"/><path d="M605,158.5 L618,158.5 C627.2824,158.5 637.1156,158.5 646.7153,158.5 " fill="none" style="stroke:#A80036;stroke-width:1.0;stroke-dasharray:3.0,3.0;"/><path d="M646.7153,161.5535 L649.0054,158.5 L646.7153,155.4465 L654.349,158.5 L646.7153,161.5535 " fill="#A80036" style="stroke:#A80036;stroke-width:1.0;"/><ellipse cx="605" cy="158.5" fill="#A80036" rx="3" ry="3" style="stroke:#A80036;stroke-width:1.0;stroke-dasharray:3.0,3.0;"/><path d="M412.5335,179.5 L425.5335,179.5 C432.9818,179.5 443.2777,179.5 454.6519,179.5 " fill="none" style="stroke:#A80036;stroke-width:1.0;stroke-dasharray:3.0,3.0;"/><path d="M454.6519,182.5444 L456.9352,179.5 L454.6519,176.4556 L462.263,179.5 L454.6519,182.5444 " fill="#A80036" style="stroke:#A80036;stroke-width:1.0;"/><ellipse cx="412.5335" cy="179.5" fill="#A80036" rx="3" ry="3" style="stroke:#A80036;stroke-width:1.0;stroke-dasharray:3.0,3.0;"/><path d="M352,179.5 L365,179.5 C374.374,179.5 384.7885,179.5 393.4714,179.5 " fill="none" style="stroke:#A80036;stroke-width:1.0;stroke-dasharray:3.0,3.0;"/><path d="M393.4714,182.5815 L395.7825,179.5 L393.4714,176.4185 L401.1751,179.5 L393.4714,182.5815 " fill="#A80036" style="stroke:#A80036;stroke-width:1.0;"/><ellipse cx="352" cy="179.5" fill="#A80036" rx="3" ry="3" style="stroke:#A80036;stroke-width:1.0;stroke-dasharray:3.0,3.0;"/><path d="M174.6836,210.5 L187.6836,210.5 C195.219,210.5 205.5979,210.5 216.9282,210.5 " fill="none" style="stroke:#A80036;stroke-width:1.0;stroke-dasharray:3.0,3.0;"/><path d="M216.9282,213.5251 L219.197,210.5 L216.9282,207.4749 L224.4908,210.5 L216.9282,213.5251 " fill="#A80036" style="stroke:#A80036;stroke-width:1.0;"/><ellipse cx="174.6836" cy="210.5" fill="#A80036" rx="3" ry="3" style="stroke:#A80036;stroke-width:1.0;stroke-dasharray:3.0,3.0;"/><path d="M114,210.5 L127,210.5 C136.374,210.5 146.7885,210.5 155.4714,210.5 " fill="none" style="stroke:#A80036;stroke-width:1.0;stroke-dasharray:3.0,3.0;"/><path d="M155.4714,213.5815 L157.7825,210.5 L155.4714,207.4185 L163.1751,210.5 L155.4714,213.5815 " fill="#A80036" style="stroke:#A80036;stroke-width:1.0;"/><ellipse cx="114" cy="210.5" fill="#A80036" rx="3" ry="3" style="stroke:#A80036;stroke-width:1.0;stroke-dasharray:3.0,3.0;"/><path d="M605,277.5 L618,277.5 C627.2824,277.5 637.1156,277.5 646.7153,277.5 " fill="none" style="stroke:#A80036;stroke-width:1.0;stroke-dasharray:3.0,3.0;"/><path d="M646.7153,280.5535 L649.0054,277.5 L646.7153,274.4465 L654.349,277.5 L646.7153,280.5535 " fill="#A80036" style="stroke:#A80036;stroke-width:1.0;"/><ellipse cx="605" cy="277.5" fill="#A80036" rx="3" ry="3" style="stroke:#A80036;stroke-width:1.0;stroke-dasharray:3.0,3.0;"/><path d="M412.5438,293.4619 L425.5335,293.9794 C432.9818,294.2762 443.2777,294.6864 454.6519,295.1395 " fill="none" style="stroke:#A80036;stroke-width:1.0;stroke-dasharray:3.0,3.0;"/><path d="M454.5306,298.1839 L456.9352,295.2305 L454.7732,292.0951 L462.263,295.4427 L454.5306,298.1839 " fill="#A80036" style="stroke:#A80036;stroke-width:1.0;"/><ellipse cx="412.5438" cy="293.4619" fill="#A80036" rx="3" ry="3" style="stroke:#A80036;stroke-width:1.0;stroke-dasharray:3.0,3.0;"/><path d="M352,283.5 L365,283.5 C374.6782,283.5 385.2323,285.5125 393.9287,287.7318 " fill="none" style="stroke:#A80036;stroke-width:1.0;stroke-dasharray:3.0,3.0;"/><path d="M393.1109,290.6862 L396.1445,288.3452 L394.7465,284.7775 L401.3145,289.7764 L393.1109,290.6862 " fill="#A80036" style="stroke:#A80036;stroke-width:1.0;"/><ellipse cx="352" cy="283.5" fill="#A80036" rx="3" ry="3" style="stroke:#A80036;stroke-width:1.0;stroke-dasharray:3.0,3.0;"/><path d="M175.164,281.406 L187.6836,284.9073 C195.2908,287.0347 205.7958,289.9726 217.2521,293.1764 " fill="none" style="stroke:#A80036;stroke-width:1.0;stroke-dasharray:3.0,3.0;"/><path d="M216.4424,296.0719 L219.4237,293.7838 L218.0619,290.281 L224.4908,295.2008 L216.4424,296.0719 " fill="#A80036" style="stroke:#A80036;stroke-width:1.0;"/><ellipse cx="175.164" cy="281.406" fill="#A80036" rx="3" ry="3" style="stroke:#A80036;stroke-width:1.0;stroke-dasharray:3.0,3.0;"/><path d="M114,230.5 L127,230.5 C145.9246,230.5 159.4553,249.537 167.119,264.3492 " fill="none" style="stroke:#A80036;stroke-width:1.0;stroke-dasharray:3.0,3.0;"/><path d="M164.3869,265.6647 L168.1056,266.3983 L169.8511,263.0337 L170.4078,271.1794 L164.3869,265.6647 " fill="#A80036" style="stroke:#A80036;stroke-width:1.0;"/><ellipse cx="114" cy="230.5" fill="#A80036" rx="3" ry="3" style="stroke:#A80036;stroke-width:1.0;stroke-dasharray:3.0,3.0;"/><!--MD5=[8747b2b6be6e18de579a44a3324aa015]
@startjson "OPC UA Config"
{
  "host": "string",
  "sensors": [
    {
      "attributes": [
        {
          "intervall": "number",
          "mode": ["\"poll\"", "\"subscription\""],
          "name": "string",
          "namespace": "string",
          "nodeId": "string"
        }
      ],
      "id": "string",
      "namespace": "string",
      "nodeId": "string"
    }
  ],
  "aktors": [
    {
      "attributes": [
        {
          "intervall": "number",
          "mode": ["\"poll\"", "\"subscription\""],
          "name": "string",
          "namespace": "string",
          "nodeId": "string"
        }
      ],
      "id": "string",
      "namespace": "string",
      "nodeId": "string"
    }
  ],
  "services": [
    {
      "attributes": [
        {
          "intervall": "number",
          "mode": ["\"poll\"", "\"subscription\""],
          "name": "string",
          "namespace": "string",
          "nodeId": "string"
        }
      ],
      "id": "string",
      "namespace": "string",
      "nodeId": "string"
    }
  ]
}

@endjson

PlantUML version 1.2021.5(Sun Apr 25 13:20:28 CEST 2021)
(GPL source distribution)
Java Runtime: OpenJDK Runtime Environment
JVM: OpenJDK 64-Bit Server VM
Default Encoding: UTF-8
Language: de
Country: DE
--></g></svg>