<?xml version="1.0" encoding="UTF-8" standalone="no"?><svg xmlns="http://www.w3.org/2000/svg" xmlns:xlink="http://www.w3.org/1999/xlink" contentScriptType="application/ecmascript" contentStyleType="text/css" height="367px" preserveAspectRatio="none" style="width:776px;height:367px;background:#FFFFFF;" version="1.1" viewBox="0 0 776 367" width="776px" zoomAndPan="magnify"><defs/><g><rect fill="#FEFECE" height="81.1875" rx="5" ry="5" style="stroke:#FEFECE;stroke-width:1.5;" width="106" x="10" y="160"/><text fill="#000000" font-family="sans-serif" font-size="14" lengthAdjust="spacing" textLength="32" x="15" y="174.9951">host</text><text fill="#000000" font-family="sans-serif" font-size="14" lengthAdjust="spacing" textLength="18" x="93" y="174.9951">url</text><line style="stroke:#A80036;stroke-width:1.0;" x1="88" x2="88" y1="160" y2="180.2969"/><line style="stroke:#A80036;stroke-width:1.0;" x1="10" x2="116" y1="180.2969" y2="180.2969"/><text fill="#000000" font-family="sans-serif" font-size="14" lengthAdjust="spacing" textLength="54" x="15" y="195.292">sensors</text><text fill="#000000" font-family="sans-serif" font-size="14" lengthAdjust="spacing" textLength="0" x="105" y="195.292"/><line style="stroke:#A80036;stroke-width:1.0;" x1="88" x2="88" y1="180.2969" y2="200.5938"/><line style="stroke:#A80036;stroke-width:1.0;" x1="10" x2="116" y1="200.5938" y2="200.5938"/><text fill="#000000" font-family="sans-serif" font-size="14" lengthAdjust="spacing" textLength="68" x="15" y="215.5889">actuators</text><text fill="#000000" font-family="sans-serif" font-size="14" lengthAdjust="spacing" textLength="0" x="105" y="215.5889"/><line style="stroke:#A80036;stroke-width:1.0;" x1="88" x2="88" y1="200.5938" y2="220.8906"/><line style="stroke:#A80036;stroke-width:1.0;" x1="10" x2="116" y1="220.8906" y2="220.8906"/><text fill="#000000" font-family="sans-serif" font-size="14" lengthAdjust="spacing" textLength="58" x="15" y="235.8857">services</text><text fill="#000000" font-family="sans-serif" font-size="14" lengthAdjust="spacing" textLength="0" x="105" y="235.8857"/><line style="stroke:#A80036;stroke-width:1.0;" x1="88" x2="88" y1="220.8906" y2="241.1875"/><rect fill="none" height="81.1875" rx="5" ry="5" style="stroke:#A80036;stroke-width:1.5;" width="106" x="10" y="160"/><rect fill="#FEFECE" height="20.2969" rx="5" ry="5" style="stroke:#FEFECE;stroke-width:1.5;" width="22" x="153" y="127.5"/><text fill="#000000" font-family="sans-serif" font-size="14" lengthAdjust="spacing" textLength="0" x="170" y="142.4951"/><rect fill="none" height="20.2969" rx="5" ry="5" style="stroke:#A80036;stroke-width:1.5;" width="22" x="153" y="127.5"/><rect fill="#FEFECE" height="81.1875" rx="5" ry="5" style="stroke:#FEFECE;stroke-width:1.5;" width="144" x="214" y="61"/><text fill="#000000" font-family="sans-serif" font-size="14" lengthAdjust="spacing" textLength="73" x="219" y="75.9951">attributes</text><text fill="#000000" font-family="sans-serif" font-size="14" lengthAdjust="spacing" textLength="0" x="323" y="75.9951"/><line style="stroke:#A80036;stroke-width:1.0;" x1="306" x2="306" y1="61" y2="81.2969"/><line style="stroke:#A80036;stroke-width:1.0;" x1="214" x2="358" y1="81.2969" y2="81.2969"/><text fill="#000000" font-family="sans-serif" font-size="14" lengthAdjust="spacing" textLength="13" x="219" y="96.292">id</text><text fill="#000000" font-family="sans-serif" font-size="14" lengthAdjust="spacing" textLength="42" x="311" y="96.292">string</text><line style="stroke:#A80036;stroke-width:1.0;" x1="306" x2="306" y1="81.2969" y2="101.5938"/><line style="stroke:#A80036;stroke-width:1.0;" x1="214" x2="358" y1="101.5938" y2="101.5938"/><text fill="#000000" font-family="sans-serif" font-size="14" lengthAdjust="spacing" textLength="82" x="219" y="116.5889">namespace</text><text fill="#000000" font-family="sans-serif" font-size="14" lengthAdjust="spacing" textLength="42" x="311" y="116.5889">string</text><line style="stroke:#A80036;stroke-width:1.0;" x1="306" x2="306" y1="101.5938" y2="121.8906"/><line style="stroke:#A80036;stroke-width:1.0;" x1="214" x2="358" y1="121.8906" y2="121.8906"/><text fill="#000000" font-family="sans-serif" font-size="14" lengthAdjust="spacing" textLength="49" x="219" y="136.8857">nodeId</text><text fill="#000000" font-family="sans-serif" font-size="14" lengthAdjust="spacing" textLength="42" x="311" y="136.8857">string</text><line style="stroke:#A80036;stroke-width:1.0;" x1="306" x2="306" y1="121.8906" y2="142.1875"/><rect fill="none" height="81.1875" rx="5" ry="5" style="stroke:#A80036;stroke-width:1.5;" width="144" x="214" y="61"/><rect fill="#FEFECE" height="20.2969" rx="5" ry="5" style="stroke:#FEFECE;stroke-width:1.5;" width="22" x="395" y="55.5"/><text fill="#000000" font-family="sans-serif" font-size="14" lengthAdjust="spacing" textLength="0" x="412" y="70.4951"/><rect fill="none" height="20.2969" rx="5" ry="5" style="stroke:#A80036;stroke-width:1.5;" width="22" x="395" y="55.5"/><rect fill="#FEFECE" height="101.4844" rx="5" ry="5" style="stroke:#FEFECE;stroke-width:1.5;" width="158" x="456" y="10"/><text fill="#000000" font-family="sans-serif" font-size="14" lengthAdjust="spacing" textLength="59" x="461" y="24.9951">intervall</text><text fill="#000000" font-family="sans-serif" font-size="14" lengthAdjust="spacing" textLength="56" x="553" y="24.9951">number</text><line style="stroke:#A80036;stroke-width:1.0;" x1="548" x2="548" y1="10" y2="30.2969"/><line style="stroke:#A80036;stroke-width:1.0;" x1="456" x2="614" y1="30.2969" y2="30.2969"/><text fill="#000000" font-family="sans-serif" font-size="14" lengthAdjust="spacing" textLength="41" x="461" y="45.292">mode</text><text fill="#000000" font-family="sans-serif" font-size="14" lengthAdjust="spacing" textLength="0" x="565" y="45.292"/><line style="stroke:#A80036;stroke-width:1.0;" x1="548" x2="548" y1="30.2969" y2="50.5938"/><line style="stroke:#A80036;stroke-width:1.0;" x1="456" x2="614" y1="50.5938" y2="50.5938"/><text fill="#000000" font-family="sans-serif" font-size="14" lengthAdjust="spacing" textLength="40" x="461" y="65.5889">name</text><text fill="#000000" font-family="sans-serif" font-size="14" lengthAdjust="spacing" textLength="42" x="553" y="65.5889">string</text><line style="stroke:#A80036;stroke-width:1.0;" x1="548" x2="548" y1="50.5938" y2="70.8906"/><line style="stroke:#A80036;stroke-width:1.0;" x1="456" x2="614" y1="70.8906" y2="70.8906"/><text fill="#000000" font-family="sans-serif" font-size="14" lengthAdjust="spacing" textLength="82" x="461" y="85.8857">namespace</text><text fill="#000000" font-family="sans-serif" font-size="14" lengthAdjust="spacing" textLength="42" x="553" y="85.8857">string</text><line style="stroke:#A80036;stroke-width:1.0;" x1="548" x2="548" y1="70.8906" y2="91.1875"/><line style="stroke:#A80036;stroke-width:1.0;" x1="456" x2="614" y1="91.1875" y2="91.1875"/><text fill="#000000" font-family="sans-serif" font-size="14" lengthAdjust="spacing" textLength="49" x="461" y="106.1826">nodeId</text><text fill="#000000" font-family="sans-serif" font-size="14" lengthAdjust="spacing" textLength="42" x="553" y="106.1826">string</text><line style="stroke:#A80036;stroke-width:1.0;" x1="548" x2="548" y1="91.1875" y2="111.4844"/><rect fill="none" height="101.4844" rx="5" ry="5" style="stroke:#A80036;stroke-width:1.5;" width="158" x="456" y="10"/><rect fill="#FEFECE" height="40.5938" rx="5" ry="5" style="stroke:#FEFECE;stroke-width:1.5;" width="113" x="651" y="19"/><text fill="#000000" font-family="sans-serif" font-size="14" lengthAdjust="spacing" textLength="41" x="656" y="33.9951">"poll"</text><line style="stroke:#A80036;stroke-width:1.0;" x1="651" x2="764" y1="39.2969" y2="39.2969"/><text fill="#000000" font-family="sans-serif" font-size="14" lengthAdjust="spacing" textLength="103" x="656" y="54.292">"subscription"</text><rect fill="none" height="40.5938" rx="5" ry="5" style="stroke:#A80036;stroke-width:1.5;" width="113" x="651" y="19"/><rect fill="#FEFECE" height="20.2969" rx="5" ry="5" style="stroke:#FEFECE;stroke-width:1.5;" width="22" x="153" y="200.5"/><text fill="#000000" font-family="sans-serif" font-size="14" lengthAdjust="spacing" textLength="0" x="170" y="215.4951"/><rect fill="none" height="20.2969" rx="5" ry="5" style="stroke:#A80036;stroke-width:1.5;" width="22" x="153" y="200.5"/><rect fill="#FEFECE" height="81.1875" rx="5" ry="5" style="stroke:#FEFECE;stroke-width:1.5;" width="144" x="214" y="170"/><text fill="#000000" font-family="sans-serif" font-size="14" lengthAdjust="spacing" textLength="73" x="219" y="184.9951">attributes</text><text fill="#000000" font-family="sans-serif" font-size="14" lengthAdjust="spacing" textLength="0" x="323" y="184.9951"/><line style="stroke:#A80036;stroke-width:1.0;" x1="306" x2="306" y1="170" y2="190.2969"/><line style="stroke:#A80036;stroke-width:1.0;" x1="214" x2="358" y1="190.2969" y2="190.2969"/><text fill="#000000" font-family="sans-serif" font-size="14" lengthAdjust="spacing" textLength="13" x="219" y="205.292">id</text><text fill="#000000" font-family="sans-serif" font-size="14" lengthAdjust="spacing" textLength="42" x="311" y="205.292">string</text><line style="stroke:#A80036;stroke-width:1.0;" x1="306" x2="306" y1="190.2969" y2="210.5938"/><line style="stroke:#A80036;stroke-width:1.0;" x1="214" x2="358" y1="210.5938" y2="210.5938"/><text fill="#000000" font-family="sans-serif" font-size="14" lengthAdjust="spacing" textLength="82" x="219" y="225.5889">namespace</text><text fill="#000000" font-family="sans-serif" font-size="14" lengthAdjust="spacing" textLength="42" x="311" y="225.5889">string</text><line style="stroke:#A80036;stroke-width:1.0;" x1="306" x2="306" y1="210.5938" y2="230.8906"/><line style="stroke:#A80036;stroke-width:1.0;" x1="214" x2="358" y1="230.8906" y2="230.8906"/><text fill="#000000" font-family="sans-serif" font-size="14" lengthAdjust="spacing" textLength="49" x="219" y="245.8857">nodeId</text><text fill="#000000" font-family="sans-serif" font-size="14" lengthAdjust="spacing" textLength="42" x="311" y="245.8857">string</text><line style="stroke:#A80036;stroke-width:1.0;" x1="306" x2="306" y1="230.8906" y2="251.1875"/><rect fill="none" height="81.1875" rx="5" ry="5" style="stroke:#A80036;stroke-width:1.5;" width="144" x="214" y="170"/><rect fill="#FEFECE" height="20.2969" rx="5" ry="5" style="stroke:#FEFECE;stroke-width:1.5;" width="22" x="395" y="169.5"/><text fill="#000000" font-family="sans-serif" font-size="14" lengthAdjust="spacing" textLength="0" x="412" y="184.4951"/><rect fill="none" height="20.2969" rx="5" ry="5" style="stroke:#A80036;stroke-width:1.5;" width="22" x="395" y="169.5"/><rect fill="#FEFECE" height="101.4844" rx="5" ry="5" style="stroke:#FEFECE;stroke-width:1.5;" width="158" x="456" y="129"/><text fill="#000000" font-family="sans-serif" font-size="14" lengthAdjust="spacing" textLength="59" x="461" y="143.9951">intervall</text><text fill="#000000" font-family="sans-serif" font-size="14" lengthAdjust="spacing" textLength="56" x="553" y="143.9951">number</text><line style="stroke:#A80036;stroke-width:1.0;" x1="548" x2="548" y1="129" y2="149.2969"/><line style="stroke:#A80036;stroke-width:1.0;" x1="456" x2="614" y1="149.2969" y2="149.2969"/><text fill="#000000" font-family="sans-serif" font-size="14" lengthAdjust="spacing" textLength="41" x="461" y="164.292">mode</text><text fill="#000000" font-family="sans-serif" font-size="14" lengthAdjust="spacing" textLength="0" x="565" y="164.292"/><line style="stroke:#A80036;stroke-width:1.0;" x1="548" x2="548" y1="149.2969" y2="169.5938"/><line style="stroke:#A80036;stroke-width:1.0;" x1="456" x2="614" y1="169.5938" y2="169.5938"/><text fill="#000000" font-family="sans-serif" font-size="14" lengthAdjust="spacing" textLength="40" x="461" y="184.5889">name</text><text fill="#000000" font-family="sans-serif" font-size="14" lengthAdjust="spacing" textLength="42" x="553" y="184.5889">string</text><line style="stroke:#A80036;stroke-width:1.0;" x1="548" x2="548" y1="169.5938" y2="189.8906"/><line style="stroke:#A80036;stroke-width:1.0;" x1="456" x2="614" y1="189.8906" y2="189.8906"/><text fill="#000000" font-family="sans-serif" font-size="14" lengthAdjust="spacing" textLength="82" x="461" y="204.8857">namespace</text><text fill="#000000" font-family="sans-serif" font-size="14" lengthAdjust="spacing" textLength="42" x="553" y="204.8857">string</text><line style="stroke:#A80036;stroke-width:1.0;" x1="548" x2="548" y1="189.8906" y2="210.1875"/><line style="stroke:#A80036;stroke-width:1.0;" x1="456" x2="614" y1="210.1875" y2="210.1875"/><text fill="#000000" font-family="sans-serif" font-size="14" lengthAdjust="spacing" textLength="49" x="461" y="225.1826">nodeId</text><text fill="#000000" font-family="sans-serif" font-size="14" lengthAdjust="spacing" textLength="42" x="553" y="225.1826">string</text><line style="stroke:#A80036;stroke-width:1.0;" x1="548" x2="548" y1="210.1875" y2="230.4844"/><rect fill="none" height="101.4844" rx="5" ry="5" style="stroke:#A80036;stroke-width:1.5;" width="158" x="456" y="129"/><rect fill="#FEFECE" height="40.5938" rx="5" ry="5" style="stroke:#FEFECE;stroke-width:1.5;" width="113" x="651" y="138"/><text fill="#000000" font-family="sans-serif" font-size="14" lengthAdjust="spacing" textLength="41" x="656" y="152.9951">"poll"</text><line style="stroke:#A80036;stroke-width:1.0;" x1="651" x2="764" y1="158.2969" y2="158.2969"/><text fill="#000000" font-family="sans-serif" font-size="14" lengthAdjust="spacing" textLength="103" x="656" y="173.292">"subscription"</text><rect fill="none" height="40.5938" rx="5" ry="5" style="stroke:#A80036;stroke-width:1.5;" width="113" x="651" y="138"/><rect fill="#FEFECE" height="20.2969" rx="5" ry="5" style="stroke:#FEFECE;stroke-width:1.5;" width="22" x="153" y="271.5"/><text fill="#000000" font-family="sans-serif" font-size="14" lengthAdjust="spacing" textLength="0" x="170" y="286.4951"/><rect fill="none" height="20.2969" rx="5" ry="5" style="stroke:#A80036;stroke-width:1.5;" width="22" x="153" y="271.5"/><rect fill="#FEFECE" height="81.1875" rx="5" ry="5" style="stroke:#FEFECE;stroke-width:1.5;" width="144" x="214" y="274"/><text fill="#000000" font-family="sans-serif" font-size="14" lengthAdjust="spacing" textLength="73" x="219" y="288.9951">attributes</text><text fill="#000000" font-family="sans-serif" font-size="14" lengthAdjust="spacing" textLength="0" x="323" y="288.9951"/><line style="stroke:#A80036;stroke-width:1.0;" x1="306" x2="306" y1="274" y2="294.2969"/><line style="stroke:#A80036;stroke-width:1.0;" x1="214" x2="358" y1="294.2969" y2="294.2969"/><text fill="#000000" font-family="sans-serif" font-size="14" lengthAdjust="spacing" textLength="13" x="219" y="309.292">id</text><text fill="#000000" font-family="sans-serif" font-size="14" lengthAdjust="spacing" textLength="42" x="311" y="309.292">string</text><line style="stroke:#A80036;stroke-width:1.0;" x1="306" x2="306" y1="294.2969" y2="314.5938"/><line style="stroke:#A80036;stroke-width:1.0;" x1="214" x2="358" y1="314.5938" y2="314.5938"/><text fill="#000000" font-family="sans-serif" font-size="14" lengthAdjust="spacing" textLength="82" x="219" y="329.5889">namespace</text><text fill="#000000" font-family="sans-serif" font-size="14" lengthAdjust="spacing" textLength="42" x="311" y="329.5889">string</text><line style="stroke:#A80036;stroke-width:1.0;" x1="306" x2="306" y1="314.5938" y2="334.8906"/><line style="stroke:#A80036;stroke-width:1.0;" x1="214" x2="358" y1="334.8906" y2="334.8906"/><text fill="#000000" font-family="sans-serif" font-size="14" lengthAdjust="spacing" textLength="49" x="219" y="349.8857">nodeId</text><text fill="#000000" font-family="sans-serif" font-size="14" lengthAdjust="spacing" textLength="42" x="311" y="349.8857">string</text><line style="stroke:#A80036;stroke-width:1.0;" x1="306" x2="306" y1="334.8906" y2="355.1875"/><rect fill="none" height="81.1875" rx="5" ry="5" style="stroke:#A80036;stroke-width:1.5;" width="144" x="214" y="274"/><rect fill="#FEFECE" height="20.2969" rx="5" ry="5" style="stroke:#FEFECE;stroke-width:1.5;" width="22" x="395" y="283.5"/><text fill="#000000" font-family="sans-serif" font-size="14" lengthAdjust="spacing" textLength="0" x="412" y="298.4951"/><rect fill="none" height="20.2969" rx="5" ry="5" style="stroke:#A80036;stroke-width:1.5;" width="22" x="395" y="283.5"/><rect fill="#FEFECE" height="101.4844" rx="5" ry="5" style="stroke:#FEFECE;stroke-width:1.5;" width="158" x="456" y="248"/><text fill="#000000" font-family="sans-serif" font-size="14" lengthAdjust="spacing" textLength="59" x="461" y="262.9951">intervall</text><text fill="#000000" font-family="sans-serif" font-size="14" lengthAdjust="spacing" textLength="56" x="553" y="262.9951">number</text><line style="stroke:#A80036;stroke-width:1.0;" x1="548" x2="548" y1="248" y2="268.2969"/><line style="stroke:#A80036;stroke-width:1.0;" x1="456" x2="614" y1="268.2969" y2="268.2969"/><text fill="#000000" font-family="sans-serif" font-size="14" lengthAdjust="spacing" textLength="41" x="461" y="283.292">mode</text><text fill="#000000" font-family="sans-serif" font-size="14" lengthAdjust="spacing" textLength="0" x="565" y="283.292"/><line style="stroke:#A80036;stroke-width:1.0;" x1="548" x2="548" y1="268.2969" y2="288.5938"/><line style="stroke:#A80036;stroke-width:1.0;" x1="456" x2="614" y1="288.5938" y2="288.5938"/><text fill="#000000" font-family="sans-serif" font-size="14" lengthAdjust="spacing" textLength="40" x="461" y="303.5889">name</text><text fill="#000000" font-family="sans-serif" font-size="14" lengthAdjust="spacing" textLength="42" x="553" y="303.5889">string</text><line style="stroke:#A80036;stroke-width:1.0;" x1="548" x2="548" y1="288.5938" y2="308.8906"/><line style="stroke:#A80036;stroke-width:1.0;" x1="456" x2="614" y1="308.8906" y2="308.8906"/><text fill="#000000" font-family="sans-serif" font-size="14" lengthAdjust="spacing" textLength="82" x="461" y="323.8857">namespace</text><text fill="#000000" font-family="sans-serif" font-size="14" lengthAdjust="spacing" textLength="42" x="553" y="323.8857">string</text><line style="stroke:#A80036;stroke-width:1.0;" x1="548" x2="548" y1="308.8906" y2="329.1875"/><line style="stroke:#A80036;stroke-width:1.0;" x1="456" x2="614" y1="329.1875" y2="329.1875"/><text fill="#000000" font-family="sans-serif" font-size="14" lengthAdjust="spacing" textLength="49" x="461" y="344.1826">nodeId</text><text fill="#000000" font-family="sans-serif" font-size="14" lengthAdjust="spacing" textLength="42" x="553" y="344.1826">string</text><line style="stroke:#A80036;stroke-width:1.0;" x1="548" x2="548" y1="329.1875" y2="349.4844"/><rect fill="none" height="101.4844" rx="5" ry="5" style="stroke:#A80036;stroke-width:1.5;" width="158" x="456" y="248"/><rect fill="#FEFECE" height="40.5938" rx="5" ry="5" style="stroke:#FEFECE;stroke-width:1.5;" width="113" x="651" y="257"/><text fill="#000000" font-family="sans-serif" font-size="14" lengthAdjust="spacing" textLength="41" x="656" y="271.9951">"poll"</text><line style="stroke:#A80036;stroke-width:1.0;" x1="651" x2="764" y1="277.2969" y2="277.2969"/><text fill="#000000" font-family="sans-serif" font-size="14" lengthAdjust="spacing" textLength="103" x="656" y="292.292">"subscription"</text><rect fill="none" height="40.5938" rx="5" ry="5" style="stroke:#A80036;stroke-width:1.5;" width="113" x="651" y="257"/><path d="M602,39.5 L615,39.5 C624.2002,39.5 633.918,39.5 643.4547,39.5 " fill="none" style="stroke:#A80036;stroke-width:1.0;stroke-dasharray:3.0,3.0;"/><path d="M643.4547,42.5384 L645.7335,39.5 L643.4547,36.4616 L651.0506,39.5 L643.4547,42.5384 " fill="#A80036" style="stroke:#A80036;stroke-width:1.0;"/><ellipse cx="602" cy="39.5" fill="#A80036" rx="3" ry="3" style="stroke:#A80036;stroke-width:1.0;stroke-dasharray:3.0,3.0;"/><path d="M406.6874,65.532 L419.6773,65.0206 C427.1128,64.7278 437.3526,64.3247 448.6777,63.8788 " fill="none" style="stroke:#A80036;stroke-width:1.0;stroke-dasharray:3.0,3.0;"/><path d="M448.7971,66.911 L450.9519,63.7893 L448.5584,60.8467 L456.2582,63.5804 L448.7971,66.911 " fill="#A80036" style="stroke:#A80036;stroke-width:1.0;"/><ellipse cx="406.6874" cy="65.532" fill="#A80036" rx="3" ry="3" style="stroke:#A80036;stroke-width:1.0;stroke-dasharray:3.0,3.0;"/><path d="M346,70.5 L359,70.5 C368.4258,70.5 378.8461,69.5142 387.5194,68.418 " fill="none" style="stroke:#A80036;stroke-width:1.0;stroke-dasharray:3.0,3.0;"/><path d="M387.9419,71.4943 L389.8267,68.1012 L387.0969,65.3417 L395.2102,67.3618 L387.9419,71.4943 " fill="#A80036" style="stroke:#A80036;stroke-width:1.0;"/><ellipse cx="346" cy="70.5" fill="#A80036" rx="3" ry="3" style="stroke:#A80036;stroke-width:1.0;stroke-dasharray:3.0,3.0;"/><path d="M165.4384,137.5185 L177.8901,133.783 C185.4774,131.5068 195.8995,128.3801 207.2887,124.9634 " fill="none" style="stroke:#A80036;stroke-width:1.0;stroke-dasharray:3.0,3.0;"/><path d="M208.1527,127.8432 L209.4487,124.3154 L206.4248,122.0835 L214.4884,122.8035 L208.1527,127.8432 " fill="#A80036" style="stroke:#A80036;stroke-width:1.0;"/><ellipse cx="165.4384" cy="137.5185" fill="#A80036" rx="3" ry="3" style="stroke:#A80036;stroke-width:1.0;stroke-dasharray:3.0,3.0;"/><path d="M104,189.5 L117,189.5 C136.3344,189.5 149.9063,169.6608 157.458,154.4908 " fill="none" style="stroke:#A80036;stroke-width:1.0;stroke-dasharray:3.0,3.0;"/><path d="M160.2439,155.7797 L158.4247,152.4014 L154.6722,153.2018 L160.6804,147.5261 L160.2439,155.7797 " fill="#A80036" style="stroke:#A80036;stroke-width:1.0;"/><ellipse cx="104" cy="189.5" fill="#A80036" rx="3" ry="3" style="stroke:#A80036;stroke-width:1.0;stroke-dasharray:3.0,3.0;"/><path d="M602,158.5 L615,158.5 C624.2002,158.5 633.918,158.5 643.4547,158.5 " fill="none" style="stroke:#A80036;stroke-width:1.0;stroke-dasharray:3.0,3.0;"/><path d="M643.4547,161.5384 L645.7335,158.5 L643.4547,155.4616 L651.0506,158.5 L643.4547,161.5384 " fill="#A80036" style="stroke:#A80036;stroke-width:1.0;"/><ellipse cx="602" cy="158.5" fill="#A80036" rx="3" ry="3" style="stroke:#A80036;stroke-width:1.0;stroke-dasharray:3.0,3.0;"/><path d="M406.6773,179.5 L419.6773,179.5 C427.1128,179.5 437.3526,179.5 448.6777,179.5 " fill="none" style="stroke:#A80036;stroke-width:1.0;stroke-dasharray:3.0,3.0;"/><path d="M448.6777,182.5322 L450.9519,179.5 L448.6777,176.4678 L456.2582,179.5 L448.6777,182.5322 " fill="#A80036" style="stroke:#A80036;stroke-width:1.0;"/><ellipse cx="406.6773" cy="179.5" fill="#A80036" rx="3" ry="3" style="stroke:#A80036;stroke-width:1.0;stroke-dasharray:3.0,3.0;"/><path d="M346,179.5 L359,179.5 C368.374,179.5 378.7885,179.5 387.4714,179.5 " fill="none" style="stroke:#A80036;stroke-width:1.0;stroke-dasharray:3.0,3.0;"/><path d="M387.4714,182.5815 L389.7825,179.5 L387.4714,176.4185 L395.1751,179.5 L387.4714,182.5815 " fill="#A80036" style="stroke:#A80036;stroke-width:1.0;"/><ellipse cx="346" cy="179.5" fill="#A80036" rx="3" ry="3" style="stroke:#A80036;stroke-width:1.0;stroke-dasharray:3.0,3.0;"/><path d="M164.8901,210.5 L177.8901,210.5 C185.4058,210.5 195.7031,210.5 206.9667,210.5 " fill="none" style="stroke:#A80036;stroke-width:1.0;stroke-dasharray:3.0,3.0;"/><path d="M206.9667,213.5087 L209.2232,210.5 L206.9667,207.4913 L214.4884,210.5 L206.9667,213.5087 " fill="#A80036" style="stroke:#A80036;stroke-width:1.0;"/><ellipse cx="164.8901" cy="210.5" fill="#A80036" rx="3" ry="3" style="stroke:#A80036;stroke-width:1.0;stroke-dasharray:3.0,3.0;"/><path d="M104,210.5 L117,210.5 C126.374,210.5 136.7885,210.5 145.4714,210.5 " fill="none" style="stroke:#A80036;stroke-width:1.0;stroke-dasharray:3.0,3.0;"/><path d="M145.4714,213.5815 L147.7825,210.5 L145.4714,207.4185 L153.1751,210.5 L145.4714,213.5815 " fill="#A80036" style="stroke:#A80036;stroke-width:1.0;"/><ellipse cx="104" cy="210.5" fill="#A80036" rx="3" ry="3" style="stroke:#A80036;stroke-width:1.0;stroke-dasharray:3.0,3.0;"/><path d="M602,277.5 L615,277.5 C624.2002,277.5 633.918,277.5 643.4547,277.5 " fill="none" style="stroke:#A80036;stroke-width:1.0;stroke-dasharray:3.0,3.0;"/><path d="M643.4547,280.5384 L645.7335,277.5 L643.4547,274.4616 L651.0506,277.5 L643.4547,280.5384 " fill="#A80036" style="stroke:#A80036;stroke-width:1.0;"/><ellipse cx="602" cy="277.5" fill="#A80036" rx="3" ry="3" style="stroke:#A80036;stroke-width:1.0;stroke-dasharray:3.0,3.0;"/><path d="M406.6874,293.468 L419.6773,293.9794 C427.1128,294.2722 437.3526,294.6753 448.6777,295.1212 " fill="none" style="stroke:#A80036;stroke-width:1.0;stroke-dasharray:3.0,3.0;"/><path d="M448.5584,298.1533 L450.9519,295.2107 L448.7971,292.089 L456.2582,295.4196 L448.5584,298.1533 " fill="#A80036" style="stroke:#A80036;stroke-width:1.0;"/><ellipse cx="406.6874" cy="293.468" fill="#A80036" rx="3" ry="3" style="stroke:#A80036;stroke-width:1.0;stroke-dasharray:3.0,3.0;"/><path d="M346,283.5 L359,283.5 C368.6782,283.5 379.2323,285.5125 387.9287,287.7318 " fill="none" style="stroke:#A80036;stroke-width:1.0;stroke-dasharray:3.0,3.0;"/><path d="M387.1109,290.6862 L390.1445,288.3452 L388.7465,284.7775 L395.3145,289.7764 L387.1109,290.6862 " fill="#A80036" style="stroke:#A80036;stroke-width:1.0;"/><ellipse cx="346" cy="283.5" fill="#A80036" rx="3" ry="3" style="stroke:#A80036;stroke-width:1.0;stroke-dasharray:3.0,3.0;"/><path d="M165.3555,281.4603 L177.8901,284.9073 C185.4058,286.9741 195.7031,289.8059 206.9667,292.9033 " fill="none" style="stroke:#A80036;stroke-width:1.0;stroke-dasharray:3.0,3.0;"/><path d="M206.1393,295.912 L209.2232,293.5239 L207.7941,289.8946 L214.4884,294.9718 L206.1393,295.912 " fill="#A80036" style="stroke:#A80036;stroke-width:1.0;"/><ellipse cx="165.3555" cy="281.4603" fill="#A80036" rx="3" ry="3" style="stroke:#A80036;stroke-width:1.0;stroke-dasharray:3.0,3.0;"/><path d="M104,230.5 L117,230.5 C135.9246,230.5 149.4553,249.537 157.119,264.3492 " fill="none" style="stroke:#A80036;stroke-width:1.0;stroke-dasharray:3.0,3.0;"/><path d="M154.3869,265.6647 L158.1056,266.3983 L159.8511,263.0337 L160.4078,271.1794 L154.3869,265.6647 " fill="#A80036" style="stroke:#A80036;stroke-width:1.0;"/><ellipse cx="104" cy="230.5" fill="#A80036" rx="3" ry="3" style="stroke:#A80036;stroke-width:1.0;stroke-dasharray:3.0,3.0;"/><!--MD5=[89fa65beef0a0b9b7db4680e9ef5d32a]
@startjson "OPC UA Config"
{
  "host": "url",
  "sensors": [
    {
      "attributes": [
        {
          "intervall": "number",
          "mode": ["\"poll\"", "\"subscription\""],
          "name": "string",
          "namespace": "string",
          "nodeId": "string"
        }
      ],
      "id": "string",
      "namespace": "string",
      "nodeId": "string"
    }
  ],
  "actuators": [
    {
      "attributes": [
        {
          "intervall": "number",
          "mode": ["\"poll\"", "\"subscription\""],
          "name": "string",
          "namespace": "string",
          "nodeId": "string"
        }
      ],
      "id": "string",
      "namespace": "string",
      "nodeId": "string"
    }
  ],
  "services": [
    {
      "attributes": [
        {
          "intervall": "number",
          "mode": ["\"poll\"", "\"subscription\""],
          "name": "string",
          "namespace": "string",
          "nodeId": "string"
        }
      ],
      "id": "string",
      "namespace": "string",
      "nodeId": "string"
    }
  ]
}

@endjson

PlantUML version 1.2021.6beta6(Unknown compile time)
(GPL source distribution)
Java Runtime: Java(TM) SE Runtime Environment
JVM: Java HotSpot(TM) 64-Bit Server VM
Default Encoding: UTF-8
Language: en
Country: US
--></g></svg>