<?xml version="1.0" encoding="UTF-8" standalone="no"?><svg xmlns="http://www.w3.org/2000/svg" xmlns:xlink="http://www.w3.org/1999/xlink" contentScriptType="application/ecmascript" contentStyleType="text/css" height="319px" preserveAspectRatio="none" style="width:306px;height:319px;" version="1.1" viewBox="0 0 306 319" width="306px" zoomAndPan="magnify"><defs/><g><rect fill="#FEFECE" height="81.1875" rx="5" ry="5" style="stroke:#FEFECE;stroke-width:1.5;" width="103" x="10" y="129"/><text fill="#000000" font-family="sans-serif" font-size="14" lengthAdjust="spacing" textLength="50" x="15" y="143.9951">include</text><text fill="#000000" font-family="sans-serif" font-size="14" lengthAdjust="spacing" textLength="0" x="108" y="143.9951"/><line style="stroke:#A80036;stroke-width:1.0;" x1="91" x2="91" y1="129" y2="149.2969"/><line style="stroke:#A80036;stroke-width:1.0;" x1="10" x2="113" y1="149.2969" y2="149.2969"/><text fill="#000000" font-family="sans-serif" font-size="14" lengthAdjust="spacing" textLength="71" x="15" y="164.292">tripleStore</text><text fill="#000000" font-family="sans-serif" font-size="14" lengthAdjust="spacing" textLength="0" x="108" y="164.292"/><line style="stroke:#A80036;stroke-width:1.0;" x1="91" x2="91" y1="149.2969" y2="169.5938"/><line style="stroke:#A80036;stroke-width:1.0;" x1="10" x2="113" y1="169.5938" y2="169.5938"/><text fill="#000000" font-family="sans-serif" font-size="14" lengthAdjust="spacing" textLength="53" x="15" y="184.5889">influxdb</text><text fill="#000000" font-family="sans-serif" font-size="14" lengthAdjust="spacing" textLength="0" x="108" y="184.5889"/><line style="stroke:#A80036;stroke-width:1.0;" x1="91" x2="91" y1="169.5938" y2="189.8906"/><line style="stroke:#A80036;stroke-width:1.0;" x1="10" x2="113" y1="189.8906" y2="189.8906"/><text fill="#000000" font-family="sans-serif" font-size="14" lengthAdjust="spacing" textLength="40" x="15" y="204.8857">buffer</text><text fill="#000000" font-family="sans-serif" font-size="14" lengthAdjust="spacing" textLength="0" x="108" y="204.8857"/><line style="stroke:#A80036;stroke-width:1.0;" x1="91" x2="91" y1="189.8906" y2="210.1875"/><rect fill="none" height="81.1875" rx="5" ry="5" style="stroke:#A80036;stroke-width:1.5;" width="103" x="10" y="129"/><rect fill="#FEFECE" height="60.8906" rx="5" ry="5" style="stroke:#FEFECE;stroke-width:1.5;" width="85" x="179.5" y="10"/><text fill="#000000" font-family="sans-serif" font-size="14" lengthAdjust="spacing" textLength="66" x="184.5" y="24.9951">"sensors"</text><line style="stroke:#A80036;stroke-width:1.0;" x1="179.5" x2="264.5" y1="30.2969" y2="30.2969"/><text fill="#000000" font-family="sans-serif" font-size="14" lengthAdjust="spacing" textLength="75" x="184.5" y="45.292">"actuators"</text><line style="stroke:#A80036;stroke-width:1.0;" x1="179.5" x2="264.5" y1="50.5938" y2="50.5938"/><text fill="#000000" font-family="sans-serif" font-size="14" lengthAdjust="spacing" textLength="67" x="184.5" y="65.5889">"services"</text><rect fill="none" height="60.8906" rx="5" ry="5" style="stroke:#A80036;stroke-width:1.5;" width="85" x="179.5" y="10"/><rect fill="#FEFECE" height="60.8906" rx="5" ry="5" style="stroke:#FEFECE;stroke-width:1.5;" width="129" x="157.5" y="89"/><text fill="#000000" font-family="sans-serif" font-size="14" lengthAdjust="spacing" textLength="31" x="162.5" y="103.9951">host</text><text fill="#000000" font-family="sans-serif" font-size="14" lengthAdjust="spacing" textLength="17" x="242.5" y="103.9951">url</text><line style="stroke:#A80036;stroke-width:1.0;" x1="237.5" x2="237.5" y1="89" y2="109.2969"/><line style="stroke:#A80036;stroke-width:1.0;" x1="157.5" x2="286.5" y1="109.2969" y2="109.2969"/><text fill="#000000" font-family="sans-serif" font-size="14" lengthAdjust="spacing" textLength="70" x="162.5" y="124.292">username</text><text fill="#000000" font-family="sans-serif" font-size="14" lengthAdjust="spacing" textLength="39" x="242.5" y="124.292">string</text><line style="stroke:#A80036;stroke-width:1.0;" x1="237.5" x2="237.5" y1="109.2969" y2="129.5938"/><line style="stroke:#A80036;stroke-width:1.0;" x1="157.5" x2="286.5" y1="129.5938" y2="129.5938"/><text fill="#000000" font-family="sans-serif" font-size="14" lengthAdjust="spacing" textLength="67" x="162.5" y="144.5889">password</text><text fill="#000000" font-family="sans-serif" font-size="14" lengthAdjust="spacing" textLength="39" x="242.5" y="144.5889">string</text><line style="stroke:#A80036;stroke-width:1.0;" x1="237.5" x2="237.5" y1="129.5938" y2="149.8906"/><rect fill="none" height="60.8906" rx="5" ry="5" style="stroke:#A80036;stroke-width:1.5;" width="129" x="157.5" y="89"/><rect fill="#FEFECE" height="101.4844" rx="5" ry="5" style="stroke:#FEFECE;stroke-width:1.5;" width="144" x="150" y="168"/><text fill="#000000" font-family="sans-serif" font-size="14" lengthAdjust="spacing" textLength="31" x="155" y="182.9951">host</text><text fill="#000000" font-family="sans-serif" font-size="14" lengthAdjust="spacing" textLength="17" x="250" y="182.9951">url</text><line style="stroke:#A80036;stroke-width:1.0;" x1="245" x2="245" y1="168" y2="188.2969"/><line style="stroke:#A80036;stroke-width:1.0;" x1="150" x2="294" y1="188.2969" y2="188.2969"/><text fill="#000000" font-family="sans-serif" font-size="14" lengthAdjust="spacing" textLength="70" x="155" y="203.292">username</text><text fill="#000000" font-family="sans-serif" font-size="14" lengthAdjust="spacing" textLength="39" x="250" y="203.292">string</text><line style="stroke:#A80036;stroke-width:1.0;" x1="245" x2="245" y1="188.2969" y2="208.5938"/><line style="stroke:#A80036;stroke-width:1.0;" x1="150" x2="294" y1="208.5938" y2="208.5938"/><text fill="#000000" font-family="sans-serif" font-size="14" lengthAdjust="spacing" textLength="67" x="155" y="223.5889">password</text><text fill="#000000" font-family="sans-serif" font-size="14" lengthAdjust="spacing" textLength="39" x="250" y="223.5889">string</text><line style="stroke:#A80036;stroke-width:1.0;" x1="245" x2="245" y1="208.5938" y2="228.8906"/><line style="stroke:#A80036;stroke-width:1.0;" x1="150" x2="294" y1="228.8906" y2="228.8906"/><text fill="#000000" font-family="sans-serif" font-size="14" lengthAdjust="spacing" textLength="85" x="155" y="243.8857">organization</text><text fill="#000000" font-family="sans-serif" font-size="14" lengthAdjust="spacing" textLength="39" x="250" y="243.8857">string</text><line style="stroke:#A80036;stroke-width:1.0;" x1="245" x2="245" y1="228.8906" y2="249.1875"/><line style="stroke:#A80036;stroke-width:1.0;" x1="150" x2="294" y1="249.1875" y2="249.1875"/><text fill="#000000" font-family="sans-serif" font-size="14" lengthAdjust="spacing" textLength="48" x="155" y="264.1826">bucket</text><text fill="#000000" font-family="sans-serif" font-size="14" lengthAdjust="spacing" textLength="39" x="250" y="264.1826">string</text><line style="stroke:#A80036;stroke-width:1.0;" x1="245" x2="245" y1="249.1875" y2="269.4844"/><rect fill="none" height="101.4844" rx="5" ry="5" style="stroke:#A80036;stroke-width:1.5;" width="144" x="150" y="168"/><rect fill="#FEFECE" height="20.2969" rx="5" ry="5" style="stroke:#FEFECE;stroke-width:1.5;" width="102" x="171" y="287.5"/><text fill="#000000" font-family="sans-serif" font-size="14" lengthAdjust="spacing" textLength="28" x="176" y="302.4951">size</text><text fill="#000000" font-family="sans-serif" font-size="14" lengthAdjust="spacing" textLength="54" x="214" y="302.4951">number</text><line style="stroke:#A80036;stroke-width:1.0;" x1="209" x2="209" y1="287.5" y2="307.7969"/><rect fill="none" height="20.2969" rx="5" ry="5" style="stroke:#A80036;stroke-width:1.5;" width="102" x="171" y="287.5"/><path d="M101,138.5 L114,138.5 C144.7182,138.5 127.7585,100.6878 150,79.5 C156.7186,73.0997 164.6912,67.418 172.8333,62.507 " fill="none" style="stroke:#A80036;stroke-width:1.0;stroke-dasharray:3.0,3.0;"/><path d="M174.4104,65.2491 L174.8899,61.3241 L171.2562,59.7648 L179.6887,58.5641 L174.4104,65.2491 " fill="#A80036" style="stroke:#A80036;stroke-width:1.0;"/><ellipse cx="101" cy="138.5" fill="#A80036" rx="3" ry="3" style="stroke:#A80036;stroke-width:1.0;stroke-dasharray:3.0,3.0;"/><path d="M101,158.5 L114,158.5 C126.7791,158.5 139.9281,156.0345 152.453,152.3432 " fill="none" style="stroke:#A80036;stroke-width:1.0;stroke-dasharray:3.0,3.0;"/><path d="M153.3752,155.2611 L154.6415,151.6515 L151.5308,149.4252 L159.7479,150.0376 L153.3752,155.2611 " fill="#A80036" style="stroke:#A80036;stroke-width:1.0;"/><ellipse cx="101" cy="158.5" fill="#A80036" rx="3" ry="3" style="stroke:#A80036;stroke-width:1.0;stroke-dasharray:3.0,3.0;"/><path d="M101,179.5 L114,179.5 C123.6506,179.5 133.5122,180.9061 143.1566,183.1844 " fill="none" style="stroke:#A80036;stroke-width:1.0;stroke-dasharray:3.0,3.0;"/><path d="M142.3953,186.1147 L145.3544,183.7554 L143.918,180.2541 L150.4824,185.0877 L142.3953,186.1147 " fill="#A80036" style="stroke:#A80036;stroke-width:1.0;"/><ellipse cx="101" cy="179.5" fill="#A80036" rx="3" ry="3" style="stroke:#A80036;stroke-width:1.0;stroke-dasharray:3.0,3.0;"/><path d="M101,199.5 L114,199.5 C152.5848,199.5 120.5253,253.5995 150,278.5 C154.2496,282.0901 159.1079,285.0092 164.2473,287.3817 " fill="none" style="stroke:#A80036;stroke-width:1.0;stroke-dasharray:3.0,3.0;"/><path d="M163.0841,290.2424 L166.3928,288.2541 L165.4105,284.521 L171.399,290.2897 L163.0841,290.2424 " fill="#A80036" style="stroke:#A80036;stroke-width:1.0;"/><ellipse cx="101" cy="199.5" fill="#A80036" rx="3" ry="3" style="stroke:#A80036;stroke-width:1.0;stroke-dasharray:3.0,3.0;"/><!--MD5=[4912ce0e5719736a80c70ce51ce4371f]
@startjson "Program Config"
{
    "include": ["\"sensors\"", "\"actuators\"", "\"services\""],
    "tripleStore": {
        "host": "url",
        "username": "string",
        "password": "string"
    },
    "influxdb": {
        "host": "url",
        "username": "string",
        "password": "string",
        "organization": "string",
        "bucket": "string"
    },
    "buffer": {
        "size": "number"
    }
}
@endjson

PlantUML version 1.2021.5(Sun Apr 25 13:20:28 CEST 2021)
(GPL source distribution)
Java Runtime: OpenJDK Runtime Environment
JVM: OpenJDK 64-Bit Server VM
Default Encoding: UTF-8
Language: de
Country: DE
--></g></svg>