<?xml version="1.0" encoding="UTF-8" standalone="no"?><svg xmlns="http://www.w3.org/2000/svg" xmlns:xlink="http://www.w3.org/1999/xlink" contentScriptType="application/ecmascript" contentStyleType="text/css" height="1344px" preserveAspectRatio="none" style="width:931px;height:1344px;" version="1.1" viewBox="0 0 931 1344" width="931px" zoomAndPan="magnify"><defs/><g><rect fill="#FFFFFF" height="64.2656" style="stroke:#A80036;stroke-width:1.0;" width="10" x="65" y="62.5938"/><rect fill="#FFFFFF" height="58.2656" style="stroke:#A80036;stroke-width:1.0;" width="10" x="65" y="342.4453"/><rect fill="#FFFFFF" height="47.5938" style="stroke:#A80036;stroke-width:1.0;" width="10" x="65" y="468.3047"/><rect fill="#FFFFFF" height="89.1328" style="stroke:#A80036;stroke-width:1.0;" width="10" x="65" y="786.4844"/><rect fill="#FFFFFF" height="89.1328" style="stroke:#A80036;stroke-width:1.0;" width="10" x="65" y="1131.4141"/><rect fill="#FFFFFF" height="105.1875" style="stroke:#A80036;stroke-width:1.0;" width="10" x="198" y="136.8594"/><rect fill="#FFFFFF" height="71.2656" style="stroke:#A80036;stroke-width:1.0;" width="10" x="198" y="271.1797"/><rect fill="#FFFFFF" height="29.1328" style="stroke:#A80036;stroke-width:1.0;" width="10" x="326" y="242.0469"/><rect fill="#FFFFFF" height="47.5938" style="stroke:#A80036;stroke-width:1.0;" width="10" x="450" y="410.7109"/><rect fill="#FFFFFF" height="106.2656" style="stroke:#A80036;stroke-width:1.0;" width="10" x="450" y="710.2188"/><rect fill="#FFFFFF" height="106.2656" style="stroke:#A80036;stroke-width:1.0;" width="10" x="596.5" y="1055.1484"/><rect fill="#FFFFFF" height="47.5938" style="stroke:#A80036;stroke-width:1.0;" width="10" x="735.5" y="525.8984"/><rect fill="#FFFFFF" height="30" style="stroke:#A80036;stroke-width:1.0;" width="10" x="735.5" y="845.6172"/><rect fill="#FFFFFF" height="34.1328" style="stroke:#A80036;stroke-width:1.0;" width="10" x="735.5" y="912.75"/><rect fill="#FFFFFF" height="30" style="stroke:#A80036;stroke-width:1.0;" width="10" x="735.5" y="1190.5469"/><rect fill="#FFFFFF" height="34.1328" style="stroke:#A80036;stroke-width:1.0;" width="10" x="735.5" y="1257.6797"/><line style="stroke:#A80036;stroke-width:1.0;" x1="70" x2="70" y1="52.5938" y2="609.9531"/><line style="stroke:#A80036;stroke-width:1.0;stroke-dasharray:1.0,4.0;" x1="70" x2="70" y1="609.9531" y2="637.9531"/><line style="stroke:#A80036;stroke-width:1.0;" x1="70" x2="70" y1="637.9531" y2="954.8828"/><line style="stroke:#A80036;stroke-width:1.0;stroke-dasharray:1.0,4.0;" x1="70" x2="70" y1="954.8828" y2="982.8828"/><line style="stroke:#A80036;stroke-width:1.0;" x1="70" x2="70" y1="982.8828" y2="1299.8125"/><line style="stroke:#A80036;stroke-width:1.0;stroke-dasharray:1.0,4.0;" x1="70" x2="70" y1="1299.8125" y2="1327.8125"/><line style="stroke:#A80036;stroke-width:1.0;" x1="70" x2="70" y1="1327.8125" y2="1337.8125"/><line style="stroke:#A80036;stroke-width:1.0;" x1="203" x2="203" y1="144.5234" y2="609.9531"/><line style="stroke:#A80036;stroke-width:1.0;stroke-dasharray:1.0,4.0;" x1="203" x2="203" y1="609.9531" y2="637.9531"/><line style="stroke:#A80036;stroke-width:1.0;" x1="203" x2="203" y1="637.9531" y2="954.8828"/><line style="stroke:#A80036;stroke-width:1.0;stroke-dasharray:1.0,4.0;" x1="203" x2="203" y1="954.8828" y2="982.8828"/><line style="stroke:#A80036;stroke-width:1.0;" x1="203" x2="203" y1="982.8828" y2="1299.8125"/><line style="stroke:#A80036;stroke-width:1.0;stroke-dasharray:1.0,4.0;" x1="203" x2="203" y1="1299.8125" y2="1327.8125"/><line style="stroke:#A80036;stroke-width:1.0;" x1="203" x2="203" y1="1327.8125" y2="1337.8125"/><line style="stroke:#A80036;stroke-width:1.0;" x1="331" x2="331" y1="202.1172" y2="609.9531"/><line style="stroke:#A80036;stroke-width:1.0;stroke-dasharray:1.0,4.0;" x1="331" x2="331" y1="609.9531" y2="637.9531"/><line style="stroke:#A80036;stroke-width:1.0;" x1="331" x2="331" y1="637.9531" y2="954.8828"/><line style="stroke:#A80036;stroke-width:1.0;stroke-dasharray:1.0,4.0;" x1="331" x2="331" y1="954.8828" y2="982.8828"/><line style="stroke:#A80036;stroke-width:1.0;" x1="331" x2="331" y1="982.8828" y2="1299.8125"/><line style="stroke:#A80036;stroke-width:1.0;stroke-dasharray:1.0,4.0;" x1="331" x2="331" y1="1299.8125" y2="1327.8125"/><line style="stroke:#A80036;stroke-width:1.0;" x1="331" x2="331" y1="1327.8125" y2="1337.8125"/><line style="stroke:#A80036;stroke-width:1.0;" x1="455" x2="455" y1="418.375" y2="609.9531"/><line style="stroke:#A80036;stroke-width:1.0;stroke-dasharray:1.0,4.0;" x1="455" x2="455" y1="609.9531" y2="637.9531"/><line style="stroke:#A80036;stroke-width:1.0;" x1="455" x2="455" y1="637.9531" y2="954.8828"/><line style="stroke:#A80036;stroke-width:1.0;stroke-dasharray:1.0,4.0;" x1="455" x2="455" y1="954.8828" y2="982.8828"/><line style="stroke:#A80036;stroke-width:1.0;" x1="455" x2="455" y1="982.8828" y2="1299.8125"/><line style="stroke:#A80036;stroke-width:1.0;stroke-dasharray:1.0,4.0;" x1="455" x2="455" y1="1299.8125" y2="1327.8125"/><line style="stroke:#A80036;stroke-width:1.0;" x1="455" x2="455" y1="1327.8125" y2="1337.8125"/><line style="stroke:#A80036;stroke-width:1.0;" x1="601" x2="601" y1="475.9688" y2="609.9531"/><line style="stroke:#A80036;stroke-width:1.0;stroke-dasharray:1.0,4.0;" x1="601" x2="601" y1="609.9531" y2="637.9531"/><line style="stroke:#A80036;stroke-width:1.0;" x1="601" x2="601" y1="637.9531" y2="954.8828"/><line style="stroke:#A80036;stroke-width:1.0;stroke-dasharray:1.0,4.0;" x1="601" x2="601" y1="954.8828" y2="982.8828"/><line style="stroke:#A80036;stroke-width:1.0;" x1="601" x2="601" y1="982.8828" y2="1299.8125"/><line style="stroke:#A80036;stroke-width:1.0;stroke-dasharray:1.0,4.0;" x1="601" x2="601" y1="1299.8125" y2="1327.8125"/><line style="stroke:#A80036;stroke-width:1.0;" x1="601" x2="601" y1="1327.8125" y2="1337.8125"/><line style="stroke:#A80036;stroke-width:1.0;" x1="740" x2="740" y1="533.5625" y2="609.9531"/><line style="stroke:#A80036;stroke-width:1.0;stroke-dasharray:1.0,4.0;" x1="740" x2="740" y1="609.9531" y2="637.9531"/><line style="stroke:#A80036;stroke-width:1.0;" x1="740" x2="740" y1="637.9531" y2="954.8828"/><line style="stroke:#A80036;stroke-width:1.0;stroke-dasharray:1.0,4.0;" x1="740" x2="740" y1="954.8828" y2="982.8828"/><line style="stroke:#A80036;stroke-width:1.0;" x1="740" x2="740" y1="982.8828" y2="1299.8125"/><line style="stroke:#A80036;stroke-width:1.0;stroke-dasharray:1.0,4.0;" x1="740" x2="740" y1="1299.8125" y2="1327.8125"/><line style="stroke:#A80036;stroke-width:1.0;" x1="740" x2="740" y1="1327.8125" y2="1337.8125"/><line style="stroke:#A80036;stroke-width:1.0;" x1="864.5" x2="864.5" y1="591.1563" y2="609.9531"/><line style="stroke:#A80036;stroke-width:1.0;stroke-dasharray:1.0,4.0;" x1="864.5" x2="864.5" y1="609.9531" y2="637.9531"/><line style="stroke:#A80036;stroke-width:1.0;" x1="864.5" x2="864.5" y1="637.9531" y2="954.8828"/><line style="stroke:#A80036;stroke-width:1.0;stroke-dasharray:1.0,4.0;" x1="864.5" x2="864.5" y1="954.8828" y2="982.8828"/><line style="stroke:#A80036;stroke-width:1.0;" x1="864.5" x2="864.5" y1="982.8828" y2="1299.8125"/><line style="stroke:#A80036;stroke-width:1.0;stroke-dasharray:1.0,4.0;" x1="864.5" x2="864.5" y1="1299.8125" y2="1327.8125"/><line style="stroke:#A80036;stroke-width:1.0;" x1="864.5" x2="864.5" y1="1327.8125" y2="1337.8125"/><rect fill="#FEFECE" height="30.2969" style="stroke:#A80036;stroke-width:1.5;" width="130" x="5" y="21.2969"/><text fill="#000000" font-family="sans-serif" font-size="14" lengthAdjust="spacing" textLength="116" x="12" y="41.292">ProcessHistorian</text><rect fill="#FFFFFF" height="64.2656" style="stroke:#A80036;stroke-width:1.0;" width="10" x="65" y="62.5938"/><rect fill="#FFFFFF" height="58.2656" style="stroke:#A80036;stroke-width:1.0;" width="10" x="65" y="342.4453"/><rect fill="#FFFFFF" height="47.5938" style="stroke:#A80036;stroke-width:1.0;" width="10" x="65" y="468.3047"/><rect fill="#FFFFFF" height="89.1328" style="stroke:#A80036;stroke-width:1.0;" width="10" x="65" y="786.4844"/><rect fill="#FFFFFF" height="89.1328" style="stroke:#A80036;stroke-width:1.0;" width="10" x="65" y="1131.4141"/><rect fill="#FFFFFF" height="105.1875" style="stroke:#A80036;stroke-width:1.0;" width="10" x="198" y="136.8594"/><rect fill="#FFFFFF" height="71.2656" style="stroke:#A80036;stroke-width:1.0;" width="10" x="198" y="271.1797"/><rect fill="#FFFFFF" height="29.1328" style="stroke:#A80036;stroke-width:1.0;" width="10" x="326" y="242.0469"/><rect fill="#FFFFFF" height="47.5938" style="stroke:#A80036;stroke-width:1.0;" width="10" x="450" y="410.7109"/><rect fill="#FFFFFF" height="106.2656" style="stroke:#A80036;stroke-width:1.0;" width="10" x="450" y="710.2188"/><rect fill="#FFFFFF" height="106.2656" style="stroke:#A80036;stroke-width:1.0;" width="10" x="596.5" y="1055.1484"/><rect fill="#FFFFFF" height="47.5938" style="stroke:#A80036;stroke-width:1.0;" width="10" x="735.5" y="525.8984"/><rect fill="#FFFFFF" height="30" style="stroke:#A80036;stroke-width:1.0;" width="10" x="735.5" y="845.6172"/><rect fill="#FFFFFF" height="34.1328" style="stroke:#A80036;stroke-width:1.0;" width="10" x="735.5" y="912.75"/><rect fill="#FFFFFF" height="30" style="stroke:#A80036;stroke-width:1.0;" width="10" x="735.5" y="1190.5469"/><rect fill="#FFFFFF" height="34.1328" style="stroke:#A80036;stroke-width:1.0;" width="10" x="735.5" y="1257.6797"/><rect fill="#EEEEEE" height="3" style="stroke:#EEEEEE;stroke-width:1.0;" width="924.5" x="0" y="83.1602"/><line style="stroke:#000000;stroke-width:1.0;" x1="0" x2="924.5" y1="83.1602" y2="83.1602"/><line style="stroke:#000000;stroke-width:1.0;" x1="0" x2="924.5" y1="86.1602" y2="86.1602"/><rect fill="#EEEEEE" height="23.1328" style="stroke:#000000;stroke-width:2.0;" width="108" x="408.25" y="72.5938"/><text fill="#000000" font-family="sans-serif" font-size="13" font-weight="bold" lengthAdjust="spacing" textLength="89" x="414.25" y="88.6606">Initialization</text><polygon fill="#A80036" points="133,122.8594,143,126.8594,133,130.8594" style="stroke:#A80036;stroke-width:1.0;"/><line style="stroke:#A80036;stroke-width:1.0;" x1="70" x2="139" y1="126.8594" y2="126.8594"/><text fill="#000000" font-family="sans-serif" font-size="13" lengthAdjust="spacing" textLength="41" x="77" y="121.7935">create</text><rect fill="#FEFECE" height="46.5938" style="stroke:#A80036;stroke-width:1.5;" width="116" x="145" y="105.7266"/><text fill="#000000" font-family="sans-serif" font-size="14" lengthAdjust="spacing" textLength="102" x="152" y="125.7217">[ConfigBuilder]</text><text fill="#000000" font-family="sans-serif" font-size="14" lengthAdjust="spacing" textLength="85" x="160.5" y="142.0186">Configurator</text><polygon fill="#A80036" points="261,180.4531,271,184.4531,261,188.4531" style="stroke:#A80036;stroke-width:1.0;"/><line style="stroke:#A80036;stroke-width:1.0;" x1="208" x2="267" y1="184.4531" y2="184.4531"/><text fill="#000000" font-family="sans-serif" font-size="13" lengthAdjust="spacing" textLength="41" x="215" y="179.3872">create</text><rect fill="#FEFECE" height="46.5938" style="stroke:#A80036;stroke-width:1.5;" width="116" x="273" y="163.3203"/><text fill="#000000" font-family="sans-serif" font-size="14" lengthAdjust="spacing" textLength="102" x="280" y="183.3154">[ConfigBuilder]</text><text fill="#000000" font-family="sans-serif" font-size="14" lengthAdjust="spacing" textLength="94" x="284" y="199.6123">SPARQLClient</text><polygon fill="#A80036" points="314,238.0469,324,242.0469,314,246.0469" style="stroke:#A80036;stroke-width:1.0;"/><line style="stroke:#A80036;stroke-width:1.0;" x1="203" x2="320" y1="242.0469" y2="242.0469"/><text fill="#000000" font-family="sans-serif" font-size="13" lengthAdjust="spacing" textLength="65" x="210" y="236.981">fetch data</text><polygon fill="#A80036" points="219,267.1797,209,271.1797,219,275.1797" style="stroke:#A80036;stroke-width:1.0;"/><line style="stroke:#A80036;stroke-width:1.0;" x1="213" x2="330" y1="271.1797" y2="271.1797"/><text fill="#000000" font-family="sans-serif" font-size="13" lengthAdjust="spacing" textLength="72" x="225" y="266.1138">return data</text><line style="stroke:#A80036;stroke-width:1.0;" x1="208" x2="250" y1="300.3125" y2="300.3125"/><line style="stroke:#A80036;stroke-width:1.0;" x1="250" x2="250" y1="300.3125" y2="313.3125"/><line style="stroke:#A80036;stroke-width:1.0;" x1="209" x2="250" y1="313.3125" y2="313.3125"/><polygon fill="#A80036" points="219,309.3125,209,313.3125,219,317.3125" style="stroke:#A80036;stroke-width:1.0;"/><text fill="#000000" font-family="sans-serif" font-size="13" lengthAdjust="spacing" textLength="72" x="215" y="295.2466">write config</text><polygon fill="#A80036" points="319,338.4453,329,342.4453,319,346.4453" style="stroke:#A80036;stroke-width:1.0;"/><line style="stroke:#A80036;stroke-width:1.0;" x1="203" x2="325" y1="342.4453" y2="342.4453"/><text fill="#000000" font-family="sans-serif" font-size="13" lengthAdjust="spacing" textLength="40" x="210" y="337.3794">delete</text><line style="stroke:#A80036;stroke-width:2.0;" x1="322" x2="340" y1="333.4453" y2="351.4453"/><line style="stroke:#A80036;stroke-width:2.0;" x1="322" x2="340" y1="351.4453" y2="333.4453"/><polygon fill="#A80036" points="191,367.5781,201,371.5781,191,375.5781" style="stroke:#A80036;stroke-width:1.0;"/><line style="stroke:#A80036;stroke-width:1.0;" x1="75" x2="197" y1="371.5781" y2="371.5781"/><text fill="#000000" font-family="sans-serif" font-size="13" lengthAdjust="spacing" textLength="40" x="82" y="366.5122">delete</text><line style="stroke:#A80036;stroke-width:2.0;" x1="194" x2="212" y1="362.5781" y2="380.5781"/><line style="stroke:#A80036;stroke-width:2.0;" x1="194" x2="212" y1="380.5781" y2="362.5781"/><polygon fill="#A80036" points="387,396.7109,397,400.7109,387,404.7109" style="stroke:#A80036;stroke-width:1.0;"/><line style="stroke:#A80036;stroke-width:1.0;" x1="70" x2="393" y1="400.7109" y2="400.7109"/><text fill="#000000" font-family="sans-serif" font-size="13" lengthAdjust="spacing" textLength="41" x="77" y="395.645">create</text><rect fill="#FEFECE" height="46.5938" style="stroke:#A80036;stroke-width:1.5;" width="112" x="399" y="379.5781"/><text fill="#000000" font-family="sans-serif" font-size="14" lengthAdjust="spacing" textLength="98" x="406" y="399.5732">[OPCUAClient]</text><text fill="#000000" font-family="sans-serif" font-size="14" lengthAdjust="spacing" textLength="39" x="435.5" y="415.8701">Client</text><polygon fill="#A80036" points="513,454.3047,523,458.3047,513,462.3047" style="stroke:#A80036;stroke-width:1.0;"/><line style="stroke:#A80036;stroke-width:1.0;" x1="455" x2="519" y1="458.3047" y2="458.3047"/><text fill="#000000" font-family="sans-serif" font-size="13" lengthAdjust="spacing" textLength="41" x="462" y="453.2388">create</text><rect fill="#FEFECE" height="46.5938" style="stroke:#A80036;stroke-width:1.5;" width="153" x="525" y="437.1719"/><text fill="#000000" font-family="sans-serif" font-size="14" lengthAdjust="spacing" textLength="98" x="552.5" y="457.167">[OPCUAClient]</text><text fill="#000000" font-family="sans-serif" font-size="14" lengthAdjust="spacing" textLength="139" x="532" y="473.4639">SubscriptionHandler</text><polygon fill="#A80036" points="676,511.8984,686,515.8984,676,519.8984" style="stroke:#A80036;stroke-width:1.0;"/><line style="stroke:#A80036;stroke-width:1.0;" x1="70" x2="682" y1="515.8984" y2="515.8984"/><text fill="#000000" font-family="sans-serif" font-size="13" lengthAdjust="spacing" textLength="41" x="77" y="510.8325">create</text><rect fill="#FEFECE" height="46.5938" style="stroke:#A80036;stroke-width:1.5;" width="105" x="688" y="494.7656"/><text fill="#000000" font-family="sans-serif" font-size="14" lengthAdjust="spacing" textLength="91" x="695" y="514.7607">[CloudBuffer]</text><text fill="#000000" font-family="sans-serif" font-size="14" lengthAdjust="spacing" textLength="41" x="720" y="531.0576">Buffer</text><polygon fill="#A80036" points="798.5,569.4922,808.5,573.4922,798.5,577.4922" style="stroke:#A80036;stroke-width:1.0;"/><line style="stroke:#A80036;stroke-width:1.0;" x1="740.5" x2="804.5" y1="573.4922" y2="573.4922"/><text fill="#000000" font-family="sans-serif" font-size="13" lengthAdjust="spacing" textLength="41" x="747.5" y="568.4263">create</text><rect fill="#FEFECE" height="46.5938" style="stroke:#A80036;stroke-width:1.5;" width="109" x="810.5" y="552.3594"/><text fill="#000000" font-family="sans-serif" font-size="14" lengthAdjust="spacing" textLength="91" x="819.5" y="572.3545">[CloudBuffer]</text><text fill="#000000" font-family="sans-serif" font-size="14" lengthAdjust="spacing" textLength="95" x="817.5" y="588.6514">InfluxDBClient</text><rect fill="#EEEEEE" height="3" style="stroke:#EEEEEE;stroke-width:1.0;" width="924.5" x="0" y="658.5195"/><line style="stroke:#000000;stroke-width:1.0;" x1="0" x2="924.5" y1="658.5195" y2="658.5195"/><line style="stroke:#000000;stroke-width:1.0;" x1="0" x2="924.5" y1="661.5195" y2="661.5195"/><rect fill="#EEEEEE" height="23.1328" style="stroke:#000000;stroke-width:2.0;" width="69" x="427.75" y="647.9531"/><text fill="#000000" font-family="sans-serif" font-size="13" font-weight="bold" lengthAdjust="spacing" textLength="50" x="433.75" y="664.02">Polling</text><line style="stroke:#A80036;stroke-width:1.0;" x1="455" x2="502" y1="697.2188" y2="697.2188"/><line style="stroke:#A80036;stroke-width:1.0;" x1="502" x2="502" y1="697.2188" y2="710.2188"/><line style="stroke:#A80036;stroke-width:1.0;" x1="461" x2="502" y1="710.2188" y2="710.2188"/><polygon fill="#A80036" points="471,706.2188,461,710.2188,471,714.2188" style="stroke:#A80036;stroke-width:1.0;"/><text fill="#000000" font-family="sans-serif" font-size="13" lengthAdjust="spacing" textLength="74" x="467" y="692.1528">timer event</text><line style="stroke:#A80036;stroke-width:1.0;" x1="460" x2="502" y1="744.3516" y2="744.3516"/><line style="stroke:#A80036;stroke-width:1.0;" x1="502" x2="502" y1="744.3516" y2="757.3516"/><line style="stroke:#A80036;stroke-width:1.0;" x1="461" x2="502" y1="757.3516" y2="757.3516"/><polygon fill="#A80036" points="471,753.3516,461,757.3516,471,761.3516" style="stroke:#A80036;stroke-width:1.0;"/><text fill="#000000" font-family="sans-serif" font-size="13" lengthAdjust="spacing" textLength="55" x="467" y="739.2856">poll data</text><polygon fill="#A80036" points="86,782.4844,76,786.4844,86,790.4844" style="stroke:#A80036;stroke-width:1.0;"/><line style="stroke:#A80036;stroke-width:1.0;" x1="80" x2="449" y1="786.4844" y2="786.4844"/><text fill="#000000" font-family="sans-serif" font-size="13" lengthAdjust="spacing" textLength="64" x="92" y="781.4185">send data</text><polygon fill="#A80036" points="723.5,841.6172,733.5,845.6172,723.5,849.6172" style="stroke:#A80036;stroke-width:1.0;"/><line style="stroke:#A80036;stroke-width:1.0;" x1="75" x2="729.5" y1="845.6172" y2="845.6172"/><text fill="#000000" font-family="sans-serif" font-size="13" lengthAdjust="spacing" textLength="57" x="82" y="840.5513">add data</text><line style="stroke:#A80036;stroke-width:1.0;" x1="740.5" x2="787.5" y1="899.75" y2="899.75"/><line style="stroke:#A80036;stroke-width:1.0;" x1="787.5" x2="787.5" y1="899.75" y2="912.75"/><line style="stroke:#A80036;stroke-width:1.0;" x1="746.5" x2="787.5" y1="912.75" y2="912.75"/><polygon fill="#A80036" points="756.5,908.75,746.5,912.75,756.5,916.75" style="stroke:#A80036;stroke-width:1.0;"/><text fill="#000000" font-family="sans-serif" font-size="13" lengthAdjust="spacing" textLength="74" x="752.5" y="894.6841">timer event</text><polygon fill="#A80036" points="853,942.8828,863,946.8828,853,950.8828" style="stroke:#A80036;stroke-width:1.0;"/><line style="stroke:#A80036;stroke-width:1.0;" x1="740.5" x2="859" y1="946.8828" y2="946.8828"/><text fill="#000000" font-family="sans-serif" font-size="13" lengthAdjust="spacing" textLength="64" x="747.5" y="941.8169">send data</text><rect fill="#EEEEEE" height="3" style="stroke:#EEEEEE;stroke-width:1.0;" width="924.5" x="0" y="1003.4492"/><line style="stroke:#000000;stroke-width:1.0;" x1="0" x2="924.5" y1="1003.4492" y2="1003.4492"/><line style="stroke:#000000;stroke-width:1.0;" x1="0" x2="924.5" y1="1006.4492" y2="1006.4492"/><rect fill="#EEEEEE" height="23.1328" style="stroke:#000000;stroke-width:2.0;" width="111" x="406.75" y="992.8828"/><text fill="#000000" font-family="sans-serif" font-size="13" font-weight="bold" lengthAdjust="spacing" textLength="92" x="412.75" y="1008.9497">Subscription</text><line style="stroke:#A80036;stroke-width:1.0;" x1="601.5" x2="648.5" y1="1042.1484" y2="1042.1484"/><line style="stroke:#A80036;stroke-width:1.0;" x1="648.5" x2="648.5" y1="1042.1484" y2="1055.1484"/><line style="stroke:#A80036;stroke-width:1.0;" x1="607.5" x2="648.5" y1="1055.1484" y2="1055.1484"/><polygon fill="#A80036" points="617.5,1051.1484,607.5,1055.1484,617.5,1059.1484" style="stroke:#A80036;stroke-width:1.0;"/><text fill="#000000" font-family="sans-serif" font-size="13" lengthAdjust="spacing" textLength="91" x="613.5" y="1037.0825">data incoming</text><line style="stroke:#A80036;stroke-width:1.0;" x1="606.5" x2="648.5" y1="1089.2813" y2="1089.2813"/><line style="stroke:#A80036;stroke-width:1.0;" x1="648.5" x2="648.5" y1="1089.2813" y2="1102.2813"/><line style="stroke:#A80036;stroke-width:1.0;" x1="607.5" x2="648.5" y1="1102.2813" y2="1102.2813"/><polygon fill="#A80036" points="617.5,1098.2813,607.5,1102.2813,617.5,1106.2813" style="stroke:#A80036;stroke-width:1.0;"/><text fill="#000000" font-family="sans-serif" font-size="13" lengthAdjust="spacing" textLength="54" x="613.5" y="1084.2153">get data</text><polygon fill="#A80036" points="86,1127.4141,76,1131.4141,86,1135.4141" style="stroke:#A80036;stroke-width:1.0;"/><line style="stroke:#A80036;stroke-width:1.0;" x1="80" x2="595.5" y1="1131.4141" y2="1131.4141"/><text fill="#000000" font-family="sans-serif" font-size="13" lengthAdjust="spacing" textLength="64" x="92" y="1126.3481">send data</text><polygon fill="#A80036" points="723.5,1186.5469,733.5,1190.5469,723.5,1194.5469" style="stroke:#A80036;stroke-width:1.0;"/><line style="stroke:#A80036;stroke-width:1.0;" x1="75" x2="729.5" y1="1190.5469" y2="1190.5469"/><text fill="#000000" font-family="sans-serif" font-size="13" lengthAdjust="spacing" textLength="57" x="82" y="1185.481">add data</text><line style="stroke:#A80036;stroke-width:1.0;" x1="740.5" x2="787.5" y1="1244.6797" y2="1244.6797"/><line style="stroke:#A80036;stroke-width:1.0;" x1="787.5" x2="787.5" y1="1244.6797" y2="1257.6797"/><line style="stroke:#A80036;stroke-width:1.0;" x1="746.5" x2="787.5" y1="1257.6797" y2="1257.6797"/><polygon fill="#A80036" points="756.5,1253.6797,746.5,1257.6797,756.5,1261.6797" style="stroke:#A80036;stroke-width:1.0;"/><text fill="#000000" font-family="sans-serif" font-size="13" lengthAdjust="spacing" textLength="74" x="752.5" y="1239.6138">timer event</text><polygon fill="#A80036" points="853,1287.8125,863,1291.8125,853,1295.8125" style="stroke:#A80036;stroke-width:1.0;"/><line style="stroke:#A80036;stroke-width:1.0;" x1="740.5" x2="859" y1="1291.8125" y2="1291.8125"/><text fill="#000000" font-family="sans-serif" font-size="13" lengthAdjust="spacing" textLength="64" x="747.5" y="1286.7466">send data</text><!--MD5=[650678bef334ed1f31b192eec4be416a]
@startuml "Sequence Diagram"
skinparam style strictuml
participant ProcessHistorian
== Initialization ==
activate ProcessHistorian
ProcessHistorian -> "[ConfigBuilder]\nConfigurator" as ConfigBuilder.Configurator ** : create
deactivate ProcessHistorian
activate ConfigBuilder.Configurator
ConfigBuilder.Configurator -> "[ConfigBuilder]\nSPARQLClient" as ConfigBuilder.SPARQLClient ** : create
ConfigBuilder.Configurator -> ConfigBuilder.SPARQLClient : fetch data
deactivate ConfigBuilder.Configurator
activate ConfigBuilder.SPARQLClient
ConfigBuilder.SPARQLClient -> ConfigBuilder.Configurator : return data
deactivate ConfigBuilder.SPARQLClient
activate ConfigBuilder.Configurator
ConfigBuilder.Configurator -> ConfigBuilder.Configurator : write config
ConfigBuilder.Configurator -> ConfigBuilder.SPARQLClient !! : delete
deactivate ConfigBuilder.Configurator
activate ProcessHistorian
ProcessHistorian -> ConfigBuilder.Configurator !! : delete

ProcessHistorian -> "[OPCUAClient]\nClient" as OPCUAClient.Client ** : create
activate OPCUAClient.Client
deactivate ProcessHistorian
OPCUAClient.Client -> "[OPCUAClient]\nSubscriptionHandler" as OPCUAClient.SubscriptionHandler ** : create
deactivate OPCUAClient.Client

activate ProcessHistorian
ProcessHistorian -> "[CloudBuffer]\nBuffer" as CloudBuffer.Buffer ** : create
activate CloudBuffer.Buffer
deactivate ProcessHistorian
CloudBuffer.Buffer -> "[CloudBuffer]\nInfluxDBClient" as CloudBuffer.InfluxDBClient ** : create
deactivate CloudBuffer.Buffer
...

== Polling ==

OPCUAClient.Client -> OPCUAClient.Client : timer event
activate OPCUAClient.Client
OPCUAClient.Client -> OPCUAClient.Client : poll data
OPCUAClient.Client -> ProcessHistorian : send data
activate ProcessHistorian
deactivate OPCUAClient.Client
ProcessHistorian -> CloudBuffer.Buffer : add data
activate CloudBuffer.Buffer
deactivate CloudBuffer.Buffer
deactivate ProcessHistorian
CloudBuffer.Buffer -> CloudBuffer.Buffer : timer event
activate CloudBuffer.Buffer
CloudBuffer.Buffer -> CloudBuffer.InfluxDBClient : send data
deactivate CloudBuffer.Buffer
...

== Subscription ==

OPCUAClient.SubscriptionHandler -> OPCUAClient.SubscriptionHandler : data incoming
activate OPCUAClient.SubscriptionHandler
OPCUAClient.SubscriptionHandler -> OPCUAClient.SubscriptionHandler : get data
OPCUAClient.SubscriptionHandler -> ProcessHistorian : send data
activate ProcessHistorian
deactivate OPCUAClient.SubscriptionHandler
ProcessHistorian -> CloudBuffer.Buffer : add data
activate CloudBuffer.Buffer
deactivate CloudBuffer.Buffer
deactivate ProcessHistorian
CloudBuffer.Buffer -> CloudBuffer.Buffer : timer event
activate CloudBuffer.Buffer
CloudBuffer.Buffer -> CloudBuffer.InfluxDBClient : send data
deactivate CloudBuffer.Buffer
...
@enduml

PlantUML version 1.2021.5(Sun Apr 25 13:20:28 CEST 2021)
(GPL source distribution)
Java Runtime: OpenJDK Runtime Environment
JVM: OpenJDK 64-Bit Server VM
Default Encoding: UTF-8
Language: de
Country: DE
--></g></svg>