<?xml version="1.0" encoding="UTF-8" standalone="no"?><svg xmlns="http://www.w3.org/2000/svg" xmlns:xlink="http://www.w3.org/1999/xlink" contentScriptType="application/ecmascript" contentStyleType="text/css" height="536px" preserveAspectRatio="none" style="width:309px;height:536px;" version="1.1" viewBox="0 0 309 536" width="309px" zoomAndPan="magnify"><defs><filter height="300%" id="fhkx9az1j68n3" width="300%" x="-1" y="-1"><feGaussianBlur result="blurOut" stdDeviation="2.0"/><feColorMatrix in="blurOut" result="blurOut2" type="matrix" values="0 0 0 0 0 0 0 0 0 0 0 0 0 0 0 0 0 0 .4 0"/><feOffset dx="4.0" dy="4.0" in="blurOut2" result="blurOut3"/><feBlend in="SourceGraphic" in2="blurOut3" mode="normal"/></filter></defs><g><!--MD5=[b4ea4ac65443f434db33e66d03052cfe]
cluster InfluxDB Server--><polygon fill="#FFFFFF" filter="url(#fhkx9az1j68n3)" points="105.5,6,233.5,6,240.5,28.2969,268.5,28.2969,268.5,89,105.5,89,105.5,6" style="stroke:#000000;stroke-width:1.5;"/><line style="stroke:#000000;stroke-width:1.5;" x1="105.5" x2="240.5" y1="28.2969" y2="28.2969"/><text fill="#000000" font-family="sans-serif" font-size="14" font-weight="bold" lengthAdjust="spacing" textLength="122" x="109.5" y="20.9951">InfluxDB Server</text><!--MD5=[6388e1a0d028400310670bd3eeb67932]
cluster Grafana--><polygon fill="#FFFFFF" filter="url(#fhkx9az1j68n3)" points="82,113,150,113,157,135.2969,292,135.2969,292,271,82,271,82,113" style="stroke:#000000;stroke-width:1.5;"/><line style="stroke:#000000;stroke-width:1.5;" x1="82" x2="157" y1="135.2969" y2="135.2969"/><text fill="#000000" font-family="sans-serif" font-size="14" font-weight="bold" lengthAdjust="spacing" textLength="62" x="86" y="127.9951">Grafana</text><!--MD5=[c51be47e211a9edb689bdcaea21e3370]
cluster Program--><polygon fill="#FFFFFF" filter="url(#fhkx9az1j68n3)" points="83.5,295,156.5,295,163.5,317.2969,290.5,317.2969,290.5,529,83.5,529,83.5,295" style="stroke:#000000;stroke-width:1.5;"/><line style="stroke:#000000;stroke-width:1.5;" x1="83.5" x2="163.5" y1="317.2969" y2="317.2969"/><text fill="#000000" font-family="sans-serif" font-size="14" font-weight="bold" lengthAdjust="spacing" textLength="67" x="87.5" y="309.9951">Program</text><ellipse cx="186.92" cy="56.984" fill="#FEFECE" filter="url(#fhkx9az1j68n3)" rx="65.42" ry="15.484" style="stroke:#A80036;stroke-width:1.5;"/><text fill="#000000" font-family="sans-serif" font-size="14" lengthAdjust="spacing" textLength="80" x="143.92" y="60.7316">Start Server</text><ellipse cx="187.1011" cy="164.1202" fill="#FEFECE" filter="url(#fhkx9az1j68n3)" rx="68.6011" ry="16.1202" style="stroke:#A80036;stroke-width:1.5;"/><text fill="#000000" font-family="sans-serif" font-size="14" lengthAdjust="spacing" textLength="89" x="139.6011" y="167.8678">Start Grafana</text><ellipse cx="187.2318" cy="235.2464" fill="#FEFECE" filter="url(#fhkx9az1j68n3)" rx="89.2318" ry="20.2464" style="stroke:#A80036;stroke-width:1.5;"/><text fill="#000000" font-family="sans-serif" font-size="14" lengthAdjust="spacing" textLength="140" x="117.2318" y="238.093">Add InfluxDB Source</text><ellipse cx="186.9744" cy="349.8949" fill="#FEFECE" filter="url(#fhkx9az1j68n3)" rx="87.4744" ry="19.8949" style="stroke:#A80036;stroke-width:1.5;"/><text fill="#000000" font-family="sans-serif" font-size="14" lengthAdjust="spacing" textLength="136" x="118.9744" y="352.7416">Edit Program Config</text><ellipse cx="186.7932" cy="424.9586" fill="#FEFECE" filter="url(#fhkx9az1j68n3)" rx="85.2932" ry="19.4586" style="stroke:#A80036;stroke-width:1.5;"/><text fill="#000000" font-family="sans-serif" font-size="14" lengthAdjust="spacing" textLength="131" x="121.2932" y="427.8053">Edit OPC UA Config</text><ellipse cx="186.9333" cy="495.9867" fill="#FEFECE" filter="url(#fhkx9az1j68n3)" rx="70.4333" ry="16.4867" style="stroke:#A80036;stroke-width:1.5;"/><text fill="#000000" font-family="sans-serif" font-size="14" lengthAdjust="spacing" textLength="94" x="136.9333" y="499.7342">Start Program</text><!--MD5=[7d46d6cd919e02e6168a09ad91eae8b4]
entity u--><ellipse cx="22" cy="262" fill="#FEFECE" filter="url(#fhkx9az1j68n3)" rx="8" ry="8" style="stroke:#A80036;stroke-width:1.5;"/><path d="M22,270 L22,297 M9,278 L35,278 M22,297 L9,312 M22,297 L35,312 " fill="none" filter="url(#fhkx9az1j68n3)" style="stroke:#A80036;stroke-width:1.5;"/><text fill="#000000" font-family="sans-serif" font-size="14" lengthAdjust="spacing" textLength="32" x="6" y="330.4951">User</text><!--MD5=[3c1deb31da947c22343d282b27204968]
link u to starti--><path d="M28.23,252.18 C34.37,217.39 47.34,167.53 74,132 C93.77,105.66 125.65,85.61 150.35,72.9 " fill="none" id="u-to-starti" style="stroke:#A80036;stroke-width:1.0;"/><polygon fill="#A80036" points="154.88,70.61,145.0437,71.1075,150.4194,72.8689,148.658,78.2446,154.88,70.61" style="stroke:#A80036;stroke-width:1.0;"/><!--MD5=[96aeabb25cf1e7b45cf01cc0c859266d]
link u to startg--><path d="M36.24,252.15 C44.36,232.94 56.6,211.2 74,197 C87.73,185.79 105.16,178.39 122.14,173.5 " fill="none" id="u-to-startg" style="stroke:#A80036;stroke-width:1.0;"/><polygon fill="#A80036" points="127.39,172.06,117.6543,170.5714,122.5665,173.3768,119.7612,178.289,127.39,172.06" style="stroke:#A80036;stroke-width:1.0;"/><!--MD5=[dff4d54b1748965afbd77b290a4290e5]
link u to confi--><path d="M38.04,287.65 C59.6,279.98 100.36,265.47 133.64,253.63 " fill="none" id="u-to-confi" style="stroke:#A80036;stroke-width:1.0;"/><polygon fill="#A80036" points="138.5,251.9,128.6807,251.1374,133.7874,253.5708,131.354,258.6775,138.5,251.9" style="stroke:#A80036;stroke-width:1.0;"/><!--MD5=[273cf80e97865a4ede1bf878d5352fe5]
link u to editp--><path d="M38.04,298.26 C59.53,305.77 100.07,319.95 133.3,331.57 " fill="none" id="u-to-editp" style="stroke:#A80036;stroke-width:1.0;"/><polygon fill="#A80036" points="138.14,333.26,130.9694,326.5085,133.4214,331.6063,128.3236,334.0583,138.14,333.26" style="stroke:#A80036;stroke-width:1.0;"/><!--MD5=[e6124091aee92dcc81f2300fb65adce0]
link u to edito--><path d="M37.09,333.66 C45.31,352.16 57.39,373 74,387 C86.38,397.43 101.76,405.05 117.11,410.58 " fill="none" id="u-to-edito" style="stroke:#A80036;stroke-width:1.0;"/><polygon fill="#A80036" points="121.87,412.24,114.6812,405.5079,117.1469,410.5991,112.0557,413.0648,121.87,412.24" style="stroke:#A80036;stroke-width:1.0;"/><!--MD5=[1e3eef9f5b9d6d36c2bd1192cb07947a]
link u to startp--><path d="M24.69,333.63 C28.45,371.74 39.9,427.84 74,462 C86.1,474.12 102.37,481.95 118.76,486.99 " fill="none" id="u-to-startp" style="stroke:#A80036;stroke-width:1.0;"/><polygon fill="#A80036" points="123.84,488.47,116.32,482.11,119.04,487.07,114.08,489.79,123.84,488.47" style="stroke:#A80036;stroke-width:1.0;"/><!--MD5=[2d3223c0dfb83e9e3aa2085820f9db6d]
@startuml "Use Case"
left to right direction
actor User as u
package "InfluxDB Server" {
  usecase "Start Server" as starti
}
package "Grafana" {
  usecase "Start Grafana" as startg
  usecase "Add InfluxDB Source" as confi
}
package Program {
  usecase "Edit Program Config" as editp
  usecase "Edit OPC UA Config" as edito
  usecase "Start Program" as startp
}
u - -> starti
u - -> startg
u - -> confi
u - -> editp
u - -> edito
u - -> startp
@enduml

PlantUML version 1.2021.5(Sun Apr 25 13:20:28 CEST 2021)
(GPL source distribution)
Java Runtime: OpenJDK Runtime Environment
JVM: OpenJDK 64-Bit Server VM
Default Encoding: UTF-8
Language: de
Country: DE
--></g></svg>