<?xml version="1.0" encoding="UTF-8" standalone="no"?><svg xmlns="http://www.w3.org/2000/svg" xmlns:xlink="http://www.w3.org/1999/xlink" contentScriptType="application/ecmascript" contentStyleType="text/css" height="448px" preserveAspectRatio="none" style="width:1215px;height:448px;background:#FFFFFF;" version="1.1" viewBox="0 0 1215 448" width="1215px" zoomAndPan="magnify"><defs><filter height="300%" id="f1dcmdh44djp9y" width="300%" x="-1" y="-1"><feGaussianBlur result="blurOut" stdDeviation="2.0"/><feColorMatrix in="blurOut" result="blurOut2" type="matrix" values="0 0 0 0 0 0 0 0 0 0 0 0 0 0 0 0 0 0 .4 0"/><feOffset dx="4.0" dy="4.0" in="blurOut2" result="blurOut3"/><feBlend in="SourceGraphic" in2="blurOut3" mode="normal"/></filter></defs><g><!--MD5=[467a2d99ebbf8d8715bb7cbc16ba4761]
cluster CloudBuffer--><polygon fill="#FFFFFF" filter="url(#f1dcmdh44djp9y)" points="16,119,118,119,125,141.2969,384,141.2969,384,441,16,441,16,119" style="stroke:#000000;stroke-width:1.5;"/><line style="stroke:#000000;stroke-width:1.5;" x1="16" x2="125" y1="141.2969" y2="141.2969"/><text fill="#000000" font-family="sans-serif" font-size="14" font-weight="bold" lengthAdjust="spacing" textLength="96" x="20" y="133.9951">CloudBuffer</text><!--MD5=[cae5b27eb9a43f1cf78a4694eb573596]
cluster OPCUAClient--><polygon fill="#FFFFFF" filter="url(#f1dcmdh44djp9y)" points="408,93,515,93,522,115.2969,810,115.2969,810,434.5,408,434.5,408,93" style="stroke:#000000;stroke-width:1.5;"/><line style="stroke:#000000;stroke-width:1.5;" x1="408" x2="522" y1="115.2969" y2="115.2969"/><text fill="#000000" font-family="sans-serif" font-size="14" font-weight="bold" lengthAdjust="spacing" textLength="101" x="412" y="107.9951">OPCUAClient</text><!--MD5=[758526f2aed240d0d74fe6561f03d0b5]
cluster ConfigBuilder--><polygon fill="#FFFFFF" filter="url(#f1dcmdh44djp9y)" points="834,131.5,949,131.5,956,153.7969,1198,153.7969,1198,428.5,834,428.5,834,131.5" style="stroke:#000000;stroke-width:1.5;"/><line style="stroke:#000000;stroke-width:1.5;" x1="834" x2="956" y1="153.7969" y2="153.7969"/><text fill="#000000" font-family="sans-serif" font-size="14" font-weight="bold" lengthAdjust="spacing" textLength="109" x="838" y="146.4951">ConfigBuilder</text><!--MD5=[953e51cf77c4057e52e2f3bd39141c33]
class CloudBuffer.Buffer--><rect codeLine="1" fill="#FEFECE" filter="url(#f1dcmdh44djp9y)" height="86.4141" id="CloudBuffer.Buffer" style="stroke:#A80036;stroke-width:1.5;" width="289" x="67.5" y="154"/><ellipse cx="189.75" cy="170" fill="#ADD1B2" rx="11" ry="11" style="stroke:#A80036;stroke-width:1.0;"/><path d="M192.0938,165.6719 C191.1563,165.2344 190.5625,165.0938 189.6875,165.0938 C187.0625,165.0938 185.0625,167.1719 185.0625,169.8906 L185.0625,171.0156 C185.0625,173.5938 187.1719,175.4844 190.0625,175.4844 C191.2813,175.4844 192.4375,175.1875 193.1875,174.6406 C193.7656,174.2344 194.0938,173.7813 194.0938,173.3906 C194.0938,172.9375 193.7031,172.5469 193.2344,172.5469 C193.0156,172.5469 192.8125,172.625 192.625,172.8125 C192.1719,173.2969 192.1719,173.2969 191.9844,173.3906 C191.5625,173.6563 190.875,173.7813 190.1094,173.7813 C188.0625,173.7813 186.7656,172.6875 186.7656,170.9844 L186.7656,169.8906 C186.7656,168.1094 188.0156,166.7969 189.75,166.7969 C190.3281,166.7969 190.9375,166.9531 191.4063,167.2031 C191.8906,167.4844 192.0625,167.7031 192.1563,168.1094 C192.2188,168.5156 192.25,168.6406 192.3906,168.7656 C192.5313,168.9063 192.7656,169.0156 192.9844,169.0156 C193.25,169.0156 193.5156,168.875 193.6875,168.6563 C193.7969,168.5 193.8281,168.3125 193.8281,167.8906 L193.8281,166.4688 C193.8281,166.0313 193.8125,165.9063 193.7188,165.75 C193.5625,165.4844 193.2813,165.3438 192.9844,165.3438 C192.6875,165.3438 192.4844,165.4375 192.2656,165.75 L192.0938,165.6719 Z " fill="#000000"/><text fill="#000000" font-family="sans-serif" font-size="12" lengthAdjust="spacing" textLength="36" x="210.25" y="174.1543">Buffer</text><line style="stroke:#A80036;stroke-width:1.5;" x1="68.5" x2="355.5" y1="186" y2="186"/><line style="stroke:#A80036;stroke-width:1.5;" x1="68.5" x2="355.5" y1="194" y2="194"/><ellipse cx="78.5" cy="205" fill="#84BE84" rx="3" ry="3" style="stroke:#038048;stroke-width:1.0;"/><text fill="#000000" font-family="sans-serif" font-size="11" lengthAdjust="spacing" textLength="263" x="87.5" y="208.2104">«Create» Buffer(connection_parameters: Dict)</text><ellipse cx="78.5" cy="217.8047" fill="#84BE84" rx="3" ry="3" style="stroke:#038048;stroke-width:1.0;"/><text fill="#000000" font-family="sans-serif" font-size="11" lengthAdjust="spacing" textLength="226" x="87.5" y="221.0151">append(node_name, value, timestamp)</text><rect fill="#F24D5C" height="6" style="stroke:#C82930;stroke-width:1.0;" width="6" x="75.5" y="227.6094"/><text fill="#000000" font-family="sans-serif" font-size="11" lengthAdjust="spacing" textLength="194" x="87.5" y="233.8198">pop_first(number_of_elements=1)</text><!--MD5=[a45e06a0c1afe83b902f0d000e92eed2]
class CloudBuffer.InfluxDBClient--><rect codeLine="6" fill="#FEFECE" filter="url(#f1dcmdh44djp9y)" height="99.2188" id="CloudBuffer.InfluxDBClient" style="stroke:#A80036;stroke-width:1.5;" width="335" x="32.5" y="326"/><ellipse cx="155.25" cy="342" fill="#ADD1B2" rx="11" ry="11" style="stroke:#A80036;stroke-width:1.0;"/><path d="M157.5938,337.6719 C156.6563,337.2344 156.0625,337.0938 155.1875,337.0938 C152.5625,337.0938 150.5625,339.1719 150.5625,341.8906 L150.5625,343.0156 C150.5625,345.5938 152.6719,347.4844 155.5625,347.4844 C156.7813,347.4844 157.9375,347.1875 158.6875,346.6406 C159.2656,346.2344 159.5938,345.7813 159.5938,345.3906 C159.5938,344.9375 159.2031,344.5469 158.7344,344.5469 C158.5156,344.5469 158.3125,344.625 158.125,344.8125 C157.6719,345.2969 157.6719,345.2969 157.4844,345.3906 C157.0625,345.6563 156.375,345.7813 155.6094,345.7813 C153.5625,345.7813 152.2656,344.6875 152.2656,342.9844 L152.2656,341.8906 C152.2656,340.1094 153.5156,338.7969 155.25,338.7969 C155.8281,338.7969 156.4375,338.9531 156.9063,339.2031 C157.3906,339.4844 157.5625,339.7031 157.6563,340.1094 C157.7188,340.5156 157.75,340.6406 157.8906,340.7656 C158.0313,340.9063 158.2656,341.0156 158.4844,341.0156 C158.75,341.0156 159.0156,340.875 159.1875,340.6563 C159.2969,340.5 159.3281,340.3125 159.3281,339.8906 L159.3281,338.4688 C159.3281,338.0313 159.3125,337.9063 159.2188,337.75 C159.0625,337.4844 158.7813,337.3438 158.4844,337.3438 C158.1875,337.3438 157.9844,337.4375 157.7656,337.75 L157.5938,337.6719 Z " fill="#000000"/><text fill="#000000" font-family="sans-serif" font-size="12" lengthAdjust="spacing" textLength="81" x="175.75" y="346.1543">InfluxDBClient</text><line style="stroke:#A80036;stroke-width:1.5;" x1="33.5" x2="366.5" y1="358" y2="358"/><rect fill="none" height="6" style="stroke:#C82930;stroke-width:1.0;" width="6" x="40.5" y="366"/><text fill="#000000" font-family="sans-serif" font-size="11" lengthAdjust="spacing" textLength="163" x="52.5" y="372.2104">connection_parameters: Dict</text><line style="stroke:#A80036;stroke-width:1.5;" x1="33.5" x2="366.5" y1="378.8047" y2="378.8047"/><ellipse cx="43.5" cy="389.8047" fill="#84BE84" rx="3" ry="3" style="stroke:#038048;stroke-width:1.0;"/><text fill="#000000" font-family="sans-serif" font-size="11" lengthAdjust="spacing" textLength="309" x="52.5" y="393.0151">«Create» InfluxDBClient(connection_parameters: Dict)</text><ellipse cx="43.5" cy="402.6094" fill="#84BE84" rx="3" ry="3" style="stroke:#038048;stroke-width:1.0;"/><text fill="#000000" font-family="sans-serif" font-size="11" lengthAdjust="spacing" textLength="122" x="52.5" y="405.8198">insert(datapoint: Dict)</text><ellipse cx="43.5" cy="415.4141" fill="#84BE84" rx="3" ry="3" style="stroke:#038048;stroke-width:1.0;"/><text fill="#000000" font-family="sans-serif" font-size="11" lengthAdjust="spacing" textLength="203" x="52.5" y="418.6245">insert_many(datapoints: List&lt;Dict&gt;)</text><!--MD5=[4dbe486b7961fd27973a1528374a3eda]
class OPCUAClient.Client--><rect codeLine="14" fill="#FEFECE" filter="url(#f1dcmdh44djp9y)" height="137.6328" id="OPCUAClient.Client" style="stroke:#A80036;stroke-width:1.5;" width="227" x="495.5" y="128"/><ellipse cx="588.25" cy="144" fill="#ADD1B2" rx="11" ry="11" style="stroke:#A80036;stroke-width:1.0;"/><path d="M590.5938,139.6719 C589.6563,139.2344 589.0625,139.0938 588.1875,139.0938 C585.5625,139.0938 583.5625,141.1719 583.5625,143.8906 L583.5625,145.0156 C583.5625,147.5938 585.6719,149.4844 588.5625,149.4844 C589.7813,149.4844 590.9375,149.1875 591.6875,148.6406 C592.2656,148.2344 592.5938,147.7813 592.5938,147.3906 C592.5938,146.9375 592.2031,146.5469 591.7344,146.5469 C591.5156,146.5469 591.3125,146.625 591.125,146.8125 C590.6719,147.2969 590.6719,147.2969 590.4844,147.3906 C590.0625,147.6563 589.375,147.7813 588.6094,147.7813 C586.5625,147.7813 585.2656,146.6875 585.2656,144.9844 L585.2656,143.8906 C585.2656,142.1094 586.5156,140.7969 588.25,140.7969 C588.8281,140.7969 589.4375,140.9531 589.9063,141.2031 C590.3906,141.4844 590.5625,141.7031 590.6563,142.1094 C590.7188,142.5156 590.75,142.6406 590.8906,142.7656 C591.0313,142.9063 591.2656,143.0156 591.4844,143.0156 C591.75,143.0156 592.0156,142.875 592.1875,142.6563 C592.2969,142.5 592.3281,142.3125 592.3281,141.8906 L592.3281,140.4688 C592.3281,140.0313 592.3125,139.9063 592.2188,139.75 C592.0625,139.4844 591.7813,139.3438 591.4844,139.3438 C591.1875,139.3438 590.9844,139.4375 590.7656,139.75 L590.5938,139.6719 Z " fill="#000000"/><text fill="#000000" font-family="sans-serif" font-size="12" lengthAdjust="spacing" textLength="33" x="608.75" y="148.1543">Client</text><line style="stroke:#A80036;stroke-width:1.5;" x1="496.5" x2="721.5" y1="160" y2="160"/><rect fill="none" height="6" style="stroke:#C82930;stroke-width:1.0;" width="6" x="503.5" y="168"/><text fill="#000000" font-family="sans-serif" font-size="11" lengthAdjust="spacing" textLength="103" x="515.5" y="174.2104">opcua_config: Dict</text><rect fill="none" height="6" style="stroke:#C82930;stroke-width:1.0;" width="6" x="503.5" y="180.8047"/><text fill="#000000" font-family="sans-serif" font-size="11" lengthAdjust="spacing" textLength="167" x="515.5" y="187.0151">opcua_lib_client: opcua.Client</text><line style="stroke:#A80036;stroke-width:1.5;" x1="496.5" x2="721.5" y1="193.6094" y2="193.6094"/><ellipse cx="506.5" cy="204.6094" fill="#84BE84" rx="3" ry="3" style="stroke:#038048;stroke-width:1.0;"/><text fill="#000000" font-family="sans-serif" font-size="11" lengthAdjust="spacing" textLength="201" x="515.5" y="207.8198">«Create» Client(opcua_config: Dict)</text><ellipse cx="506.5" cy="217.4141" fill="#84BE84" rx="3" ry="3" style="stroke:#038048;stroke-width:1.0;"/><text fill="#000000" font-family="sans-serif" font-size="11" lengthAdjust="spacing" textLength="53" x="515.5" y="220.6245">connect()</text><ellipse cx="506.5" cy="230.2188" fill="#84BE84" rx="3" ry="3" style="stroke:#038048;stroke-width:1.0;"/><text fill="#000000" font-family="sans-serif" font-size="11" lengthAdjust="spacing" textLength="69" x="515.5" y="233.4292">disconnect()</text><ellipse cx="506.5" cy="243.0234" fill="#84BE84" rx="3" ry="3" style="stroke:#038048;stroke-width:1.0;"/><text fill="#000000" font-family="sans-serif" font-size="11" lengthAdjust="spacing" textLength="28" x="515.5" y="246.2339">poll()</text><ellipse cx="506.5" cy="255.8281" fill="#84BE84" rx="3" ry="3" style="stroke:#038048;stroke-width:1.0;"/><text fill="#000000" font-family="sans-serif" font-size="11" lengthAdjust="spacing" textLength="62" x="515.5" y="259.0386">subscribe()</text><!--MD5=[8810b593ff7159d72190329e39c268c5]
class OPCUAClient.SubscriptionHandler--><rect codeLine="23" fill="#FEFECE" filter="url(#f1dcmdh44djp9y)" height="86.4141" id="OPCUAClient.SubscriptionHandler" style="stroke:#A80036;stroke-width:1.5;" width="369" x="424.5" y="332.5"/><ellipse cx="543.75" cy="348.5" fill="#ADD1B2" rx="11" ry="11" style="stroke:#A80036;stroke-width:1.0;"/><path d="M546.0938,344.1719 C545.1563,343.7344 544.5625,343.5938 543.6875,343.5938 C541.0625,343.5938 539.0625,345.6719 539.0625,348.3906 L539.0625,349.5156 C539.0625,352.0938 541.1719,353.9844 544.0625,353.9844 C545.2813,353.9844 546.4375,353.6875 547.1875,353.1406 C547.7656,352.7344 548.0938,352.2813 548.0938,351.8906 C548.0938,351.4375 547.7031,351.0469 547.2344,351.0469 C547.0156,351.0469 546.8125,351.125 546.625,351.3125 C546.1719,351.7969 546.1719,351.7969 545.9844,351.8906 C545.5625,352.1563 544.875,352.2813 544.1094,352.2813 C542.0625,352.2813 540.7656,351.1875 540.7656,349.4844 L540.7656,348.3906 C540.7656,346.6094 542.0156,345.2969 543.75,345.2969 C544.3281,345.2969 544.9375,345.4531 545.4063,345.7031 C545.8906,345.9844 546.0625,346.2031 546.1563,346.6094 C546.2188,347.0156 546.25,347.1406 546.3906,347.2656 C546.5313,347.4063 546.7656,347.5156 546.9844,347.5156 C547.25,347.5156 547.5156,347.375 547.6875,347.1563 C547.7969,347 547.8281,346.8125 547.8281,346.3906 L547.8281,344.9688 C547.8281,344.5313 547.8125,344.4063 547.7188,344.25 C547.5625,343.9844 547.2813,343.8438 546.9844,343.8438 C546.6875,343.8438 546.4844,343.9375 546.2656,344.25 L546.0938,344.1719 Z " fill="#000000"/><text fill="#000000" font-family="sans-serif" font-size="12" lengthAdjust="spacing" textLength="122" x="564.25" y="352.6543">SubscriptionHandler</text><line style="stroke:#A80036;stroke-width:1.5;" x1="425.5" x2="792.5" y1="364.5" y2="364.5"/><rect fill="none" height="6" style="stroke:#C82930;stroke-width:1.0;" width="6" x="432.5" y="372.5"/><text fill="#000000" font-family="sans-serif" font-size="11" lengthAdjust="spacing" textLength="129" x="444.5" y="378.7104">data_callback: Callable</text><line style="stroke:#A80036;stroke-width:1.5;" x1="425.5" x2="792.5" y1="385.3047" y2="385.3047"/><ellipse cx="435.5" cy="396.3047" fill="#84BE84" rx="3" ry="3" style="stroke:#038048;stroke-width:1.0;"/><text fill="#000000" font-family="sans-serif" font-size="11" lengthAdjust="spacing" textLength="307" x="444.5" y="399.5151">«Create» SubscriptionHandler(data_callback: Callable)</text><ellipse cx="435.5" cy="409.1094" fill="#84BE84" rx="3" ry="3" style="stroke:#038048;stroke-width:1.0;"/><text fill="#000000" font-family="sans-serif" font-size="11" lengthAdjust="spacing" textLength="343" x="444.5" y="412.3198">datachange_notification(node: opcua.Node, value, raw_data)</text><!--MD5=[a184c1fddb853df1bc971e18fa90a5e3]
class ConfigBuilder.Configurator--><rect codeLine="30" fill="#FEFECE" filter="url(#f1dcmdh44djp9y)" height="60.8047" id="ConfigBuilder.Configurator" style="stroke:#A80036;stroke-width:1.5;" width="323" x="852.5" y="166.5"/><ellipse cx="972.75" cy="182.5" fill="#ADD1B2" rx="11" ry="11" style="stroke:#A80036;stroke-width:1.0;"/><path d="M975.0938,178.1719 C974.1563,177.7344 973.5625,177.5938 972.6875,177.5938 C970.0625,177.5938 968.0625,179.6719 968.0625,182.3906 L968.0625,183.5156 C968.0625,186.0938 970.1719,187.9844 973.0625,187.9844 C974.2813,187.9844 975.4375,187.6875 976.1875,187.1406 C976.7656,186.7344 977.0938,186.2813 977.0938,185.8906 C977.0938,185.4375 976.7031,185.0469 976.2344,185.0469 C976.0156,185.0469 975.8125,185.125 975.625,185.3125 C975.1719,185.7969 975.1719,185.7969 974.9844,185.8906 C974.5625,186.1563 973.875,186.2813 973.1094,186.2813 C971.0625,186.2813 969.7656,185.1875 969.7656,183.4844 L969.7656,182.3906 C969.7656,180.6094 971.0156,179.2969 972.75,179.2969 C973.3281,179.2969 973.9375,179.4531 974.4063,179.7031 C974.8906,179.9844 975.0625,180.2031 975.1563,180.6094 C975.2188,181.0156 975.25,181.1406 975.3906,181.2656 C975.5313,181.4063 975.7656,181.5156 975.9844,181.5156 C976.25,181.5156 976.5156,181.375 976.6875,181.1563 C976.7969,181 976.8281,180.8125 976.8281,180.3906 L976.8281,178.9688 C976.8281,178.5313 976.8125,178.4063 976.7188,178.25 C976.5625,177.9844 976.2813,177.8438 975.9844,177.8438 C975.6875,177.8438 975.4844,177.9375 975.2656,178.25 L975.0938,178.1719 Z " fill="#000000"/><text fill="#000000" font-family="sans-serif" font-size="12" lengthAdjust="spacing" textLength="74" x="993.25" y="186.6543">Configurator</text><line style="stroke:#A80036;stroke-width:1.5;" x1="853.5" x2="1174.5" y1="198.5" y2="198.5"/><line style="stroke:#A80036;stroke-width:1.5;" x1="853.5" x2="1174.5" y1="206.5" y2="206.5"/><ellipse cx="863.5" cy="217.5" fill="#84BE84" rx="3" ry="3" style="stroke:#038048;stroke-width:1.0;"/><text fill="#000000" font-family="sans-serif" font-size="11" lengthAdjust="spacing" textLength="297" x="872.5" y="220.7104">«Create» Configurator(connection_parameters: Dict)</text><!--MD5=[aa69b834666264e26f1515b4638b4e5a]
class ConfigBuilder.SPARQLClient--><rect codeLine="33" fill="#FEFECE" filter="url(#f1dcmdh44djp9y)" height="73.6094" id="ConfigBuilder.SPARQLClient" style="stroke:#A80036;stroke-width:1.5;" width="331" x="850.5" y="338.5"/><ellipse cx="972.75" cy="354.5" fill="#ADD1B2" rx="11" ry="11" style="stroke:#A80036;stroke-width:1.0;"/><path d="M975.0938,350.1719 C974.1563,349.7344 973.5625,349.5938 972.6875,349.5938 C970.0625,349.5938 968.0625,351.6719 968.0625,354.3906 L968.0625,355.5156 C968.0625,358.0938 970.1719,359.9844 973.0625,359.9844 C974.2813,359.9844 975.4375,359.6875 976.1875,359.1406 C976.7656,358.7344 977.0938,358.2813 977.0938,357.8906 C977.0938,357.4375 976.7031,357.0469 976.2344,357.0469 C976.0156,357.0469 975.8125,357.125 975.625,357.3125 C975.1719,357.7969 975.1719,357.7969 974.9844,357.8906 C974.5625,358.1563 973.875,358.2813 973.1094,358.2813 C971.0625,358.2813 969.7656,357.1875 969.7656,355.4844 L969.7656,354.3906 C969.7656,352.6094 971.0156,351.2969 972.75,351.2969 C973.3281,351.2969 973.9375,351.4531 974.4063,351.7031 C974.8906,351.9844 975.0625,352.2031 975.1563,352.6094 C975.2188,353.0156 975.25,353.1406 975.3906,353.2656 C975.5313,353.4063 975.7656,353.5156 975.9844,353.5156 C976.25,353.5156 976.5156,353.375 976.6875,353.1563 C976.7969,353 976.8281,352.8125 976.8281,352.3906 L976.8281,350.9688 C976.8281,350.5313 976.8125,350.4063 976.7188,350.25 C976.5625,349.9844 976.2813,349.8438 975.9844,349.8438 C975.6875,349.8438 975.4844,349.9375 975.2656,350.25 L975.0938,350.1719 Z " fill="#000000"/><text fill="#000000" font-family="sans-serif" font-size="12" lengthAdjust="spacing" textLength="78" x="993.25" y="358.6543">SPARQLClient</text><line style="stroke:#A80036;stroke-width:1.5;" x1="851.5" x2="1180.5" y1="370.5" y2="370.5"/><rect fill="none" height="6" style="stroke:#C82930;stroke-width:1.0;" width="6" x="858.5" y="378.5"/><text fill="#000000" font-family="sans-serif" font-size="11" lengthAdjust="spacing" textLength="163" x="870.5" y="384.7104">connection_parameters: Dict</text><line style="stroke:#A80036;stroke-width:1.5;" x1="851.5" x2="1180.5" y1="391.3047" y2="391.3047"/><ellipse cx="861.5" cy="402.3047" fill="#84BE84" rx="3" ry="3" style="stroke:#038048;stroke-width:1.0;"/><text fill="#000000" font-family="sans-serif" font-size="11" lengthAdjust="spacing" textLength="305" x="870.5" y="405.5151">«Create» SPARQLClient(connection_parameters: Dict)</text><!--MD5=[5234ca285070190528fad17f417e92e7]
class ProcessHistorian--><rect codeLine="39" fill="#FEFECE" filter="url(#f1dcmdh44djp9y)" height="60.8047" id="ProcessHistorian" style="stroke:#A80036;stroke-width:1.5;" width="183" x="517.5" y="7"/><ellipse cx="555" cy="23" fill="#ADD1B2" rx="11" ry="11" style="stroke:#A80036;stroke-width:1.0;"/><path d="M557.3438,18.6719 C556.4063,18.2344 555.8125,18.0938 554.9375,18.0938 C552.3125,18.0938 550.3125,20.1719 550.3125,22.8906 L550.3125,24.0156 C550.3125,26.5938 552.4219,28.4844 555.3125,28.4844 C556.5313,28.4844 557.6875,28.1875 558.4375,27.6406 C559.0156,27.2344 559.3438,26.7813 559.3438,26.3906 C559.3438,25.9375 558.9531,25.5469 558.4844,25.5469 C558.2656,25.5469 558.0625,25.625 557.875,25.8125 C557.4219,26.2969 557.4219,26.2969 557.2344,26.3906 C556.8125,26.6563 556.125,26.7813 555.3594,26.7813 C553.3125,26.7813 552.0156,25.6875 552.0156,23.9844 L552.0156,22.8906 C552.0156,21.1094 553.2656,19.7969 555,19.7969 C555.5781,19.7969 556.1875,19.9531 556.6563,20.2031 C557.1406,20.4844 557.3125,20.7031 557.4063,21.1094 C557.4688,21.5156 557.5,21.6406 557.6406,21.7656 C557.7813,21.9063 558.0156,22.0156 558.2344,22.0156 C558.5,22.0156 558.7656,21.875 558.9375,21.6563 C559.0469,21.5 559.0781,21.3125 559.0781,20.8906 L559.0781,19.4688 C559.0781,19.0313 559.0625,18.9063 558.9688,18.75 C558.8125,18.4844 558.5313,18.3438 558.2344,18.3438 C557.9375,18.3438 557.7344,18.4375 557.5156,18.75 L557.3438,18.6719 Z " fill="#000000"/><text fill="#000000" font-family="sans-serif" font-size="12" lengthAdjust="spacing" textLength="101" x="574" y="27.1543">ProcessHistorian</text><line style="stroke:#A80036;stroke-width:1.5;" x1="518.5" x2="699.5" y1="39" y2="39"/><line style="stroke:#A80036;stroke-width:1.5;" x1="518.5" x2="699.5" y1="47" y2="47"/><ellipse cx="528.5" cy="58" fill="#84BE84" rx="3" ry="3" style="stroke:#038048;stroke-width:1.0;"/><text fill="#000000" font-family="sans-serif" font-size="11" lengthAdjust="spacing" textLength="157" x="537.5" y="61.2104">«Create» ProcessHistorian()</text><!--MD5=[93ebc6005b2ed1ee29beb7b7c499fb3f]
link CloudBuffer.Buffer to CloudBuffer.InfluxDBClient--><path codeLine="12" d="M209.126,240.276 C207.488,264.37 205.418,294.807 203.664,320.603 " fill="none" id="CloudBuffer.Buffer-to-CloudBuffer.InfluxDBClient" style="stroke:#A80036;stroke-width:1.0;"/><polygon fill="#A80036" points="203.318,325.697,207.9207,316.9898,203.658,320.7086,199.9392,316.4458,203.318,325.697" style="stroke:#A80036;stroke-width:1.0;"/><text fill="#000000" font-family="sans-serif" font-size="13" lengthAdjust="spacing" textLength="8" x="195.2264" y="315.058">1</text><!--MD5=[9febcfd11da175e2030c7f96d257283b]
reverse link OPCUAClient.Client to OPCUAClient.SubscriptionHandler--><path codeLine="28" d="M609,281.343 C609,299.074 609,317.071 609,332.457 " fill="none" id="OPCUAClient.Client-backto-OPCUAClient.SubscriptionHandler" style="stroke:#A80036;stroke-width:1.0;"/><ellipse cx="609.0008" cy="274.24" fill="#FFFFFF" rx="8" ry="8" style="stroke:#A80036;stroke-width:1.0;"/><line style="stroke:#A80036;stroke-width:1.0;" x1="609.0015" x2="609" y1="282.24" y2="266.24"/><line style="stroke:#A80036;stroke-width:1.0;" x1="601.0008" x2="617.0008" y1="274.2408" y2="274.2392"/><!--MD5=[85a1b36fb705d7ac8c27c17b2b4abd83]
link ConfigBuilder.Configurator to ConfigBuilder.SPARQLClient--><path codeLine="37" d="M1014.33,227.542 C1014.66,256.512 1015.17,300.93 1015.53,333.351 " fill="none" id="ConfigBuilder.Configurator-to-ConfigBuilder.SPARQLClient" style="stroke:#A80036;stroke-width:1.0;"/><polygon fill="#A80036" points="1015.59,338.447,1019.4869,329.4019,1015.5329,333.4473,1011.4874,329.4933,1015.59,338.447" style="stroke:#A80036;stroke-width:1.0;"/><text fill="#000000" font-family="sans-serif" font-size="13" lengthAdjust="spacing" textLength="8" x="1006.7769" y="327.3477">1</text><!--MD5=[cbbd5a111e40519821d9f00dbc502dd8]
reverse link ProcessHistorian to CloudBuffer.Buffer--><path codeLine="42" d="M504.411,56.717 C472.855,63.796 438.508,73.121 408,85 C361.538,103.091 312.739,130.696 275.455,153.849 " fill="none" id="ProcessHistorian-backto-CloudBuffer.Buffer" style="stroke:#A80036;stroke-width:1.0;"/><polygon fill="#A80036" points="517.277,53.918,510.5637,51.2853,505.5514,56.4696,512.2647,59.1023,517.277,53.918" style="stroke:#A80036;stroke-width:1.0;"/><text fill="#000000" font-family="sans-serif" font-size="13" lengthAdjust="spacing" textLength="8" x="501.6491" y="51.7086">1</text><text fill="#000000" font-family="sans-serif" font-size="13" lengthAdjust="spacing" textLength="8" x="276.9306" y="142.821">1</text><!--MD5=[51205ff08181e5d9cc61d0fc1f4d3914]
reverse link ProcessHistorian to OPCUAClient.Client--><path codeLine="43" d="M609,81.227 C609,95.639 609,112.102 609,127.974 " fill="none" id="ProcessHistorian-backto-OPCUAClient.Client" style="stroke:#A80036;stroke-width:1.0;"/><polygon fill="#A80036" points="609,68.125,605,74.125,609,80.125,613,74.125,609,68.125" style="stroke:#A80036;stroke-width:1.0;"/><text fill="#000000" font-family="sans-serif" font-size="13" lengthAdjust="spacing" textLength="8" x="600.175" y="88.089">1</text><text fill="#000000" font-family="sans-serif" font-size="13" lengthAdjust="spacing" textLength="8" x="600.5625" y="116.6982">1</text><!--MD5=[a6079bb55354b84f9256d3c0997e667c]
reverse link ProcessHistorian to ConfigBuilder.Configurator--><path codeLine="44" d="M713.466,57.039 C745.016,64.13 779.392,73.38 810,85 C867.108,106.68 928.069,141.575 968.322,166.45 " fill="none" id="ProcessHistorian-backto-ConfigBuilder.Configurator" style="stroke:#A80036;stroke-width:1.0;"/><polygon fill="#A80036" points="700.603,54.23,705.6117,59.4178,712.3268,56.7897,707.3181,51.6019,700.603,54.23" style="stroke:#A80036;stroke-width:1.0;"/><text fill="#000000" font-family="sans-serif" font-size="13" lengthAdjust="spacing" textLength="8" x="708.5201" y="52.0748">1</text><text fill="#000000" font-family="sans-serif" font-size="13" lengthAdjust="spacing" textLength="8" x="949.4549" y="155.2293">1</text><!--MD5=[5c871e11fec5f50487d33e48b168177d]
@startuml
class CloudBuffer.Buffer {
    +<<Create>> Buffer(connection_parameters: Dict)
    +append(node_name, value, timestamp)
    -pop_first(number_of_elements=1)
}
class CloudBuffer.InfluxDBClient{
    -connection_parameters: Dict
    +<<Create>> InfluxDBClient(connection_parameters: Dict)
    +insert(datapoint: Dict)
    +insert_many(datapoints: List<Dict>)
}
CloudBuffer.Buffer - -> "1" CloudBuffer.InfluxDBClient

class OPCUAClient.Client {
    -opcua_config: Dict
    -opcua_lib_client: opcua.Client
    +<<Create>> Client(opcua_config: Dict)
    +connect()
    +disconnect()
    +poll()
    +subscribe()
}
class OPCUAClient.SubscriptionHandler {
    -data_callback: Callable
    +<<Create>> SubscriptionHandler(data_callback: Callable)
    +datachange_notification(node: opcua.Node, value, raw_data)
}
OPCUAClient.Client +- - OPCUAClient.SubscriptionHandler

class ConfigBuilder.Configurator {
    +<<Create>> Configurator(connection_parameters: Dict)
}
class ConfigBuilder.SPARQLClient{
    -connection_parameters: Dict
    +<<Create>> SPARQLClient(connection_parameters: Dict)
}
ConfigBuilder.Configurator - -> "1" ConfigBuilder.SPARQLClient

class ProcessHistorian {
    +<<Create>> ProcessHistorian()
}
ProcessHistorian "1" *- - "1" CloudBuffer.Buffer
ProcessHistorian "1" *- - "1" OPCUAClient.Client
ProcessHistorian "1" *- - "1" ConfigBuilder.Configurator
@enduml

PlantUML version 1.2021.7beta2(Unknown compile time)
(GPL source distribution)
Java Runtime: Java(TM) SE Runtime Environment
JVM: Java HotSpot(TM) 64-Bit Server VM
Default Encoding: UTF-8
Language: en
Country: US
--></g></svg>