<?xml version="1.0" encoding="UTF-8" standalone="no"?><svg xmlns="http://www.w3.org/2000/svg" xmlns:xlink="http://www.w3.org/1999/xlink" contentScriptType="application/ecmascript" contentStyleType="text/css" height="448px" preserveAspectRatio="none" style="width:1207px;height:448px;" version="1.1" viewBox="0 0 1207 448" width="1207px" zoomAndPan="magnify"><defs><filter height="300%" id="f1gpi3lvocwffc" width="300%" x="-1" y="-1"><feGaussianBlur result="blurOut" stdDeviation="2.0"/><feColorMatrix in="blurOut" result="blurOut2" type="matrix" values="0 0 0 0 0 0 0 0 0 0 0 0 0 0 0 0 0 0 .4 0"/><feOffset dx="4.0" dy="4.0" in="blurOut2" result="blurOut3"/><feBlend in="SourceGraphic" in2="blurOut3" mode="normal"/></filter></defs><g><!--MD5=[467a2d99ebbf8d8715bb7cbc16ba4761]
cluster CloudBuffer--><polygon fill="#FFFFFF" filter="url(#f1gpi3lvocwffc)" points="16,119,116,119,123,141.2969,380,141.2969,380,441,16,441,16,119" style="stroke:#000000;stroke-width:1.5;"/><line style="stroke:#000000;stroke-width:1.5;" x1="16" x2="123" y1="141.2969" y2="141.2969"/><text fill="#000000" font-family="sans-serif" font-size="14" font-weight="bold" lengthAdjust="spacing" textLength="94" x="20" y="133.9951">CloudBuffer</text><!--MD5=[cae5b27eb9a43f1cf78a4694eb573596]
cluster OPCUAClient--><polygon fill="#FFFFFF" filter="url(#f1gpi3lvocwffc)" points="404,93,510,93,517,115.2969,806,115.2969,806,434.5,404,434.5,404,93" style="stroke:#000000;stroke-width:1.5;"/><line style="stroke:#000000;stroke-width:1.5;" x1="404" x2="517" y1="115.2969" y2="115.2969"/><text fill="#000000" font-family="sans-serif" font-size="14" font-weight="bold" lengthAdjust="spacing" textLength="100" x="408" y="107.9951">OPCUAClient</text><!--MD5=[758526f2aed240d0d74fe6561f03d0b5]
cluster ConfigBuilder--><polygon fill="#FFFFFF" filter="url(#f1gpi3lvocwffc)" points="830,131.5,942,131.5,949,153.7969,1190,153.7969,1190,428.5,830,428.5,830,131.5" style="stroke:#000000;stroke-width:1.5;"/><line style="stroke:#000000;stroke-width:1.5;" x1="830" x2="949" y1="153.7969" y2="153.7969"/><text fill="#000000" font-family="sans-serif" font-size="14" font-weight="bold" lengthAdjust="spacing" textLength="106" x="834" y="146.4951">ConfigBuilder</text><!--MD5=[953e51cf77c4057e52e2f3bd39141c33]
class CloudBuffer.Buffer--><rect codeLine="2" fill="#FEFECE" filter="url(#f1gpi3lvocwffc)" height="86.4141" id="CloudBuffer.Buffer" style="stroke:#A80036;stroke-width:1.5;" width="288" x="65" y="154"/><ellipse cx="186.25" cy="170" fill="#ADD1B2" rx="11" ry="11" style="stroke:#A80036;stroke-width:1.0;"/><path d="M189.2188,175.6406 Q188.6406,175.9375 188,176.0781 Q187.3594,176.2344 186.6563,176.2344 Q184.1563,176.2344 182.8281,174.5938 Q181.5156,172.9375 181.5156,169.8125 Q181.5156,166.6875 182.8281,165.0313 Q184.1563,163.375 186.6563,163.375 Q187.3594,163.375 188,163.5313 Q188.6563,163.6875 189.2188,163.9844 L189.2188,166.7031 Q188.5938,166.125 188,165.8594 Q187.4063,165.5781 186.7813,165.5781 Q185.4375,165.5781 184.75,166.6563 Q184.0625,167.7188 184.0625,169.8125 Q184.0625,171.9063 184.75,172.9844 Q185.4375,174.0469 186.7813,174.0469 Q187.4063,174.0469 188,173.7813 Q188.5938,173.5 189.2188,172.9219 L189.2188,175.6406 Z " fill="#000000"/><text fill="#000000" font-family="sans-serif" font-size="12" lengthAdjust="spacing" textLength="37" x="206.75" y="174.1543">Buffer</text><line style="stroke:#A80036;stroke-width:1.5;" x1="66" x2="352" y1="186" y2="186"/><line style="stroke:#A80036;stroke-width:1.5;" x1="66" x2="352" y1="194" y2="194"/><ellipse cx="76" cy="205" fill="#84BE84" rx="3" ry="3" style="stroke:#038048;stroke-width:1.0;"/><text fill="#000000" font-family="sans-serif" font-size="11" lengthAdjust="spacing" textLength="262" x="85" y="208.2104">«Create» Buffer(connection_parameters: Dict)</text><ellipse cx="76" cy="217.8047" fill="#84BE84" rx="3" ry="3" style="stroke:#038048;stroke-width:1.0;"/><text fill="#000000" font-family="sans-serif" font-size="11" lengthAdjust="spacing" textLength="223" x="85" y="221.0151">append(node_name, value, timestamp)</text><rect fill="#F24D5C" height="6" style="stroke:#C82930;stroke-width:1.0;" width="6" x="73" y="227.6094"/><text fill="#000000" font-family="sans-serif" font-size="11" lengthAdjust="spacing" textLength="194" x="85" y="233.8198">pop_first(number_of_elements=1)</text><!--MD5=[a45e06a0c1afe83b902f0d000e92eed2]
class CloudBuffer.InfluxDBClient--><rect codeLine="7" fill="#FEFECE" filter="url(#f1gpi3lvocwffc)" height="99.2188" id="CloudBuffer.InfluxDBClient" style="stroke:#A80036;stroke-width:1.5;" width="331" x="32.5" y="326"/><ellipse cx="151.75" cy="342" fill="#ADD1B2" rx="11" ry="11" style="stroke:#A80036;stroke-width:1.0;"/><path d="M154.7188,347.6406 Q154.1406,347.9375 153.5,348.0781 Q152.8594,348.2344 152.1563,348.2344 Q149.6563,348.2344 148.3281,346.5938 Q147.0156,344.9375 147.0156,341.8125 Q147.0156,338.6875 148.3281,337.0313 Q149.6563,335.375 152.1563,335.375 Q152.8594,335.375 153.5,335.5313 Q154.1563,335.6875 154.7188,335.9844 L154.7188,338.7031 Q154.0938,338.125 153.5,337.8594 Q152.9063,337.5781 152.2813,337.5781 Q150.9375,337.5781 150.25,338.6563 Q149.5625,339.7188 149.5625,341.8125 Q149.5625,343.9063 150.25,344.9844 Q150.9375,346.0469 152.2813,346.0469 Q152.9063,346.0469 153.5,345.7813 Q154.0938,345.5 154.7188,344.9219 L154.7188,347.6406 Z " fill="#000000"/><text fill="#000000" font-family="sans-serif" font-size="12" lengthAdjust="spacing" textLength="84" x="172.25" y="346.1543">InfluxDBClient</text><line style="stroke:#A80036;stroke-width:1.5;" x1="33.5" x2="362.5" y1="358" y2="358"/><rect fill="none" height="6" style="stroke:#C82930;stroke-width:1.0;" width="6" x="40.5" y="366"/><text fill="#000000" font-family="sans-serif" font-size="11" lengthAdjust="spacing" textLength="163" x="52.5" y="372.2104">connection_parameters: Dict</text><line style="stroke:#A80036;stroke-width:1.5;" x1="33.5" x2="362.5" y1="378.8047" y2="378.8047"/><ellipse cx="43.5" cy="389.8047" fill="#84BE84" rx="3" ry="3" style="stroke:#038048;stroke-width:1.0;"/><text fill="#000000" font-family="sans-serif" font-size="11" lengthAdjust="spacing" textLength="305" x="52.5" y="393.0151">«Create» InfluxDBClient(connection_parameters: Dict)</text><ellipse cx="43.5" cy="402.6094" fill="#84BE84" rx="3" ry="3" style="stroke:#038048;stroke-width:1.0;"/><text fill="#000000" font-family="sans-serif" font-size="11" lengthAdjust="spacing" textLength="123" x="52.5" y="405.8198">insert(datapoint: Dict)</text><ellipse cx="43.5" cy="415.4141" fill="#84BE84" rx="3" ry="3" style="stroke:#038048;stroke-width:1.0;"/><text fill="#000000" font-family="sans-serif" font-size="11" lengthAdjust="spacing" textLength="205" x="52.5" y="418.6245">insert_many(datapoints: List&lt;Dict&gt;)</text><!--MD5=[4dbe486b7961fd27973a1528374a3eda]
class OPCUAClient.Client--><rect codeLine="15" fill="#FEFECE" filter="url(#f1gpi3lvocwffc)" height="137.6328" id="OPCUAClient.Client" style="stroke:#A80036;stroke-width:1.5;" width="225" x="492.5" y="128"/><ellipse cx="583.25" cy="144" fill="#ADD1B2" rx="11" ry="11" style="stroke:#A80036;stroke-width:1.0;"/><path d="M586.2188,149.6406 Q585.6406,149.9375 585,150.0781 Q584.3594,150.2344 583.6563,150.2344 Q581.1563,150.2344 579.8281,148.5938 Q578.5156,146.9375 578.5156,143.8125 Q578.5156,140.6875 579.8281,139.0313 Q581.1563,137.375 583.6563,137.375 Q584.3594,137.375 585,137.5313 Q585.6563,137.6875 586.2188,137.9844 L586.2188,140.7031 Q585.5938,140.125 585,139.8594 Q584.4063,139.5781 583.7813,139.5781 Q582.4375,139.5781 581.75,140.6563 Q581.0625,141.7188 581.0625,143.8125 Q581.0625,145.9063 581.75,146.9844 Q582.4375,148.0469 583.7813,148.0469 Q584.4063,148.0469 585,147.7813 Q585.5938,147.5 586.2188,146.9219 L586.2188,149.6406 Z " fill="#000000"/><text fill="#000000" font-family="sans-serif" font-size="12" lengthAdjust="spacing" textLength="35" x="603.75" y="148.1543">Client</text><line style="stroke:#A80036;stroke-width:1.5;" x1="493.5" x2="716.5" y1="160" y2="160"/><rect fill="none" height="6" style="stroke:#C82930;stroke-width:1.0;" width="6" x="500.5" y="168"/><text fill="#000000" font-family="sans-serif" font-size="11" lengthAdjust="spacing" textLength="103" x="512.5" y="174.2104">opcua_config: Dict</text><rect fill="none" height="6" style="stroke:#C82930;stroke-width:1.0;" width="6" x="500.5" y="180.8047"/><text fill="#000000" font-family="sans-serif" font-size="11" lengthAdjust="spacing" textLength="167" x="512.5" y="187.0151">opcua_lib_client: opcua.Client</text><line style="stroke:#A80036;stroke-width:1.5;" x1="493.5" x2="716.5" y1="193.6094" y2="193.6094"/><ellipse cx="503.5" cy="204.6094" fill="#84BE84" rx="3" ry="3" style="stroke:#038048;stroke-width:1.0;"/><text fill="#000000" font-family="sans-serif" font-size="11" lengthAdjust="spacing" textLength="199" x="512.5" y="207.8198">«Create» Client(opcua_config: Dict)</text><ellipse cx="503.5" cy="217.4141" fill="#84BE84" rx="3" ry="3" style="stroke:#038048;stroke-width:1.0;"/><text fill="#000000" font-family="sans-serif" font-size="11" lengthAdjust="spacing" textLength="52" x="512.5" y="220.6245">connect()</text><ellipse cx="503.5" cy="230.2188" fill="#84BE84" rx="3" ry="3" style="stroke:#038048;stroke-width:1.0;"/><text fill="#000000" font-family="sans-serif" font-size="11" lengthAdjust="spacing" textLength="69" x="512.5" y="233.4292">disconnect()</text><ellipse cx="503.5" cy="243.0234" fill="#84BE84" rx="3" ry="3" style="stroke:#038048;stroke-width:1.0;"/><text fill="#000000" font-family="sans-serif" font-size="11" lengthAdjust="spacing" textLength="28" x="512.5" y="246.2339">poll()</text><ellipse cx="503.5" cy="255.8281" fill="#84BE84" rx="3" ry="3" style="stroke:#038048;stroke-width:1.0;"/><text fill="#000000" font-family="sans-serif" font-size="11" lengthAdjust="spacing" textLength="64" x="512.5" y="259.0386">subscribe()</text><!--MD5=[8810b593ff7159d72190329e39c268c5]
class OPCUAClient.SubscriptionHandler--><rect codeLine="24" fill="#FEFECE" filter="url(#f1gpi3lvocwffc)" height="86.4141" id="OPCUAClient.SubscriptionHandler" style="stroke:#A80036;stroke-width:1.5;" width="369" x="420.5" y="332.5"/><ellipse cx="537.25" cy="348.5" fill="#ADD1B2" rx="11" ry="11" style="stroke:#A80036;stroke-width:1.0;"/><path d="M540.2188,354.1406 Q539.6406,354.4375 539,354.5781 Q538.3594,354.7344 537.6563,354.7344 Q535.1563,354.7344 533.8281,353.0938 Q532.5156,351.4375 532.5156,348.3125 Q532.5156,345.1875 533.8281,343.5313 Q535.1563,341.875 537.6563,341.875 Q538.3594,341.875 539,342.0313 Q539.6563,342.1875 540.2188,342.4844 L540.2188,345.2031 Q539.5938,344.625 539,344.3594 Q538.4063,344.0781 537.7813,344.0781 Q536.4375,344.0781 535.75,345.1563 Q535.0625,346.2188 535.0625,348.3125 Q535.0625,350.4063 535.75,351.4844 Q536.4375,352.5469 537.7813,352.5469 Q538.4063,352.5469 539,352.2813 Q539.5938,352 540.2188,351.4219 L540.2188,354.1406 Z " fill="#000000"/><text fill="#000000" font-family="sans-serif" font-size="12" lengthAdjust="spacing" textLength="127" x="557.75" y="352.6543">SubscriptionHandler</text><line style="stroke:#A80036;stroke-width:1.5;" x1="421.5" x2="788.5" y1="364.5" y2="364.5"/><rect fill="none" height="6" style="stroke:#C82930;stroke-width:1.0;" width="6" x="428.5" y="372.5"/><text fill="#000000" font-family="sans-serif" font-size="11" lengthAdjust="spacing" textLength="129" x="440.5" y="378.7104">data_callback: Callable</text><line style="stroke:#A80036;stroke-width:1.5;" x1="421.5" x2="788.5" y1="385.3047" y2="385.3047"/><ellipse cx="431.5" cy="396.3047" fill="#84BE84" rx="3" ry="3" style="stroke:#038048;stroke-width:1.0;"/><text fill="#000000" font-family="sans-serif" font-size="11" lengthAdjust="spacing" textLength="308" x="440.5" y="399.5151">«Create» SubscriptionHandler(data_callback: Callable)</text><ellipse cx="431.5" cy="409.1094" fill="#84BE84" rx="3" ry="3" style="stroke:#038048;stroke-width:1.0;"/><text fill="#000000" font-family="sans-serif" font-size="11" lengthAdjust="spacing" textLength="343" x="440.5" y="412.3198">datachange_notification(node: opcua.Node, value, raw_data)</text><!--MD5=[a184c1fddb853df1bc971e18fa90a5e3]
class ConfigBuilder.Configurator--><rect codeLine="31" fill="#FEFECE" filter="url(#f1gpi3lvocwffc)" height="60.8047" id="ConfigBuilder.Configurator" style="stroke:#A80036;stroke-width:1.5;" width="324" x="847" y="166.5"/><ellipse cx="965.75" cy="182.5" fill="#ADD1B2" rx="11" ry="11" style="stroke:#A80036;stroke-width:1.0;"/><path d="M968.7188,188.1406 Q968.1406,188.4375 967.5,188.5781 Q966.8594,188.7344 966.1563,188.7344 Q963.6563,188.7344 962.3281,187.0938 Q961.0156,185.4375 961.0156,182.3125 Q961.0156,179.1875 962.3281,177.5313 Q963.6563,175.875 966.1563,175.875 Q966.8594,175.875 967.5,176.0313 Q968.1563,176.1875 968.7188,176.4844 L968.7188,179.2031 Q968.0938,178.625 967.5,178.3594 Q966.9063,178.0781 966.2813,178.0781 Q964.9375,178.0781 964.25,179.1563 Q963.5625,180.2188 963.5625,182.3125 Q963.5625,184.4063 964.25,185.4844 Q964.9375,186.5469 966.2813,186.5469 Q966.9063,186.5469 967.5,186.2813 Q968.0938,186 968.7188,185.4219 L968.7188,188.1406 Z " fill="#000000"/><text fill="#000000" font-family="sans-serif" font-size="12" lengthAdjust="spacing" textLength="78" x="986.25" y="186.6543">Configurator</text><line style="stroke:#A80036;stroke-width:1.5;" x1="848" x2="1170" y1="198.5" y2="198.5"/><line style="stroke:#A80036;stroke-width:1.5;" x1="848" x2="1170" y1="206.5" y2="206.5"/><ellipse cx="858" cy="217.5" fill="#84BE84" rx="3" ry="3" style="stroke:#038048;stroke-width:1.0;"/><text fill="#000000" font-family="sans-serif" font-size="11" lengthAdjust="spacing" textLength="298" x="867" y="220.7104">«Create» Configurator(connection_parameters: Dict)</text><!--MD5=[aa69b834666264e26f1515b4638b4e5a]
class ConfigBuilder.SPARQLClient--><rect codeLine="34" fill="#FEFECE" filter="url(#f1gpi3lvocwffc)" height="73.6094" id="ConfigBuilder.SPARQLClient" style="stroke:#A80036;stroke-width:1.5;" width="329" x="845.5" y="338.5"/><ellipse cx="964.75" cy="354.5" fill="#ADD1B2" rx="11" ry="11" style="stroke:#A80036;stroke-width:1.0;"/><path d="M967.7188,360.1406 Q967.1406,360.4375 966.5,360.5781 Q965.8594,360.7344 965.1563,360.7344 Q962.6563,360.7344 961.3281,359.0938 Q960.0156,357.4375 960.0156,354.3125 Q960.0156,351.1875 961.3281,349.5313 Q962.6563,347.875 965.1563,347.875 Q965.8594,347.875 966.5,348.0313 Q967.1563,348.1875 967.7188,348.4844 L967.7188,351.2031 Q967.0938,350.625 966.5,350.3594 Q965.9063,350.0781 965.2813,350.0781 Q963.9375,350.0781 963.25,351.1563 Q962.5625,352.2188 962.5625,354.3125 Q962.5625,356.4063 963.25,357.4844 Q963.9375,358.5469 965.2813,358.5469 Q965.9063,358.5469 966.5,358.2813 Q967.0938,358 967.7188,357.4219 L967.7188,360.1406 Z " fill="#000000"/><text fill="#000000" font-family="sans-serif" font-size="12" lengthAdjust="spacing" textLength="82" x="985.25" y="358.6543">SPARQLClient</text><line style="stroke:#A80036;stroke-width:1.5;" x1="846.5" x2="1173.5" y1="370.5" y2="370.5"/><rect fill="none" height="6" style="stroke:#C82930;stroke-width:1.0;" width="6" x="853.5" y="378.5"/><text fill="#000000" font-family="sans-serif" font-size="11" lengthAdjust="spacing" textLength="163" x="865.5" y="384.7104">connection_parameters: Dict</text><line style="stroke:#A80036;stroke-width:1.5;" x1="846.5" x2="1173.5" y1="391.3047" y2="391.3047"/><ellipse cx="856.5" cy="402.3047" fill="#84BE84" rx="3" ry="3" style="stroke:#038048;stroke-width:1.0;"/><text fill="#000000" font-family="sans-serif" font-size="11" lengthAdjust="spacing" textLength="303" x="865.5" y="405.5151">«Create» SPARQLClient(connection_parameters: Dict)</text><!--MD5=[5234ca285070190528fad17f417e92e7]
class ProcessHistorian--><rect codeLine="40" fill="#FEFECE" filter="url(#f1gpi3lvocwffc)" height="60.8047" id="ProcessHistorian" style="stroke:#A80036;stroke-width:1.5;" width="187" x="511.5" y="7"/><ellipse cx="548.55" cy="23" fill="#ADD1B2" rx="11" ry="11" style="stroke:#A80036;stroke-width:1.0;"/><path d="M551.5188,28.6406 Q550.9406,28.9375 550.3,29.0781 Q549.6594,29.2344 548.9563,29.2344 Q546.4563,29.2344 545.1281,27.5938 Q543.8156,25.9375 543.8156,22.8125 Q543.8156,19.6875 545.1281,18.0313 Q546.4563,16.375 548.9563,16.375 Q549.6594,16.375 550.3,16.5313 Q550.9563,16.6875 551.5188,16.9844 L551.5188,19.7031 Q550.8938,19.125 550.3,18.8594 Q549.7063,18.5781 549.0813,18.5781 Q547.7375,18.5781 547.05,19.6563 Q546.3625,20.7188 546.3625,22.8125 Q546.3625,24.9063 547.05,25.9844 Q547.7375,27.0469 549.0813,27.0469 Q549.7063,27.0469 550.3,26.7813 Q550.8938,26.5 551.5188,25.9219 L551.5188,28.6406 Z " fill="#000000"/><text fill="#000000" font-family="sans-serif" font-size="12" lengthAdjust="spacing" textLength="106" x="567.45" y="27.1543">ProcessHistorian</text><line style="stroke:#A80036;stroke-width:1.5;" x1="512.5" x2="697.5" y1="39" y2="39"/><line style="stroke:#A80036;stroke-width:1.5;" x1="512.5" x2="697.5" y1="47" y2="47"/><ellipse cx="522.5" cy="58" fill="#84BE84" rx="3" ry="3" style="stroke:#038048;stroke-width:1.0;"/><text fill="#000000" font-family="sans-serif" font-size="11" lengthAdjust="spacing" textLength="161" x="531.5" y="61.2104">«Create» ProcessHistorian()</text><!--MD5=[93ebc6005b2ed1ee29beb7b7c499fb3f]
link CloudBuffer.Buffer to CloudBuffer.InfluxDBClient--><path codeLine="13" d="M206.37,240.28 C204.86,264.37 202.97,294.81 201.36,320.6 " fill="none" id="CloudBuffer.Buffer-to-CloudBuffer.InfluxDBClient" style="stroke:#A80036;stroke-width:1.0;"/><polygon fill="#A80036" points="201.04,325.7,205.5983,316.9695,201.3546,320.7099,197.6141,316.4662,201.04,325.7" style="stroke:#A80036;stroke-width:1.0;"/><text fill="#000000" font-family="sans-serif" font-size="13" lengthAdjust="spacing" textLength="8" x="192.911" y="315.0614">1</text><!--MD5=[9febcfd11da175e2030c7f96d257283b]
reverse link OPCUAClient.Client to OPCUAClient.SubscriptionHandler--><path codeLine="29" d="M605,281.34 C605,299.07 605,317.07 605,332.46 " fill="none" id="OPCUAClient.Client-backto-OPCUAClient.SubscriptionHandler" style="stroke:#A80036;stroke-width:1.0;"/><ellipse cx="605" cy="274.24" fill="#FFFFFF" rx="8" ry="8" style="stroke:#A80036;stroke-width:1.0;"/><line style="stroke:#A80036;stroke-width:1.0;" x1="605" x2="605" y1="282.24" y2="266.24"/><line style="stroke:#A80036;stroke-width:1.0;" x1="597" x2="613" y1="274.24" y2="274.24"/><!--MD5=[85a1b36fb705d7ac8c27c17b2b4abd83]
link ConfigBuilder.Configurator to ConfigBuilder.SPARQLClient--><path codeLine="38" d="M1009.17,227.54 C1009.33,256.51 1009.58,300.93 1009.77,333.35 " fill="none" id="ConfigBuilder.Configurator-to-ConfigBuilder.SPARQLClient" style="stroke:#A80036;stroke-width:1.0;"/><polygon fill="#A80036" points="1009.8,338.45,1013.7485,329.4273,1009.7714,333.4501,1005.7486,329.473,1009.8,338.45" style="stroke:#A80036;stroke-width:1.0;"/><text fill="#000000" font-family="sans-serif" font-size="13" lengthAdjust="spacing" textLength="8" x="1001.0256" y="327.3512">1</text><!--MD5=[cbbd5a111e40519821d9f00dbc502dd8]
reverse link ProcessHistorian to CloudBuffer.Buffer--><path codeLine="43" d="M498.38,57.13 C467.38,64.15 433.85,73.34 404,85 C357.74,103.07 309.19,130.68 272.1,153.84 " fill="none" id="ProcessHistorian-backto-CloudBuffer.Buffer" style="stroke:#A80036;stroke-width:1.0;"/><polygon fill="#A80036" points="511.5,54.25,504.7823,51.6284,499.7787,56.821,506.4963,59.4426,511.5,54.25" style="stroke:#A80036;stroke-width:1.0;"/><text fill="#000000" font-family="sans-serif" font-size="13" lengthAdjust="spacing" textLength="8" x="495.4258" y="52.0965">1</text><text fill="#000000" font-family="sans-serif" font-size="13" lengthAdjust="spacing" textLength="8" x="273.5191" y="142.8105">1</text><!--MD5=[51205ff08181e5d9cc61d0fc1f4d3914]
reverse link ProcessHistorian to OPCUAClient.Client--><path codeLine="44" d="M605,81.23 C605,95.64 605,112.1 605,127.97 " fill="none" id="ProcessHistorian-backto-OPCUAClient.Client" style="stroke:#A80036;stroke-width:1.0;"/><polygon fill="#A80036" points="605,68.12,601,74.12,605,80.12,609,74.12,605,68.12" style="stroke:#A80036;stroke-width:1.0;"/><text fill="#000000" font-family="sans-serif" font-size="13" lengthAdjust="spacing" textLength="8" x="596.175" y="88.083">1</text><text fill="#000000" font-family="sans-serif" font-size="13" lengthAdjust="spacing" textLength="8" x="596.5875" y="117.1705">1</text><!--MD5=[a6079bb55354b84f9256d3c0997e667c]
reverse link ProcessHistorian to ConfigBuilder.Configurator--><path codeLine="45" d="M711.72,57.5 C742.65,64.53 776.13,73.62 806,85 C862.87,106.66 923.52,141.56 963.57,166.44 " fill="none" id="ProcessHistorian-backto-ConfigBuilder.Configurator" style="stroke:#A80036;stroke-width:1.0;"/><polygon fill="#A80036" points="698.63,54.62,703.6268,59.8192,710.348,57.2064,705.3511,52.0072,698.63,54.62" style="stroke:#A80036;stroke-width:1.0;"/><text fill="#000000" font-family="sans-serif" font-size="13" lengthAdjust="spacing" textLength="8" x="706.4099" y="52.4666">1</text><text fill="#000000" font-family="sans-serif" font-size="13" lengthAdjust="spacing" textLength="8" x="944.7572" y="155.2172">1</text><!--MD5=[847fe6156222e099c9e57d3eeaafc409]
@startuml "Process Historian"

class CloudBuffer.Buffer {
    +<<Create>> Buffer(connection_parameters: Dict)
    +append(node_name, value, timestamp)
    -pop_first(number_of_elements=1)
}
class CloudBuffer.InfluxDBClient{
    -connection_parameters: Dict
    +<<Create>> InfluxDBClient(connection_parameters: Dict)
    +insert(datapoint: Dict)
    +insert_many(datapoints: List<Dict>)
}
CloudBuffer.Buffer - -> "1" CloudBuffer.InfluxDBClient

class OPCUAClient.Client {
    -opcua_config: Dict
    -opcua_lib_client: opcua.Client
    +<<Create>> Client(opcua_config: Dict)
    +connect()
    +disconnect()
    +poll()
    +subscribe()
}
class OPCUAClient.SubscriptionHandler {
    -data_callback: Callable
    +<<Create>> SubscriptionHandler(data_callback: Callable)
    +datachange_notification(node: opcua.Node, value, raw_data)
}
OPCUAClient.Client +- - OPCUAClient.SubscriptionHandler

class ConfigBuilder.Configurator {
    +<<Create>> Configurator(connection_parameters: Dict)
}
class ConfigBuilder.SPARQLClient{
    -connection_parameters: Dict
    +<<Create>> SPARQLClient(connection_parameters: Dict)
}
ConfigBuilder.Configurator - -> "1" ConfigBuilder.SPARQLClient

class ProcessHistorian {
    +<<Create>> ProcessHistorian()
}
ProcessHistorian "1" *- - "1" CloudBuffer.Buffer
ProcessHistorian "1" *- - "1" OPCUAClient.Client
ProcessHistorian "1" *- - "1" ConfigBuilder.Configurator

@enduml

PlantUML version 1.2021.5(Sun Apr 25 13:20:28 CEST 2021)
(GPL source distribution)
Java Runtime: OpenJDK Runtime Environment
JVM: OpenJDK 64-Bit Server VM
Default Encoding: UTF-8
Language: de
Country: DE
--></g></svg>