<?xml version="1.0" encoding="UTF-8" standalone="no"?><svg xmlns="http://www.w3.org/2000/svg" xmlns:xlink="http://www.w3.org/1999/xlink" contentScriptType="application/ecmascript" contentStyleType="text/css" height="358px" preserveAspectRatio="none" style="width:895px;height:358px;background:#FFFFFF;" version="1.1" viewBox="0 0 895 358" width="895px" zoomAndPan="magnify"><defs><filter height="300%" id="f70uvpatvgcjx" width="300%" x="-1" y="-1"><feGaussianBlur result="blurOut" stdDeviation="2.0"/><feColorMatrix in="blurOut" result="blurOut2" type="matrix" values="0 0 0 0 0 0 0 0 0 0 0 0 0 0 0 0 0 0 .4 0"/><feOffset dx="4.0" dy="4.0" in="blurOut2" result="blurOut3"/><feBlend in="SourceGraphic" in2="blurOut3" mode="normal"/></filter></defs><g><!--MD5=[ffafba2be4b8a9370c09b984f87b0382]
cluster TripleStore--><path d="M448,243 C448,233 538.5,233 538.5,233 C538.5,233 629,233 629,243 L629,335 C629,345 538.5,345 538.5,345 C538.5,345 448,345 448,335 L448,243 " fill="#FFFFFF" filter="url(#f70uvpatvgcjx)" style="stroke:#000000;stroke-width:1.5;"/><path d="M448,243 C448,253 538.5,253 538.5,253 C538.5,253 629,253 629,243 " fill="none" style="stroke:#000000;stroke-width:1.5;"/><text fill="#000000" font-family="sans-serif" font-size="14" font-weight="bold" lengthAdjust="spacing" textLength="91" x="493" y="267.9951">TripleStore</text><!--MD5=[eee915dfdcad4763fd44c32b029dfc7b]
cluster InfluxDB--><path d="M653,243 C653,233 770.5,233 770.5,233 C770.5,233 888,233 888,243 L888,335 C888,345 770.5,345 770.5,345 C770.5,345 653,345 653,335 L653,243 " fill="#FFFFFF" filter="url(#f70uvpatvgcjx)" style="stroke:#000000;stroke-width:1.5;"/><path d="M653,243 C653,253 770.5,253 770.5,253 C770.5,253 888,253 888,243 " fill="none" style="stroke:#000000;stroke-width:1.5;"/><text fill="#000000" font-family="sans-serif" font-size="14" font-weight="bold" lengthAdjust="spacing" textLength="68" x="736.5" y="267.9951">InfluxDB</text><path d="M456.8511,139.5909 C460.981,132.1752 469.2969,131.5476 473.5327,139.4758 C477.4264,131.5555 483.1775,132.301 487.8633,138.6821 C491.313,131.4489 497.983,130.1481 502.2929,137.8511 C506.4258,130.0724 511.8253,126.7993 518.8134,134.876 C523.7163,129.0851 527.9383,129.8853 532.249,135.5694 C537.3871,125.9661 542.9893,126.9208 549.7846,133.8071 C553.1702,125.5224 558.1071,125.7567 563.7223,131.6089 C569.692,124.8536 574.6558,123.9593 579.5606,132.6975 C584.9556,126.5552 592.0214,127.25 594.9249,135.3797 C600.8429,129.1293 605.3779,130.2438 609.9978,136.896 C614.469,129.9647 620.6625,131.3767 624.5005,137.5945 C629.0132,130.9064 634.3176,130.2322 638.9836,137.4348 C644.6767,130.6213 651.1088,130.6558 655.1777,139.1527 C659.1539,131.8069 665.9449,133.614 669.5006,139.6042 C679.6698,141.7055 681.9588,147.9892 676.4578,156.5312 C685.4602,158.0585 686.839,165.2434 682.1109,171.8407 C687.1672,178.0803 684.9398,185.3815 677.0819,187.4643 C681.3634,194.9229 680.004,201.7081 670.0696,202.5655 C665.9313,209.4192 658.3857,210.7374 653.8718,202.9819 C648.2127,209.6212 643.6326,209.789 638.8854,202.0326 C634.8615,207.3081 629.7515,207.2589 625.8701,201.8588 C622.3591,210.6497 615.0484,210.7868 610.0385,203.3183 C605.7033,210.5486 600.3415,210.7711 594.9796,204.4601 C589.8743,211.0301 583.6751,212.9028 578.5867,204.4417 C574.0258,210.8702 568.6079,212.6057 563.4469,205.0935 C559.1452,211.7963 553.2236,212.3325 548.9933,205.0199 C543.9999,211.8514 536.1001,212.2297 532.4506,203.5835 C527.5385,210.3584 522.2567,210.161 518.4175,202.5378 C514.9417,209.3006 508.7454,211.4794 503.6244,204.281 C497.3902,211.7979 492.1503,210.4135 487.623,202.5098 C483.2569,209.5692 477.3528,209.6577 472.458,203.0986 C468.4819,211.3067 461.0308,209.6692 457.0136,203.1417 C447.5826,200.4103 446.9787,193.9915 452.9893,187.33 C444.7063,183.8599 444.1569,176.601 450.0313,170.6241 C443.0473,164.7699 442.8332,158.3988 452.1282,154.6864 C446.0389,147.2417 447.876,142.3224 456.8511,139.5909 " fill="#FFFFFF" filter="url(#f70uvpatvgcjx)" style="stroke:#000000;stroke-width:1.5;"/><!--MD5=[d0ca6a8c86e2f47755ea83eddfa6ae50]
cluster Process Historian--><polygon fill="#FFFFFF" filter="url(#f70uvpatvgcjx)" points="33,6,182,6,189,28.2969,424,28.2969,424,351,33,351,33,6" style="stroke:#000000;stroke-width:1.5;"/><line style="stroke:#000000;stroke-width:1.5;" x1="33" x2="189" y1="28.2969" y2="28.2969"/><text fill="#000000" font-family="sans-serif" font-size="14" font-weight="bold" lengthAdjust="spacing" textLength="143" x="37" y="20.9951">Process Historian</text><!--MD5=[34c03d534faab791d8af77818b55f59b]
entity TS--><ellipse cx="473" cy="306" fill="#FEFECE" filter="url(#f70uvpatvgcjx)" rx="8" ry="8" style="stroke:#A80036;stroke-width:1.5;"/><text fill="#000000" font-family="sans-serif" font-size="14" lengthAdjust="spacing" textLength="82" x="432" y="335.9951">TripleStore</text><!--MD5=[576aa32e5c747a881bc4f7c39d22502f]
entity Group 2--><rect fill="#FEFECE" filter="url(#f70uvpatvgcjx)" height="46.2969" style="stroke:#A80036;stroke-width:1.5;" width="96" x="517" y="283"/><rect fill="#FEFECE" height="10" style="stroke:#A80036;stroke-width:1.5;" width="15" x="593" y="288"/><rect fill="#FEFECE" height="2" style="stroke:#A80036;stroke-width:1.5;" width="4" x="591" y="290"/><rect fill="#FEFECE" height="2" style="stroke:#A80036;stroke-width:1.5;" width="4" x="591" y="294"/><text fill="#000000" font-family="sans-serif" font-size="14" lengthAdjust="spacing" textLength="56" x="532" y="315.9951">Group 2</text><!--MD5=[0b2727990a395ea2c6d1bd35a097b3f6]
entity IDB--><ellipse cx="678" cy="306" fill="#FEFECE" filter="url(#f70uvpatvgcjx)" rx="8" ry="8" style="stroke:#A80036;stroke-width:1.5;"/><text fill="#000000" font-family="sans-serif" font-size="14" lengthAdjust="spacing" textLength="58" x="649" y="335.9951">InfluxQL</text><!--MD5=[c89827578d05d62de7f4ec11ce4e9420]
entity InfluxDB server--><rect fill="#FEFECE" filter="url(#f70uvpatvgcjx)" height="46.2969" style="stroke:#A80036;stroke-width:1.5;" width="149" x="722.5" y="283"/><rect fill="#FEFECE" height="10" style="stroke:#A80036;stroke-width:1.5;" width="15" x="851.5" y="288"/><rect fill="#FEFECE" height="2" style="stroke:#A80036;stroke-width:1.5;" width="4" x="849.5" y="290"/><rect fill="#FEFECE" height="2" style="stroke:#A80036;stroke-width:1.5;" width="4" x="849.5" y="294"/><text fill="#000000" font-family="sans-serif" font-size="14" lengthAdjust="spacing" textLength="109" x="737.5" y="315.9951">InfluxDB server</text><!--MD5=[b6523e305bdedd9177d9177574705f6b]
entity OPCUA--><ellipse cx="473" cy="170" fill="#FEFECE" filter="url(#f70uvpatvgcjx)" rx="8" ry="8" style="stroke:#A80036;stroke-width:1.5;"/><text fill="#000000" font-family="sans-serif" font-size="14" lengthAdjust="spacing" textLength="53" x="446.5" y="199.9951">OPC UA</text><!--MD5=[95dfaa905fc7a957cc417e262c4040fe]
entity OPC UA Server--><rect fill="#FEFECE" filter="url(#f70uvpatvgcjx)" height="46.2969" style="stroke:#A80036;stroke-width:1.5;" width="144" x="517" y="147"/><rect fill="#FEFECE" height="10" style="stroke:#A80036;stroke-width:1.5;" width="15" x="641" y="152"/><rect fill="#FEFECE" height="2" style="stroke:#A80036;stroke-width:1.5;" width="4" x="639" y="154"/><rect fill="#FEFECE" height="2" style="stroke:#A80036;stroke-width:1.5;" width="4" x="639" y="158"/><text fill="#000000" font-family="sans-serif" font-size="14" lengthAdjust="spacing" textLength="104" x="532" y="179.9951">OPC UA Server</text><!--MD5=[65406f0755e731e6ef3f3644b3e2a13a]
entity OPC_Config--><ellipse cx="58" cy="170" fill="#FEFECE" filter="url(#f70uvpatvgcjx)" rx="8" ry="8" style="stroke:#A80036;stroke-width:1.5;"/><text fill="#000000" font-family="sans-serif" font-size="14" lengthAdjust="spacing" textLength="104" x="6" y="199.9951">OPC UA Config</text><!--MD5=[f106d8558407a5af335d456a3ed1b98c]
entity Config Builder--><rect fill="#FEFECE" filter="url(#f70uvpatvgcjx)" height="46.2969" style="stroke:#A80036;stroke-width:1.5;" width="141" x="102.5" y="147"/><rect fill="#FEFECE" height="10" style="stroke:#A80036;stroke-width:1.5;" width="15" x="223.5" y="152"/><rect fill="#FEFECE" height="2" style="stroke:#A80036;stroke-width:1.5;" width="4" x="221.5" y="154"/><rect fill="#FEFECE" height="2" style="stroke:#A80036;stroke-width:1.5;" width="4" x="221.5" y="158"/><text fill="#000000" font-family="sans-serif" font-size="14" lengthAdjust="spacing" textLength="101" x="117.5" y="179.9951">Config Builder</text><!--MD5=[7b283ce894c5928581d5380ce71c9d62]
entity PC--><ellipse cx="258" cy="306" fill="#FEFECE" filter="url(#f70uvpatvgcjx)" rx="8" ry="8" style="stroke:#A80036;stroke-width:1.5;"/><text fill="#000000" font-family="sans-serif" font-size="14" lengthAdjust="spacing" textLength="112" x="202" y="335.9951">Program Config</text><!--MD5=[25b49afac92ba96d5139343a68fcc533]
entity OPC UA Client--><rect fill="#FEFECE" filter="url(#f70uvpatvgcjx)" height="46.2969" style="stroke:#A80036;stroke-width:1.5;" width="140" x="268" y="41"/><rect fill="#FEFECE" height="10" style="stroke:#A80036;stroke-width:1.5;" width="15" x="388" y="46"/><rect fill="#FEFECE" height="2" style="stroke:#A80036;stroke-width:1.5;" width="4" x="386" y="48"/><rect fill="#FEFECE" height="2" style="stroke:#A80036;stroke-width:1.5;" width="4" x="386" y="52"/><text fill="#000000" font-family="sans-serif" font-size="14" lengthAdjust="spacing" textLength="100" x="283" y="73.9951">OPC UA Client</text><!--MD5=[d0a921e89f2930c69fb51102e56c0c6d]
entity Cloud Buffer--><rect fill="#FEFECE" filter="url(#f70uvpatvgcjx)" height="46.2969" style="stroke:#A80036;stroke-width:1.5;" width="129" x="278.5" y="147"/><rect fill="#FEFECE" height="10" style="stroke:#A80036;stroke-width:1.5;" width="15" x="387.5" y="152"/><rect fill="#FEFECE" height="2" style="stroke:#A80036;stroke-width:1.5;" width="4" x="385.5" y="154"/><rect fill="#FEFECE" height="2" style="stroke:#A80036;stroke-width:1.5;" width="4" x="385.5" y="158"/><text fill="#000000" font-family="sans-serif" font-size="14" lengthAdjust="spacing" textLength="89" x="293.5" y="179.9951">Cloud Buffer</text><!--MD5=[81e01bf3c174254e9831f23e2489b881]
link TS to Group 2--><path d="M482.344,306 C493.86,306 505.376,306 516.891,306 " fill="none" id="TS-Group 2" style="stroke:#A80036;stroke-width:1.0;"/><!--MD5=[fef3b17da569f35fb37f2806464d116d]
link IDB to InfluxDB server--><path d="M687.297,306 C699.01,306 710.723,306 722.436,306 " fill="none" id="IDB-InfluxDB server" style="stroke:#A80036;stroke-width:1.0;"/><!--MD5=[9522b69cf88270582b33296a66ab40fd]
link OPCUA to OPC UA Server--><path d="M482.062,170 C493.62,170 505.177,170 516.734,170 " fill="none" id="OPCUA-OPC UA Server" style="stroke:#A80036;stroke-width:1.0;"/><!--MD5=[888dfece5c5ec9665d00a167829ade4c]
link OPC_Config to Config Builder--><path d="M67.4336,170 C79.1174,170 90.8012,170 102.4849,170 " fill="none" id="OPC_Config-Config Builder" style="stroke:#A80036;stroke-width:1.0;"/><!--MD5=[8f06b67f85487f39b6c8c57b9a297257]
link Config Builder to TS--><path d="M206.685,193.001 C222.51,202.16 242.035,211.846 261,217 C278.498,221.755 408.402,215.753 424,225 C449.228,239.956 463.209,273.4537 469.283,292.0087 " fill="none" id="Config Builder-to-TS" style="stroke:#A80036;stroke-width:1.0;"/><polygon fill="#A80036" points="470.79,296.8181,471.9169,287.0339,469.2954,292.0467,464.2827,289.4252,470.79,296.8181" style="stroke:#A80036;stroke-width:1.0;"/><!--MD5=[534184a3c102584e7ddebba40a28e2de]
link Config Builder to PC--><path d="M187.036,193.127 C204.997,221.442 235.51,269.5454 249.958,292.3221 " fill="none" id="Config Builder-to-PC" style="stroke:#A80036;stroke-width:1.0;"/><polygon fill="#A80036" points="252.787,296.7818,251.3428,287.0394,250.1083,292.5599,244.5878,291.3254,252.787,296.7818" style="stroke:#A80036;stroke-width:1.0;"/><!--MD5=[06a6cc73ed9630495ebf44b1c4ac75e5]
link OPC UA Client to OPCUA--><path d="M373.635,87.192 C389.475,97.518 408.095,110.306 424,123 C437.526,133.795 451.826,147.521 461.463,157.159 " fill="none" id="OPC UA Client-to-OPCUA" style="stroke:#A80036;stroke-width:1.0;"/><polygon fill="#A80036" points="465.042,160.765,461.5418,151.5591,461.5201,157.2159,455.8632,157.1942,465.042,160.765" style="stroke:#A80036;stroke-width:1.0;"/><!--MD5=[14819eaa48a27cb4a2b15a91015782da]
link OPC UA Client to OPC_Config--><path d="M267.955,66.33 C213.399,70.611 138.239,83.963 85,123 C73.8333,131.188 66.4999,145.505 62.3314,155.997 " fill="none" id="OPC UA Client-to-OPC_Config" style="stroke:#A80036;stroke-width:1.0;"/><polygon fill="#A80036" points="60.5364,160.797,67.4355,153.7683,62.2878,156.1138,59.9424,150.9661,60.5364,160.797" style="stroke:#A80036;stroke-width:1.0;"/><!--MD5=[82aa2d8306fd69ffbd92779b962026d4]
link Cloud Buffer to IDB--><path d="M383.682,193.014 C402.663,202.176 425.902,211.86 448,217 C467.607,221.561 611.659,214.776 629,225 C654.264,239.895 668.231,273.4173 674.293,291.9925 " fill="none" id="Cloud Buffer-to-IDB" style="stroke:#A80036;stroke-width:1.0;"/><polygon fill="#A80036" points="675.796,296.8074,676.9323,287.0243,674.306,292.0346,669.2957,289.4083,675.796,296.8074" style="stroke:#A80036;stroke-width:1.0;"/><!--MD5=[3bfb1b2238d9edfb6af29071e4f4259c]
link Cloud Buffer to PC--><path d="M328.964,193.127 C311.003,221.442 280.49,269.5454 266.042,292.3221 " fill="none" id="Cloud Buffer-to-PC" style="stroke:#A80036;stroke-width:1.0;"/><polygon fill="#A80036" points="263.213,296.7818,271.4122,291.3254,265.8917,292.5599,264.6572,287.0394,263.213,296.7818" style="stroke:#A80036;stroke-width:1.0;"/><!--MD5=[1f6ce55bdd62727fccd7be47af3b9c11]
link OPC UA Client to Cloud Buffer--><path d="M339.06,87.056 C339.829,103.05 340.874,124.778 341.694,141.842 " fill="none" id="OPC UA Client-to-Cloud Buffer" style="stroke:#A80036;stroke-width:1.0;"/><polygon fill="#A80036" points="341.941,146.976,345.5044,137.7944,341.701,141.9818,337.5136,138.1784,341.941,146.976" style="stroke:#A80036;stroke-width:1.0;"/><!--MD5=[7031ce8f244f3a5809176a6c14ad2c49]
@startuml
database "TripleStore" {
  () "TripleStore" as TS
  TS - [Group 2]
}
database "InfluxDB" {
  () "InfluxQL" as IDB
  IDB - [InfluxDB server]
}

cloud {
  () "OPC UA" as OPCUA
  OPCUA - [OPC UA Server]
}

package "Process Historian" {
  () "OPC UA Config" as OPC_Config
  OPC_Config - [Config Builder]
  () "Program Config" as PC
  [Config Builder] - -> TS
  [Config Builder] - -> PC
  [OPC UA Client] - -> OPCUA
  [OPC UA Client] - -> OPC_Config
  [Cloud Buffer] - -> IDB
  [Cloud Buffer] - -> PC
  [OPC UA Client] - -> [Cloud Buffer]
}
@enduml

PlantUML version 1.2021.7beta1(Unknown compile time)
(GPL source distribution)
Java Runtime: Java(TM) SE Runtime Environment
JVM: Java HotSpot(TM) 64-Bit Server VM
Default Encoding: UTF-8
Language: en
Country: US
--></g></svg>