<?xml version="1.0" encoding="UTF-8" standalone="no"?><svg xmlns="http://www.w3.org/2000/svg" xmlns:xlink="http://www.w3.org/1999/xlink" contentScriptType="application/ecmascript" contentStyleType="text/css" height="361px" preserveAspectRatio="none" style="width:795px;height:361px;background:#FFFFFF;" version="1.1" viewBox="0 0 795 361" width="795px" zoomAndPan="magnify"><defs/><g><rect fill="#FEFECE" height="81.1875" rx="5" ry="5" style="stroke:#FEFECE;stroke-width:1.5;" width="106" x="10" y="140"/><text fill="#000000" font-family="sans-serif" font-size="14" lengthAdjust="spacing" textLength="32" x="15" y="154.9951">host</text><text fill="#000000" font-family="sans-serif" font-size="14" lengthAdjust="spacing" textLength="18" x="93" y="154.9951">url</text><line style="stroke:#A80036;stroke-width:1.0;" x1="88" x2="88" y1="140" y2="160.2969"/><line style="stroke:#A80036;stroke-width:1.0;" x1="10" x2="116" y1="160.2969" y2="160.2969"/><text fill="#000000" font-family="sans-serif" font-size="14" lengthAdjust="spacing" textLength="54" x="15" y="175.292">sensors</text><text fill="#000000" font-family="sans-serif" font-size="14" lengthAdjust="spacing" textLength="0" x="105" y="175.292"/><line style="stroke:#A80036;stroke-width:1.0;" x1="88" x2="88" y1="160.2969" y2="180.5938"/><line style="stroke:#A80036;stroke-width:1.0;" x1="10" x2="116" y1="180.5938" y2="180.5938"/><text fill="#000000" font-family="sans-serif" font-size="14" lengthAdjust="spacing" textLength="68" x="15" y="195.5889">actuators</text><text fill="#000000" font-family="sans-serif" font-size="14" lengthAdjust="spacing" textLength="0" x="105" y="195.5889"/><line style="stroke:#A80036;stroke-width:1.0;" x1="88" x2="88" y1="180.5938" y2="200.8906"/><line style="stroke:#A80036;stroke-width:1.0;" x1="10" x2="116" y1="200.8906" y2="200.8906"/><text fill="#000000" font-family="sans-serif" font-size="14" lengthAdjust="spacing" textLength="58" x="15" y="215.8857">services</text><text fill="#000000" font-family="sans-serif" font-size="14" lengthAdjust="spacing" textLength="0" x="105" y="215.8857"/><line style="stroke:#A80036;stroke-width:1.0;" x1="88" x2="88" y1="200.8906" y2="221.1875"/><rect fill="none" height="81.1875" rx="5" ry="5" style="stroke:#A80036;stroke-width:1.5;" width="106" x="10" y="140"/><rect fill="#FEFECE" height="20.2969" rx="5" ry="5" style="stroke:#FEFECE;stroke-width:1.5;" width="22" x="153" y="117.5"/><text fill="#000000" font-family="sans-serif" font-size="14" lengthAdjust="spacing" textLength="0" x="170" y="132.4951"/><rect fill="none" height="20.2969" rx="5" ry="5" style="stroke:#A80036;stroke-width:1.5;" width="22" x="153" y="117.5"/><rect fill="#FEFECE" height="40.5938" rx="5" ry="5" style="stroke:#FEFECE;stroke-width:1.5;" width="135" x="214" y="81"/><text fill="#000000" font-family="sans-serif" font-size="14" lengthAdjust="spacing" textLength="73" x="219" y="95.9951">attributes</text><text fill="#000000" font-family="sans-serif" font-size="14" lengthAdjust="spacing" textLength="0" x="314" y="95.9951"/><line style="stroke:#A80036;stroke-width:1.0;" x1="297" x2="297" y1="81" y2="101.2969"/><line style="stroke:#A80036;stroke-width:1.0;" x1="214" x2="349" y1="101.2969" y2="101.2969"/><text fill="#000000" font-family="sans-serif" font-size="14" lengthAdjust="spacing" textLength="13" x="219" y="116.292">id</text><text fill="#000000" font-family="sans-serif" font-size="14" lengthAdjust="spacing" textLength="42" x="302" y="116.292">string</text><line style="stroke:#A80036;stroke-width:1.0;" x1="297" x2="297" y1="101.2969" y2="121.5938"/><rect fill="none" height="40.5938" rx="5" ry="5" style="stroke:#A80036;stroke-width:1.5;" width="135" x="214" y="81"/><rect fill="#FEFECE" height="20.2969" rx="5" ry="5" style="stroke:#FEFECE;stroke-width:1.5;" width="22" x="386" y="65.5"/><text fill="#000000" font-family="sans-serif" font-size="14" lengthAdjust="spacing" textLength="0" x="403" y="80.4951"/><rect fill="none" height="20.2969" rx="5" ry="5" style="stroke:#A80036;stroke-width:1.5;" width="22" x="386" y="65.5"/><rect fill="#FEFECE" height="101.4844" rx="5" ry="5" style="stroke:#FEFECE;stroke-width:1.5;" width="186" x="447" y="10"/><text fill="#000000" font-family="sans-serif" font-size="14" lengthAdjust="spacing" textLength="59" x="452" y="24.9951">intervall</text><text fill="#000000" font-family="sans-serif" font-size="14" lengthAdjust="spacing" textLength="56" x="572" y="24.9951">number</text><line style="stroke:#A80036;stroke-width:1.0;" x1="567" x2="567" y1="10" y2="30.2969"/><line style="stroke:#A80036;stroke-width:1.0;" x1="447" x2="633" y1="30.2969" y2="30.2969"/><text fill="#000000" font-family="sans-serif" font-size="14" lengthAdjust="spacing" textLength="41" x="452" y="45.292">mode</text><text fill="#000000" font-family="sans-serif" font-size="14" lengthAdjust="spacing" textLength="0" x="584" y="45.292"/><line style="stroke:#A80036;stroke-width:1.0;" x1="567" x2="567" y1="30.2969" y2="50.5938"/><line style="stroke:#A80036;stroke-width:1.0;" x1="447" x2="633" y1="50.5938" y2="50.5938"/><text fill="#000000" font-family="sans-serif" font-size="14" lengthAdjust="spacing" textLength="40" x="452" y="65.5889">name</text><text fill="#000000" font-family="sans-serif" font-size="14" lengthAdjust="spacing" textLength="42" x="572" y="65.5889">string</text><line style="stroke:#A80036;stroke-width:1.0;" x1="567" x2="567" y1="50.5938" y2="70.8906"/><line style="stroke:#A80036;stroke-width:1.0;" x1="447" x2="633" y1="70.8906" y2="70.8906"/><text fill="#000000" font-family="sans-serif" font-size="14" lengthAdjust="spacing" textLength="82" x="452" y="85.8857">namespace</text><text fill="#000000" font-family="sans-serif" font-size="14" lengthAdjust="spacing" textLength="42" x="572" y="85.8857">string</text><line style="stroke:#A80036;stroke-width:1.0;" x1="567" x2="567" y1="70.8906" y2="91.1875"/><line style="stroke:#A80036;stroke-width:1.0;" x1="447" x2="633" y1="91.1875" y2="91.1875"/><text fill="#000000" font-family="sans-serif" font-size="14" lengthAdjust="spacing" textLength="110" x="452" y="106.1826">node_identifier</text><text fill="#000000" font-family="sans-serif" font-size="14" lengthAdjust="spacing" textLength="42" x="572" y="106.1826">string</text><line style="stroke:#A80036;stroke-width:1.0;" x1="567" x2="567" y1="91.1875" y2="111.4844"/><rect fill="none" height="101.4844" rx="5" ry="5" style="stroke:#A80036;stroke-width:1.5;" width="186" x="447" y="10"/><rect fill="#FEFECE" height="40.5938" rx="5" ry="5" style="stroke:#FEFECE;stroke-width:1.5;" width="113" x="670" y="19"/><text fill="#000000" font-family="sans-serif" font-size="14" lengthAdjust="spacing" textLength="41" x="675" y="33.9951">"poll"</text><line style="stroke:#A80036;stroke-width:1.0;" x1="670" x2="783" y1="39.2969" y2="39.2969"/><text fill="#000000" font-family="sans-serif" font-size="14" lengthAdjust="spacing" textLength="103" x="675" y="54.292">"subscription"</text><rect fill="none" height="40.5938" rx="5" ry="5" style="stroke:#A80036;stroke-width:1.5;" width="113" x="670" y="19"/><rect fill="#FEFECE" height="20.2969" rx="5" ry="5" style="stroke:#FEFECE;stroke-width:1.5;" width="22" x="153" y="180.5"/><text fill="#000000" font-family="sans-serif" font-size="14" lengthAdjust="spacing" textLength="0" x="170" y="195.4951"/><rect fill="none" height="20.2969" rx="5" ry="5" style="stroke:#A80036;stroke-width:1.5;" width="22" x="153" y="180.5"/><rect fill="#FEFECE" height="40.5938" rx="5" ry="5" style="stroke:#FEFECE;stroke-width:1.5;" width="135" x="214" y="170"/><text fill="#000000" font-family="sans-serif" font-size="14" lengthAdjust="spacing" textLength="73" x="219" y="184.9951">attributes</text><text fill="#000000" font-family="sans-serif" font-size="14" lengthAdjust="spacing" textLength="0" x="314" y="184.9951"/><line style="stroke:#A80036;stroke-width:1.0;" x1="297" x2="297" y1="170" y2="190.2969"/><line style="stroke:#A80036;stroke-width:1.0;" x1="214" x2="349" y1="190.2969" y2="190.2969"/><text fill="#000000" font-family="sans-serif" font-size="14" lengthAdjust="spacing" textLength="13" x="219" y="205.292">id</text><text fill="#000000" font-family="sans-serif" font-size="14" lengthAdjust="spacing" textLength="42" x="302" y="205.292">string</text><line style="stroke:#A80036;stroke-width:1.0;" x1="297" x2="297" y1="190.2969" y2="210.5938"/><rect fill="none" height="40.5938" rx="5" ry="5" style="stroke:#A80036;stroke-width:1.5;" width="135" x="214" y="170"/><rect fill="#FEFECE" height="20.2969" rx="5" ry="5" style="stroke:#FEFECE;stroke-width:1.5;" width="22" x="386" y="169.5"/><text fill="#000000" font-family="sans-serif" font-size="14" lengthAdjust="spacing" textLength="0" x="403" y="184.4951"/><rect fill="none" height="20.2969" rx="5" ry="5" style="stroke:#A80036;stroke-width:1.5;" width="22" x="386" y="169.5"/><rect fill="#FEFECE" height="101.4844" rx="5" ry="5" style="stroke:#FEFECE;stroke-width:1.5;" width="186" x="447" y="129"/><text fill="#000000" font-family="sans-serif" font-size="14" lengthAdjust="spacing" textLength="59" x="452" y="143.9951">intervall</text><text fill="#000000" font-family="sans-serif" font-size="14" lengthAdjust="spacing" textLength="56" x="572" y="143.9951">number</text><line style="stroke:#A80036;stroke-width:1.0;" x1="567" x2="567" y1="129" y2="149.2969"/><line style="stroke:#A80036;stroke-width:1.0;" x1="447" x2="633" y1="149.2969" y2="149.2969"/><text fill="#000000" font-family="sans-serif" font-size="14" lengthAdjust="spacing" textLength="41" x="452" y="164.292">mode</text><text fill="#000000" font-family="sans-serif" font-size="14" lengthAdjust="spacing" textLength="0" x="584" y="164.292"/><line style="stroke:#A80036;stroke-width:1.0;" x1="567" x2="567" y1="149.2969" y2="169.5938"/><line style="stroke:#A80036;stroke-width:1.0;" x1="447" x2="633" y1="169.5938" y2="169.5938"/><text fill="#000000" font-family="sans-serif" font-size="14" lengthAdjust="spacing" textLength="40" x="452" y="184.5889">name</text><text fill="#000000" font-family="sans-serif" font-size="14" lengthAdjust="spacing" textLength="42" x="572" y="184.5889">string</text><line style="stroke:#A80036;stroke-width:1.0;" x1="567" x2="567" y1="169.5938" y2="189.8906"/><line style="stroke:#A80036;stroke-width:1.0;" x1="447" x2="633" y1="189.8906" y2="189.8906"/><text fill="#000000" font-family="sans-serif" font-size="14" lengthAdjust="spacing" textLength="82" x="452" y="204.8857">namespace</text><text fill="#000000" font-family="sans-serif" font-size="14" lengthAdjust="spacing" textLength="42" x="572" y="204.8857">string</text><line style="stroke:#A80036;stroke-width:1.0;" x1="567" x2="567" y1="189.8906" y2="210.1875"/><line style="stroke:#A80036;stroke-width:1.0;" x1="447" x2="633" y1="210.1875" y2="210.1875"/><text fill="#000000" font-family="sans-serif" font-size="14" lengthAdjust="spacing" textLength="110" x="452" y="225.1826">node_identifier</text><text fill="#000000" font-family="sans-serif" font-size="14" lengthAdjust="spacing" textLength="42" x="572" y="225.1826">string</text><line style="stroke:#A80036;stroke-width:1.0;" x1="567" x2="567" y1="210.1875" y2="230.4844"/><rect fill="none" height="101.4844" rx="5" ry="5" style="stroke:#A80036;stroke-width:1.5;" width="186" x="447" y="129"/><rect fill="#FEFECE" height="40.5938" rx="5" ry="5" style="stroke:#FEFECE;stroke-width:1.5;" width="113" x="670" y="138"/><text fill="#000000" font-family="sans-serif" font-size="14" lengthAdjust="spacing" textLength="41" x="675" y="152.9951">"poll"</text><line style="stroke:#A80036;stroke-width:1.0;" x1="670" x2="783" y1="158.2969" y2="158.2969"/><text fill="#000000" font-family="sans-serif" font-size="14" lengthAdjust="spacing" textLength="103" x="675" y="173.292">"subscription"</text><rect fill="none" height="40.5938" rx="5" ry="5" style="stroke:#A80036;stroke-width:1.5;" width="113" x="670" y="138"/><rect fill="#FEFECE" height="20.2969" rx="5" ry="5" style="stroke:#FEFECE;stroke-width:1.5;" width="22" x="153" y="236.5"/><text fill="#000000" font-family="sans-serif" font-size="14" lengthAdjust="spacing" textLength="0" x="170" y="251.4951"/><rect fill="none" height="20.2969" rx="5" ry="5" style="stroke:#A80036;stroke-width:1.5;" width="22" x="153" y="236.5"/><rect fill="#FEFECE" height="40.5938" rx="5" ry="5" style="stroke:#FEFECE;stroke-width:1.5;" width="135" x="214" y="244"/><text fill="#000000" font-family="sans-serif" font-size="14" lengthAdjust="spacing" textLength="73" x="219" y="258.9951">attributes</text><text fill="#000000" font-family="sans-serif" font-size="14" lengthAdjust="spacing" textLength="0" x="314" y="258.9951"/><line style="stroke:#A80036;stroke-width:1.0;" x1="297" x2="297" y1="244" y2="264.2969"/><line style="stroke:#A80036;stroke-width:1.0;" x1="214" x2="349" y1="264.2969" y2="264.2969"/><text fill="#000000" font-family="sans-serif" font-size="14" lengthAdjust="spacing" textLength="13" x="219" y="279.292">id</text><text fill="#000000" font-family="sans-serif" font-size="14" lengthAdjust="spacing" textLength="42" x="302" y="279.292">string</text><line style="stroke:#A80036;stroke-width:1.0;" x1="297" x2="297" y1="264.2969" y2="284.5938"/><rect fill="none" height="40.5938" rx="5" ry="5" style="stroke:#A80036;stroke-width:1.5;" width="135" x="214" y="244"/><rect fill="#FEFECE" height="20.2969" rx="5" ry="5" style="stroke:#FEFECE;stroke-width:1.5;" width="22" x="386" y="273.5"/><text fill="#000000" font-family="sans-serif" font-size="14" lengthAdjust="spacing" textLength="0" x="403" y="288.4951"/><rect fill="none" height="20.2969" rx="5" ry="5" style="stroke:#A80036;stroke-width:1.5;" width="22" x="386" y="273.5"/><rect fill="#FEFECE" height="101.4844" rx="5" ry="5" style="stroke:#FEFECE;stroke-width:1.5;" width="186" x="447" y="248"/><text fill="#000000" font-family="sans-serif" font-size="14" lengthAdjust="spacing" textLength="59" x="452" y="262.9951">intervall</text><text fill="#000000" font-family="sans-serif" font-size="14" lengthAdjust="spacing" textLength="56" x="572" y="262.9951">number</text><line style="stroke:#A80036;stroke-width:1.0;" x1="567" x2="567" y1="248" y2="268.2969"/><line style="stroke:#A80036;stroke-width:1.0;" x1="447" x2="633" y1="268.2969" y2="268.2969"/><text fill="#000000" font-family="sans-serif" font-size="14" lengthAdjust="spacing" textLength="41" x="452" y="283.292">mode</text><text fill="#000000" font-family="sans-serif" font-size="14" lengthAdjust="spacing" textLength="0" x="584" y="283.292"/><line style="stroke:#A80036;stroke-width:1.0;" x1="567" x2="567" y1="268.2969" y2="288.5938"/><line style="stroke:#A80036;stroke-width:1.0;" x1="447" x2="633" y1="288.5938" y2="288.5938"/><text fill="#000000" font-family="sans-serif" font-size="14" lengthAdjust="spacing" textLength="40" x="452" y="303.5889">name</text><text fill="#000000" font-family="sans-serif" font-size="14" lengthAdjust="spacing" textLength="42" x="572" y="303.5889">string</text><line style="stroke:#A80036;stroke-width:1.0;" x1="567" x2="567" y1="288.5938" y2="308.8906"/><line style="stroke:#A80036;stroke-width:1.0;" x1="447" x2="633" y1="308.8906" y2="308.8906"/><text fill="#000000" font-family="sans-serif" font-size="14" lengthAdjust="spacing" textLength="82" x="452" y="323.8857">namespace</text><text fill="#000000" font-family="sans-serif" font-size="14" lengthAdjust="spacing" textLength="42" x="572" y="323.8857">string</text><line style="stroke:#A80036;stroke-width:1.0;" x1="567" x2="567" y1="308.8906" y2="329.1875"/><line style="stroke:#A80036;stroke-width:1.0;" x1="447" x2="633" y1="329.1875" y2="329.1875"/><text fill="#000000" font-family="sans-serif" font-size="14" lengthAdjust="spacing" textLength="110" x="452" y="344.1826">node_identifier</text><text fill="#000000" font-family="sans-serif" font-size="14" lengthAdjust="spacing" textLength="42" x="572" y="344.1826">string</text><line style="stroke:#A80036;stroke-width:1.0;" x1="567" x2="567" y1="329.1875" y2="349.4844"/><rect fill="none" height="101.4844" rx="5" ry="5" style="stroke:#A80036;stroke-width:1.5;" width="186" x="447" y="248"/><rect fill="#FEFECE" height="40.5938" rx="5" ry="5" style="stroke:#FEFECE;stroke-width:1.5;" width="113" x="670" y="257"/><text fill="#000000" font-family="sans-serif" font-size="14" lengthAdjust="spacing" textLength="41" x="675" y="271.9951">"poll"</text><line style="stroke:#A80036;stroke-width:1.0;" x1="670" x2="783" y1="277.2969" y2="277.2969"/><text fill="#000000" font-family="sans-serif" font-size="14" lengthAdjust="spacing" textLength="103" x="675" y="292.292">"subscription"</text><rect fill="none" height="40.5938" rx="5" ry="5" style="stroke:#A80036;stroke-width:1.5;" width="113" x="670" y="257"/><path d="M621,39.5 L634,39.5 C643.2002,39.5 652.918,39.5 662.4547,39.5 " fill="none" style="stroke:#A80036;stroke-width:1.0;stroke-dasharray:3.0,3.0;"/><path d="M662.4547,42.5384 L664.7335,39.5 L662.4547,36.4616 L670.0506,39.5 L662.4547,42.5384 " fill="#A80036" style="stroke:#A80036;stroke-width:1.0;"/><ellipse cx="621" cy="39.5" fill="#A80036" rx="3" ry="3" style="stroke:#A80036;stroke-width:1.0;stroke-dasharray:3.0,3.0;"/><path d="M397.5945,75.5963 L410.5216,74.2211 C417.8967,73.4365 428.1154,72.3494 439.6026,71.1274 " fill="none" style="stroke:#A80036;stroke-width:1.0;stroke-dasharray:3.0,3.0;"/><path d="M439.9309,74.2133 L441.917,70.8812 L439.2743,68.0415 L447.3173,70.3067 L439.9309,74.2133 " fill="#A80036" style="stroke:#A80036;stroke-width:1.0;"/><ellipse cx="397.5945" cy="75.5963" fill="#A80036" rx="3" ry="3" style="stroke:#A80036;stroke-width:1.0;stroke-dasharray:3.0,3.0;"/><path d="M337,90.5 L350,90.5 C360.033,90.5 370.7278,87.4193 379.424,84.0502 " fill="none" style="stroke:#A80036;stroke-width:1.0;stroke-dasharray:3.0,3.0;"/><path d="M380.6099,86.8745 L381.5422,83.1608 L378.2381,81.2259 L386.4848,81.0854 L380.6099,86.8745 " fill="#A80036" style="stroke:#A80036;stroke-width:1.0;"/><ellipse cx="337" cy="90.5" fill="#A80036" rx="3" ry="3" style="stroke:#A80036;stroke-width:1.0;stroke-dasharray:3.0,3.0;"/><path d="M165.1779,127.5725 L177.8605,124.7175 C185.4031,123.0196 195.7364,120.6935 206.964,118.1661 " fill="none" style="stroke:#A80036;stroke-width:1.0;stroke-dasharray:3.0,3.0;"/><path d="M207.6382,121.1609 L209.2101,117.6605 L206.2899,115.1713 L214.451,116.4807 L207.6382,121.1609 " fill="#A80036" style="stroke:#A80036;stroke-width:1.0;"/><ellipse cx="165.1779" cy="127.5725" fill="#A80036" rx="3" ry="3" style="stroke:#A80036;stroke-width:1.0;stroke-dasharray:3.0,3.0;"/><path d="M104,169.5 L117,169.5 C133.0113,169.5 146.1623,155.9414 154.5344,144.2315 " fill="none" style="stroke:#A80036;stroke-width:1.0;stroke-dasharray:3.0,3.0;"/><path d="M157.1602,145.9766 L155.8432,142.2622 L151.9086,142.4864 L158.8971,137.667 L157.1602,145.9766 " fill="#A80036" style="stroke:#A80036;stroke-width:1.0;"/><ellipse cx="104" cy="169.5" fill="#A80036" rx="3" ry="3" style="stroke:#A80036;stroke-width:1.0;stroke-dasharray:3.0,3.0;"/><path d="M621,158.5 L634,158.5 C643.2002,158.5 652.918,158.5 662.4547,158.5 " fill="none" style="stroke:#A80036;stroke-width:1.0;stroke-dasharray:3.0,3.0;"/><path d="M662.4547,161.5384 L664.7335,158.5 L662.4547,155.4616 L670.0506,158.5 L662.4547,161.5384 " fill="#A80036" style="stroke:#A80036;stroke-width:1.0;"/><ellipse cx="621" cy="158.5" fill="#A80036" rx="3" ry="3" style="stroke:#A80036;stroke-width:1.0;stroke-dasharray:3.0,3.0;"/><path d="M397.5216,179.5 L410.5216,179.5 C417.8967,179.5 428.1154,179.5 439.6026,179.5 " fill="none" style="stroke:#A80036;stroke-width:1.0;stroke-dasharray:3.0,3.0;"/><path d="M439.6026,182.5859 L441.917,179.5 L439.6026,176.4141 L447.3173,179.5 L439.6026,182.5859 " fill="#A80036" style="stroke:#A80036;stroke-width:1.0;"/><ellipse cx="397.5216" cy="179.5" fill="#A80036" rx="3" ry="3" style="stroke:#A80036;stroke-width:1.0;stroke-dasharray:3.0,3.0;"/><path d="M337,179.5 L350,179.5 C359.374,179.5 369.7885,179.5 378.4714,179.5 " fill="none" style="stroke:#A80036;stroke-width:1.0;stroke-dasharray:3.0,3.0;"/><path d="M378.4714,182.5815 L380.7825,179.5 L378.4714,176.4185 L386.1751,179.5 L378.4714,182.5815 " fill="#A80036" style="stroke:#A80036;stroke-width:1.0;"/><ellipse cx="337" cy="179.5" fill="#A80036" rx="3" ry="3" style="stroke:#A80036;stroke-width:1.0;stroke-dasharray:3.0,3.0;"/><path d="M164.8605,190.5 L177.8605,190.5 C185.3313,190.5 195.5398,190.5 206.6435,190.5 " fill="none" style="stroke:#A80036;stroke-width:1.0;stroke-dasharray:3.0,3.0;"/><path d="M206.6435,193.623 L208.9857,190.5 L206.6435,187.377 L214.451,190.5 L206.6435,193.623 " fill="#A80036" style="stroke:#A80036;stroke-width:1.0;"/><ellipse cx="164.8605" cy="190.5" fill="#A80036" rx="3" ry="3" style="stroke:#A80036;stroke-width:1.0;stroke-dasharray:3.0,3.0;"/><path d="M104,190.5 L117,190.5 C126.374,190.5 136.7885,190.5 145.4714,190.5 " fill="none" style="stroke:#A80036;stroke-width:1.0;stroke-dasharray:3.0,3.0;"/><path d="M145.4714,193.5815 L147.7825,190.5 L145.4714,187.4185 L153.1751,190.5 L145.4714,193.5815 " fill="#A80036" style="stroke:#A80036;stroke-width:1.0;"/><ellipse cx="104" cy="190.5" fill="#A80036" rx="3" ry="3" style="stroke:#A80036;stroke-width:1.0;stroke-dasharray:3.0,3.0;"/><path d="M621,277.5 L634,277.5 C643.2002,277.5 652.918,277.5 662.4547,277.5 " fill="none" style="stroke:#A80036;stroke-width:1.0;stroke-dasharray:3.0,3.0;"/><path d="M662.4547,280.5384 L664.7335,277.5 L662.4547,274.4616 L670.0506,277.5 L662.4547,280.5384 " fill="#A80036" style="stroke:#A80036;stroke-width:1.0;"/><ellipse cx="621" cy="277.5" fill="#A80036" rx="3" ry="3" style="stroke:#A80036;stroke-width:1.0;stroke-dasharray:3.0,3.0;"/><path d="M397.5945,283.4037 L410.5216,284.7789 C417.8967,285.5635 428.1154,286.6506 439.6026,287.8726 " fill="none" style="stroke:#A80036;stroke-width:1.0;stroke-dasharray:3.0,3.0;"/><path d="M439.2743,290.9585 L441.917,288.1188 L439.9309,284.7867 L447.3173,288.6933 L439.2743,290.9585 " fill="#A80036" style="stroke:#A80036;stroke-width:1.0;"/><ellipse cx="397.5945" cy="283.4037" fill="#A80036" rx="3" ry="3" style="stroke:#A80036;stroke-width:1.0;stroke-dasharray:3.0,3.0;"/><path d="M337,253.5 L350,253.5 C362.2438,253.5 373.9013,260.7135 382.6034,268.0661 " fill="none" style="stroke:#A80036;stroke-width:1.0;stroke-dasharray:3.0,3.0;"/><path d="M380.4925,270.3782 L384.3375,269.6493 L384.7144,265.754 L388.3838,273.3434 L380.4925,270.3782 " fill="#A80036" style="stroke:#A80036;stroke-width:1.0;"/><ellipse cx="337" cy="253.5" fill="#A80036" rx="3" ry="3" style="stroke:#A80036;stroke-width:1.0;stroke-dasharray:3.0,3.0;"/><path d="M165.0156,246.4245 L177.8605,248.4263 C185.4031,249.6018 195.7364,251.2122 206.964,252.9619 " fill="none" style="stroke:#A80036;stroke-width:1.0;stroke-dasharray:3.0,3.0;"/><path d="M206.4973,255.9567 L209.2101,253.312 L207.4307,249.9671 L214.451,254.1287 L206.4973,255.9567 " fill="#A80036" style="stroke:#A80036;stroke-width:1.0;"/><ellipse cx="165.0156" cy="246.4245" fill="#A80036" rx="3" ry="3" style="stroke:#A80036;stroke-width:1.0;stroke-dasharray:3.0,3.0;"/><path d="M104,210.5 L117,210.5 C131.2244,210.5 143.869,220.8808 152.5288,230.4937 " fill="none" style="stroke:#A80036;stroke-width:1.0;stroke-dasharray:3.0,3.0;"/><path d="M150.2142,232.4359 L153.9855,232.2296 L154.8434,228.5515 L157.3844,236.2801 L150.2142,232.4359 " fill="#A80036" style="stroke:#A80036;stroke-width:1.0;"/><ellipse cx="104" cy="210.5" fill="#A80036" rx="3" ry="3" style="stroke:#A80036;stroke-width:1.0;stroke-dasharray:3.0,3.0;"/><!--MD5=[97db60a0ec62372c45ec3ce9057d4e20]
@startjson "OPC UA Config"
{
  "host": "url",
  "sensors": [
    {
      "attributes": [
        {
          "intervall": "number",
          "mode": ["\"poll\"", "\"subscription\""],
          "name": "string",
          "namespace": "string",
          "node_identifier": "string"
        }
      ],
      "id": "string"
    }
  ],
  "actuators": [
    {
      "attributes": [
        {
          "intervall": "number",
          "mode": ["\"poll\"", "\"subscription\""],
          "name": "string",
          "namespace": "string",
          "node_identifier": "string"
        }
      ],
      "id": "string"
    }
  ],
  "services": [
    {
      "attributes": [
        {
          "intervall": "number",
          "mode": ["\"poll\"", "\"subscription\""],
          "name": "string",
          "namespace": "string",
          "node_identifier": "string"
        }
      ],
      "id": "string"
    }
  ]
}

@endjson

PlantUML version 1.2021.9beta2(Unknown compile time)
(GPL source distribution)
Java Runtime: Java(TM) SE Runtime Environment
JVM: Java HotSpot(TM) 64-Bit Server VM
Default Encoding: UTF-8
Language: en
Country: US
--></g></svg>