<?xml version="1.0" encoding="UTF-8" standalone="no"?><svg xmlns="http://www.w3.org/2000/svg" xmlns:xlink="http://www.w3.org/1999/xlink" contentScriptType="application/ecmascript" contentStyleType="text/css" height="319px" preserveAspectRatio="none" style="width:442px;height:319px;background:#FFFFFF;" version="1.1" viewBox="0 0 442 319" width="442px" zoomAndPan="magnify"><defs/><g><rect fill="#FEFECE" height="101.4844" rx="5" ry="5" style="stroke:#FEFECE;stroke-width:1.5;" width="211" x="10" y="124"/><text fill="#000000" font-family="sans-serif" font-size="14" lengthAdjust="spacing" textLength="51" x="15" y="138.9951">include</text><text fill="#000000" font-family="sans-serif" font-size="14" lengthAdjust="spacing" textLength="0" x="172" y="138.9951"/><line style="stroke:#A80036;stroke-width:1.0;" x1="155" x2="155" y1="124" y2="144.2969"/><line style="stroke:#A80036;stroke-width:1.0;" x1="10" x2="221" y1="144.2969" y2="144.2969"/><text fill="#000000" font-family="sans-serif" font-size="14" lengthAdjust="spacing" textLength="80" x="15" y="159.292">tripleStore</text><text fill="#000000" font-family="sans-serif" font-size="14" lengthAdjust="spacing" textLength="0" x="172" y="159.292"/><line style="stroke:#A80036;stroke-width:1.0;" x1="155" x2="155" y1="144.2969" y2="164.5938"/><line style="stroke:#A80036;stroke-width:1.0;" x1="10" x2="221" y1="164.5938" y2="164.5938"/><text fill="#000000" font-family="sans-serif" font-size="14" lengthAdjust="spacing" textLength="58" x="15" y="179.5889">influxdb</text><text fill="#000000" font-family="sans-serif" font-size="14" lengthAdjust="spacing" textLength="0" x="172" y="179.5889"/><line style="stroke:#A80036;stroke-width:1.0;" x1="155" x2="155" y1="164.5938" y2="184.8906"/><line style="stroke:#A80036;stroke-width:1.0;" x1="10" x2="221" y1="184.8906" y2="184.8906"/><text fill="#000000" font-family="sans-serif" font-size="14" lengthAdjust="spacing" textLength="45" x="15" y="199.8857">buffer</text><text fill="#000000" font-family="sans-serif" font-size="14" lengthAdjust="spacing" textLength="0" x="172" y="199.8857"/><line style="stroke:#A80036;stroke-width:1.0;" x1="155" x2="155" y1="184.8906" y2="205.1875"/><line style="stroke:#A80036;stroke-width:1.0;" x1="10" x2="221" y1="205.1875" y2="205.1875"/><text fill="#000000" font-family="sans-serif" font-size="14" lengthAdjust="spacing" textLength="135" x="15" y="220.1826">heartbeat_interval</text><text fill="#000000" font-family="sans-serif" font-size="14" lengthAdjust="spacing" textLength="56" x="160" y="220.1826">number</text><line style="stroke:#A80036;stroke-width:1.0;" x1="155" x2="155" y1="205.1875" y2="225.4844"/><rect fill="none" height="101.4844" rx="5" ry="5" style="stroke:#A80036;stroke-width:1.5;" width="211" x="10" y="124"/><rect fill="#FEFECE" height="60.8906" rx="5" ry="5" style="stroke:#FEFECE;stroke-width:1.5;" width="92" x="298" y="10"/><text fill="#000000" font-family="sans-serif" font-size="14" lengthAdjust="spacing" textLength="68" x="303" y="24.9951">"sensors"</text><line style="stroke:#A80036;stroke-width:1.0;" x1="298" x2="390" y1="30.2969" y2="30.2969"/><text fill="#000000" font-family="sans-serif" font-size="14" lengthAdjust="spacing" textLength="82" x="303" y="45.292">"actuators"</text><line style="stroke:#A80036;stroke-width:1.0;" x1="298" x2="390" y1="50.5938" y2="50.5938"/><text fill="#000000" font-family="sans-serif" font-size="14" lengthAdjust="spacing" textLength="72" x="303" y="65.5889">"services"</text><rect fill="none" height="60.8906" rx="5" ry="5" style="stroke:#A80036;stroke-width:1.5;" width="92" x="298" y="10"/><rect fill="#FEFECE" height="60.8906" rx="5" ry="5" style="stroke:#FEFECE;stroke-width:1.5;" width="132" x="278" y="89"/><text fill="#000000" font-family="sans-serif" font-size="14" lengthAdjust="spacing" textLength="32" x="283" y="103.9951">host</text><text fill="#000000" font-family="sans-serif" font-size="14" lengthAdjust="spacing" textLength="18" x="363" y="103.9951">url</text><line style="stroke:#A80036;stroke-width:1.0;" x1="358" x2="358" y1="89" y2="109.2969"/><line style="stroke:#A80036;stroke-width:1.0;" x1="278" x2="410" y1="109.2969" y2="109.2969"/><text fill="#000000" font-family="sans-serif" font-size="14" lengthAdjust="spacing" textLength="70" x="283" y="124.292">username</text><text fill="#000000" font-family="sans-serif" font-size="14" lengthAdjust="spacing" textLength="42" x="363" y="124.292">string</text><line style="stroke:#A80036;stroke-width:1.0;" x1="358" x2="358" y1="109.2969" y2="129.5938"/><line style="stroke:#A80036;stroke-width:1.0;" x1="278" x2="410" y1="129.5938" y2="129.5938"/><text fill="#000000" font-family="sans-serif" font-size="14" lengthAdjust="spacing" textLength="67" x="283" y="144.5889">password</text><text fill="#000000" font-family="sans-serif" font-size="14" lengthAdjust="spacing" textLength="42" x="363" y="144.5889">string</text><line style="stroke:#A80036;stroke-width:1.0;" x1="358" x2="358" y1="129.5938" y2="149.8906"/><rect fill="none" height="60.8906" rx="5" ry="5" style="stroke:#A80036;stroke-width:1.5;" width="132" x="278" y="89"/><rect fill="#FEFECE" height="81.1875" rx="5" ry="5" style="stroke:#FEFECE;stroke-width:1.5;" width="152" x="268" y="168"/><text fill="#000000" font-family="sans-serif" font-size="14" lengthAdjust="spacing" textLength="32" x="273" y="182.9951">host</text><text fill="#000000" font-family="sans-serif" font-size="14" lengthAdjust="spacing" textLength="18" x="373" y="182.9951">url</text><line style="stroke:#A80036;stroke-width:1.0;" x1="368" x2="368" y1="168" y2="188.2969"/><line style="stroke:#A80036;stroke-width:1.0;" x1="268" x2="420" y1="188.2969" y2="188.2969"/><text fill="#000000" font-family="sans-serif" font-size="14" lengthAdjust="spacing" textLength="43" x="273" y="203.292">token</text><text fill="#000000" font-family="sans-serif" font-size="14" lengthAdjust="spacing" textLength="42" x="373" y="203.292">string</text><line style="stroke:#A80036;stroke-width:1.0;" x1="368" x2="368" y1="188.2969" y2="208.5938"/><line style="stroke:#A80036;stroke-width:1.0;" x1="268" x2="420" y1="208.5938" y2="208.5938"/><text fill="#000000" font-family="sans-serif" font-size="14" lengthAdjust="spacing" textLength="90" x="273" y="223.5889">organization</text><text fill="#000000" font-family="sans-serif" font-size="14" lengthAdjust="spacing" textLength="42" x="373" y="223.5889">string</text><line style="stroke:#A80036;stroke-width:1.0;" x1="368" x2="368" y1="208.5938" y2="228.8906"/><line style="stroke:#A80036;stroke-width:1.0;" x1="268" x2="420" y1="228.8906" y2="228.8906"/><text fill="#000000" font-family="sans-serif" font-size="14" lengthAdjust="spacing" textLength="51" x="273" y="243.8857">bucket</text><text fill="#000000" font-family="sans-serif" font-size="14" lengthAdjust="spacing" textLength="42" x="373" y="243.8857">string</text><line style="stroke:#A80036;stroke-width:1.0;" x1="368" x2="368" y1="228.8906" y2="249.1875"/><rect fill="none" height="81.1875" rx="5" ry="5" style="stroke:#A80036;stroke-width:1.5;" width="152" x="268" y="168"/><rect fill="#FEFECE" height="40.5938" rx="5" ry="5" style="stroke:#FEFECE;stroke-width:1.5;" width="172" x="258" y="267"/><text fill="#000000" font-family="sans-serif" font-size="14" lengthAdjust="spacing" textLength="28" x="263" y="281.9951">size</text><text fill="#000000" font-family="sans-serif" font-size="14" lengthAdjust="spacing" textLength="56" x="369" y="281.9951">number</text><line style="stroke:#A80036;stroke-width:1.0;" x1="364" x2="364" y1="267" y2="287.2969"/><line style="stroke:#A80036;stroke-width:1.0;" x1="258" x2="430" y1="287.2969" y2="287.2969"/><text fill="#000000" font-family="sans-serif" font-size="14" lengthAdjust="spacing" textLength="96" x="263" y="302.292">push_interval</text><text fill="#000000" font-family="sans-serif" font-size="14" lengthAdjust="spacing" textLength="56" x="369" y="302.292">number</text><line style="stroke:#A80036;stroke-width:1.0;" x1="364" x2="364" y1="287.2969" y2="307.5938"/><rect fill="none" height="40.5938" rx="5" ry="5" style="stroke:#A80036;stroke-width:1.5;" width="172" x="258" y="267"/><path d="M209,133.5 L222,133.5 C250.8444,133.5 236.0387,98.2003 258,79.5 C267.7608,71.1885 279.585,64.305 291.2862,58.7559 " fill="none" style="stroke:#A80036;stroke-width:1.0;stroke-dasharray:3.0,3.0;"/><path d="M292.5317,61.4994 L293.3439,57.8217 L290.0407,56.0124 L298.145,55.6421 L292.5317,61.4994 " fill="#A80036" style="stroke:#A80036;stroke-width:1.0;"/><ellipse cx="209" cy="133.5" fill="#A80036" rx="3" ry="3" style="stroke:#A80036;stroke-width:1.0;stroke-dasharray:3.0,3.0;"/><path d="M209,153.5 L222,153.5 C238.0003,153.5 254.7619,150.7318 270.5476,146.7751 " fill="none" style="stroke:#A80036;stroke-width:1.0;stroke-dasharray:3.0,3.0;"/><path d="M271.36,149.8404 L272.8466,146.1658 L269.7352,143.7097 L278.211,144.7442 L271.36,149.8404 " fill="#A80036" style="stroke:#A80036;stroke-width:1.0;"/><ellipse cx="209" cy="153.5" fill="#A80036" rx="3" ry="3" style="stroke:#A80036;stroke-width:1.0;stroke-dasharray:3.0,3.0;"/><path d="M209,173.5 L222,173.5 C234.7533,173.5 247.9757,175.3026 260.7975,178.0897 " fill="none" style="stroke:#A80036;stroke-width:1.0;stroke-dasharray:3.0,3.0;"/><path d="M260.0981,181.0882 L263.0464,178.6143 L261.4969,175.0911 L268.2939,179.8382 L260.0981,181.0882 " fill="#A80036" style="stroke:#A80036;stroke-width:1.0;"/><ellipse cx="209" cy="173.5" fill="#A80036" rx="3" ry="3" style="stroke:#A80036;stroke-width:1.0;stroke-dasharray:3.0,3.0;"/><path d="M209,194.5 L222,194.5 C254.6357,194.5 232.8862,237.6582 258,258.5 C259.7527,259.9546 261.5819,261.3375 263.4733,262.6521 " fill="none" style="stroke:#A80036;stroke-width:1.0;stroke-dasharray:3.0,3.0;"/><path d="M261.7886,265.3119 L265.4682,263.9157 L265.1581,259.9923 L270.1228,266.864 L261.7886,265.3119 " fill="#A80036" style="stroke:#A80036;stroke-width:1.0;"/><ellipse cx="209" cy="194.5" fill="#A80036" rx="3" ry="3" style="stroke:#A80036;stroke-width:1.0;stroke-dasharray:3.0,3.0;"/><!--MD5=[6f1759ece7f5e7508efe40cda80a7fe3]
@startjson "Program Config"
{
    "include": ["\"sensors\"", "\"actuators\"", "\"services\""],
    "tripleStore": {
        "host": "url",
        "username": "string",
        "password": "string"
    },
    "influxdb": {
        "host": "url",
        "token": "string",
        "organization": "string",
        "bucket": "string"
    },
    "buffer": {
        "size": "number",
        "push_interval": "number"
    },
    "heartbeat_interval": "number"
}
@endjson

PlantUML version 1.2021.9beta2(Unknown compile time)
(GPL source distribution)
Java Runtime: Java(TM) SE Runtime Environment
JVM: Java HotSpot(TM) 64-Bit Server VM
Default Encoding: UTF-8
Language: en
Country: US
--></g></svg>