<?xml version="1.0" encoding="UTF-8" standalone="no"?><svg xmlns="http://www.w3.org/2000/svg" xmlns:xlink="http://www.w3.org/1999/xlink" contentScriptType="application/ecmascript" contentStyleType="text/css" height="319px" preserveAspectRatio="none" style="width:323px;height:319px;background:#FFFFFF;" version="1.1" viewBox="0 0 323 319" width="323px" zoomAndPan="magnify"><defs/><g><rect fill="#FEFECE" height="81.1875" rx="5" ry="5" style="stroke:#FEFECE;stroke-width:1.5;" width="112" x="10" y="129"/><text fill="#000000" font-family="sans-serif" font-size="14" lengthAdjust="spacing" textLength="51" x="15" y="143.9951">include</text><text fill="#000000" font-family="sans-serif" font-size="14" lengthAdjust="spacing" textLength="0" x="117" y="143.9951"/><line style="stroke:#A80036;stroke-width:1.0;" x1="100" x2="100" y1="129" y2="149.2969"/><line style="stroke:#A80036;stroke-width:1.0;" x1="10" x2="122" y1="149.2969" y2="149.2969"/><text fill="#000000" font-family="sans-serif" font-size="14" lengthAdjust="spacing" textLength="80" x="15" y="164.292">tripleStore</text><text fill="#000000" font-family="sans-serif" font-size="14" lengthAdjust="spacing" textLength="0" x="117" y="164.292"/><line style="stroke:#A80036;stroke-width:1.0;" x1="100" x2="100" y1="149.2969" y2="169.5938"/><line style="stroke:#A80036;stroke-width:1.0;" x1="10" x2="122" y1="169.5938" y2="169.5938"/><text fill="#000000" font-family="sans-serif" font-size="14" lengthAdjust="spacing" textLength="58" x="15" y="184.5889">influxdb</text><text fill="#000000" font-family="sans-serif" font-size="14" lengthAdjust="spacing" textLength="0" x="117" y="184.5889"/><line style="stroke:#A80036;stroke-width:1.0;" x1="100" x2="100" y1="169.5938" y2="189.8906"/><line style="stroke:#A80036;stroke-width:1.0;" x1="10" x2="122" y1="189.8906" y2="189.8906"/><text fill="#000000" font-family="sans-serif" font-size="14" lengthAdjust="spacing" textLength="45" x="15" y="204.8857">buffer</text><text fill="#000000" font-family="sans-serif" font-size="14" lengthAdjust="spacing" textLength="0" x="117" y="204.8857"/><line style="stroke:#A80036;stroke-width:1.0;" x1="100" x2="100" y1="189.8906" y2="210.1875"/><rect fill="none" height="81.1875" rx="5" ry="5" style="stroke:#A80036;stroke-width:1.5;" width="112" x="10" y="129"/><rect fill="#FEFECE" height="60.8906" rx="5" ry="5" style="stroke:#FEFECE;stroke-width:1.5;" width="92" x="189" y="10"/><text fill="#000000" font-family="sans-serif" font-size="14" lengthAdjust="spacing" textLength="68" x="194" y="24.9951">"sensors"</text><line style="stroke:#A80036;stroke-width:1.0;" x1="189" x2="281" y1="30.2969" y2="30.2969"/><text fill="#000000" font-family="sans-serif" font-size="14" lengthAdjust="spacing" textLength="82" x="194" y="45.292">"actuators"</text><line style="stroke:#A80036;stroke-width:1.0;" x1="189" x2="281" y1="50.5938" y2="50.5938"/><text fill="#000000" font-family="sans-serif" font-size="14" lengthAdjust="spacing" textLength="72" x="194" y="65.5889">"services"</text><rect fill="none" height="60.8906" rx="5" ry="5" style="stroke:#A80036;stroke-width:1.5;" width="92" x="189" y="10"/><rect fill="#FEFECE" height="60.8906" rx="5" ry="5" style="stroke:#FEFECE;stroke-width:1.5;" width="132" x="169" y="89"/><text fill="#000000" font-family="sans-serif" font-size="14" lengthAdjust="spacing" textLength="32" x="174" y="103.9951">host</text><text fill="#000000" font-family="sans-serif" font-size="14" lengthAdjust="spacing" textLength="18" x="254" y="103.9951">url</text><line style="stroke:#A80036;stroke-width:1.0;" x1="249" x2="249" y1="89" y2="109.2969"/><line style="stroke:#A80036;stroke-width:1.0;" x1="169" x2="301" y1="109.2969" y2="109.2969"/><text fill="#000000" font-family="sans-serif" font-size="14" lengthAdjust="spacing" textLength="70" x="174" y="124.292">username</text><text fill="#000000" font-family="sans-serif" font-size="14" lengthAdjust="spacing" textLength="42" x="254" y="124.292">string</text><line style="stroke:#A80036;stroke-width:1.0;" x1="249" x2="249" y1="109.2969" y2="129.5938"/><line style="stroke:#A80036;stroke-width:1.0;" x1="169" x2="301" y1="129.5938" y2="129.5938"/><text fill="#000000" font-family="sans-serif" font-size="14" lengthAdjust="spacing" textLength="67" x="174" y="144.5889">password</text><text fill="#000000" font-family="sans-serif" font-size="14" lengthAdjust="spacing" textLength="42" x="254" y="144.5889">string</text><line style="stroke:#A80036;stroke-width:1.0;" x1="249" x2="249" y1="129.5938" y2="149.8906"/><rect fill="none" height="60.8906" rx="5" ry="5" style="stroke:#A80036;stroke-width:1.5;" width="132" x="169" y="89"/><rect fill="#FEFECE" height="101.4844" rx="5" ry="5" style="stroke:#FEFECE;stroke-width:1.5;" width="152" x="159" y="168"/><text fill="#000000" font-family="sans-serif" font-size="14" lengthAdjust="spacing" textLength="32" x="164" y="182.9951">host</text><text fill="#000000" font-family="sans-serif" font-size="14" lengthAdjust="spacing" textLength="18" x="264" y="182.9951">url</text><line style="stroke:#A80036;stroke-width:1.0;" x1="259" x2="259" y1="168" y2="188.2969"/><line style="stroke:#A80036;stroke-width:1.0;" x1="159" x2="311" y1="188.2969" y2="188.2969"/><text fill="#000000" font-family="sans-serif" font-size="14" lengthAdjust="spacing" textLength="70" x="164" y="203.292">username</text><text fill="#000000" font-family="sans-serif" font-size="14" lengthAdjust="spacing" textLength="42" x="264" y="203.292">string</text><line style="stroke:#A80036;stroke-width:1.0;" x1="259" x2="259" y1="188.2969" y2="208.5938"/><line style="stroke:#A80036;stroke-width:1.0;" x1="159" x2="311" y1="208.5938" y2="208.5938"/><text fill="#000000" font-family="sans-serif" font-size="14" lengthAdjust="spacing" textLength="67" x="164" y="223.5889">password</text><text fill="#000000" font-family="sans-serif" font-size="14" lengthAdjust="spacing" textLength="42" x="264" y="223.5889">string</text><line style="stroke:#A80036;stroke-width:1.0;" x1="259" x2="259" y1="208.5938" y2="228.8906"/><line style="stroke:#A80036;stroke-width:1.0;" x1="159" x2="311" y1="228.8906" y2="228.8906"/><text fill="#000000" font-family="sans-serif" font-size="14" lengthAdjust="spacing" textLength="90" x="164" y="243.8857">organization</text><text fill="#000000" font-family="sans-serif" font-size="14" lengthAdjust="spacing" textLength="42" x="264" y="243.8857">string</text><line style="stroke:#A80036;stroke-width:1.0;" x1="259" x2="259" y1="228.8906" y2="249.1875"/><line style="stroke:#A80036;stroke-width:1.0;" x1="159" x2="311" y1="249.1875" y2="249.1875"/><text fill="#000000" font-family="sans-serif" font-size="14" lengthAdjust="spacing" textLength="51" x="164" y="264.1826">bucket</text><text fill="#000000" font-family="sans-serif" font-size="14" lengthAdjust="spacing" textLength="42" x="264" y="264.1826">string</text><line style="stroke:#A80036;stroke-width:1.0;" x1="259" x2="259" y1="249.1875" y2="269.4844"/><rect fill="none" height="101.4844" rx="5" ry="5" style="stroke:#A80036;stroke-width:1.5;" width="152" x="159" y="168"/><rect fill="#FEFECE" height="20.2969" rx="5" ry="5" style="stroke:#FEFECE;stroke-width:1.5;" width="104" x="183" y="287.5"/><text fill="#000000" font-family="sans-serif" font-size="14" lengthAdjust="spacing" textLength="28" x="188" y="302.4951">size</text><text fill="#000000" font-family="sans-serif" font-size="14" lengthAdjust="spacing" textLength="56" x="226" y="302.4951">number</text><line style="stroke:#A80036;stroke-width:1.0;" x1="221" x2="221" y1="287.5" y2="307.7969"/><rect fill="none" height="20.2969" rx="5" ry="5" style="stroke:#A80036;stroke-width:1.5;" width="104" x="183" y="287.5"/><path d="M110,138.5 L123,138.5 C153.7182,138.5 136.5211,100.4357 159,79.5 C165.8318,73.1371 173.8995,67.5369 182.1745,62.7111 " fill="none" style="stroke:#A80036;stroke-width:1.0;stroke-dasharray:3.0,3.0;"/><path d="M183.723,65.502 L184.2677,61.5497 L180.626,59.9202 L189.1517,58.8398 L183.723,65.502 " fill="#A80036" style="stroke:#A80036;stroke-width:1.0;"/><ellipse cx="110" cy="138.5" fill="#A80036" rx="3" ry="3" style="stroke:#A80036;stroke-width:1.0;stroke-dasharray:3.0,3.0;"/><path d="M110,158.5 L123,158.5 C136.3235,158.5 150.0658,155.9882 163.1561,152.2394 " fill="none" style="stroke:#A80036;stroke-width:1.0;stroke-dasharray:3.0,3.0;"/><path d="M164.0368,155.1188 L165.3157,151.5788 L162.2754,149.36 L170.3546,150.0376 L164.0368,155.1188 " fill="#A80036" style="stroke:#A80036;stroke-width:1.0;"/><ellipse cx="110" cy="158.5" fill="#A80036" rx="3" ry="3" style="stroke:#A80036;stroke-width:1.0;stroke-dasharray:3.0,3.0;"/><path d="M110,179.5 L123,179.5 C132.5601,179.5 142.3357,180.7932 151.9314,182.9087 " fill="none" style="stroke:#A80036;stroke-width:1.0;stroke-dasharray:3.0,3.0;"/><path d="M151.2233,185.8272 L154.1203,183.4398 L152.6395,179.9902 L159.2277,184.6789 L151.2233,185.8272 " fill="#A80036" style="stroke:#A80036;stroke-width:1.0;"/><ellipse cx="110" cy="179.5" fill="#A80036" rx="3" ry="3" style="stroke:#A80036;stroke-width:1.0;stroke-dasharray:3.0,3.0;"/><path d="M110,199.5 L123,199.5 C161.5848,199.5 129.3617,253.7945 159,278.5 C163.9997,282.6676 169.7901,285.9396 175.8967,288.5055 " fill="none" style="stroke:#A80036;stroke-width:1.0;stroke-dasharray:3.0,3.0;"/><path d="M174.817,291.4197 L178.0823,289.3152 L176.9763,285.5913 L183.1821,291.2045 L174.817,291.4197 " fill="#A80036" style="stroke:#A80036;stroke-width:1.0;"/><ellipse cx="110" cy="199.5" fill="#A80036" rx="3" ry="3" style="stroke:#A80036;stroke-width:1.0;stroke-dasharray:3.0,3.0;"/><!--MD5=[beeff737aa79818866b070d1122806c1]
@startjson "Program Config"
{
    "include": ["\"sensors\"", "\"actuators\"", "\"services\""],
    "tripleStore": {
        "host": "url",
        "username": "string",
        "password": "string"
    },
    "influxdb": {
        "host": "url",
        "username": "string",
        "password": "string",
        "organization": "string",
        "bucket": "string"
    },
    "buffer": {
        "size": "number"
    }
}
@endjson

PlantUML version 1.2021.7beta2(Unknown compile time)
(GPL source distribution)
Java Runtime: Java(TM) SE Runtime Environment
JVM: Java HotSpot(TM) 64-Bit Server VM
Default Encoding: UTF-8
Language: en
Country: US
--></g></svg>