<?xml version="1.0" encoding="UTF-8" standalone="no"?><svg xmlns="http://www.w3.org/2000/svg" xmlns:xlink="http://www.w3.org/1999/xlink" contentScriptType="application/ecmascript" contentStyleType="text/css" height="1471px" preserveAspectRatio="none" style="width:1218px;height:1471px;background:#FFFFFF;" version="1.1" viewBox="0 0 1218 1471" width="1218px" zoomAndPan="magnify"><defs/><g><rect fill="#FFFFFF" height="64.2656" style="stroke:#A80036;stroke-width:1.0;" width="10" x="66.5" y="62.5938"/><rect fill="#FFFFFF" height="58.2656" style="stroke:#A80036;stroke-width:1.0;" width="10" x="66.5" y="342.4453"/><rect fill="#FFFFFF" height="47.5938" style="stroke:#A80036;stroke-width:1.0;" width="10" x="66.5" y="510.4375"/><rect fill="#FFFFFF" height="120.3203" style="stroke:#A80036;stroke-width:1.0;" width="10" x="66.5" y="625.625"/><rect fill="#FFFFFF" height="135.3984" style="stroke:#A80036;stroke-width:1.0;" width="10" x="231.5" y="867.5391"/><rect fill="#FFFFFF" height="63.2656" style="stroke:#A80036;stroke-width:1.0;" width="10" x="339" y="1040.0703"/><rect fill="#FFFFFF" height="63.2656" style="stroke:#A80036;stroke-width:1.0;" width="10" x="339" y="1355"/><rect fill="#FFFFFF" height="105.1875" style="stroke:#A80036;stroke-width:1.0;" width="10" x="460" y="136.8594"/><rect fill="#FFFFFF" height="71.2656" style="stroke:#A80036;stroke-width:1.0;" width="10" x="460" y="271.1797"/><rect fill="#FFFFFF" height="29.1328" style="stroke:#A80036;stroke-width:1.0;" width="10" x="591" y="242.0469"/><rect fill="#FFFFFF" height="89.7266" style="stroke:#A80036;stroke-width:1.0;" width="10" x="719.5" y="410.7109"/><rect fill="#FFFFFF" height="101.2656" style="stroke:#A80036;stroke-width:1.0;" width="10" x="719.5" y="901.6719"/><rect fill="#FFFFFF" height="106.2656" style="stroke:#A80036;stroke-width:1.0;" width="10" x="869.5" y="1211.6016"/><rect fill="#FFFFFF" height="47.5938" style="stroke:#A80036;stroke-width:1.0;" width="10" x="1014" y="568.0313"/><rect fill="#FFFFFF" height="30" style="stroke:#A80036;stroke-width:1.0;" width="10" x="1014" y="972.9375"/><rect fill="#FFFFFF" height="29.1328" style="stroke:#A80036;stroke-width:1.0;" width="10" x="1014" y="1074.2031"/><rect fill="#FFFFFF" height="30" style="stroke:#A80036;stroke-width:1.0;" width="10" x="1014" y="1287.8672"/><rect fill="#FFFFFF" height="29.1328" style="stroke:#A80036;stroke-width:1.0;" width="10" x="1014" y="1389.1328"/><line style="stroke:#A80036;stroke-width:1.0;" x1="71" x2="71" y1="52.5938" y2="767.2734"/><line style="stroke:#A80036;stroke-width:1.0;stroke-dasharray:1.0,4.0;" x1="71" x2="71" y1="767.2734" y2="795.2734"/><line style="stroke:#A80036;stroke-width:1.0;" x1="71" x2="71" y1="795.2734" y2="1111.3359"/><line style="stroke:#A80036;stroke-width:1.0;stroke-dasharray:1.0,4.0;" x1="71" x2="71" y1="1111.3359" y2="1139.3359"/><line style="stroke:#A80036;stroke-width:1.0;" x1="71" x2="71" y1="1139.3359" y2="1426.2656"/><line style="stroke:#A80036;stroke-width:1.0;stroke-dasharray:1.0,4.0;" x1="71" x2="71" y1="1426.2656" y2="1454.2656"/><line style="stroke:#A80036;stroke-width:1.0;" x1="71" x2="71" y1="1454.2656" y2="1464.2656"/><line style="stroke:#A80036;stroke-width:1.0;" x1="236.5" x2="236.5" y1="690.8828" y2="767.2734"/><line style="stroke:#A80036;stroke-width:1.0;stroke-dasharray:1.0,4.0;" x1="236.5" x2="236.5" y1="767.2734" y2="795.2734"/><line style="stroke:#A80036;stroke-width:1.0;" x1="236.5" x2="236.5" y1="795.2734" y2="1111.3359"/><line style="stroke:#A80036;stroke-width:1.0;stroke-dasharray:1.0,4.0;" x1="236.5" x2="236.5" y1="1111.3359" y2="1139.3359"/><line style="stroke:#A80036;stroke-width:1.0;" x1="236.5" x2="236.5" y1="1139.3359" y2="1426.2656"/><line style="stroke:#A80036;stroke-width:1.0;stroke-dasharray:1.0,4.0;" x1="236.5" x2="236.5" y1="1426.2656" y2="1454.2656"/><line style="stroke:#A80036;stroke-width:1.0;" x1="236.5" x2="236.5" y1="1454.2656" y2="1464.2656"/><line style="stroke:#A80036;stroke-width:1.0;" x1="343.5" x2="343.5" y1="748.4766" y2="767.2734"/><line style="stroke:#A80036;stroke-width:1.0;stroke-dasharray:1.0,4.0;" x1="343.5" x2="343.5" y1="767.2734" y2="795.2734"/><line style="stroke:#A80036;stroke-width:1.0;" x1="343.5" x2="343.5" y1="795.2734" y2="1111.3359"/><line style="stroke:#A80036;stroke-width:1.0;stroke-dasharray:1.0,4.0;" x1="343.5" x2="343.5" y1="1111.3359" y2="1139.3359"/><line style="stroke:#A80036;stroke-width:1.0;" x1="343.5" x2="343.5" y1="1139.3359" y2="1426.2656"/><line style="stroke:#A80036;stroke-width:1.0;stroke-dasharray:1.0,4.0;" x1="343.5" x2="343.5" y1="1426.2656" y2="1454.2656"/><line style="stroke:#A80036;stroke-width:1.0;" x1="343.5" x2="343.5" y1="1454.2656" y2="1464.2656"/><line style="stroke:#A80036;stroke-width:1.0;" x1="464.5" x2="464.5" y1="144.5234" y2="767.2734"/><line style="stroke:#A80036;stroke-width:1.0;stroke-dasharray:1.0,4.0;" x1="464.5" x2="464.5" y1="767.2734" y2="795.2734"/><line style="stroke:#A80036;stroke-width:1.0;" x1="464.5" x2="464.5" y1="795.2734" y2="1111.3359"/><line style="stroke:#A80036;stroke-width:1.0;stroke-dasharray:1.0,4.0;" x1="464.5" x2="464.5" y1="1111.3359" y2="1139.3359"/><line style="stroke:#A80036;stroke-width:1.0;" x1="464.5" x2="464.5" y1="1139.3359" y2="1426.2656"/><line style="stroke:#A80036;stroke-width:1.0;stroke-dasharray:1.0,4.0;" x1="464.5" x2="464.5" y1="1426.2656" y2="1454.2656"/><line style="stroke:#A80036;stroke-width:1.0;" x1="464.5" x2="464.5" y1="1454.2656" y2="1464.2656"/><line style="stroke:#A80036;stroke-width:1.0;" x1="595.5" x2="595.5" y1="202.1172" y2="767.2734"/><line style="stroke:#A80036;stroke-width:1.0;stroke-dasharray:1.0,4.0;" x1="595.5" x2="595.5" y1="767.2734" y2="795.2734"/><line style="stroke:#A80036;stroke-width:1.0;" x1="595.5" x2="595.5" y1="795.2734" y2="1111.3359"/><line style="stroke:#A80036;stroke-width:1.0;stroke-dasharray:1.0,4.0;" x1="595.5" x2="595.5" y1="1111.3359" y2="1139.3359"/><line style="stroke:#A80036;stroke-width:1.0;" x1="595.5" x2="595.5" y1="1139.3359" y2="1426.2656"/><line style="stroke:#A80036;stroke-width:1.0;stroke-dasharray:1.0,4.0;" x1="595.5" x2="595.5" y1="1426.2656" y2="1454.2656"/><line style="stroke:#A80036;stroke-width:1.0;" x1="595.5" x2="595.5" y1="1454.2656" y2="1464.2656"/><line style="stroke:#A80036;stroke-width:1.0;" x1="724.5" x2="724.5" y1="418.375" y2="767.2734"/><line style="stroke:#A80036;stroke-width:1.0;stroke-dasharray:1.0,4.0;" x1="724.5" x2="724.5" y1="767.2734" y2="795.2734"/><line style="stroke:#A80036;stroke-width:1.0;" x1="724.5" x2="724.5" y1="795.2734" y2="1111.3359"/><line style="stroke:#A80036;stroke-width:1.0;stroke-dasharray:1.0,4.0;" x1="724.5" x2="724.5" y1="1111.3359" y2="1139.3359"/><line style="stroke:#A80036;stroke-width:1.0;" x1="724.5" x2="724.5" y1="1139.3359" y2="1426.2656"/><line style="stroke:#A80036;stroke-width:1.0;stroke-dasharray:1.0,4.0;" x1="724.5" x2="724.5" y1="1426.2656" y2="1454.2656"/><line style="stroke:#A80036;stroke-width:1.0;" x1="724.5" x2="724.5" y1="1454.2656" y2="1464.2656"/><line style="stroke:#A80036;stroke-width:1.0;" x1="874.5" x2="874.5" y1="518.1016" y2="767.2734"/><line style="stroke:#A80036;stroke-width:1.0;stroke-dasharray:1.0,4.0;" x1="874.5" x2="874.5" y1="767.2734" y2="795.2734"/><line style="stroke:#A80036;stroke-width:1.0;" x1="874.5" x2="874.5" y1="795.2734" y2="1111.3359"/><line style="stroke:#A80036;stroke-width:1.0;stroke-dasharray:1.0,4.0;" x1="874.5" x2="874.5" y1="1111.3359" y2="1139.3359"/><line style="stroke:#A80036;stroke-width:1.0;" x1="874.5" x2="874.5" y1="1139.3359" y2="1426.2656"/><line style="stroke:#A80036;stroke-width:1.0;stroke-dasharray:1.0,4.0;" x1="874.5" x2="874.5" y1="1426.2656" y2="1454.2656"/><line style="stroke:#A80036;stroke-width:1.0;" x1="874.5" x2="874.5" y1="1454.2656" y2="1464.2656"/><line style="stroke:#A80036;stroke-width:1.0;" x1="1018.5" x2="1018.5" y1="575.6953" y2="767.2734"/><line style="stroke:#A80036;stroke-width:1.0;stroke-dasharray:1.0,4.0;" x1="1018.5" x2="1018.5" y1="767.2734" y2="795.2734"/><line style="stroke:#A80036;stroke-width:1.0;" x1="1018.5" x2="1018.5" y1="795.2734" y2="1111.3359"/><line style="stroke:#A80036;stroke-width:1.0;stroke-dasharray:1.0,4.0;" x1="1018.5" x2="1018.5" y1="1111.3359" y2="1139.3359"/><line style="stroke:#A80036;stroke-width:1.0;" x1="1018.5" x2="1018.5" y1="1139.3359" y2="1426.2656"/><line style="stroke:#A80036;stroke-width:1.0;stroke-dasharray:1.0,4.0;" x1="1018.5" x2="1018.5" y1="1426.2656" y2="1454.2656"/><line style="stroke:#A80036;stroke-width:1.0;" x1="1018.5" x2="1018.5" y1="1454.2656" y2="1464.2656"/><line style="stroke:#A80036;stroke-width:1.0;" x1="1147" x2="1147" y1="633.2891" y2="767.2734"/><line style="stroke:#A80036;stroke-width:1.0;stroke-dasharray:1.0,4.0;" x1="1147" x2="1147" y1="767.2734" y2="795.2734"/><line style="stroke:#A80036;stroke-width:1.0;" x1="1147" x2="1147" y1="795.2734" y2="1111.3359"/><line style="stroke:#A80036;stroke-width:1.0;stroke-dasharray:1.0,4.0;" x1="1147" x2="1147" y1="1111.3359" y2="1139.3359"/><line style="stroke:#A80036;stroke-width:1.0;" x1="1147" x2="1147" y1="1139.3359" y2="1426.2656"/><line style="stroke:#A80036;stroke-width:1.0;stroke-dasharray:1.0,4.0;" x1="1147" x2="1147" y1="1426.2656" y2="1454.2656"/><line style="stroke:#A80036;stroke-width:1.0;" x1="1147" x2="1147" y1="1454.2656" y2="1464.2656"/><rect fill="#FEFECE" height="30.2969" style="stroke:#A80036;stroke-width:1.5;" width="133" x="5" y="21.2969"/><text fill="#000000" font-family="sans-serif" font-size="14" lengthAdjust="spacing" textLength="119" x="12" y="41.292">ProcessHistorian</text><rect fill="#FFFFFF" height="64.2656" style="stroke:#A80036;stroke-width:1.0;" width="10" x="66.5" y="62.5938"/><rect fill="#FFFFFF" height="58.2656" style="stroke:#A80036;stroke-width:1.0;" width="10" x="66.5" y="342.4453"/><rect fill="#FFFFFF" height="47.5938" style="stroke:#A80036;stroke-width:1.0;" width="10" x="66.5" y="510.4375"/><rect fill="#FFFFFF" height="120.3203" style="stroke:#A80036;stroke-width:1.0;" width="10" x="66.5" y="625.625"/><rect fill="#FFFFFF" height="135.3984" style="stroke:#A80036;stroke-width:1.0;" width="10" x="231.5" y="867.5391"/><rect fill="#FFFFFF" height="63.2656" style="stroke:#A80036;stroke-width:1.0;" width="10" x="339" y="1040.0703"/><rect fill="#FFFFFF" height="63.2656" style="stroke:#A80036;stroke-width:1.0;" width="10" x="339" y="1355"/><rect fill="#FFFFFF" height="105.1875" style="stroke:#A80036;stroke-width:1.0;" width="10" x="460" y="136.8594"/><rect fill="#FFFFFF" height="71.2656" style="stroke:#A80036;stroke-width:1.0;" width="10" x="460" y="271.1797"/><rect fill="#FFFFFF" height="29.1328" style="stroke:#A80036;stroke-width:1.0;" width="10" x="591" y="242.0469"/><rect fill="#FFFFFF" height="89.7266" style="stroke:#A80036;stroke-width:1.0;" width="10" x="719.5" y="410.7109"/><rect fill="#FFFFFF" height="101.2656" style="stroke:#A80036;stroke-width:1.0;" width="10" x="719.5" y="901.6719"/><rect fill="#FFFFFF" height="106.2656" style="stroke:#A80036;stroke-width:1.0;" width="10" x="869.5" y="1211.6016"/><rect fill="#FFFFFF" height="47.5938" style="stroke:#A80036;stroke-width:1.0;" width="10" x="1014" y="568.0313"/><rect fill="#FFFFFF" height="30" style="stroke:#A80036;stroke-width:1.0;" width="10" x="1014" y="972.9375"/><rect fill="#FFFFFF" height="29.1328" style="stroke:#A80036;stroke-width:1.0;" width="10" x="1014" y="1074.2031"/><rect fill="#FFFFFF" height="30" style="stroke:#A80036;stroke-width:1.0;" width="10" x="1014" y="1287.8672"/><rect fill="#FFFFFF" height="29.1328" style="stroke:#A80036;stroke-width:1.0;" width="10" x="1014" y="1389.1328"/><rect fill="#EEEEEE" height="3" style="stroke:#EEEEEE;stroke-width:1.0;" width="1211" x="0" y="83.1602"/><line style="stroke:#000000;stroke-width:1.0;" x1="0" x2="1211" y1="83.1602" y2="83.1602"/><line style="stroke:#000000;stroke-width:1.0;" x1="0" x2="1211" y1="86.1602" y2="86.1602"/><rect fill="#EEEEEE" height="23.1328" style="stroke:#000000;stroke-width:2.0;" width="114" x="548.5" y="72.5938"/><text fill="#000000" font-family="sans-serif" font-size="13" font-weight="bold" lengthAdjust="spacing" textLength="95" x="554.5" y="88.6606">Initialization</text><polygon fill="#A80036" points="392.5,122.8594,402.5,126.8594,392.5,130.8594" style="stroke:#A80036;stroke-width:1.0;"/><line style="stroke:#A80036;stroke-width:1.0;" x1="71.5" x2="398.5" y1="126.8594" y2="126.8594"/><text fill="#000000" font-family="sans-serif" font-size="13" lengthAdjust="spacing" textLength="41" x="78.5" y="121.7935">create</text><rect fill="#FEFECE" height="46.5938" style="stroke:#A80036;stroke-width:1.5;" width="121" x="404.5" y="105.7266"/><text fill="#000000" font-family="sans-serif" font-size="14" lengthAdjust="spacing" textLength="107" x="411.5" y="125.7217">[ConfigBuilder]</text><text fill="#000000" font-family="sans-serif" font-size="14" lengthAdjust="spacing" textLength="91" x="419.5" y="142.0186">Configurator</text><polygon fill="#A80036" points="523.5,180.4531,533.5,184.4531,523.5,188.4531" style="stroke:#A80036;stroke-width:1.0;"/><line style="stroke:#A80036;stroke-width:1.0;" x1="470" x2="529.5" y1="184.4531" y2="184.4531"/><text fill="#000000" font-family="sans-serif" font-size="13" lengthAdjust="spacing" textLength="41" x="477" y="179.3872">create</text><rect fill="#FEFECE" height="46.5938" style="stroke:#A80036;stroke-width:1.5;" width="121" x="535.5" y="163.3203"/><text fill="#000000" font-family="sans-serif" font-size="14" lengthAdjust="spacing" textLength="107" x="542.5" y="183.3154">[ConfigBuilder]</text><text fill="#000000" font-family="sans-serif" font-size="14" lengthAdjust="spacing" textLength="100" x="546" y="199.6123">SPARQLClient</text><polygon fill="#A80036" points="579,238.0469,589,242.0469,579,246.0469" style="stroke:#A80036;stroke-width:1.0;"/><line style="stroke:#A80036;stroke-width:1.0;" x1="465" x2="585" y1="242.0469" y2="242.0469"/><text fill="#000000" font-family="sans-serif" font-size="13" lengthAdjust="spacing" textLength="66" x="472" y="236.981">fetch data</text><polygon fill="#A80036" points="481,267.1797,471,271.1797,481,275.1797" style="stroke:#A80036;stroke-width:1.0;"/><line style="stroke:#A80036;stroke-width:1.0;" x1="475" x2="595" y1="271.1797" y2="271.1797"/><text fill="#000000" font-family="sans-serif" font-size="13" lengthAdjust="spacing" textLength="72" x="487" y="266.1138">return data</text><line style="stroke:#A80036;stroke-width:1.0;" x1="470" x2="512" y1="300.3125" y2="300.3125"/><line style="stroke:#A80036;stroke-width:1.0;" x1="512" x2="512" y1="300.3125" y2="313.3125"/><line style="stroke:#A80036;stroke-width:1.0;" x1="471" x2="512" y1="313.3125" y2="313.3125"/><polygon fill="#A80036" points="481,309.3125,471,313.3125,481,317.3125" style="stroke:#A80036;stroke-width:1.0;"/><text fill="#000000" font-family="sans-serif" font-size="13" lengthAdjust="spacing" textLength="75" x="477" y="295.2466">write config</text><polygon fill="#A80036" points="584,338.4453,594,342.4453,584,346.4453" style="stroke:#A80036;stroke-width:1.0;"/><line style="stroke:#A80036;stroke-width:1.0;" x1="465" x2="590" y1="342.4453" y2="342.4453"/><text fill="#000000" font-family="sans-serif" font-size="13" lengthAdjust="spacing" textLength="40" x="472" y="337.3794">delete</text><line style="stroke:#A80036;stroke-width:2.0;" x1="587" x2="605" y1="333.4453" y2="351.4453"/><line style="stroke:#A80036;stroke-width:2.0;" x1="587" x2="605" y1="351.4453" y2="333.4453"/><polygon fill="#A80036" points="453,367.5781,463,371.5781,453,375.5781" style="stroke:#A80036;stroke-width:1.0;"/><line style="stroke:#A80036;stroke-width:1.0;" x1="76.5" x2="459" y1="371.5781" y2="371.5781"/><text fill="#000000" font-family="sans-serif" font-size="13" lengthAdjust="spacing" textLength="40" x="83.5" y="366.5122">delete</text><line style="stroke:#A80036;stroke-width:2.0;" x1="456" x2="474" y1="362.5781" y2="380.5781"/><line style="stroke:#A80036;stroke-width:2.0;" x1="456" x2="474" y1="380.5781" y2="362.5781"/><polygon fill="#A80036" points="654.5,396.7109,664.5,400.7109,654.5,404.7109" style="stroke:#A80036;stroke-width:1.0;"/><line style="stroke:#A80036;stroke-width:1.0;" x1="71.5" x2="660.5" y1="400.7109" y2="400.7109"/><text fill="#000000" font-family="sans-serif" font-size="13" lengthAdjust="spacing" textLength="41" x="78.5" y="395.645">create</text><rect fill="#FEFECE" height="46.5938" style="stroke:#A80036;stroke-width:1.5;" width="116" x="666.5" y="379.5781"/><text fill="#000000" font-family="sans-serif" font-size="14" lengthAdjust="spacing" textLength="102" x="673.5" y="399.5732">[OPCUAClient]</text><text fill="#000000" font-family="sans-serif" font-size="14" lengthAdjust="spacing" textLength="43" x="703" y="415.8701">Client</text><line style="stroke:#A80036;stroke-width:1.0;" x1="729.5" x2="771.5" y1="458.3047" y2="458.3047"/><line style="stroke:#A80036;stroke-width:1.0;" x1="771.5" x2="771.5" y1="458.3047" y2="471.3047"/><line style="stroke:#A80036;stroke-width:1.0;" x1="730.5" x2="771.5" y1="471.3047" y2="471.3047"/><polygon fill="#A80036" points="740.5,467.3047,730.5,471.3047,740.5,475.3047" style="stroke:#A80036;stroke-width:1.0;"/><text fill="#000000" font-family="sans-serif" font-size="13" lengthAdjust="spacing" textLength="79" x="736.5" y="453.2388">parse config</text><polygon fill="#A80036" points="782.5,496.4375,792.5,500.4375,782.5,504.4375" style="stroke:#A80036;stroke-width:1.0;"/><line style="stroke:#A80036;stroke-width:1.0;" x1="724.5" x2="788.5" y1="500.4375" y2="500.4375"/><text fill="#000000" font-family="sans-serif" font-size="13" lengthAdjust="spacing" textLength="41" x="731.5" y="495.3716">create</text><rect fill="#FEFECE" height="46.5938" style="stroke:#A80036;stroke-width:1.5;" width="160" x="794.5" y="479.3047"/><text fill="#000000" font-family="sans-serif" font-size="14" lengthAdjust="spacing" textLength="102" x="823.5" y="499.2998">[OPCUAClient]</text><text fill="#000000" font-family="sans-serif" font-size="14" lengthAdjust="spacing" textLength="146" x="801.5" y="515.5967">SubscriptionHandler</text><polygon fill="#A80036" points="952.5,554.0313,962.5,558.0313,952.5,562.0313" style="stroke:#A80036;stroke-width:1.0;"/><line style="stroke:#A80036;stroke-width:1.0;" x1="71.5" x2="958.5" y1="558.0313" y2="558.0313"/><text fill="#000000" font-family="sans-serif" font-size="13" lengthAdjust="spacing" textLength="41" x="78.5" y="552.9653">create</text><rect fill="#FEFECE" height="46.5938" style="stroke:#A80036;stroke-width:1.5;" width="109" x="964.5" y="536.8984"/><text fill="#000000" font-family="sans-serif" font-size="14" lengthAdjust="spacing" textLength="95" x="971.5" y="556.8936">[CloudBuffer]</text><text fill="#000000" font-family="sans-serif" font-size="14" lengthAdjust="spacing" textLength="45" x="996.5" y="573.1904">Buffer</text><polygon fill="#A80036" points="1077,611.625,1087,615.625,1077,619.625" style="stroke:#A80036;stroke-width:1.0;"/><line style="stroke:#A80036;stroke-width:1.0;" x1="1019" x2="1083" y1="615.625" y2="615.625"/><text fill="#000000" font-family="sans-serif" font-size="13" lengthAdjust="spacing" textLength="41" x="1026" y="610.5591">create</text><rect fill="#FEFECE" height="46.5938" style="stroke:#A80036;stroke-width:1.5;" width="117" x="1089" y="594.4922"/><text fill="#000000" font-family="sans-serif" font-size="14" lengthAdjust="spacing" textLength="95" x="1100" y="614.4873">[CloudBuffer]</text><text fill="#000000" font-family="sans-serif" font-size="14" lengthAdjust="spacing" textLength="103" x="1096" y="630.7842">InfluxDBClient</text><polygon fill="#A80036" points="177.5,684.3516,187.5,688.3516,177.5,692.3516" style="stroke:#A80036;stroke-width:1.0;"/><line style="stroke:#A80036;stroke-width:1.0;" x1="76.5" x2="183.5" y1="688.3516" y2="688.3516"/><text fill="#000000" font-family="sans-serif" font-size="13" lengthAdjust="spacing" textLength="89" x="83.5" y="668.1528">create worker</text><text fill="#000000" font-family="sans-serif" font-size="13" lengthAdjust="spacing" textLength="49" x="83.5" y="683.2856">threads</text><rect fill="#FEFECE" height="46.5938" style="stroke:#A80036;stroke-width:1.5;" width="94" x="189.5" y="652.0859"/><text fill="#000000" font-family="sans-serif" font-size="14" lengthAdjust="spacing" textLength="53" x="210" y="672.0811">OPC UA</text><text fill="#000000" font-family="sans-serif" font-size="14" lengthAdjust="spacing" textLength="80" x="196.5" y="688.3779">Poll Thread</text><polygon fill="#A80036" points="281.5,741.9453,291.5,745.9453,281.5,749.9453" style="stroke:#A80036;stroke-width:1.0;"/><line style="stroke:#A80036;stroke-width:1.0;" x1="71.5" x2="287.5" y1="745.9453" y2="745.9453"/><text fill="#000000" font-family="sans-serif" font-size="13" lengthAdjust="spacing" textLength="89" x="78.5" y="725.7466">create worker</text><text fill="#000000" font-family="sans-serif" font-size="13" lengthAdjust="spacing" textLength="42" x="78.5" y="740.8794">thread</text><rect fill="#FEFECE" height="46.5938" style="stroke:#A80036;stroke-width:1.5;" width="101" x="293.5" y="709.6797"/><text fill="#000000" font-family="sans-serif" font-size="14" lengthAdjust="spacing" textLength="85" x="301.5" y="729.6748">CloudBuffer</text><text fill="#000000" font-family="sans-serif" font-size="14" lengthAdjust="spacing" textLength="87" x="300.5" y="745.9717">Push Thread</text><rect fill="#EEEEEE" height="3" style="stroke:#EEEEEE;stroke-width:1.0;" width="1211" x="0" y="815.8398"/><line style="stroke:#000000;stroke-width:1.0;" x1="0" x2="1211" y1="815.8398" y2="815.8398"/><line style="stroke:#000000;stroke-width:1.0;" x1="0" x2="1211" y1="818.8398" y2="818.8398"/><rect fill="#EEEEEE" height="23.1328" style="stroke:#000000;stroke-width:2.0;" width="69" x="571" y="805.2734"/><text fill="#000000" font-family="sans-serif" font-size="13" font-weight="bold" lengthAdjust="spacing" textLength="50" x="577" y="821.3403">Polling</text><line style="stroke:#A80036;stroke-width:1.0;" x1="236.5" x2="283.5" y1="854.5391" y2="854.5391"/><line style="stroke:#A80036;stroke-width:1.0;" x1="283.5" x2="283.5" y1="854.5391" y2="867.5391"/><line style="stroke:#A80036;stroke-width:1.0;" x1="242.5" x2="283.5" y1="867.5391" y2="867.5391"/><polygon fill="#A80036" points="252.5,863.5391,242.5,867.5391,252.5,871.5391" style="stroke:#A80036;stroke-width:1.0;"/><text fill="#000000" font-family="sans-serif" font-size="13" lengthAdjust="spacing" textLength="75" x="248.5" y="849.4731">timer event</text><polygon fill="#A80036" points="707.5,897.6719,717.5,901.6719,707.5,905.6719" style="stroke:#A80036;stroke-width:1.0;"/><line style="stroke:#A80036;stroke-width:1.0;" x1="241.5" x2="713.5" y1="901.6719" y2="901.6719"/><text fill="#000000" font-family="sans-serif" font-size="13" lengthAdjust="spacing" textLength="55" x="248.5" y="896.606">poll data</text><line style="stroke:#A80036;stroke-width:1.0;" x1="729.5" x2="771.5" y1="930.8047" y2="930.8047"/><line style="stroke:#A80036;stroke-width:1.0;" x1="771.5" x2="771.5" y1="930.8047" y2="943.8047"/><line style="stroke:#A80036;stroke-width:1.0;" x1="730.5" x2="771.5" y1="943.8047" y2="943.8047"/><polygon fill="#A80036" points="740.5,939.8047,730.5,943.8047,740.5,947.8047" style="stroke:#A80036;stroke-width:1.0;"/><text fill="#000000" font-family="sans-serif" font-size="13" lengthAdjust="spacing" textLength="55" x="736.5" y="925.7388">poll data</text><polygon fill="#A80036" points="1002,968.9375,1012,972.9375,1002,976.9375" style="stroke:#A80036;stroke-width:1.0;"/><line style="stroke:#A80036;stroke-width:1.0;" x1="729.5" x2="1008" y1="972.9375" y2="972.9375"/><text fill="#000000" font-family="sans-serif" font-size="13" lengthAdjust="spacing" textLength="57" x="736.5" y="967.8716">add data</text><line style="stroke:#A80036;stroke-width:1.0;" x1="344" x2="391" y1="1027.0703" y2="1027.0703"/><line style="stroke:#A80036;stroke-width:1.0;" x1="391" x2="391" y1="1027.0703" y2="1040.0703"/><line style="stroke:#A80036;stroke-width:1.0;" x1="350" x2="391" y1="1040.0703" y2="1040.0703"/><polygon fill="#A80036" points="360,1036.0703,350,1040.0703,360,1044.0703" style="stroke:#A80036;stroke-width:1.0;"/><text fill="#000000" font-family="sans-serif" font-size="13" lengthAdjust="spacing" textLength="75" x="356" y="1022.0044">timer event</text><polygon fill="#A80036" points="1002,1070.2031,1012,1074.2031,1002,1078.2031" style="stroke:#A80036;stroke-width:1.0;"/><line style="stroke:#A80036;stroke-width:1.0;" x1="349" x2="1008" y1="1074.2031" y2="1074.2031"/><text fill="#000000" font-family="sans-serif" font-size="13" lengthAdjust="spacing" textLength="112" x="356" y="1069.1372">call push function</text><polygon fill="#A80036" points="1135.5,1099.3359,1145.5,1103.3359,1135.5,1107.3359" style="stroke:#A80036;stroke-width:1.0;"/><line style="stroke:#A80036;stroke-width:1.0;" x1="1019" x2="1141.5" y1="1103.3359" y2="1103.3359"/><text fill="#000000" font-family="sans-serif" font-size="13" lengthAdjust="spacing" textLength="64" x="1026" y="1098.27">send data</text><rect fill="#EEEEEE" height="3" style="stroke:#EEEEEE;stroke-width:1.0;" width="1211" x="0" y="1159.9023"/><line style="stroke:#000000;stroke-width:1.0;" x1="0" x2="1211" y1="1159.9023" y2="1159.9023"/><line style="stroke:#000000;stroke-width:1.0;" x1="0" x2="1211" y1="1162.9023" y2="1162.9023"/><rect fill="#EEEEEE" height="23.1328" style="stroke:#000000;stroke-width:2.0;" width="113" x="549" y="1149.3359"/><text fill="#000000" font-family="sans-serif" font-size="13" font-weight="bold" lengthAdjust="spacing" textLength="94" x="555" y="1165.4028">Subscription</text><line style="stroke:#A80036;stroke-width:1.0;" x1="874.5" x2="921.5" y1="1198.6016" y2="1198.6016"/><line style="stroke:#A80036;stroke-width:1.0;" x1="921.5" x2="921.5" y1="1198.6016" y2="1211.6016"/><line style="stroke:#A80036;stroke-width:1.0;" x1="880.5" x2="921.5" y1="1211.6016" y2="1211.6016"/><polygon fill="#A80036" points="890.5,1207.6016,880.5,1211.6016,890.5,1215.6016" style="stroke:#A80036;stroke-width:1.0;"/><text fill="#000000" font-family="sans-serif" font-size="13" lengthAdjust="spacing" textLength="91" x="886.5" y="1193.5356">data incoming</text><line style="stroke:#A80036;stroke-width:1.0;" x1="879.5" x2="921.5" y1="1245.7344" y2="1245.7344"/><line style="stroke:#A80036;stroke-width:1.0;" x1="921.5" x2="921.5" y1="1245.7344" y2="1258.7344"/><line style="stroke:#A80036;stroke-width:1.0;" x1="880.5" x2="921.5" y1="1258.7344" y2="1258.7344"/><polygon fill="#A80036" points="890.5,1254.7344,880.5,1258.7344,890.5,1262.7344" style="stroke:#A80036;stroke-width:1.0;"/><text fill="#000000" font-family="sans-serif" font-size="13" lengthAdjust="spacing" textLength="54" x="886.5" y="1240.6685">get data</text><polygon fill="#A80036" points="1002,1283.8672,1012,1287.8672,1002,1291.8672" style="stroke:#A80036;stroke-width:1.0;"/><line style="stroke:#A80036;stroke-width:1.0;" x1="879.5" x2="1008" y1="1287.8672" y2="1287.8672"/><text fill="#000000" font-family="sans-serif" font-size="13" lengthAdjust="spacing" textLength="57" x="886.5" y="1282.8013">add data</text><line style="stroke:#A80036;stroke-width:1.0;" x1="344" x2="391" y1="1342" y2="1342"/><line style="stroke:#A80036;stroke-width:1.0;" x1="391" x2="391" y1="1342" y2="1355"/><line style="stroke:#A80036;stroke-width:1.0;" x1="350" x2="391" y1="1355" y2="1355"/><polygon fill="#A80036" points="360,1351,350,1355,360,1359" style="stroke:#A80036;stroke-width:1.0;"/><text fill="#000000" font-family="sans-serif" font-size="13" lengthAdjust="spacing" textLength="75" x="356" y="1336.9341">timer event</text><polygon fill="#A80036" points="1002,1385.1328,1012,1389.1328,1002,1393.1328" style="stroke:#A80036;stroke-width:1.0;"/><line style="stroke:#A80036;stroke-width:1.0;" x1="349" x2="1008" y1="1389.1328" y2="1389.1328"/><text fill="#000000" font-family="sans-serif" font-size="13" lengthAdjust="spacing" textLength="112" x="356" y="1384.0669">call push function</text><polygon fill="#A80036" points="1135.5,1414.2656,1145.5,1418.2656,1135.5,1422.2656" style="stroke:#A80036;stroke-width:1.0;"/><line style="stroke:#A80036;stroke-width:1.0;" x1="1019" x2="1141.5" y1="1418.2656" y2="1418.2656"/><text fill="#000000" font-family="sans-serif" font-size="13" lengthAdjust="spacing" textLength="64" x="1026" y="1413.1997">send data</text><!--MD5=[ad382d4470244866c050729249c345d4]
@startuml
skinparam style strictuml
participant ProcessHistorian
participant "OPC UA\nPoll Thread" as PollThread
participant "CloudBuffer\nPush Thread" as PushThread
== Initialization ==
activate ProcessHistorian
ProcessHistorian -> "[ConfigBuilder]\nConfigurator" as ConfigBuilder.Configurator ** : create
deactivate ProcessHistorian
activate ConfigBuilder.Configurator
ConfigBuilder.Configurator -> "[ConfigBuilder]\nSPARQLClient" as ConfigBuilder.SPARQLClient ** : create
ConfigBuilder.Configurator -> ConfigBuilder.SPARQLClient : fetch data
deactivate ConfigBuilder.Configurator
activate ConfigBuilder.SPARQLClient
ConfigBuilder.SPARQLClient -> ConfigBuilder.Configurator : return data
deactivate ConfigBuilder.SPARQLClient
activate ConfigBuilder.Configurator
ConfigBuilder.Configurator -> ConfigBuilder.Configurator : write config
ConfigBuilder.Configurator -> ConfigBuilder.SPARQLClient !! : delete
deactivate ConfigBuilder.Configurator
activate ProcessHistorian
ProcessHistorian -> ConfigBuilder.Configurator !! : delete

ProcessHistorian -> "[OPCUAClient]\nClient" as OPCUAClient.Client ** : create
activate OPCUAClient.Client
deactivate ProcessHistorian
OPCUAClient.Client -> OPCUAClient.Client : parse config
OPCUAClient.Client -> "[OPCUAClient]\nSubscriptionHandler" as OPCUAClient.SubscriptionHandler ** : create
deactivate OPCUAClient.Client

activate ProcessHistorian
ProcessHistorian -> "[CloudBuffer]\nBuffer" as CloudBuffer.Buffer ** : create
activate CloudBuffer.Buffer
deactivate ProcessHistorian
CloudBuffer.Buffer -> "[CloudBuffer]\nInfluxDBClient" as CloudBuffer.InfluxDBClient ** : create
deactivate CloudBuffer.Buffer
activate ProcessHistorian
ProcessHistorian -> PollThread ** : create worker\nthreads
ProcessHistorian -> PushThread ** : create worker\nthread
deactivate ProcessHistorian
...

== Polling ==

PollThread -> PollThread : timer event
activate PollThread
PollThread -> OPCUAClient.Client : poll data
activate OPCUAClient.Client
OPCUAClient.Client -> OPCUAClient.Client : poll data
OPCUAClient.Client ->  CloudBuffer.Buffer : add data
activate CloudBuffer.Buffer
deactivate CloudBuffer.Buffer
deactivate OPCUAClient.Client
deactivate PollThread

PushThread -> PushThread : timer event
activate PushThread
PushThread -> CloudBuffer.Buffer : call push function
activate CloudBuffer.Buffer
CloudBuffer.Buffer -> CloudBuffer.InfluxDBClient : send data
deactivate CloudBuffer.Buffer
deactivate PushThread
...

== Subscription ==

OPCUAClient.SubscriptionHandler -> OPCUAClient.SubscriptionHandler : data incoming
activate OPCUAClient.SubscriptionHandler
OPCUAClient.SubscriptionHandler -> OPCUAClient.SubscriptionHandler : get data
OPCUAClient.SubscriptionHandler -> CloudBuffer.Buffer : add data
activate CloudBuffer.Buffer
deactivate CloudBuffer.Buffer
deactivate OPCUAClient.SubscriptionHandler

PushThread -> PushThread : timer event
activate PushThread
PushThread -> CloudBuffer.Buffer : call push function
activate CloudBuffer.Buffer
CloudBuffer.Buffer -> CloudBuffer.InfluxDBClient : send data
deactivate CloudBuffer.Buffer
deactivate PushThread
...
@enduml

PlantUML version 1.2021.9beta2(Unknown compile time)
(GPL source distribution)
Java Runtime: Java(TM) SE Runtime Environment
JVM: Java HotSpot(TM) 64-Bit Server VM
Default Encoding: UTF-8
Language: en
Country: US
--></g></svg>