<?xml version="1.0" encoding="UTF-8" standalone="no"?><svg xmlns="http://www.w3.org/2000/svg" xmlns:xlink="http://www.w3.org/1999/xlink" contentScriptType="application/ecmascript" contentStyleType="text/css" height="1344px" preserveAspectRatio="none" style="width:961px;height:1344px;background:#FFFFFF;" version="1.1" viewBox="0 0 961 1344" width="961px" zoomAndPan="magnify"><defs/><g><rect fill="#FFFFFF" height="64.2656" style="stroke:#A80036;stroke-width:1.0;" width="10" x="66.5" y="62.5938"/><rect fill="#FFFFFF" height="58.2656" style="stroke:#A80036;stroke-width:1.0;" width="10" x="66.5" y="342.4453"/><rect fill="#FFFFFF" height="47.5938" style="stroke:#A80036;stroke-width:1.0;" width="10" x="66.5" y="468.3047"/><rect fill="#FFFFFF" height="89.1328" style="stroke:#A80036;stroke-width:1.0;" width="10" x="66.5" y="786.4844"/><rect fill="#FFFFFF" height="89.1328" style="stroke:#A80036;stroke-width:1.0;" width="10" x="66.5" y="1131.4141"/><rect fill="#FFFFFF" height="105.1875" style="stroke:#A80036;stroke-width:1.0;" width="10" x="203.5" y="136.8594"/><rect fill="#FFFFFF" height="71.2656" style="stroke:#A80036;stroke-width:1.0;" width="10" x="203.5" y="271.1797"/><rect fill="#FFFFFF" height="29.1328" style="stroke:#A80036;stroke-width:1.0;" width="10" x="334.5" y="242.0469"/><rect fill="#FFFFFF" height="47.5938" style="stroke:#A80036;stroke-width:1.0;" width="10" x="463" y="410.7109"/><rect fill="#FFFFFF" height="106.2656" style="stroke:#A80036;stroke-width:1.0;" width="10" x="463" y="710.2188"/><rect fill="#FFFFFF" height="106.2656" style="stroke:#A80036;stroke-width:1.0;" width="10" x="613" y="1055.1484"/><rect fill="#FFFFFF" height="47.5938" style="stroke:#A80036;stroke-width:1.0;" width="10" x="757.5" y="525.8984"/><rect fill="#FFFFFF" height="30" style="stroke:#A80036;stroke-width:1.0;" width="10" x="757.5" y="845.6172"/><rect fill="#FFFFFF" height="34.1328" style="stroke:#A80036;stroke-width:1.0;" width="10" x="757.5" y="912.75"/><rect fill="#FFFFFF" height="30" style="stroke:#A80036;stroke-width:1.0;" width="10" x="757.5" y="1190.5469"/><rect fill="#FFFFFF" height="34.1328" style="stroke:#A80036;stroke-width:1.0;" width="10" x="757.5" y="1257.6797"/><line style="stroke:#A80036;stroke-width:1.0;" x1="71" x2="71" y1="52.5938" y2="609.9531"/><line style="stroke:#A80036;stroke-width:1.0;stroke-dasharray:1.0,4.0;" x1="71" x2="71" y1="609.9531" y2="637.9531"/><line style="stroke:#A80036;stroke-width:1.0;" x1="71" x2="71" y1="637.9531" y2="954.8828"/><line style="stroke:#A80036;stroke-width:1.0;stroke-dasharray:1.0,4.0;" x1="71" x2="71" y1="954.8828" y2="982.8828"/><line style="stroke:#A80036;stroke-width:1.0;" x1="71" x2="71" y1="982.8828" y2="1299.8125"/><line style="stroke:#A80036;stroke-width:1.0;stroke-dasharray:1.0,4.0;" x1="71" x2="71" y1="1299.8125" y2="1327.8125"/><line style="stroke:#A80036;stroke-width:1.0;" x1="71" x2="71" y1="1327.8125" y2="1337.8125"/><line style="stroke:#A80036;stroke-width:1.0;" x1="208" x2="208" y1="144.5234" y2="609.9531"/><line style="stroke:#A80036;stroke-width:1.0;stroke-dasharray:1.0,4.0;" x1="208" x2="208" y1="609.9531" y2="637.9531"/><line style="stroke:#A80036;stroke-width:1.0;" x1="208" x2="208" y1="637.9531" y2="954.8828"/><line style="stroke:#A80036;stroke-width:1.0;stroke-dasharray:1.0,4.0;" x1="208" x2="208" y1="954.8828" y2="982.8828"/><line style="stroke:#A80036;stroke-width:1.0;" x1="208" x2="208" y1="982.8828" y2="1299.8125"/><line style="stroke:#A80036;stroke-width:1.0;stroke-dasharray:1.0,4.0;" x1="208" x2="208" y1="1299.8125" y2="1327.8125"/><line style="stroke:#A80036;stroke-width:1.0;" x1="208" x2="208" y1="1327.8125" y2="1337.8125"/><line style="stroke:#A80036;stroke-width:1.0;" x1="339" x2="339" y1="202.1172" y2="609.9531"/><line style="stroke:#A80036;stroke-width:1.0;stroke-dasharray:1.0,4.0;" x1="339" x2="339" y1="609.9531" y2="637.9531"/><line style="stroke:#A80036;stroke-width:1.0;" x1="339" x2="339" y1="637.9531" y2="954.8828"/><line style="stroke:#A80036;stroke-width:1.0;stroke-dasharray:1.0,4.0;" x1="339" x2="339" y1="954.8828" y2="982.8828"/><line style="stroke:#A80036;stroke-width:1.0;" x1="339" x2="339" y1="982.8828" y2="1299.8125"/><line style="stroke:#A80036;stroke-width:1.0;stroke-dasharray:1.0,4.0;" x1="339" x2="339" y1="1299.8125" y2="1327.8125"/><line style="stroke:#A80036;stroke-width:1.0;" x1="339" x2="339" y1="1327.8125" y2="1337.8125"/><line style="stroke:#A80036;stroke-width:1.0;" x1="468" x2="468" y1="418.375" y2="609.9531"/><line style="stroke:#A80036;stroke-width:1.0;stroke-dasharray:1.0,4.0;" x1="468" x2="468" y1="609.9531" y2="637.9531"/><line style="stroke:#A80036;stroke-width:1.0;" x1="468" x2="468" y1="637.9531" y2="954.8828"/><line style="stroke:#A80036;stroke-width:1.0;stroke-dasharray:1.0,4.0;" x1="468" x2="468" y1="954.8828" y2="982.8828"/><line style="stroke:#A80036;stroke-width:1.0;" x1="468" x2="468" y1="982.8828" y2="1299.8125"/><line style="stroke:#A80036;stroke-width:1.0;stroke-dasharray:1.0,4.0;" x1="468" x2="468" y1="1299.8125" y2="1327.8125"/><line style="stroke:#A80036;stroke-width:1.0;" x1="468" x2="468" y1="1327.8125" y2="1337.8125"/><line style="stroke:#A80036;stroke-width:1.0;" x1="618" x2="618" y1="475.9688" y2="609.9531"/><line style="stroke:#A80036;stroke-width:1.0;stroke-dasharray:1.0,4.0;" x1="618" x2="618" y1="609.9531" y2="637.9531"/><line style="stroke:#A80036;stroke-width:1.0;" x1="618" x2="618" y1="637.9531" y2="954.8828"/><line style="stroke:#A80036;stroke-width:1.0;stroke-dasharray:1.0,4.0;" x1="618" x2="618" y1="954.8828" y2="982.8828"/><line style="stroke:#A80036;stroke-width:1.0;" x1="618" x2="618" y1="982.8828" y2="1299.8125"/><line style="stroke:#A80036;stroke-width:1.0;stroke-dasharray:1.0,4.0;" x1="618" x2="618" y1="1299.8125" y2="1327.8125"/><line style="stroke:#A80036;stroke-width:1.0;" x1="618" x2="618" y1="1327.8125" y2="1337.8125"/><line style="stroke:#A80036;stroke-width:1.0;" x1="762" x2="762" y1="533.5625" y2="609.9531"/><line style="stroke:#A80036;stroke-width:1.0;stroke-dasharray:1.0,4.0;" x1="762" x2="762" y1="609.9531" y2="637.9531"/><line style="stroke:#A80036;stroke-width:1.0;" x1="762" x2="762" y1="637.9531" y2="954.8828"/><line style="stroke:#A80036;stroke-width:1.0;stroke-dasharray:1.0,4.0;" x1="762" x2="762" y1="954.8828" y2="982.8828"/><line style="stroke:#A80036;stroke-width:1.0;" x1="762" x2="762" y1="982.8828" y2="1299.8125"/><line style="stroke:#A80036;stroke-width:1.0;stroke-dasharray:1.0,4.0;" x1="762" x2="762" y1="1299.8125" y2="1327.8125"/><line style="stroke:#A80036;stroke-width:1.0;" x1="762" x2="762" y1="1327.8125" y2="1337.8125"/><line style="stroke:#A80036;stroke-width:1.0;" x1="890.5" x2="890.5" y1="591.1563" y2="609.9531"/><line style="stroke:#A80036;stroke-width:1.0;stroke-dasharray:1.0,4.0;" x1="890.5" x2="890.5" y1="609.9531" y2="637.9531"/><line style="stroke:#A80036;stroke-width:1.0;" x1="890.5" x2="890.5" y1="637.9531" y2="954.8828"/><line style="stroke:#A80036;stroke-width:1.0;stroke-dasharray:1.0,4.0;" x1="890.5" x2="890.5" y1="954.8828" y2="982.8828"/><line style="stroke:#A80036;stroke-width:1.0;" x1="890.5" x2="890.5" y1="982.8828" y2="1299.8125"/><line style="stroke:#A80036;stroke-width:1.0;stroke-dasharray:1.0,4.0;" x1="890.5" x2="890.5" y1="1299.8125" y2="1327.8125"/><line style="stroke:#A80036;stroke-width:1.0;" x1="890.5" x2="890.5" y1="1327.8125" y2="1337.8125"/><rect fill="#FEFECE" height="30.2969" style="stroke:#A80036;stroke-width:1.5;" width="133" x="5" y="21.2969"/><text fill="#000000" font-family="sans-serif" font-size="14" lengthAdjust="spacing" textLength="119" x="12" y="41.292">ProcessHistorian</text><rect fill="#FFFFFF" height="64.2656" style="stroke:#A80036;stroke-width:1.0;" width="10" x="66.5" y="62.5938"/><rect fill="#FFFFFF" height="58.2656" style="stroke:#A80036;stroke-width:1.0;" width="10" x="66.5" y="342.4453"/><rect fill="#FFFFFF" height="47.5938" style="stroke:#A80036;stroke-width:1.0;" width="10" x="66.5" y="468.3047"/><rect fill="#FFFFFF" height="89.1328" style="stroke:#A80036;stroke-width:1.0;" width="10" x="66.5" y="786.4844"/><rect fill="#FFFFFF" height="89.1328" style="stroke:#A80036;stroke-width:1.0;" width="10" x="66.5" y="1131.4141"/><rect fill="#FFFFFF" height="105.1875" style="stroke:#A80036;stroke-width:1.0;" width="10" x="203.5" y="136.8594"/><rect fill="#FFFFFF" height="71.2656" style="stroke:#A80036;stroke-width:1.0;" width="10" x="203.5" y="271.1797"/><rect fill="#FFFFFF" height="29.1328" style="stroke:#A80036;stroke-width:1.0;" width="10" x="334.5" y="242.0469"/><rect fill="#FFFFFF" height="47.5938" style="stroke:#A80036;stroke-width:1.0;" width="10" x="463" y="410.7109"/><rect fill="#FFFFFF" height="106.2656" style="stroke:#A80036;stroke-width:1.0;" width="10" x="463" y="710.2188"/><rect fill="#FFFFFF" height="106.2656" style="stroke:#A80036;stroke-width:1.0;" width="10" x="613" y="1055.1484"/><rect fill="#FFFFFF" height="47.5938" style="stroke:#A80036;stroke-width:1.0;" width="10" x="757.5" y="525.8984"/><rect fill="#FFFFFF" height="30" style="stroke:#A80036;stroke-width:1.0;" width="10" x="757.5" y="845.6172"/><rect fill="#FFFFFF" height="34.1328" style="stroke:#A80036;stroke-width:1.0;" width="10" x="757.5" y="912.75"/><rect fill="#FFFFFF" height="30" style="stroke:#A80036;stroke-width:1.0;" width="10" x="757.5" y="1190.5469"/><rect fill="#FFFFFF" height="34.1328" style="stroke:#A80036;stroke-width:1.0;" width="10" x="757.5" y="1257.6797"/><rect fill="#EEEEEE" height="3" style="stroke:#EEEEEE;stroke-width:1.0;" width="954.5" x="0" y="83.1602"/><line style="stroke:#000000;stroke-width:1.0;" x1="0" x2="954.5" y1="83.1602" y2="83.1602"/><line style="stroke:#000000;stroke-width:1.0;" x1="0" x2="954.5" y1="86.1602" y2="86.1602"/><rect fill="#EEEEEE" height="23.1328" style="stroke:#000000;stroke-width:2.0;" width="114" x="420.25" y="72.5938"/><text fill="#000000" font-family="sans-serif" font-size="13" font-weight="bold" lengthAdjust="spacing" textLength="95" x="426.25" y="88.6606">Initialization</text><polygon fill="#A80036" points="136,122.8594,146,126.8594,136,130.8594" style="stroke:#A80036;stroke-width:1.0;"/><line style="stroke:#A80036;stroke-width:1.0;" x1="71.5" x2="142" y1="126.8594" y2="126.8594"/><text fill="#000000" font-family="sans-serif" font-size="13" lengthAdjust="spacing" textLength="41" x="78.5" y="121.7935">create</text><rect fill="#FEFECE" height="46.5938" style="stroke:#A80036;stroke-width:1.5;" width="121" x="148" y="105.7266"/><text fill="#000000" font-family="sans-serif" font-size="14" lengthAdjust="spacing" textLength="107" x="155" y="125.7217">[ConfigBuilder]</text><text fill="#000000" font-family="sans-serif" font-size="14" lengthAdjust="spacing" textLength="91" x="163" y="142.0186">Configurator</text><polygon fill="#A80036" points="267,180.4531,277,184.4531,267,188.4531" style="stroke:#A80036;stroke-width:1.0;"/><line style="stroke:#A80036;stroke-width:1.0;" x1="213.5" x2="273" y1="184.4531" y2="184.4531"/><text fill="#000000" font-family="sans-serif" font-size="13" lengthAdjust="spacing" textLength="41" x="220.5" y="179.3872">create</text><rect fill="#FEFECE" height="46.5938" style="stroke:#A80036;stroke-width:1.5;" width="121" x="279" y="163.3203"/><text fill="#000000" font-family="sans-serif" font-size="14" lengthAdjust="spacing" textLength="107" x="286" y="183.3154">[ConfigBuilder]</text><text fill="#000000" font-family="sans-serif" font-size="14" lengthAdjust="spacing" textLength="100" x="289.5" y="199.6123">SPARQLClient</text><polygon fill="#A80036" points="322.5,238.0469,332.5,242.0469,322.5,246.0469" style="stroke:#A80036;stroke-width:1.0;"/><line style="stroke:#A80036;stroke-width:1.0;" x1="208.5" x2="328.5" y1="242.0469" y2="242.0469"/><text fill="#000000" font-family="sans-serif" font-size="13" lengthAdjust="spacing" textLength="66" x="215.5" y="236.981">fetch data</text><polygon fill="#A80036" points="224.5,267.1797,214.5,271.1797,224.5,275.1797" style="stroke:#A80036;stroke-width:1.0;"/><line style="stroke:#A80036;stroke-width:1.0;" x1="218.5" x2="338.5" y1="271.1797" y2="271.1797"/><text fill="#000000" font-family="sans-serif" font-size="13" lengthAdjust="spacing" textLength="72" x="230.5" y="266.1138">return data</text><line style="stroke:#A80036;stroke-width:1.0;" x1="213.5" x2="255.5" y1="300.3125" y2="300.3125"/><line style="stroke:#A80036;stroke-width:1.0;" x1="255.5" x2="255.5" y1="300.3125" y2="313.3125"/><line style="stroke:#A80036;stroke-width:1.0;" x1="214.5" x2="255.5" y1="313.3125" y2="313.3125"/><polygon fill="#A80036" points="224.5,309.3125,214.5,313.3125,224.5,317.3125" style="stroke:#A80036;stroke-width:1.0;"/><text fill="#000000" font-family="sans-serif" font-size="13" lengthAdjust="spacing" textLength="75" x="220.5" y="295.2466">write config</text><polygon fill="#A80036" points="327.5,338.4453,337.5,342.4453,327.5,346.4453" style="stroke:#A80036;stroke-width:1.0;"/><line style="stroke:#A80036;stroke-width:1.0;" x1="208.5" x2="333.5" y1="342.4453" y2="342.4453"/><text fill="#000000" font-family="sans-serif" font-size="13" lengthAdjust="spacing" textLength="40" x="215.5" y="337.3794">delete</text><line style="stroke:#A80036;stroke-width:2.0;" x1="330.5" x2="348.5" y1="333.4453" y2="351.4453"/><line style="stroke:#A80036;stroke-width:2.0;" x1="330.5" x2="348.5" y1="351.4453" y2="333.4453"/><polygon fill="#A80036" points="196.5,367.5781,206.5,371.5781,196.5,375.5781" style="stroke:#A80036;stroke-width:1.0;"/><line style="stroke:#A80036;stroke-width:1.0;" x1="76.5" x2="202.5" y1="371.5781" y2="371.5781"/><text fill="#000000" font-family="sans-serif" font-size="13" lengthAdjust="spacing" textLength="40" x="83.5" y="366.5122">delete</text><line style="stroke:#A80036;stroke-width:2.0;" x1="199.5" x2="217.5" y1="362.5781" y2="380.5781"/><line style="stroke:#A80036;stroke-width:2.0;" x1="199.5" x2="217.5" y1="380.5781" y2="362.5781"/><polygon fill="#A80036" points="398,396.7109,408,400.7109,398,404.7109" style="stroke:#A80036;stroke-width:1.0;"/><line style="stroke:#A80036;stroke-width:1.0;" x1="71.5" x2="404" y1="400.7109" y2="400.7109"/><text fill="#000000" font-family="sans-serif" font-size="13" lengthAdjust="spacing" textLength="41" x="78.5" y="395.645">create</text><rect fill="#FEFECE" height="46.5938" style="stroke:#A80036;stroke-width:1.5;" width="116" x="410" y="379.5781"/><text fill="#000000" font-family="sans-serif" font-size="14" lengthAdjust="spacing" textLength="102" x="417" y="399.5732">[OPCUAClient]</text><text fill="#000000" font-family="sans-serif" font-size="14" lengthAdjust="spacing" textLength="43" x="446.5" y="415.8701">Client</text><polygon fill="#A80036" points="526,454.3047,536,458.3047,526,462.3047" style="stroke:#A80036;stroke-width:1.0;"/><line style="stroke:#A80036;stroke-width:1.0;" x1="468" x2="532" y1="458.3047" y2="458.3047"/><text fill="#000000" font-family="sans-serif" font-size="13" lengthAdjust="spacing" textLength="41" x="475" y="453.2388">create</text><rect fill="#FEFECE" height="46.5938" style="stroke:#A80036;stroke-width:1.5;" width="160" x="538" y="437.1719"/><text fill="#000000" font-family="sans-serif" font-size="14" lengthAdjust="spacing" textLength="102" x="567" y="457.167">[OPCUAClient]</text><text fill="#000000" font-family="sans-serif" font-size="14" lengthAdjust="spacing" textLength="146" x="545" y="473.4639">SubscriptionHandler</text><polygon fill="#A80036" points="696,511.8984,706,515.8984,696,519.8984" style="stroke:#A80036;stroke-width:1.0;"/><line style="stroke:#A80036;stroke-width:1.0;" x1="71.5" x2="702" y1="515.8984" y2="515.8984"/><text fill="#000000" font-family="sans-serif" font-size="13" lengthAdjust="spacing" textLength="41" x="78.5" y="510.8325">create</text><rect fill="#FEFECE" height="46.5938" style="stroke:#A80036;stroke-width:1.5;" width="109" x="708" y="494.7656"/><text fill="#000000" font-family="sans-serif" font-size="14" lengthAdjust="spacing" textLength="95" x="715" y="514.7607">[CloudBuffer]</text><text fill="#000000" font-family="sans-serif" font-size="14" lengthAdjust="spacing" textLength="45" x="740" y="531.0576">Buffer</text><polygon fill="#A80036" points="820.5,569.4922,830.5,573.4922,820.5,577.4922" style="stroke:#A80036;stroke-width:1.0;"/><line style="stroke:#A80036;stroke-width:1.0;" x1="762.5" x2="826.5" y1="573.4922" y2="573.4922"/><text fill="#000000" font-family="sans-serif" font-size="13" lengthAdjust="spacing" textLength="41" x="769.5" y="568.4263">create</text><rect fill="#FEFECE" height="46.5938" style="stroke:#A80036;stroke-width:1.5;" width="117" x="832.5" y="552.3594"/><text fill="#000000" font-family="sans-serif" font-size="14" lengthAdjust="spacing" textLength="95" x="843.5" y="572.3545">[CloudBuffer]</text><text fill="#000000" font-family="sans-serif" font-size="14" lengthAdjust="spacing" textLength="103" x="839.5" y="588.6514">InfluxDBClient</text><rect fill="#EEEEEE" height="3" style="stroke:#EEEEEE;stroke-width:1.0;" width="954.5" x="0" y="658.5195"/><line style="stroke:#000000;stroke-width:1.0;" x1="0" x2="954.5" y1="658.5195" y2="658.5195"/><line style="stroke:#000000;stroke-width:1.0;" x1="0" x2="954.5" y1="661.5195" y2="661.5195"/><rect fill="#EEEEEE" height="23.1328" style="stroke:#000000;stroke-width:2.0;" width="69" x="442.75" y="647.9531"/><text fill="#000000" font-family="sans-serif" font-size="13" font-weight="bold" lengthAdjust="spacing" textLength="50" x="448.75" y="664.02">Polling</text><line style="stroke:#A80036;stroke-width:1.0;" x1="468" x2="515" y1="697.2188" y2="697.2188"/><line style="stroke:#A80036;stroke-width:1.0;" x1="515" x2="515" y1="697.2188" y2="710.2188"/><line style="stroke:#A80036;stroke-width:1.0;" x1="474" x2="515" y1="710.2188" y2="710.2188"/><polygon fill="#A80036" points="484,706.2188,474,710.2188,484,714.2188" style="stroke:#A80036;stroke-width:1.0;"/><text fill="#000000" font-family="sans-serif" font-size="13" lengthAdjust="spacing" textLength="75" x="480" y="692.1528">timer event</text><line style="stroke:#A80036;stroke-width:1.0;" x1="473" x2="515" y1="744.3516" y2="744.3516"/><line style="stroke:#A80036;stroke-width:1.0;" x1="515" x2="515" y1="744.3516" y2="757.3516"/><line style="stroke:#A80036;stroke-width:1.0;" x1="474" x2="515" y1="757.3516" y2="757.3516"/><polygon fill="#A80036" points="484,753.3516,474,757.3516,484,761.3516" style="stroke:#A80036;stroke-width:1.0;"/><text fill="#000000" font-family="sans-serif" font-size="13" lengthAdjust="spacing" textLength="55" x="480" y="739.2856">poll data</text><polygon fill="#A80036" points="87.5,782.4844,77.5,786.4844,87.5,790.4844" style="stroke:#A80036;stroke-width:1.0;"/><line style="stroke:#A80036;stroke-width:1.0;" x1="81.5" x2="462" y1="786.4844" y2="786.4844"/><text fill="#000000" font-family="sans-serif" font-size="13" lengthAdjust="spacing" textLength="64" x="93.5" y="781.4185">send data</text><polygon fill="#A80036" points="745.5,841.6172,755.5,845.6172,745.5,849.6172" style="stroke:#A80036;stroke-width:1.0;"/><line style="stroke:#A80036;stroke-width:1.0;" x1="76.5" x2="751.5" y1="845.6172" y2="845.6172"/><text fill="#000000" font-family="sans-serif" font-size="13" lengthAdjust="spacing" textLength="57" x="83.5" y="840.5513">add data</text><line style="stroke:#A80036;stroke-width:1.0;" x1="762.5" x2="809.5" y1="899.75" y2="899.75"/><line style="stroke:#A80036;stroke-width:1.0;" x1="809.5" x2="809.5" y1="899.75" y2="912.75"/><line style="stroke:#A80036;stroke-width:1.0;" x1="768.5" x2="809.5" y1="912.75" y2="912.75"/><polygon fill="#A80036" points="778.5,908.75,768.5,912.75,778.5,916.75" style="stroke:#A80036;stroke-width:1.0;"/><text fill="#000000" font-family="sans-serif" font-size="13" lengthAdjust="spacing" textLength="75" x="774.5" y="894.6841">timer event</text><polygon fill="#A80036" points="879,942.8828,889,946.8828,879,950.8828" style="stroke:#A80036;stroke-width:1.0;"/><line style="stroke:#A80036;stroke-width:1.0;" x1="762.5" x2="885" y1="946.8828" y2="946.8828"/><text fill="#000000" font-family="sans-serif" font-size="13" lengthAdjust="spacing" textLength="64" x="769.5" y="941.8169">send data</text><rect fill="#EEEEEE" height="3" style="stroke:#EEEEEE;stroke-width:1.0;" width="954.5" x="0" y="1003.4492"/><line style="stroke:#000000;stroke-width:1.0;" x1="0" x2="954.5" y1="1003.4492" y2="1003.4492"/><line style="stroke:#000000;stroke-width:1.0;" x1="0" x2="954.5" y1="1006.4492" y2="1006.4492"/><rect fill="#EEEEEE" height="23.1328" style="stroke:#000000;stroke-width:2.0;" width="113" x="420.75" y="992.8828"/><text fill="#000000" font-family="sans-serif" font-size="13" font-weight="bold" lengthAdjust="spacing" textLength="94" x="426.75" y="1008.9497">Subscription</text><line style="stroke:#A80036;stroke-width:1.0;" x1="618" x2="665" y1="1042.1484" y2="1042.1484"/><line style="stroke:#A80036;stroke-width:1.0;" x1="665" x2="665" y1="1042.1484" y2="1055.1484"/><line style="stroke:#A80036;stroke-width:1.0;" x1="624" x2="665" y1="1055.1484" y2="1055.1484"/><polygon fill="#A80036" points="634,1051.1484,624,1055.1484,634,1059.1484" style="stroke:#A80036;stroke-width:1.0;"/><text fill="#000000" font-family="sans-serif" font-size="13" lengthAdjust="spacing" textLength="91" x="630" y="1037.0825">data incoming</text><line style="stroke:#A80036;stroke-width:1.0;" x1="623" x2="665" y1="1089.2813" y2="1089.2813"/><line style="stroke:#A80036;stroke-width:1.0;" x1="665" x2="665" y1="1089.2813" y2="1102.2813"/><line style="stroke:#A80036;stroke-width:1.0;" x1="624" x2="665" y1="1102.2813" y2="1102.2813"/><polygon fill="#A80036" points="634,1098.2813,624,1102.2813,634,1106.2813" style="stroke:#A80036;stroke-width:1.0;"/><text fill="#000000" font-family="sans-serif" font-size="13" lengthAdjust="spacing" textLength="54" x="630" y="1084.2153">get data</text><polygon fill="#A80036" points="87.5,1127.4141,77.5,1131.4141,87.5,1135.4141" style="stroke:#A80036;stroke-width:1.0;"/><line style="stroke:#A80036;stroke-width:1.0;" x1="81.5" x2="612" y1="1131.4141" y2="1131.4141"/><text fill="#000000" font-family="sans-serif" font-size="13" lengthAdjust="spacing" textLength="64" x="93.5" y="1126.3481">send data</text><polygon fill="#A80036" points="745.5,1186.5469,755.5,1190.5469,745.5,1194.5469" style="stroke:#A80036;stroke-width:1.0;"/><line style="stroke:#A80036;stroke-width:1.0;" x1="76.5" x2="751.5" y1="1190.5469" y2="1190.5469"/><text fill="#000000" font-family="sans-serif" font-size="13" lengthAdjust="spacing" textLength="57" x="83.5" y="1185.481">add data</text><line style="stroke:#A80036;stroke-width:1.0;" x1="762.5" x2="809.5" y1="1244.6797" y2="1244.6797"/><line style="stroke:#A80036;stroke-width:1.0;" x1="809.5" x2="809.5" y1="1244.6797" y2="1257.6797"/><line style="stroke:#A80036;stroke-width:1.0;" x1="768.5" x2="809.5" y1="1257.6797" y2="1257.6797"/><polygon fill="#A80036" points="778.5,1253.6797,768.5,1257.6797,778.5,1261.6797" style="stroke:#A80036;stroke-width:1.0;"/><text fill="#000000" font-family="sans-serif" font-size="13" lengthAdjust="spacing" textLength="75" x="774.5" y="1239.6138">timer event</text><polygon fill="#A80036" points="879,1287.8125,889,1291.8125,879,1295.8125" style="stroke:#A80036;stroke-width:1.0;"/><line style="stroke:#A80036;stroke-width:1.0;" x1="762.5" x2="885" y1="1291.8125" y2="1291.8125"/><text fill="#000000" font-family="sans-serif" font-size="13" lengthAdjust="spacing" textLength="64" x="769.5" y="1286.7466">send data</text><!--MD5=[c26e1a2270f4d0a6fed4af73eae96292]
@startuml
skinparam style strictuml
participant ProcessHistorian
== Initialization ==
activate ProcessHistorian
ProcessHistorian -> "[ConfigBuilder]\nConfigurator" as ConfigBuilder.Configurator ** : create
deactivate ProcessHistorian
activate ConfigBuilder.Configurator
ConfigBuilder.Configurator -> "[ConfigBuilder]\nSPARQLClient" as ConfigBuilder.SPARQLClient ** : create
ConfigBuilder.Configurator -> ConfigBuilder.SPARQLClient : fetch data
deactivate ConfigBuilder.Configurator
activate ConfigBuilder.SPARQLClient
ConfigBuilder.SPARQLClient -> ConfigBuilder.Configurator : return data
deactivate ConfigBuilder.SPARQLClient
activate ConfigBuilder.Configurator
ConfigBuilder.Configurator -> ConfigBuilder.Configurator : write config
ConfigBuilder.Configurator -> ConfigBuilder.SPARQLClient !! : delete
deactivate ConfigBuilder.Configurator
activate ProcessHistorian
ProcessHistorian -> ConfigBuilder.Configurator !! : delete

ProcessHistorian -> "[OPCUAClient]\nClient" as OPCUAClient.Client ** : create
activate OPCUAClient.Client
deactivate ProcessHistorian
OPCUAClient.Client -> "[OPCUAClient]\nSubscriptionHandler" as OPCUAClient.SubscriptionHandler ** : create
deactivate OPCUAClient.Client

activate ProcessHistorian
ProcessHistorian -> "[CloudBuffer]\nBuffer" as CloudBuffer.Buffer ** : create
activate CloudBuffer.Buffer
deactivate ProcessHistorian
CloudBuffer.Buffer -> "[CloudBuffer]\nInfluxDBClient" as CloudBuffer.InfluxDBClient ** : create
deactivate CloudBuffer.Buffer
...

== Polling ==

OPCUAClient.Client -> OPCUAClient.Client : timer event
activate OPCUAClient.Client
OPCUAClient.Client -> OPCUAClient.Client : poll data
OPCUAClient.Client -> ProcessHistorian : send data
activate ProcessHistorian
deactivate OPCUAClient.Client
ProcessHistorian -> CloudBuffer.Buffer : add data
activate CloudBuffer.Buffer
deactivate CloudBuffer.Buffer
deactivate ProcessHistorian
CloudBuffer.Buffer -> CloudBuffer.Buffer : timer event
activate CloudBuffer.Buffer
CloudBuffer.Buffer -> CloudBuffer.InfluxDBClient : send data
deactivate CloudBuffer.Buffer
...

== Subscription ==

OPCUAClient.SubscriptionHandler -> OPCUAClient.SubscriptionHandler : data incoming
activate OPCUAClient.SubscriptionHandler
OPCUAClient.SubscriptionHandler -> OPCUAClient.SubscriptionHandler : get data
OPCUAClient.SubscriptionHandler -> ProcessHistorian : send data
activate ProcessHistorian
deactivate OPCUAClient.SubscriptionHandler
ProcessHistorian -> CloudBuffer.Buffer : add data
activate CloudBuffer.Buffer
deactivate CloudBuffer.Buffer
deactivate ProcessHistorian
CloudBuffer.Buffer -> CloudBuffer.Buffer : timer event
activate CloudBuffer.Buffer
CloudBuffer.Buffer -> CloudBuffer.InfluxDBClient : send data
deactivate CloudBuffer.Buffer
...
@enduml

PlantUML version 1.2021.6beta6(Unknown compile time)
(GPL source distribution)
Java Runtime: Java(TM) SE Runtime Environment
JVM: Java HotSpot(TM) 64-Bit Server VM
Default Encoding: UTF-8
Language: en
Country: US
--></g></svg>