<?xml version="1.0" encoding="UTF-8" standalone="no"?><svg xmlns="http://www.w3.org/2000/svg" xmlns:xlink="http://www.w3.org/1999/xlink" contentScriptType="application/ecmascript" contentStyleType="text/css" height="1444px" preserveAspectRatio="none" style="width:961px;height:1444px;background:#FFFFFF;" version="1.1" viewBox="0 0 961 1444" width="961px" zoomAndPan="magnify"><defs/><g><rect fill="#FFFFFF" height="64.2656" style="stroke:#A80036;stroke-width:1.0;" width="10" x="66.5" y="62.5938"/><rect fill="#FFFFFF" height="58.2656" style="stroke:#A80036;stroke-width:1.0;" width="10" x="66.5" y="342.4453"/><rect fill="#FFFFFF" height="47.5938" style="stroke:#A80036;stroke-width:1.0;" width="10" x="66.5" y="510.4375"/><rect fill="#FFFFFF" height="68.7266" style="stroke:#A80036;stroke-width:1.0;" width="10" x="66.5" y="625.625"/><rect fill="#FFFFFF" height="89.1328" style="stroke:#A80036;stroke-width:1.0;" width="10" x="66.5" y="885.8828"/><rect fill="#FFFFFF" height="89.1328" style="stroke:#A80036;stroke-width:1.0;" width="10" x="66.5" y="1230.8125"/><rect fill="#FFFFFF" height="105.1875" style="stroke:#A80036;stroke-width:1.0;" width="10" x="203.5" y="136.8594"/><rect fill="#FFFFFF" height="71.2656" style="stroke:#A80036;stroke-width:1.0;" width="10" x="203.5" y="271.1797"/><rect fill="#FFFFFF" height="29.1328" style="stroke:#A80036;stroke-width:1.0;" width="10" x="334.5" y="242.0469"/><rect fill="#FFFFFF" height="89.7266" style="stroke:#A80036;stroke-width:1.0;" width="10" x="463" y="410.7109"/><rect fill="#FFFFFF" height="106.2656" style="stroke:#A80036;stroke-width:1.0;" width="10" x="463" y="809.6172"/><rect fill="#FFFFFF" height="106.2656" style="stroke:#A80036;stroke-width:1.0;" width="10" x="613" y="1154.5469"/><rect fill="#FFFFFF" height="47.5938" style="stroke:#A80036;stroke-width:1.0;" width="10" x="757.5" y="568.0313"/><rect fill="#FFFFFF" height="30" style="stroke:#A80036;stroke-width:1.0;" width="10" x="757.5" y="945.0156"/><rect fill="#FFFFFF" height="34.1328" style="stroke:#A80036;stroke-width:1.0;" width="10" x="757.5" y="1012.1484"/><rect fill="#FFFFFF" height="30" style="stroke:#A80036;stroke-width:1.0;" width="10" x="757.5" y="1289.9453"/><rect fill="#FFFFFF" height="34.1328" style="stroke:#A80036;stroke-width:1.0;" width="10" x="757.5" y="1357.0781"/><line style="stroke:#A80036;stroke-width:1.0;" x1="71" x2="71" y1="52.5938" y2="709.3516"/><line style="stroke:#A80036;stroke-width:1.0;stroke-dasharray:1.0,4.0;" x1="71" x2="71" y1="709.3516" y2="737.3516"/><line style="stroke:#A80036;stroke-width:1.0;" x1="71" x2="71" y1="737.3516" y2="1054.2813"/><line style="stroke:#A80036;stroke-width:1.0;stroke-dasharray:1.0,4.0;" x1="71" x2="71" y1="1054.2813" y2="1082.2813"/><line style="stroke:#A80036;stroke-width:1.0;" x1="71" x2="71" y1="1082.2813" y2="1399.2109"/><line style="stroke:#A80036;stroke-width:1.0;stroke-dasharray:1.0,4.0;" x1="71" x2="71" y1="1399.2109" y2="1427.2109"/><line style="stroke:#A80036;stroke-width:1.0;" x1="71" x2="71" y1="1427.2109" y2="1437.2109"/><line style="stroke:#A80036;stroke-width:1.0;" x1="208" x2="208" y1="144.5234" y2="709.3516"/><line style="stroke:#A80036;stroke-width:1.0;stroke-dasharray:1.0,4.0;" x1="208" x2="208" y1="709.3516" y2="737.3516"/><line style="stroke:#A80036;stroke-width:1.0;" x1="208" x2="208" y1="737.3516" y2="1054.2813"/><line style="stroke:#A80036;stroke-width:1.0;stroke-dasharray:1.0,4.0;" x1="208" x2="208" y1="1054.2813" y2="1082.2813"/><line style="stroke:#A80036;stroke-width:1.0;" x1="208" x2="208" y1="1082.2813" y2="1399.2109"/><line style="stroke:#A80036;stroke-width:1.0;stroke-dasharray:1.0,4.0;" x1="208" x2="208" y1="1399.2109" y2="1427.2109"/><line style="stroke:#A80036;stroke-width:1.0;" x1="208" x2="208" y1="1427.2109" y2="1437.2109"/><line style="stroke:#A80036;stroke-width:1.0;" x1="339" x2="339" y1="202.1172" y2="709.3516"/><line style="stroke:#A80036;stroke-width:1.0;stroke-dasharray:1.0,4.0;" x1="339" x2="339" y1="709.3516" y2="737.3516"/><line style="stroke:#A80036;stroke-width:1.0;" x1="339" x2="339" y1="737.3516" y2="1054.2813"/><line style="stroke:#A80036;stroke-width:1.0;stroke-dasharray:1.0,4.0;" x1="339" x2="339" y1="1054.2813" y2="1082.2813"/><line style="stroke:#A80036;stroke-width:1.0;" x1="339" x2="339" y1="1082.2813" y2="1399.2109"/><line style="stroke:#A80036;stroke-width:1.0;stroke-dasharray:1.0,4.0;" x1="339" x2="339" y1="1399.2109" y2="1427.2109"/><line style="stroke:#A80036;stroke-width:1.0;" x1="339" x2="339" y1="1427.2109" y2="1437.2109"/><line style="stroke:#A80036;stroke-width:1.0;" x1="468" x2="468" y1="418.375" y2="709.3516"/><line style="stroke:#A80036;stroke-width:1.0;stroke-dasharray:1.0,4.0;" x1="468" x2="468" y1="709.3516" y2="737.3516"/><line style="stroke:#A80036;stroke-width:1.0;" x1="468" x2="468" y1="737.3516" y2="1054.2813"/><line style="stroke:#A80036;stroke-width:1.0;stroke-dasharray:1.0,4.0;" x1="468" x2="468" y1="1054.2813" y2="1082.2813"/><line style="stroke:#A80036;stroke-width:1.0;" x1="468" x2="468" y1="1082.2813" y2="1399.2109"/><line style="stroke:#A80036;stroke-width:1.0;stroke-dasharray:1.0,4.0;" x1="468" x2="468" y1="1399.2109" y2="1427.2109"/><line style="stroke:#A80036;stroke-width:1.0;" x1="468" x2="468" y1="1427.2109" y2="1437.2109"/><line style="stroke:#A80036;stroke-width:1.0;" x1="618" x2="618" y1="518.1016" y2="709.3516"/><line style="stroke:#A80036;stroke-width:1.0;stroke-dasharray:1.0,4.0;" x1="618" x2="618" y1="709.3516" y2="737.3516"/><line style="stroke:#A80036;stroke-width:1.0;" x1="618" x2="618" y1="737.3516" y2="1054.2813"/><line style="stroke:#A80036;stroke-width:1.0;stroke-dasharray:1.0,4.0;" x1="618" x2="618" y1="1054.2813" y2="1082.2813"/><line style="stroke:#A80036;stroke-width:1.0;" x1="618" x2="618" y1="1082.2813" y2="1399.2109"/><line style="stroke:#A80036;stroke-width:1.0;stroke-dasharray:1.0,4.0;" x1="618" x2="618" y1="1399.2109" y2="1427.2109"/><line style="stroke:#A80036;stroke-width:1.0;" x1="618" x2="618" y1="1427.2109" y2="1437.2109"/><line style="stroke:#A80036;stroke-width:1.0;" x1="762" x2="762" y1="575.6953" y2="709.3516"/><line style="stroke:#A80036;stroke-width:1.0;stroke-dasharray:1.0,4.0;" x1="762" x2="762" y1="709.3516" y2="737.3516"/><line style="stroke:#A80036;stroke-width:1.0;" x1="762" x2="762" y1="737.3516" y2="1054.2813"/><line style="stroke:#A80036;stroke-width:1.0;stroke-dasharray:1.0,4.0;" x1="762" x2="762" y1="1054.2813" y2="1082.2813"/><line style="stroke:#A80036;stroke-width:1.0;" x1="762" x2="762" y1="1082.2813" y2="1399.2109"/><line style="stroke:#A80036;stroke-width:1.0;stroke-dasharray:1.0,4.0;" x1="762" x2="762" y1="1399.2109" y2="1427.2109"/><line style="stroke:#A80036;stroke-width:1.0;" x1="762" x2="762" y1="1427.2109" y2="1437.2109"/><line style="stroke:#A80036;stroke-width:1.0;" x1="890.5" x2="890.5" y1="633.2891" y2="709.3516"/><line style="stroke:#A80036;stroke-width:1.0;stroke-dasharray:1.0,4.0;" x1="890.5" x2="890.5" y1="709.3516" y2="737.3516"/><line style="stroke:#A80036;stroke-width:1.0;" x1="890.5" x2="890.5" y1="737.3516" y2="1054.2813"/><line style="stroke:#A80036;stroke-width:1.0;stroke-dasharray:1.0,4.0;" x1="890.5" x2="890.5" y1="1054.2813" y2="1082.2813"/><line style="stroke:#A80036;stroke-width:1.0;" x1="890.5" x2="890.5" y1="1082.2813" y2="1399.2109"/><line style="stroke:#A80036;stroke-width:1.0;stroke-dasharray:1.0,4.0;" x1="890.5" x2="890.5" y1="1399.2109" y2="1427.2109"/><line style="stroke:#A80036;stroke-width:1.0;" x1="890.5" x2="890.5" y1="1427.2109" y2="1437.2109"/><rect fill="#FEFECE" height="30.2969" style="stroke:#A80036;stroke-width:1.5;" width="133" x="5" y="21.2969"/><text fill="#000000" font-family="sans-serif" font-size="14" lengthAdjust="spacing" textLength="119" x="12" y="41.292">ProcessHistorian</text><rect fill="#FFFFFF" height="64.2656" style="stroke:#A80036;stroke-width:1.0;" width="10" x="66.5" y="62.5938"/><rect fill="#FFFFFF" height="58.2656" style="stroke:#A80036;stroke-width:1.0;" width="10" x="66.5" y="342.4453"/><rect fill="#FFFFFF" height="47.5938" style="stroke:#A80036;stroke-width:1.0;" width="10" x="66.5" y="510.4375"/><rect fill="#FFFFFF" height="68.7266" style="stroke:#A80036;stroke-width:1.0;" width="10" x="66.5" y="625.625"/><rect fill="#FFFFFF" height="89.1328" style="stroke:#A80036;stroke-width:1.0;" width="10" x="66.5" y="885.8828"/><rect fill="#FFFFFF" height="89.1328" style="stroke:#A80036;stroke-width:1.0;" width="10" x="66.5" y="1230.8125"/><rect fill="#FFFFFF" height="105.1875" style="stroke:#A80036;stroke-width:1.0;" width="10" x="203.5" y="136.8594"/><rect fill="#FFFFFF" height="71.2656" style="stroke:#A80036;stroke-width:1.0;" width="10" x="203.5" y="271.1797"/><rect fill="#FFFFFF" height="29.1328" style="stroke:#A80036;stroke-width:1.0;" width="10" x="334.5" y="242.0469"/><rect fill="#FFFFFF" height="89.7266" style="stroke:#A80036;stroke-width:1.0;" width="10" x="463" y="410.7109"/><rect fill="#FFFFFF" height="106.2656" style="stroke:#A80036;stroke-width:1.0;" width="10" x="463" y="809.6172"/><rect fill="#FFFFFF" height="106.2656" style="stroke:#A80036;stroke-width:1.0;" width="10" x="613" y="1154.5469"/><rect fill="#FFFFFF" height="47.5938" style="stroke:#A80036;stroke-width:1.0;" width="10" x="757.5" y="568.0313"/><rect fill="#FFFFFF" height="30" style="stroke:#A80036;stroke-width:1.0;" width="10" x="757.5" y="945.0156"/><rect fill="#FFFFFF" height="34.1328" style="stroke:#A80036;stroke-width:1.0;" width="10" x="757.5" y="1012.1484"/><rect fill="#FFFFFF" height="30" style="stroke:#A80036;stroke-width:1.0;" width="10" x="757.5" y="1289.9453"/><rect fill="#FFFFFF" height="34.1328" style="stroke:#A80036;stroke-width:1.0;" width="10" x="757.5" y="1357.0781"/><rect fill="#EEEEEE" height="3" style="stroke:#EEEEEE;stroke-width:1.0;" width="954.5" x="0" y="83.1602"/><line style="stroke:#000000;stroke-width:1.0;" x1="0" x2="954.5" y1="83.1602" y2="83.1602"/><line style="stroke:#000000;stroke-width:1.0;" x1="0" x2="954.5" y1="86.1602" y2="86.1602"/><rect fill="#EEEEEE" height="23.1328" style="stroke:#000000;stroke-width:2.0;" width="114" x="420.25" y="72.5938"/><text fill="#000000" font-family="sans-serif" font-size="13" font-weight="bold" lengthAdjust="spacing" textLength="95" x="426.25" y="88.6606">Initialization</text><polygon fill="#A80036" points="136,122.8594,146,126.8594,136,130.8594" style="stroke:#A80036;stroke-width:1.0;"/><line style="stroke:#A80036;stroke-width:1.0;" x1="71.5" x2="142" y1="126.8594" y2="126.8594"/><text fill="#000000" font-family="sans-serif" font-size="13" lengthAdjust="spacing" textLength="41" x="78.5" y="121.7935">create</text><rect fill="#FEFECE" height="46.5938" style="stroke:#A80036;stroke-width:1.5;" width="121" x="148" y="105.7266"/><text fill="#000000" font-family="sans-serif" font-size="14" lengthAdjust="spacing" textLength="107" x="155" y="125.7217">[ConfigBuilder]</text><text fill="#000000" font-family="sans-serif" font-size="14" lengthAdjust="spacing" textLength="91" x="163" y="142.0186">Configurator</text><polygon fill="#A80036" points="267,180.4531,277,184.4531,267,188.4531" style="stroke:#A80036;stroke-width:1.0;"/><line style="stroke:#A80036;stroke-width:1.0;" x1="213.5" x2="273" y1="184.4531" y2="184.4531"/><text fill="#000000" font-family="sans-serif" font-size="13" lengthAdjust="spacing" textLength="41" x="220.5" y="179.3872">create</text><rect fill="#FEFECE" height="46.5938" style="stroke:#A80036;stroke-width:1.5;" width="121" x="279" y="163.3203"/><text fill="#000000" font-family="sans-serif" font-size="14" lengthAdjust="spacing" textLength="107" x="286" y="183.3154">[ConfigBuilder]</text><text fill="#000000" font-family="sans-serif" font-size="14" lengthAdjust="spacing" textLength="100" x="289.5" y="199.6123">SPARQLClient</text><polygon fill="#A80036" points="322.5,238.0469,332.5,242.0469,322.5,246.0469" style="stroke:#A80036;stroke-width:1.0;"/><line style="stroke:#A80036;stroke-width:1.0;" x1="208.5" x2="328.5" y1="242.0469" y2="242.0469"/><text fill="#000000" font-family="sans-serif" font-size="13" lengthAdjust="spacing" textLength="66" x="215.5" y="236.981">fetch data</text><polygon fill="#A80036" points="224.5,267.1797,214.5,271.1797,224.5,275.1797" style="stroke:#A80036;stroke-width:1.0;"/><line style="stroke:#A80036;stroke-width:1.0;" x1="218.5" x2="338.5" y1="271.1797" y2="271.1797"/><text fill="#000000" font-family="sans-serif" font-size="13" lengthAdjust="spacing" textLength="72" x="230.5" y="266.1138">return data</text><line style="stroke:#A80036;stroke-width:1.0;" x1="213.5" x2="255.5" y1="300.3125" y2="300.3125"/><line style="stroke:#A80036;stroke-width:1.0;" x1="255.5" x2="255.5" y1="300.3125" y2="313.3125"/><line style="stroke:#A80036;stroke-width:1.0;" x1="214.5" x2="255.5" y1="313.3125" y2="313.3125"/><polygon fill="#A80036" points="224.5,309.3125,214.5,313.3125,224.5,317.3125" style="stroke:#A80036;stroke-width:1.0;"/><text fill="#000000" font-family="sans-serif" font-size="13" lengthAdjust="spacing" textLength="75" x="220.5" y="295.2466">write config</text><polygon fill="#A80036" points="327.5,338.4453,337.5,342.4453,327.5,346.4453" style="stroke:#A80036;stroke-width:1.0;"/><line style="stroke:#A80036;stroke-width:1.0;" x1="208.5" x2="333.5" y1="342.4453" y2="342.4453"/><text fill="#000000" font-family="sans-serif" font-size="13" lengthAdjust="spacing" textLength="40" x="215.5" y="337.3794">delete</text><line style="stroke:#A80036;stroke-width:2.0;" x1="330.5" x2="348.5" y1="333.4453" y2="351.4453"/><line style="stroke:#A80036;stroke-width:2.0;" x1="330.5" x2="348.5" y1="351.4453" y2="333.4453"/><polygon fill="#A80036" points="196.5,367.5781,206.5,371.5781,196.5,375.5781" style="stroke:#A80036;stroke-width:1.0;"/><line style="stroke:#A80036;stroke-width:1.0;" x1="76.5" x2="202.5" y1="371.5781" y2="371.5781"/><text fill="#000000" font-family="sans-serif" font-size="13" lengthAdjust="spacing" textLength="40" x="83.5" y="366.5122">delete</text><line style="stroke:#A80036;stroke-width:2.0;" x1="199.5" x2="217.5" y1="362.5781" y2="380.5781"/><line style="stroke:#A80036;stroke-width:2.0;" x1="199.5" x2="217.5" y1="380.5781" y2="362.5781"/><polygon fill="#A80036" points="398,396.7109,408,400.7109,398,404.7109" style="stroke:#A80036;stroke-width:1.0;"/><line style="stroke:#A80036;stroke-width:1.0;" x1="71.5" x2="404" y1="400.7109" y2="400.7109"/><text fill="#000000" font-family="sans-serif" font-size="13" lengthAdjust="spacing" textLength="41" x="78.5" y="395.645">create</text><rect fill="#FEFECE" height="46.5938" style="stroke:#A80036;stroke-width:1.5;" width="116" x="410" y="379.5781"/><text fill="#000000" font-family="sans-serif" font-size="14" lengthAdjust="spacing" textLength="102" x="417" y="399.5732">[OPCUAClient]</text><text fill="#000000" font-family="sans-serif" font-size="14" lengthAdjust="spacing" textLength="43" x="446.5" y="415.8701">Client</text><line style="stroke:#A80036;stroke-width:1.0;" x1="473" x2="515" y1="458.3047" y2="458.3047"/><line style="stroke:#A80036;stroke-width:1.0;" x1="515" x2="515" y1="458.3047" y2="471.3047"/><line style="stroke:#A80036;stroke-width:1.0;" x1="474" x2="515" y1="471.3047" y2="471.3047"/><polygon fill="#A80036" points="484,467.3047,474,471.3047,484,475.3047" style="stroke:#A80036;stroke-width:1.0;"/><text fill="#000000" font-family="sans-serif" font-size="13" lengthAdjust="spacing" textLength="79" x="480" y="453.2388">parse config</text><polygon fill="#A80036" points="526,496.4375,536,500.4375,526,504.4375" style="stroke:#A80036;stroke-width:1.0;"/><line style="stroke:#A80036;stroke-width:1.0;" x1="468" x2="532" y1="500.4375" y2="500.4375"/><text fill="#000000" font-family="sans-serif" font-size="13" lengthAdjust="spacing" textLength="41" x="475" y="495.3716">create</text><rect fill="#FEFECE" height="46.5938" style="stroke:#A80036;stroke-width:1.5;" width="160" x="538" y="479.3047"/><text fill="#000000" font-family="sans-serif" font-size="14" lengthAdjust="spacing" textLength="102" x="567" y="499.2998">[OPCUAClient]</text><text fill="#000000" font-family="sans-serif" font-size="14" lengthAdjust="spacing" textLength="146" x="545" y="515.5967">SubscriptionHandler</text><polygon fill="#A80036" points="696,554.0313,706,558.0313,696,562.0313" style="stroke:#A80036;stroke-width:1.0;"/><line style="stroke:#A80036;stroke-width:1.0;" x1="71.5" x2="702" y1="558.0313" y2="558.0313"/><text fill="#000000" font-family="sans-serif" font-size="13" lengthAdjust="spacing" textLength="41" x="78.5" y="552.9653">create</text><rect fill="#FEFECE" height="46.5938" style="stroke:#A80036;stroke-width:1.5;" width="109" x="708" y="536.8984"/><text fill="#000000" font-family="sans-serif" font-size="14" lengthAdjust="spacing" textLength="95" x="715" y="556.8936">[CloudBuffer]</text><text fill="#000000" font-family="sans-serif" font-size="14" lengthAdjust="spacing" textLength="45" x="740" y="573.1904">Buffer</text><polygon fill="#A80036" points="820.5,611.625,830.5,615.625,820.5,619.625" style="stroke:#A80036;stroke-width:1.0;"/><line style="stroke:#A80036;stroke-width:1.0;" x1="762.5" x2="826.5" y1="615.625" y2="615.625"/><text fill="#000000" font-family="sans-serif" font-size="13" lengthAdjust="spacing" textLength="41" x="769.5" y="610.5591">create</text><rect fill="#FEFECE" height="46.5938" style="stroke:#A80036;stroke-width:1.5;" width="117" x="832.5" y="594.4922"/><text fill="#000000" font-family="sans-serif" font-size="14" lengthAdjust="spacing" textLength="95" x="843.5" y="614.4873">[CloudBuffer]</text><text fill="#000000" font-family="sans-serif" font-size="14" lengthAdjust="spacing" textLength="103" x="839.5" y="630.7842">InfluxDBClient</text><line style="stroke:#A80036;stroke-width:1.0;" x1="76.5" x2="118.5" y1="693.3516" y2="693.3516"/><line style="stroke:#A80036;stroke-width:1.0;" x1="118.5" x2="118.5" y1="693.3516" y2="706.3516"/><line style="stroke:#A80036;stroke-width:1.0;" x1="71.5" x2="118.5" y1="706.3516" y2="706.3516"/><polygon fill="#A80036" points="81.5,702.3516,71.5,706.3516,81.5,710.3516" style="stroke:#A80036;stroke-width:1.0;"/><text fill="#000000" font-family="sans-serif" font-size="13" lengthAdjust="spacing" textLength="89" x="83.5" y="673.1528">create worker</text><text fill="#000000" font-family="sans-serif" font-size="13" lengthAdjust="spacing" textLength="49" x="83.5" y="688.2856">threads</text><rect fill="#EEEEEE" height="3" style="stroke:#EEEEEE;stroke-width:1.0;" width="954.5" x="0" y="757.918"/><line style="stroke:#000000;stroke-width:1.0;" x1="0" x2="954.5" y1="757.918" y2="757.918"/><line style="stroke:#000000;stroke-width:1.0;" x1="0" x2="954.5" y1="760.918" y2="760.918"/><rect fill="#EEEEEE" height="23.1328" style="stroke:#000000;stroke-width:2.0;" width="69" x="442.75" y="747.3516"/><text fill="#000000" font-family="sans-serif" font-size="13" font-weight="bold" lengthAdjust="spacing" textLength="50" x="448.75" y="763.4185">Polling</text><line style="stroke:#A80036;stroke-width:1.0;" x1="468" x2="515" y1="796.6172" y2="796.6172"/><line style="stroke:#A80036;stroke-width:1.0;" x1="515" x2="515" y1="796.6172" y2="809.6172"/><line style="stroke:#A80036;stroke-width:1.0;" x1="474" x2="515" y1="809.6172" y2="809.6172"/><polygon fill="#A80036" points="484,805.6172,474,809.6172,484,813.6172" style="stroke:#A80036;stroke-width:1.0;"/><text fill="#000000" font-family="sans-serif" font-size="13" lengthAdjust="spacing" textLength="75" x="480" y="791.5513">timer event</text><line style="stroke:#A80036;stroke-width:1.0;" x1="473" x2="515" y1="843.75" y2="843.75"/><line style="stroke:#A80036;stroke-width:1.0;" x1="515" x2="515" y1="843.75" y2="856.75"/><line style="stroke:#A80036;stroke-width:1.0;" x1="474" x2="515" y1="856.75" y2="856.75"/><polygon fill="#A80036" points="484,852.75,474,856.75,484,860.75" style="stroke:#A80036;stroke-width:1.0;"/><text fill="#000000" font-family="sans-serif" font-size="13" lengthAdjust="spacing" textLength="55" x="480" y="838.6841">poll data</text><polygon fill="#A80036" points="87.5,881.8828,77.5,885.8828,87.5,889.8828" style="stroke:#A80036;stroke-width:1.0;"/><line style="stroke:#A80036;stroke-width:1.0;" x1="81.5" x2="462" y1="885.8828" y2="885.8828"/><text fill="#000000" font-family="sans-serif" font-size="13" lengthAdjust="spacing" textLength="64" x="93.5" y="880.8169">send data</text><polygon fill="#A80036" points="745.5,941.0156,755.5,945.0156,745.5,949.0156" style="stroke:#A80036;stroke-width:1.0;"/><line style="stroke:#A80036;stroke-width:1.0;" x1="76.5" x2="751.5" y1="945.0156" y2="945.0156"/><text fill="#000000" font-family="sans-serif" font-size="13" lengthAdjust="spacing" textLength="57" x="83.5" y="939.9497">add data</text><line style="stroke:#A80036;stroke-width:1.0;" x1="762.5" x2="809.5" y1="999.1484" y2="999.1484"/><line style="stroke:#A80036;stroke-width:1.0;" x1="809.5" x2="809.5" y1="999.1484" y2="1012.1484"/><line style="stroke:#A80036;stroke-width:1.0;" x1="768.5" x2="809.5" y1="1012.1484" y2="1012.1484"/><polygon fill="#A80036" points="778.5,1008.1484,768.5,1012.1484,778.5,1016.1484" style="stroke:#A80036;stroke-width:1.0;"/><text fill="#000000" font-family="sans-serif" font-size="13" lengthAdjust="spacing" textLength="75" x="774.5" y="994.0825">timer event</text><polygon fill="#A80036" points="879,1042.2813,889,1046.2813,879,1050.2813" style="stroke:#A80036;stroke-width:1.0;"/><line style="stroke:#A80036;stroke-width:1.0;" x1="762.5" x2="885" y1="1046.2813" y2="1046.2813"/><text fill="#000000" font-family="sans-serif" font-size="13" lengthAdjust="spacing" textLength="64" x="769.5" y="1041.2153">send data</text><rect fill="#EEEEEE" height="3" style="stroke:#EEEEEE;stroke-width:1.0;" width="954.5" x="0" y="1102.8477"/><line style="stroke:#000000;stroke-width:1.0;" x1="0" x2="954.5" y1="1102.8477" y2="1102.8477"/><line style="stroke:#000000;stroke-width:1.0;" x1="0" x2="954.5" y1="1105.8477" y2="1105.8477"/><rect fill="#EEEEEE" height="23.1328" style="stroke:#000000;stroke-width:2.0;" width="113" x="420.75" y="1092.2813"/><text fill="#000000" font-family="sans-serif" font-size="13" font-weight="bold" lengthAdjust="spacing" textLength="94" x="426.75" y="1108.3481">Subscription</text><line style="stroke:#A80036;stroke-width:1.0;" x1="618" x2="665" y1="1141.5469" y2="1141.5469"/><line style="stroke:#A80036;stroke-width:1.0;" x1="665" x2="665" y1="1141.5469" y2="1154.5469"/><line style="stroke:#A80036;stroke-width:1.0;" x1="624" x2="665" y1="1154.5469" y2="1154.5469"/><polygon fill="#A80036" points="634,1150.5469,624,1154.5469,634,1158.5469" style="stroke:#A80036;stroke-width:1.0;"/><text fill="#000000" font-family="sans-serif" font-size="13" lengthAdjust="spacing" textLength="91" x="630" y="1136.481">data incoming</text><line style="stroke:#A80036;stroke-width:1.0;" x1="623" x2="665" y1="1188.6797" y2="1188.6797"/><line style="stroke:#A80036;stroke-width:1.0;" x1="665" x2="665" y1="1188.6797" y2="1201.6797"/><line style="stroke:#A80036;stroke-width:1.0;" x1="624" x2="665" y1="1201.6797" y2="1201.6797"/><polygon fill="#A80036" points="634,1197.6797,624,1201.6797,634,1205.6797" style="stroke:#A80036;stroke-width:1.0;"/><text fill="#000000" font-family="sans-serif" font-size="13" lengthAdjust="spacing" textLength="54" x="630" y="1183.6138">get data</text><polygon fill="#A80036" points="87.5,1226.8125,77.5,1230.8125,87.5,1234.8125" style="stroke:#A80036;stroke-width:1.0;"/><line style="stroke:#A80036;stroke-width:1.0;" x1="81.5" x2="612" y1="1230.8125" y2="1230.8125"/><text fill="#000000" font-family="sans-serif" font-size="13" lengthAdjust="spacing" textLength="64" x="93.5" y="1225.7466">send data</text><polygon fill="#A80036" points="745.5,1285.9453,755.5,1289.9453,745.5,1293.9453" style="stroke:#A80036;stroke-width:1.0;"/><line style="stroke:#A80036;stroke-width:1.0;" x1="76.5" x2="751.5" y1="1289.9453" y2="1289.9453"/><text fill="#000000" font-family="sans-serif" font-size="13" lengthAdjust="spacing" textLength="57" x="83.5" y="1284.8794">add data</text><line style="stroke:#A80036;stroke-width:1.0;" x1="762.5" x2="809.5" y1="1344.0781" y2="1344.0781"/><line style="stroke:#A80036;stroke-width:1.0;" x1="809.5" x2="809.5" y1="1344.0781" y2="1357.0781"/><line style="stroke:#A80036;stroke-width:1.0;" x1="768.5" x2="809.5" y1="1357.0781" y2="1357.0781"/><polygon fill="#A80036" points="778.5,1353.0781,768.5,1357.0781,778.5,1361.0781" style="stroke:#A80036;stroke-width:1.0;"/><text fill="#000000" font-family="sans-serif" font-size="13" lengthAdjust="spacing" textLength="75" x="774.5" y="1339.0122">timer event</text><polygon fill="#A80036" points="879,1387.2109,889,1391.2109,879,1395.2109" style="stroke:#A80036;stroke-width:1.0;"/><line style="stroke:#A80036;stroke-width:1.0;" x1="762.5" x2="885" y1="1391.2109" y2="1391.2109"/><text fill="#000000" font-family="sans-serif" font-size="13" lengthAdjust="spacing" textLength="64" x="769.5" y="1386.145">send data</text><!--MD5=[3aab359861a7020ed027c288dc89736f]
@startuml
skinparam style strictuml
participant ProcessHistorian
== Initialization ==
activate ProcessHistorian
ProcessHistorian -> "[ConfigBuilder]\nConfigurator" as ConfigBuilder.Configurator ** : create
deactivate ProcessHistorian
activate ConfigBuilder.Configurator
ConfigBuilder.Configurator -> "[ConfigBuilder]\nSPARQLClient" as ConfigBuilder.SPARQLClient ** : create
ConfigBuilder.Configurator -> ConfigBuilder.SPARQLClient : fetch data
deactivate ConfigBuilder.Configurator
activate ConfigBuilder.SPARQLClient
ConfigBuilder.SPARQLClient -> ConfigBuilder.Configurator : return data
deactivate ConfigBuilder.SPARQLClient
activate ConfigBuilder.Configurator
ConfigBuilder.Configurator -> ConfigBuilder.Configurator : write config
ConfigBuilder.Configurator -> ConfigBuilder.SPARQLClient !! : delete
deactivate ConfigBuilder.Configurator
activate ProcessHistorian
ProcessHistorian -> ConfigBuilder.Configurator !! : delete

ProcessHistorian -> "[OPCUAClient]\nClient" as OPCUAClient.Client ** : create
activate OPCUAClient.Client
deactivate ProcessHistorian
OPCUAClient.Client -> OPCUAClient.Client : parse config
OPCUAClient.Client -> "[OPCUAClient]\nSubscriptionHandler" as OPCUAClient.SubscriptionHandler ** : create
deactivate OPCUAClient.Client

activate ProcessHistorian
ProcessHistorian -> "[CloudBuffer]\nBuffer" as CloudBuffer.Buffer ** : create
activate CloudBuffer.Buffer
deactivate ProcessHistorian
CloudBuffer.Buffer -> "[CloudBuffer]\nInfluxDBClient" as CloudBuffer.InfluxDBClient ** : create
deactivate CloudBuffer.Buffer
activate ProcessHistorian
ProcessHistorian -> ProcessHistorian : create worker\nthreads
deactivate ProcessHistorian
...

== Polling ==

OPCUAClient.Client -> OPCUAClient.Client : timer event
activate OPCUAClient.Client
OPCUAClient.Client -> OPCUAClient.Client : poll data
OPCUAClient.Client -> ProcessHistorian : send data
activate ProcessHistorian
deactivate OPCUAClient.Client
ProcessHistorian -> CloudBuffer.Buffer : add data
activate CloudBuffer.Buffer
deactivate CloudBuffer.Buffer
deactivate ProcessHistorian
CloudBuffer.Buffer -> CloudBuffer.Buffer : timer event
activate CloudBuffer.Buffer
CloudBuffer.Buffer -> CloudBuffer.InfluxDBClient : send data
deactivate CloudBuffer.Buffer
...

== Subscription ==

OPCUAClient.SubscriptionHandler -> OPCUAClient.SubscriptionHandler : data incoming
activate OPCUAClient.SubscriptionHandler
OPCUAClient.SubscriptionHandler -> OPCUAClient.SubscriptionHandler : get data
OPCUAClient.SubscriptionHandler -> ProcessHistorian : send data
activate ProcessHistorian
deactivate OPCUAClient.SubscriptionHandler
ProcessHistorian -> CloudBuffer.Buffer : add data
activate CloudBuffer.Buffer
deactivate CloudBuffer.Buffer
deactivate ProcessHistorian
CloudBuffer.Buffer -> CloudBuffer.Buffer : timer event
activate CloudBuffer.Buffer
CloudBuffer.Buffer -> CloudBuffer.InfluxDBClient : send data
deactivate CloudBuffer.Buffer
...
@enduml

PlantUML version 1.2021.9beta2(Unknown compile time)
(GPL source distribution)
Java Runtime: Java(TM) SE Runtime Environment
JVM: Java HotSpot(TM) 64-Bit Server VM
Default Encoding: UTF-8
Language: en
Country: US
--></g></svg>