<?xml version="1.0" encoding="UTF-8" standalone="no"?><svg xmlns="http://www.w3.org/2000/svg" xmlns:xlink="http://www.w3.org/1999/xlink" contentScriptType="application/ecmascript" contentStyleType="text/css" height="542px" preserveAspectRatio="none" style="width:346px;height:542px;background:#FFFFFF;" version="1.1" viewBox="0 0 346 542" width="346px" zoomAndPan="magnify"><defs><filter height="300%" id="f6f8sxa5jp14y" width="300%" x="-1" y="-1"><feGaussianBlur result="blurOut" stdDeviation="2.0"/><feColorMatrix in="blurOut" result="blurOut2" type="matrix" values="0 0 0 0 0 0 0 0 0 0 0 0 0 0 0 0 0 0 .4 0"/><feOffset dx="4.0" dy="4.0" in="blurOut2" result="blurOut3"/><feBlend in="SourceGraphic" in2="blurOut3" mode="normal"/></filter></defs><g><!--MD5=[b4ea4ac65443f434db33e66d03052cfe]
cluster InfluxDB Server--><polygon fill="#FFFFFF" filter="url(#f6f8sxa5jp14y)" points="137.5,267,267.5,267,274.5,289.2969,305.5,289.2969,305.5,350,137.5,350,137.5,267" style="stroke:#000000;stroke-width:1.5;"/><line style="stroke:#000000;stroke-width:1.5;" x1="137.5" x2="274.5" y1="289.2969" y2="289.2969"/><text fill="#000000" font-family="sans-serif" font-size="14" font-weight="bold" lengthAdjust="spacing" textLength="124" x="141.5" y="281.9951">InfluxDB Server</text><!--MD5=[6388e1a0d028400310670bd3eeb67932]
cluster Grafana--><polygon fill="#FFFFFF" filter="url(#f6f8sxa5jp14y)" points="114,374,186,374,193,396.2969,329,396.2969,329,535,114,535,114,374" style="stroke:#000000;stroke-width:1.5;"/><line style="stroke:#000000;stroke-width:1.5;" x1="114" x2="193" y1="396.2969" y2="396.2969"/><text fill="#000000" font-family="sans-serif" font-size="14" font-weight="bold" lengthAdjust="spacing" textLength="66" x="118" y="388.9951">Grafana</text><!--MD5=[c51be47e211a9edb689bdcaea21e3370]
cluster Program--><polygon fill="#FFFFFF" filter="url(#f6f8sxa5jp14y)" points="114,6,189,6,196,28.2969,329,28.2969,329,243,114,243,114,6" style="stroke:#000000;stroke-width:1.5;"/><line style="stroke:#000000;stroke-width:1.5;" x1="114" x2="196" y1="28.2969" y2="28.2969"/><text fill="#000000" font-family="sans-serif" font-size="14" font-weight="bold" lengthAdjust="spacing" textLength="69" x="118" y="20.9951">Program</text><ellipse cx="221.74" cy="318.048" fill="#FEFECE" filter="url(#f6f8sxa5jp14y)" rx="68.24" ry="16.048" style="stroke:#A80036;stroke-width:1.5;"/><text fill="#000000" font-family="sans-serif" font-size="14" lengthAdjust="spacing" textLength="88" x="174.74" y="321.7956">Start Server</text><ellipse cx="221.5529" cy="426.2106" fill="#FEFECE" filter="url(#f6f8sxa5jp14y)" rx="71.5529" ry="16.7106" style="stroke:#A80036;stroke-width:1.5;"/><text fill="#000000" font-family="sans-serif" font-size="14" lengthAdjust="spacing" textLength="97" x="170.0529" y="429.9581">Start Grafana</text><ellipse cx="221.4431" cy="498.1886" fill="#FEFECE" filter="url(#f6f8sxa5jp14y)" rx="91.4431" ry="20.6886" style="stroke:#A80036;stroke-width:1.5;"/><text fill="#000000" font-family="sans-serif" font-size="14" lengthAdjust="spacing" textLength="145" x="148.9431" y="501.0353">Add InfluxDB Source</text><ellipse cx="221.4431" cy="62.1886" fill="#FEFECE" filter="url(#f6f8sxa5jp14y)" rx="91.4431" ry="20.6886" style="stroke:#A80036;stroke-width:1.5;"/><text fill="#000000" font-family="sans-serif" font-size="14" lengthAdjust="spacing" textLength="145" x="148.9431" y="65.0353">Edit Program Config</text><ellipse cx="221.4128" cy="137.9826" fill="#FEFECE" filter="url(#f6f8sxa5jp14y)" rx="87.9128" ry="19.9826" style="stroke:#A80036;stroke-width:1.5;"/><text fill="#000000" font-family="sans-serif" font-size="14" lengthAdjust="spacing" textLength="137" x="152.9128" y="140.8292">Edit OPC UA Config</text><ellipse cx="221.4504" cy="210.0901" fill="#FEFECE" filter="url(#f6f8sxa5jp14y)" rx="73.4504" ry="17.0901" style="stroke:#A80036;stroke-width:1.5;"/><text fill="#000000" font-family="sans-serif" font-size="14" lengthAdjust="spacing" textLength="102" x="167.4504" y="213.8376">Start Program</text><!--MD5=[e32773a0da76c445e84e5885468a4484]
entity e--><ellipse cx="38" cy="395" fill="#FEFECE" filter="url(#f6f8sxa5jp14y)" rx="8" ry="8" style="stroke:#A80036;stroke-width:1.5;"/><path d="M38,403 L38,430 M25,411 L51,411 M38,430 L25,445 M38,430 L51,445 " fill="none" filter="url(#f6f8sxa5jp14y)" style="stroke:#A80036;stroke-width:1.5;"/><text fill="#000000" font-family="sans-serif" font-size="14" lengthAdjust="spacing" textLength="64" x="6" y="463.4951">Engineer</text><!--MD5=[7d46d6cd919e02e6168a09ad91eae8b4]
entity u--><ellipse cx="38" cy="107" fill="#FEFECE" filter="url(#f6f8sxa5jp14y)" rx="8" ry="8" style="stroke:#A80036;stroke-width:1.5;"/><path d="M38,115 L38,142 M25,123 L51,123 M38,142 L25,157 M38,142 L51,157 " fill="none" filter="url(#f6f8sxa5jp14y)" style="stroke:#A80036;stroke-width:1.5;"/><text fill="#000000" font-family="sans-serif" font-size="14" lengthAdjust="spacing" textLength="31" x="22.5" y="175.4951">User</text><!--MD5=[d0a5024b357cfb2e48db04c4bf817d2b]
link e to starti--><path d="M70.201,407.434 C104.1508,387.233 158.008,355.185 191.194,335.438 " fill="none" id="e-to-starti" style="stroke:#A80036;stroke-width:1.0;"/><polygon fill="#A80036" points="195.535,332.855,185.7553,334.02,191.2382,335.4119,189.8464,340.8949,195.535,332.855" style="stroke:#A80036;stroke-width:1.0;"/><!--MD5=[1772fe98388576d7f3853dd611acda63]
link e to startg--><path d="M70.201,426 C90.7253,426 118.525,426 144.635,426 " fill="none" id="e-to-startg" style="stroke:#A80036;stroke-width:1.0;"/><polygon fill="#A80036" points="149.832,426,140.832,422,144.832,426,140.832,430,149.832,426" style="stroke:#A80036;stroke-width:1.0;"/><!--MD5=[ff75bcdac03220ad4a2fc8098bf4b2f4]
link e to confi--><path d="M70.2412,443.071 C81.3606,448.82 94.081,455.0305 106,460 C123.494,467.2937 142.927,474.1792 160.742,480.0336 " fill="none" id="e-to-confi" style="stroke:#A80036;stroke-width:1.0;"/><polygon fill="#A80036" points="165.721,481.657,158.4044,475.0641,160.9673,480.107,155.9244,482.67,165.721,481.657" style="stroke:#A80036;stroke-width:1.0;"/><!--MD5=[273cf80e97865a4ede1bf878d5352fe5]
link u to editp--><path d="M53.7303,128.531 C67.0229,120.259 87.303,108.309 106,100 C123.058,92.42 142.115,85.512 159.713,79.727 " fill="none" id="u-to-editp" style="stroke:#A80036;stroke-width:1.0;"/><polygon fill="#A80036" points="164.635,78.126,154.8391,77.1065,159.8803,79.6728,157.314,84.714,164.635,78.126" style="stroke:#A80036;stroke-width:1.0;"/><!--MD5=[e6124091aee92dcc81f2300fb65adce0]
link u to edito--><path d="M53.5461,138 C70.2452,138 99.0933,138 128.159,138 " fill="none" id="u-to-edito" style="stroke:#A80036;stroke-width:1.0;"/><polygon fill="#A80036" points="133.203,138,124.203,134,128.203,138,124.203,142,133.203,138" style="stroke:#A80036;stroke-width:1.0;"/><!--MD5=[1e3eef9f5b9d6d36c2bd1192cb07947a]
link u to startp--><path d="M53.7188,147.299 C67.0038,155.404 87.2794,167.072 106,175 C125.322,183.183 147.209,190.355 166.634,196.04 " fill="none" id="u-to-startp" style="stroke:#A80036;stroke-width:1.0;"/><polygon fill="#A80036" points="171.516,197.453,163.9828,191.1087,166.7131,196.063,161.7588,198.7933,171.516,197.453" style="stroke:#A80036;stroke-width:1.0;"/><!--MD5=[2a42deddc035ce7a1d40c137f3914527]
@startuml
left to right direction
actor Engineer as e
actor User as u
package "InfluxDB Server" {
  usecase "Start Server" as starti
}
package "Grafana" {
  usecase "Start Grafana" as startg
  usecase "Add InfluxDB Source" as confi
}
package Program {
  usecase "Edit Program Config" as editp
  usecase "Edit OPC UA Config" as edito
  usecase "Start Program" as startp
}
e - -> starti
e - -> startg
e - -> confi
u - -> editp
u - -> edito
u - -> startp
@enduml

PlantUML version 1.2021.6beta6(Unknown compile time)
(GPL source distribution)
Java Runtime: Java(TM) SE Runtime Environment
JVM: Java HotSpot(TM) 64-Bit Server VM
Default Encoding: UTF-8
Language: en
Country: US
--></g></svg>