<?xml version="1.0" encoding="UTF-8" standalone="no"?><svg xmlns="http://www.w3.org/2000/svg" xmlns:xlink="http://www.w3.org/1999/xlink" contentScriptType="application/ecmascript" contentStyleType="text/css" height="108px" preserveAspectRatio="none" style="width:391px;height:108px;background:#FFFFFF;" version="1.1" viewBox="0 0 391 108" width="391px" zoomAndPan="magnify"><defs/><g><text fill="#000000" font-family="Serif" font-size="10" lengthAdjust="spacing" textLength="13" x="25" y="25.2822">21</text><text fill="#000000" font-family="Serif" font-size="10" lengthAdjust="spacing" textLength="12" x="53" y="25.2822">22</text><text fill="#000000" font-family="Serif" font-size="10" lengthAdjust="spacing" textLength="13" x="81" y="25.2822">23</text><text fill="#000000" font-family="Serif" font-size="10" lengthAdjust="spacing" textLength="13" x="109" y="25.2822">24</text><text fill="#000000" font-family="Serif" font-size="10" lengthAdjust="spacing" textLength="12" x="137" y="25.2822">25</text><text fill="#000000" font-family="Serif" font-size="10" lengthAdjust="spacing" textLength="13" x="165" y="25.2822">26</text><text fill="#000000" font-family="Serif" font-size="10" lengthAdjust="spacing" textLength="13" x="193" y="25.2822">27</text><text fill="#000000" font-family="Serif" font-size="10" lengthAdjust="spacing" textLength="13" x="221" y="25.2822">28</text><text fill="#000000" font-family="Serif" font-size="10" lengthAdjust="spacing" textLength="13" x="249" y="25.2822">29</text><line style="stroke:#C0C0C0;stroke-width:1.0;" x1="20" x2="20" y1="16" y2="90.6094"/><line style="stroke:#C0C0C0;stroke-width:1.0;" x1="48" x2="48" y1="16" y2="90.6094"/><line style="stroke:#C0C0C0;stroke-width:1.0;" x1="76" x2="76" y1="16" y2="90.6094"/><line style="stroke:#C0C0C0;stroke-width:1.0;" x1="104" x2="104" y1="16" y2="90.6094"/><line style="stroke:#C0C0C0;stroke-width:1.0;" x1="132" x2="132" y1="16" y2="90.6094"/><line style="stroke:#C0C0C0;stroke-width:1.0;" x1="160" x2="160" y1="16" y2="90.6094"/><line style="stroke:#C0C0C0;stroke-width:1.0;" x1="188" x2="188" y1="16" y2="90.6094"/><line style="stroke:#C0C0C0;stroke-width:1.0;" x1="216" x2="216" y1="16" y2="90.6094"/><line style="stroke:#C0C0C0;stroke-width:1.0;" x1="244" x2="244" y1="16" y2="90.6094"/><line style="stroke:#C0C0C0;stroke-width:1.0;" x1="256" x2="256" y1="16" y2="90.6094"/><line style="stroke:#C0C0C0;stroke-width:1.0;" x1="0" x2="0" y1="0" y2="16"/><line style="stroke:#C0C0C0;stroke-width:1.0;" x1="52" x2="52" y1="0" y2="16"/><text fill="#000000" font-family="Serif" font-size="12" font-weight="bold" lengthAdjust="spacing" textLength="29" x="11.5" y="11.2676">May</text><line style="stroke:#C0C0C0;stroke-width:1.0;" x1="172" x2="172" y1="0" y2="16"/><text fill="#000000" font-family="Serif" font-size="12" font-weight="bold" lengthAdjust="spacing" textLength="62" x="81" y="11.2676">Jun 2021</text><line style="stroke:#C0C0C0;stroke-width:1.0;" x1="256" x2="256" y1="0" y2="16"/><text fill="#000000" font-family="Serif" font-size="12" font-weight="bold" lengthAdjust="spacing" textLength="59" x="184.5" y="11.2676">Jul 2021</text><line style="stroke:#C0C0C0;stroke-width:1.0;" x1="0" x2="256" y1="0" y2="0"/><line style="stroke:#C0C0C0;stroke-width:1.0;" x1="0" x2="256" y1="16" y2="16"/><line style="stroke:#C0C0C0;stroke-width:1.0;" x1="0" x2="256" y1="29" y2="29"/><polygon fill="#000000" points="2,31,7,36,2,41,-3,36" style="stroke:#000000;stroke-width:1.0;"/><rect fill="#FEFECE" height="12.8047" style="stroke:none;stroke-width:1.0;" width="216" x="6" y="45"/><line style="stroke:#A80036;stroke-width:1.0;" x1="6" x2="222" y1="45" y2="45"/><line style="stroke:#A80036;stroke-width:1.0;" x1="6" x2="222" y1="57.8047" y2="57.8047"/><line style="stroke:#A80036;stroke-width:1.0;" x1="6" x2="6" y1="45" y2="57.8047"/><line style="stroke:#A80036;stroke-width:1.0;" x1="222" x2="222" y1="45" y2="57.8047"/><rect fill="#FEFECE" height="12.8047" style="stroke:none;stroke-width:1.0;" width="216" x="6" y="61.8047"/><line style="stroke:#A80036;stroke-width:1.0;" x1="6" x2="222" y1="61.8047" y2="61.8047"/><line style="stroke:#A80036;stroke-width:1.0;" x1="6" x2="222" y1="74.6094" y2="74.6094"/><line style="stroke:#A80036;stroke-width:1.0;" x1="6" x2="6" y1="61.8047" y2="74.6094"/><line style="stroke:#A80036;stroke-width:1.0;" x1="222" x2="222" y1="61.8047" y2="74.6094"/><polygon fill="#000000" points="226,78.6094,231,83.6094,226,88.6094,221,83.6094" style="stroke:#000000;stroke-width:1.0;"/><polygon fill="#000000" points="254,31,259,36,254,41,249,36" style="stroke:#000000;stroke-width:1.0;"/><rect fill="#FEFECE" height="12.8047" style="stroke:none;stroke-width:1.0;" width="20" x="230" y="45"/><line style="stroke:#A80036;stroke-width:1.0;" x1="230" x2="250" y1="45" y2="45"/><line style="stroke:#A80036;stroke-width:1.0;" x1="230" x2="250" y1="57.8047" y2="57.8047"/><line style="stroke:#A80036;stroke-width:1.0;" x1="230" x2="230" y1="45" y2="57.8047"/><line style="stroke:#A80036;stroke-width:1.0;" x1="250" x2="250" y1="45" y2="57.8047"/><text fill="#000000" font-family="sans-serif" font-size="11" lengthAdjust="spacing" textLength="125" x="10" y="39.8081">Zwischenpräsentation</text><text fill="#000000" font-family="sans-serif" font-size="11" lengthAdjust="spacing" textLength="90" x="10" y="55.2104">Implementation</text><text fill="#000000" font-family="sans-serif" font-size="11" lengthAdjust="spacing" textLength="87" x="10" y="72.0151">Dokumentation</text><text fill="#000000" font-family="sans-serif" font-size="11" lengthAdjust="spacing" textLength="135" x="234" y="87.4175">Abgabe Dokumentation</text><text fill="#000000" font-family="sans-serif" font-size="11" lengthAdjust="spacing" textLength="127" x="262" y="39.8081">Abschlusspräsentation</text><text fill="#000000" font-family="sans-serif" font-size="11" lengthAdjust="spacing" textLength="74" x="254" y="55.2104">Vorbereitung</text><line style="stroke:#C0C0C0;stroke-width:1.0;" x1="0" x2="256" y1="90.6094" y2="90.6094"/><line style="stroke:#C0C0C0;stroke-width:1.0;" x1="0" x2="0" y1="90.6094" y2="106.6094"/><line style="stroke:#C0C0C0;stroke-width:1.0;" x1="52" x2="52" y1="90.6094" y2="106.6094"/><text fill="#000000" font-family="Serif" font-size="12" font-weight="bold" lengthAdjust="spacing" textLength="29" x="11.5" y="101.877">May</text><line style="stroke:#C0C0C0;stroke-width:1.0;" x1="172" x2="172" y1="90.6094" y2="106.6094"/><text fill="#000000" font-family="Serif" font-size="12" font-weight="bold" lengthAdjust="spacing" textLength="62" x="81" y="101.877">Jun 2021</text><line style="stroke:#C0C0C0;stroke-width:1.0;" x1="256" x2="256" y1="90.6094" y2="106.6094"/><text fill="#000000" font-family="Serif" font-size="12" font-weight="bold" lengthAdjust="spacing" textLength="59" x="184.5" y="101.877">Jul 2021</text><line style="stroke:#C0C0C0;stroke-width:1.0;" x1="0" x2="256" y1="106.6094" y2="106.6094"/><!--MD5=[757679d076efd686337dff7be4f750c6]
@startgantt "Gantt Diagramm Part 2"
Project starts the 2021-05-19
printscale weekly

[Zwischenpräsentation] happens at 2021-05-19
[Implementation] starts at 2021-05-20
[Dokumentation] starts at 2021-05-20
[Abgabe Dokumentation] happens at 2021-07-14
[Abschlusspräsentation] happens at 2021-07-21
[Vorbereitung] starts at 2021-07-15

[Abschlusspräsentation] displays on same row as [Zwischenpräsentation]

[Vorbereitung] displays on same row as [Implementation]

[Implementation] lasts 55 days
[Dokumentation] lasts 55 days
[Vorbereitung] lasts 6 days
@endgantt

PlantUML version 1.2021.7beta2(Unknown compile time)
(GPL source distribution)
Java Runtime: Java(TM) SE Runtime Environment
JVM: Java HotSpot(TM) 64-Bit Server VM
Default Encoding: UTF-8
Language: en
Country: US
--></g></svg>